<svg width="210mm" height="210mm" version="1.1" viewBox="0 0 210 210" xmlns="http://www.w3.org/2000/svg">
 <circle cx="105" cy="104.95" r="93.12" fill="#800080" style="-inkscape-stroke:none"/>
 <path d="m151.41 148.78 10.993 13.025-1.9118 13.229-29.441 6.8058-7.8-18.582zm-92.825 0-10.993 13.025 1.9118 13.229 29.441 6.8058 7.8-18.582z" fill="#ffffff" style="-inkscape-stroke:none"/>
 <path d="m119.04 155.64 3.5267 8.0737 14.071-3.8235zm-28.077 0-3.5267 8.0737-14.071-3.8235z" fill="#ffffff" style="-inkscape-stroke:none"/>
 <path d="m132.55 82.333 47.976 35.807 0.76471 10.859-6.7294 7.0353s-38.929 4.8582-38.961 4.2562c-0.0317-0.60205-3.0504-57.957-3.0504-57.957zm-55.107 0-47.976 35.807-0.76471 10.859 6.7294 7.0353s38.929 4.8582 38.961 4.2562c0.03173-0.60205 3.0504-57.957 3.0504-57.957z" fill="#ffffff" style="-inkscape-stroke:none"/>
 <path d="m116.73 55.498 10.272 10.183 5.3529 12.847 4.2823 81.364-6.2706-1.0706zm-23.456 0-10.272 10.183-5.3529 12.847-4.2823 81.364 6.2706-1.0706z" fill="#ffffff" style="-inkscape-stroke:none"/>
 <path d="m107.93 152.52 22.439 6.2989-14.22-107.74zm-5.8527 0-22.439 6.2989 14.22-107.74z" fill="#ffffff" style="-inkscape-stroke:none"/>
 <path d="m105 17.358 11.145 33.724-8.219 101.44-2.9264-0.89618zm0 0-11.145 33.724 8.219 101.44 2.9264-0.89618z" fill="#ffffff" style="-inkscape-stroke:none"/>
 <path d="m105 30.09c3.1912 0.3156 3.8439 6.339 5.63 9.5829 0.97427 4.1386 1.4394 7.6293 1.6222 10.76-0.0161 4.3146 0.19996 7.2356 0.37851 10.382 0.53362 3.0771 1.3846 5.202 2.0993 7.736 2.457 5.0753 3.1515 4.9467 4.6966 7.3924 5.5403 8.5124 9.2525 11.845 13.699 17.258 7.9758 7.2525 19.121 15.81 23.851 21.726 2.91 4.2573 2.8093 9.1849-13 15.294-6.4635 2.1737-11.091 5.6584-16.228 8.7803-3.4614 1.6368-6.9228 4.0617-10.384 7.1256-3.9645 3.7458-7.4974 6.1046-9.4387 6.3951l-2.9264-0.89618zm0 0c-3.1912 0.3156-3.8439 6.339-5.63 9.5829-0.97427 4.1386-1.4395 7.6293-1.6222 10.76 0.0161 4.3146-0.19996 7.2356-0.37851 10.382-0.53362 3.0771-1.3846 5.202-2.0993 7.736-2.457 5.0753-3.1515 4.9467-4.6966 7.3924-5.5403 8.5124-9.2525 11.845-13.699 17.258-7.9758 7.2525-19.121 15.81-23.851 21.726-2.91 4.2573-2.8093 9.1849 13 15.294 6.4635 2.1737 11.091 5.6584 16.228 8.7803 3.4614 1.6368 6.9228 4.0617 10.384 7.1256 3.9645 3.7458 7.4974 6.1046 9.4387 6.3951l2.9264-0.89618z" fill="#800080" style="-inkscape-stroke:none"/>
 <path d="m136.64 159.89 18.506-13.918-0.76471-18.506-20.444-18.927zm-63.271 0-18.506-13.918 0.76471-18.506 20.444-18.927z" fill="#ffffff" style="-inkscape-stroke:none"/>
 <path d="m105 46.054c2.6582 0.41201 3.1519 2.2142 4.5485 3.731 0.27615-2.6016 0.59845-5.1126 0.40555-7.9487-0.54969-2.7698-0.9118-4.4289-1.9196-6.5969-2.0414-2.756-2.0063-2.5294-3.0345-2.6766zm0 0c-2.6582 0.41201-3.1519 2.2142-4.5486 3.731-0.27614-2.6016-0.59844-5.1126-0.40554-7.9487 0.54969-2.7698 0.91179-4.4289 1.9196-6.5969 2.0414-2.756 2.0063-2.5294 3.0345-2.6766z" fill="#ffffff" style="-inkscape-stroke:none"/>
 <path transform="matrix(.38022 .16526 -.16526 .38022 101.95 9.2716)" d="m161.78 253.77-47.172-10.436-23.24 41.785-4.652-48.089-46.922-9.1899 44.297-19.285-5.7595-47.465 32.029 36.17 43.362-20.145-24.502 41.639z" fill="#f9f9f9" style="-inkscape-stroke:none"/>
 <path d="m151.41 148.78 10.993 13.025-1.9118 13.229-29.441 6.8058-7.8-18.582zm-92.825 0-10.993 13.025 1.9118 13.229 29.441 6.8058 7.8-18.582z" fill="none" style="-inkscape-stroke:none"/>
 <path d="m119.04 155.64 3.5267 8.0737 14.071-3.8235zm-28.077 0-3.5267 8.0737-14.071-3.8235z" fill="none" style="-inkscape-stroke:none"/>
 <path d="m132.55 82.333 47.976 35.807 0.76471 10.859-6.7294 7.0353s-38.929 4.8582-38.961 4.2562c-0.0317-0.60205-3.0504-57.957-3.0504-57.957zm-55.107 0-47.976 35.807-0.76471 10.859 6.7294 7.0353s38.929 4.8582 38.961 4.2562c0.03173-0.60205 3.0504-57.957 3.0504-57.957z" fill="none" style="-inkscape-stroke:none"/>
 <path d="m116.73 55.498 10.272 10.183 5.3529 12.847 4.2823 81.364-6.2706-1.0706zm-23.456 0-10.272 10.183-5.3529 12.847-4.2823 81.364 6.2706-1.0706z" fill="none" style="-inkscape-stroke:none"/>
 <path d="m107.93 152.52 22.439 6.2989-14.22-107.74zm-5.8527 0-22.439 6.2989 14.22-107.74z" fill="none" style="-inkscape-stroke:none"/>
 <path d="m104.89 17.341 11.26 33.741-8.219 101.44-3.0281-0.86518zm0.22918 0-11.26 33.741 8.219 101.44 3.0281-0.86518z" fill="none" style="-inkscape-stroke:none"/>
 <path d="m136.64 159.89 18.506-13.918-0.76471-18.506-20.444-18.927zm-63.271 0-18.506-13.918 0.76471-18.506 20.444-18.927z" fill="none" style="-inkscape-stroke:none"/>
 <path d="m105 46.054c2.6582 0.41201 3.1519 2.2142 4.5485 3.731 0.27615-2.6016 0.59845-5.1126 0.40555-7.9487-0.54969-2.7698-0.9118-4.4289-1.9196-6.5969-2.0414-2.756-2.0063-2.5294-3.0345-2.6766zm0 0c-2.6582 0.41201-3.1519 2.2142-4.5486 3.731-0.27614-2.6016-0.59844-5.1126-0.40554-7.9487 0.54969-2.7698 0.91179-4.4289 1.9196-6.5969 2.0414-2.756 2.0063-2.5294 3.0345-2.6766z" fill="none" style="-inkscape-stroke:none"/>
 <g transform="matrix(1.2019 0 0 1.2019 -21.199 -18.131)">
  <path d="m143.62 138.87 9.1467 10.837-1.5906 11.007-24.496 5.6626-6.4897-15.461z" fill="#000000" opacity=".2" style="-inkscape-stroke:none"/>
  <path d="m116.68 144.58 2.9342 6.7175 11.707-3.1812z" fill="#000000" opacity=".3" style="-inkscape-stroke:none"/>
  <path d="m127.92 83.587 39.917 29.792 0.63625 9.0347-5.599 5.8535s-32.39 4.0421-32.416 3.5412c-0.0264-0.50091-2.538-48.221-2.538-48.221z" fill="#000000" opacity=".2" style="-inkscape-stroke:none"/>
  <path d="m114.76 61.26 8.5466 8.4726 4.4537 10.689 3.563 67.697-5.2172-0.89074z" fill="#000000" opacity=".2" style="-inkscape-stroke:none"/>
  <path d="m107.43 141.99 18.669 5.2408-11.831-89.641z" fill="none" style="-inkscape-stroke:none"/>
  <path d="m105 29.52 9.2732 28.059-6.8384 84.4-2.4348-0.74564z" fill="#1a1a1a" opacity=".3" style="-inkscape-stroke:none"/>
  <path d="m131.32 148.12 15.397-11.58-0.63625-15.397-17.01-15.748z" fill="#ffffff" style="-inkscape-stroke:none"/>
  <path d="m131.32 148.12 2.9267-7.5077 6.9987-5.7262c1.5682-2.2182 1.8638-3.3892 1.8312-4.2416l-0.43144-6.1929c-0.49419-1.5207-1.5304-2.6855-2.8625-3.7883l-6.6812-5.8826-4.0302-9.3852 2.2487 42.724" fill="#800080" style="-inkscape-stroke:none"/>
  <path d="m105 53.402c2.2116 0.3428 2.6224 1.8423 3.7845 3.1043 0.22976-2.1646 0.49792-4.2537 0.33742-6.6134-0.45735-2.3045-0.75863-3.6849-1.5971-5.4887-1.6985-2.293-1.6693-2.1045-2.5248-2.227z" fill="none" style="-inkscape-stroke:none"/>
  <path d="m66.384 138.87-9.1467 10.837 1.5906 11.007 24.496 5.6626 6.4897-15.461z" fill="none" opacity=".2" style="-inkscape-stroke:none"/>
  <path d="m93.32 144.58-2.9342 6.7175-11.707-3.1812z" fill="#000000" opacity=".3" style="-inkscape-stroke:none"/>
  <path d="m82.075 83.587-39.917 29.792-0.63625 9.0347 5.599 5.8535s32.39 4.0421 32.416 3.5412c0.0264-0.50091 2.538-48.221 2.538-48.221z" fill="none" opacity=".2" style="-inkscape-stroke:none"/>
  <path d="m95.242 61.26-8.5466 8.4726-4.4537 10.689-3.563 67.697 5.2172-0.89074z" fill="none" opacity=".2" style="-inkscape-stroke:none"/>
  <path d="m102.57 141.99-18.669 5.2408 11.831-89.641z" fill="#000000" opacity=".2" style="-inkscape-stroke:none"/>
  <path d="m104.9 29.513-9.1778 28.073 6.8384 84.4 2.5194-0.71984z" fill="none" style="-inkscape-stroke:none"/>
  <path d="m78.679 148.12-2.9267-7.5077-6.9987-5.7262c-1.5682-2.2182-1.8638-3.3892-1.8312-4.2416l0.43144-6.1929c0.49419-1.5207 1.5304-2.6855 2.8625-3.7883l6.6812-5.8826 4.0302-9.3852-2.2487 42.724" fill="#800080" style="-inkscape-stroke:none"/>
  <path d="m78.679 148.12-15.397-11.58 0.63625-15.397 17.01-15.748z" fill="#000000" opacity=".2" style="-inkscape-stroke:none"/>
  <path d="m105 53.402c-2.2116 0.3428-2.6224 1.8423-3.7845 3.1043-0.22976-2.1646-0.49792-4.2537-0.33742-6.6134 0.45735-2.3045 0.75863-3.6849 1.5971-5.4887 1.6985-2.293 1.6693-2.1045 2.5248-2.227z" fill="none" style="-inkscape-stroke:none"/>
 </g>
</svg>
