<svg version="1.0" viewBox="0 0 650 292" xmlns="http://www.w3.org/2000/svg">
 <rect y="82" width="650" height="124" color="black" fill="#002664" fill-rule="evenodd"/>
 <rect x="22" y="105" width="608" height="79" color="black" fill="white" fill-rule="evenodd"/>
 <path transform="matrix(.98158 0 0 .98158 -9.8432 6.0639)" d="m493.94 142.56a148.74 148.74 0 1 1-297.48 0 148.74 148.74 0 1 1 297.48 0z" color="black" fill="#002664" fill-rule="evenodd"/>
 <g transform="matrix(.39744 0 0 .40831 203.58 7.166)">
  <g fill-rule="evenodd">
   <path d="m316.55 495-91.867-272.76 90.954-212.86z" color="#000000" fill="#006127"/>
   <path d="m316.55 495-0.91325-485.62 86.915 210.96z" color="#000000" fill="#f8c300"/>
   <path d="m633.11 241.06-173.77 147.85-287.8 3.0834 231.02-171.66z" color="#000000" fill="#f8c300"/>
   <path d="m633.11 241.06-461.57 150.93 231.02-171.66z" color="#000000" fill="#006127"/>
   <path d="m510.87 614.58-194.31-119.58-91.867-272.76z" color="#000000" fill="#f8c300"/>
   <path d="m459.33 388.91 51.534 225.67-286.18-392.34z" color="#000000" fill="#006127"/>
   <g transform="translate(-.00026219 -.00085268)">
    <path d="m316.55 495-198.7 118.75 284.7-393.41z" color="#000000" fill="#006127"/>
    <path d="m117.85 613.75 53.681-221.76 231.02-171.66z" color="#000000" fill="#f8c300"/>
   </g>
   <path d="m459.33 388.91-462.14-149.2 227.49-17.472z" color="#000000" fill="#f8c300"/>
   <path d="m459.33 388.91-287.8 3.0834-174.34-152.28z" color="#000000" fill="#006127"/>
   <circle cx="315.47" cy="343.7" r="176.1" color="#000000" fill="#ffffff"/>
   <path d="m454.84 343.7c0 76.972-62.398 139.37-139.37 139.37-76.972 0-139.37-62.398-139.37-139.37 0-76.972 62.398-139.37 139.37-139.37 76.972 0 139.37 62.398 139.37 139.37z" color="#000000" fill="#002664"/>
  </g>
 </g>
 <g transform="matrix(1.3956 0 0 1.4375 147.11 -17.714)" fill="#ffffff" fill-rule="evenodd">
  <polygon points="153.01 98.49 153.01 98.49 153.44 95.886 155.25 97.817 157.87 97.408 156.59 99.724 157.77 102.08 155.19 101.59 153.31 103.45 152.98 100.83 150.63 99.621"/>
  <polygon points="100.34 110.66 100.34 110.66 100.77 108.06 102.58 109.99 105.2 109.58 103.92 111.9 105.11 114.25 102.52 113.77 100.64 115.62 100.31 113 97.957 111.79"/>
  <polygon points="118.56 115.88 118.56 115.88 118.95 113.52 120.59 115.27 122.96 114.9 121.8 117 122.87 119.12 120.53 118.69 118.84 120.36 118.53 118 116.4 116.9"/>
  <polygon points="135.86 138.92 135.86 138.92 136.73 134.2 139.96 137.77 144.73 137.11 142.34 141.28 144.42 145.61 139.72 144.64 136.25 147.96 135.72 143.18 131.48 140.91"/>
  <polygon points="120.05 86.885 120.05 86.885 120.7 82.953 123.43 85.87 127.38 85.251 125.46 88.751 127.24 92.306 123.34 91.573 120.5 94.375 120 90.422 116.44 88.594"/>
 </g>
</svg>
