<svg version="1.1" viewBox="0 0 1811.6 720.33" xmlns="http://www.w3.org/2000/svg">
 <g transform="translate(0 -402.19)">
  <path d="m1 707.57h466.35l41.291 30 166.92 180-9.748 30h-664.82z" fill="#ffde00" style="paint-order:stroke fill markers"/>
  <path d="m31 737.57 477.64-2e-4 182.36 132.49-15.436 47.508h-644.56z" fill="#de2910" style="paint-order:stroke fill markers"/>
  <path d="m1810.6 707.57h-466.35l-41.291 30-166.92 180 9.7481 30h664.82z" fill="#ffde00" style="paint-order:stroke fill markers"/>
  <path d="m1780.6 737.57-477.64-2e-4 -182.36 132.49 15.436 47.508h644.56z" fill="#de2910" style="paint-order:stroke fill markers"/>
  <path d="m1283.4 677.57-611.05 443.95 233.4-718.33 233.4 718.33-611.05-443.95" fill="#ffde00"/>
  <path d="m1191.1 707.57-461.65 335.41 176.34-542.7 176.34 542.7-461.65-335.41" fill="#de2910"/>
  <path d="m826.17 829.76c41.592-6.6206 58.245-37.852 60.653-63.283l-32.064-0.018c-7.6643 36.41-18.669 45.352-28.589 63.3z" fill="#ffde00"/>
  <path d="m840.92 731.08c1.3411 9.2219 1.8922 13.372 5.5333 22.594h84.383c0.56195 29.844 18.821 55.911 38.733 76.08l22.594-24.899c-19.779-21.112-39.454-29.452-36.889-57.176l10.088-9.1148-24.951-23.106-20.182 15.621z" fill="#ffde00"/>
  <path d="m831.7 862.03h115.28l17.578-15.947 17.466 18.714-23.978 17.522h-116.2c-5.1392-3.3896-7.4974-10.877-10.144-20.288z" fill="#ffde00"/>
 </g>
</svg>
