<svg id="svg822" version="1.1" viewBox="0 0 1811.6 720.33" xmlns="http://www.w3.org/2000/svg">
 <g id="layer1" transform="translate(0 -402.19)" fill="#b4b4b4">
  <path id="path872" d="m1 707.57h466.35l41.291 30-477.64 1e-4v180h644.56l-9.748 30h-664.82z" style="paint-order:stroke fill markers"/>
  <path id="path1008" d="m1810.6 707.57h-466.35l-41.291 30 477.64 1e-4v180h-644.56l9.7481 30h664.82z" style="paint-order:stroke fill markers"/>
  <path id="path3793" d="m826.17 829.76c41.592-6.6206 58.245-37.852 60.653-63.283l-32.064-0.018c-7.6643 36.41-18.669 45.352-28.589 63.3z"/>
  <path id="path3795" d="m840.92 731.08c1.3411 9.2219 1.8922 13.372 5.5333 22.594h84.383c0.56195 29.844 18.821 55.911 38.733 76.08l22.594-24.899c-19.779-21.112-39.454-29.452-36.889-57.176l10.088-9.1148-24.951-23.106-20.182 15.621z"/>
  <path id="path3797" d="m831.7 862.03h115.28l17.578-15.947 17.466 18.714-23.978 17.522h-116.2c-5.1392-3.3896-7.4974-10.877-10.144-20.288z"/>
  <path id="path4-0" d="m1139.2 1121.5-89.15-274.38 233.4-169.57-288.5-9.6e-4 -89.151-274.38-89.151 274.38-288.5-4.1e-4 233.4 169.58-89.151 274.38 233.4-169.57zm-57.064-78.542-176.33-128.11-176.34 128.11 67.354-207.29-176.34-128.12 217.96-1.3e-4 67.354-207.29 67.354 207.29 217.96 9.7e-4 -176.34 128.12z"/>
 </g>
</svg>
