<svg id="svg2" version="1.0" viewBox="0 0 233.56 296.44" xmlns="http://www.w3.org/2000/svg">
 <g id="g3017" transform="translate(-119 -98.609)">
  <path id="path5126" d="m235.77 98.609c-16.507 0-29.904 13.397-29.904 29.904 0 16.507 13.397 29.904 29.904 29.904s29.904-13.397 29.904-29.904-13.397-29.904-29.904-29.904zm0 9.3034c11.371 0 20.6 9.229 20.6 20.6s-9.229 20.6-20.6 20.6c-11.371 0-20.6-9.229-20.6-20.6 0-11.371 9.229-20.6 20.6-20.6z" fill="#000000"/>
  <path id="path8682" transform="translate(81.22 97.098)" d="m147.56 47.656-0.875 18.781-42.344-0.1875v11.344l41.625-0.3125-0.03125 0.71875c1.865-0.11348 3.7314-0.1875 5.625-0.1875 0.98898 0 1.9873 0.03133 2.9688 0.0625l-0.03125-30.219h-6.9375zm7.0938 0v30.219c2.8907 0.09571 5.7458 0.32945 8.5625 0.6875l-0.0625-1.2812 41.625 0.3125v-11.344l-42.312 0.1875-0.875-18.781h-6.9375zm116.34 152.59-28.812 23.875 6.5625 4.3438s-15.237 26.225-61 30.25c-4.5261 0.39812-7.8117-0.39666-10.219-1.7812-7.2724 2.1505-14.908 3.4205-22.812 3.6875v37s4.6958-5.9458 11.594-9.375c15.884-7.8874 30.763-8.593 55.219-18.469 27.17-11.98 38.938-33.188 38.938-33.188l6.5 4.1875 4.0312-40.531zm-116.28 97.375-0.0312-37c-1.0331 0.0346-2.0835 0.0625-3.125 0.0625-7.6748 0-15.127-0.93765-22.25-2.7188-2.0989 0.71183-4.7142 1.0335-7.9375 0.75-45.763-4.0253-61-30.25-61-30.25l6.5937-4.3438-28.844-23.844 4.0312 40.5 6.5-4.1562c0-1e-5 11.767 21.177 38.938 33.156 24.455 9.8758 39.334 10.581 55.219 18.469 6.898 3.4292 11.906 9.375 11.906 9.375z" fill="#000000" fill-rule="evenodd" stroke="#000000" stroke-linejoin="round" stroke-width=".66453px"/>
  <path id="path2995" transform="matrix(.83506 0 0 .84289 142.59 175.81)" d="m218.98 108.88a109.49 108.47 0 1 1-218.98 0 109.49 108.47 0 1 1 218.98 0z" fill="none" stroke="#000000" stroke-linecap="square" stroke-width="3.1297"/>
  <path id="path3767" transform="matrix(.73492 0 0 .74209 352.89 198.29)" d="m-93.558 94.984a70.169 69.491 0 1 1-140.34 0 70.169 69.491 0 1 1 140.34 0z" fill="none" stroke="#000000" stroke-linecap="square" stroke-width="3.5317"/>
  <path id="path3771" d="m188.64 241.78 87.697 0.22943-0.90392-0.0123" fill="none" stroke="#000000" stroke-width="2.709"/>
  <path id="path3773" d="m233.59 358.15-0.33891-38.435" fill="none" stroke="#000000" stroke-width="2.5533"/>
  <path id="path3779" d="m216.08 263.22-0.22455 0.10604 17.32 15.83 16.96-16.486z" fill="#ffffff" stroke-width="0"/>
  <path id="path3031" d="m142.47 269.38h182.54" fill="none" stroke="#000000" stroke-width="2.6246"/>
  <path id="path3803" transform="matrix(3.2884 0 0 3.2791 409.97 149.9)" d="m-49.198 42.773-4.4136-3.4497-4.1904 3.3769 1.8314-5.1206-4.5553-3.0579 5.3884 0.19063 1.5011-5.2201 1.6535 5.1676 5.4326-0.10562-4.495 2.9925z" fill="#ffffff"/>
  <path id="path3777" transform="matrix(2.4784 0 0 2.4713 366.58 179.39)" d="m-49.198 42.773-4.4136-3.4497-4.1904 3.3769 1.8314-5.1206-4.5553-3.0579 5.3884 0.19063 1.5011-5.2201 1.6535 5.1676 5.4326-0.10562-4.495 2.9925z" fill="#000000"/>
 </g>
</svg>
