<svg id="svg3222" version="1.1" viewBox="0 0 216.78 318" xmlns="http://www.w3.org/2000/svg">
 <defs id="defs3224">
  <pattern id="pattern3310" width="216.78272" height="318.00002" patternTransform="translate(331.61 561.93)" patternUnits="userSpaceOnUse">
   <rect id="rect3197" width="216.78" height="318" fill="none"/>
   <g id="g3045" transform="translate(254.44 -151.02)">
    <path id="path3047" transform="translate(33.955 154.93)" d="m-180-3.9062c-11.046 0-20 8.9543-20 20 0 8.5179 5.3412 15.773 12.844 18.656l-0.34375 8.3438h-43.031c-2.5309-3.6193-6.7172-6-11.469-6-7.732 0-14 6.268-14 14 0 7.732 6.268 14 14 14 4.7592 0 8.9392-2.3708 11.469-6h42.406l-7.5938 188.12s-0.0546 18.828-14.906 16.969c-40.802-5.1092-53.406-34.906-53.406-34.906l18.5-1c-11.532-6.4709-27.702-20.742-42.25-40.188-2.0179 42.535 0.7157 56.261 12.031 81.094l3.875-22.844c0-1e-5 6.9314 16.669 31.156 31.875 21.804 12.535 35.056 13.395 49.219 23.406 6.1502 4.3526 11.5 12.469 11.5 12.469s5.3498-8.1161 11.5-12.469c14.162-10.011 27.415-10.871 49.219-23.406 24.225-15.206 31.156-31.875 31.156-31.875l3.875 22.844c11.316-24.833 14.049-38.558 12.031-81.094-14.548 19.446-30.718 33.717-42.25 40.188l18.5 1s-12.605 29.797-53.406 34.906c-14.852 1.8598-14.906-16.969-14.906-16.969l-7.5938-188.12h42.406c2.5296 3.6292 6.7095 6 11.469 6 7.732 0 14-6.268 14-14 0-7.732-6.268-14-14-14-4.7515 0-8.9378 2.3807-11.469 6h-43.031l-0.34375-8.3438c7.5025-2.8833 12.844-10.138 12.844-18.656 0-11.046-8.9543-20-20-20zm0 8c6.6274 0 12 5.3726 12 12 0 6.6274-5.3726 12-12 12-6.6274 0-12-5.3726-12-12 0-6.6274 5.3726-12 12-12z" fill="#000000" fill-rule="evenodd"/>
   </g>
   <rect id="rect3212" x="18" y="70" width="180" height="180" fill="none"/>
   <path id="path3296" d="m108 70c-49.706 0-90 40.294-90 90 0 49.706 40.294 90 90 90 49.706 0 90-40.294 90-90 0-49.706-40.294-90-90-90z" fill="#fcd116"/>
   <path id="path3298" d="m54 160h-36c0 49.706 40.294 90 90 90v-36c-1.864 0-3.7084-0.0969-5.5238-0.28125-1.8153-0.18436-3.5974-0.46159-5.355-0.82125-1.7576-0.35967-3.4841-0.80158-5.175-1.3275-1.6909-0.52593-3.3461-1.1394-4.9612-1.8225-1.6151-0.68314-3.1947-1.4412-4.725-2.2725-1.5303-0.8313-3.0186-1.7296-4.455-2.7s-2.8178-2.0045-4.1512-3.105c-1.3335-1.1005-2.6147-2.266-3.8362-3.4875s-2.387-2.5028-3.4875-3.8362c-1.1005-1.3335-2.1346-2.7261-3.105-4.1625s-1.88-2.9135-2.7112-4.4438c-0.8313-1.5303-1.5894-3.1099-2.2725-4.725-0.68313-1.6151-1.2853-3.2704-1.8112-4.9612-0.52592-1.6909-0.96783-3.4174-1.3275-5.175-0.35966-1.7576-0.63689-3.5509-0.82125-5.3662-0.18435-1.8153-0.28125-3.6485-0.28125-5.5125z" fill="#003893"/>
   <path id="path3300" d="m108 214v36c49.706 0 90-40.294 90-90h-36c0 1.864-0.0969 3.6972-0.28125 5.5125-0.18436 1.8153-0.46159 3.6086-0.82125 5.3662-0.35967 1.7576-0.80158 3.4841-1.3275 5.175-0.52593 1.6909-1.1281 3.3461-1.8112 4.9612-0.68314 1.6151-1.4412 3.1947-2.2725 4.725-0.8313 1.5303-1.7408 3.0073-2.7112 4.4438s-2.0045 2.829-3.105 4.1625c-1.1005 1.3335-2.266 2.6147-3.4875 3.8362s-2.5028 2.387-3.8362 3.4875c-1.3335 1.1005-2.7148 2.1346-4.1512 3.105s-2.9247 1.8687-4.455 2.7c-1.5303 0.8313-3.1099 1.5894-4.725 2.2725-1.6151 0.68313-3.2704 1.2966-4.9612 1.8225-1.6909 0.52592-3.4174 0.96783-5.175 1.3275-1.7576 0.35966-3.5397 0.63689-5.355 0.82125-1.8153 0.18435-3.6598 0.28125-5.5238 0.28125z" fill="#ce1126"/>
   <path id="path3302" d="m61.279 133c-4.604 7.9486-7.2788 17.153-7.2788 27h108c0-9.8466-2.6747-19.051-7.2788-27h-93.443z" fill="#003893"/>
   <path id="path3304" d="m61.279 133h93.443c-9.3406-16.126-26.745-27-46.721-27-19.977 0-37.381 10.874-46.721 27z" fill="#ce1126"/>
   <rect id="rect3306" x="90" y="142" width="36" height="36" fill="none"/>
   <path id="path3308" d="m108 142 4.0405 12.436h13.083l-10.584 7.6897 4.0414 12.438-10.58-7.6872-10.58 7.6872 4.0414-12.438-10.584-7.6898h13.083z" fill="#ffffff"/>
  </pattern>
 </defs>
 <g id="layer1" transform="translate(-331.61 -561.93)">
  <rect id="rect3323" x="331.61" y="561.93" width="216.78" height="318" fill="url(#pattern3310)"/>
 </g>
</svg>
