<svg id="svg2" version="1.0" viewBox="0 0 300 300" xmlns="http://www.w3.org/2000/svg">
 <g id="g3032" transform="translate(-1.4311)">
  <path id="path2995" transform="matrix(1.3375 0 0 1.35 4.9664 3.461)" d="m218.98 108.88c0 59.908-49.021 108.47-109.49 108.47-60.47 0-109.49-48.565-109.49-108.47 0-59.908 49.021-108.47 109.49-108.47 60.47 0 109.49 48.565 109.49 108.47z" fill="none" stroke="#000" stroke-linecap="square" stroke-width="3.1297"/>
  <path id="path3767" transform="matrix(1.1771 0 0 1.1886 341.8 39.458)" d="m-93.558 94.984c0 38.379-31.416 69.491-70.169 69.491-38.753 0-70.169-31.112-70.169-69.491 0-38.379 31.416-69.491 70.169-69.491 38.753 0 70.169 31.112 70.169 69.491z" fill="none" stroke="#000" stroke-linecap="square" stroke-width="3.5317"/>
  <path id="path3771" d="m78.713 109.11 140.46 0.36746-1.4478-0.0196" fill="none" stroke="#000" stroke-width="4.3389"/>
  <path id="path3773" d="m150.72 295.5-0.54282-61.559" fill="none" stroke="#000" stroke-width="4.0895"/>
  <path id="path3779" d="m122.67 143.46-0.35966 0.16985 27.741 25.355 27.164-26.406z" fill="#fff" stroke="#000" stroke-width="0"/>
  <path id="path3031" d="m4.7663 153.33h292.37" fill="none" stroke="#000" stroke-width="4.2037"/>
  <path id="path3803" transform="matrix(5.2669 0 0 5.252 433.21 -38.04)" d="m-49.198 42.773-4.4136-3.4497-4.1904 3.3769 1.8314-5.1206-4.5553-3.0579 5.3884 0.19063 1.5011-5.2201 1.6535 5.1676 5.4326-0.10562-4.495 2.9925z" fill="#fff"/>
  <path id="path3777" transform="matrix(3.9695 0 0 3.9583 363.72 9.1963)" d="m-49.198 42.773-4.4136-3.4497-4.1904 3.3769 1.8314-5.1206-4.5553-3.0579 5.3884 0.19063 1.5011-5.2201 1.6535 5.1676 5.4326-0.10562-4.495 2.9925z"/>
 </g>
</svg>
