<svg id="svg5" width="210mm" height="297mm" version="1.1" viewBox="0 0 210 297" xmlns="http://www.w3.org/2000/svg" xmlns:xlink="http://www.w3.org/1999/xlink">
 <defs id="defs2">
  <symbol id="n0">
   <path d="m4.9084 0.9202-3.8422 3.9667v23.721l3.8422 4.1233h7.6171l3.8856-4.1233v-23.721l-3.8856-3.9667zm3.3228 5.3981h1.1762l1.789 2.4541v16.052l-1.789 2.1983h-1.1762l-1.8914-2.1983v-16.052z"/>
  </symbol>
  <symbol id="n1">
   <path d="m6.061 0.92011-3.8853 3.9668v3.8853h3.8853v16.052h-2.505v7.9065h12.855v-7.9065h-2.5283v-23.905z"/>
  </symbol>
  <symbol id="n2">
   <path d="m1.0466 4.8487 3.7597-3.9285h7.9751l3.6297 3.9668v10.02l-7.745 9.9178h7.745v7.9065h-15.362l0.0174-7.881 10.284-13.164v-2.914l-1.8404-2.4539h-1.2014l-1.6932 2.4389-5.569 0.02866z"/>
  </symbol>
  <symbol id="n3">
   <path d="m1.0697 4.8614 3.7109-3.9413h7.924l3.7064 3.9668v8.5119l-3.7064 3.3741 3.7064 3.4508v8.6141l-3.7064 3.8934h-7.924l-3.7109-3.7401v-4.1665h5.3468l1.6359 2.5306h1.3292l1.6359-2.5306v-1.8915l-6.2369-6.1602 6.2369-5.9046v-2.096l-1.6359-2.4539h-1.1502l-1.8148 2.4539-5.3468-0.1278z"/>
  </symbol>
  <symbol id="n4">
   <path d="m8.5634 0.9203-7.4697 15.035v4.0902l8.8499 0.07668v7.029h-1.3803v5.6808h7.8476v-5.6808h-1.2273v-6.9525h1.2273v-4.0897h-1.2273v-15.088zm1.3803 6.6508v8.5375h-4.4478z"/>
  </symbol>
  <symbol id="n5">
   <path d="m1.0662 0.92029v15.188h7.9462l2.1727 2.2238v6.4925l-1.7382 2.3261h-1.4059l-1.5592-2.3261h-5.4157v3.9109l4.1376 3.9957h7.2082l3.9989-4.1746v-13.701l-3.8456-4.1154h-6.1602v-4.4221h10.006l1e-5 -5.3983z"/>
  </symbol>
  <symbol id="n6">
   <path d="m5.1683 0.9202-4.1026 3.9667v23.759l4.1026 4.085h7.3747l3.868-4.3015v-10.555l-3.7956-3.7595h-6.1092v-5.3423l1.5751-2.4541h1.4189l1.5607 2.4541h5.3501v-3.8856l-3.868-3.9667zm2.8918 18.689h1.4631l1.5378 2.097v3.1187l-1.4964 2.326h-1.5042l-1.5541-2.326v-3.0825z"/>
  </symbol>
  <symbol id="n7">
   <path d="m1.0662 0.9203 15.345 3e-6 -1e-5 12.044-10.478 19.767-4.8669-0.08483v-5.4957l9.7236-18.378h-9.7236z"/>
  </symbol>
  <symbol id="n8">
   <path d="m4.8061 0.9202-3.7403 3.9667v8.1799l3.7403 3.7062-3.7403 3.5528v8.2822l3.7403 4.1233h7.6683l3.9362-4.1233v-8.2822l-3.9362-3.5528 3.9362-3.7062v-8.1799l-3.9362-3.9667zm3.3998 5.3981h0.86764l1.8671 2.4541v2.0448l-2.3006 2.2495-2.4024-2.2495v-2.0448zm0.43408 14.007 2.3006 2.2495v2.2495l-1.8852 2.1983h-0.94l-1.8779-2.1983v-2.2495z"/>
  </symbol>
  <symbol id="n9">
   <path d="m5.0104 0.9202-3.9445 3.9667v10.889l3.9445 3.374h6.1345v5.6746l-1.7379 2.1983h-1.2273l-1.8402-2.1983h-5.2736v3.7832l3.9445 4.1233h7.5148l3.8856-4.1233v-23.721l-3.8856-3.9667zm3.1693 5.3981h1.2273l1.7379 2.4541v3.2463l-1.7379 2.0702h-1.2273l-1.8402-2.0195v-3.297z"/>
  </symbol>
 </defs>
 <rect id="base" width="210" height="297" fill="#b3b3b3" stop-color="#000000"/>
 <g id="body">
  <path id="mainBody" d="m210.09 281.77-78.138-77.9 8.5245-9.4359 69.59 42.06zm-105.09-104.77 105.12-105.02v-25.71l-38.743-13.838-5.9568-2.066-24.836-12.506-35.59-17.986zm-105.09 104.77 78.138-77.9-8.5245-9.4359-69.59 42.06zm105.09-104.77-105.12-105.02v-25.71l38.743-13.838 5.9568-2.066 24.836-12.506 35.59-17.986z" fill="#ff0000" stop-color="#000000"/>
  <path id="intake" d="m131.96 203.91 0.92373 0.97017 8.5698-9.8547-0.96779-0.58493zm-53.918 0-0.92373 0.97017-8.5698-9.8547 0.96779-0.58493z" fill="#008000" stop-color="#000000"/>
  <path id="wingEdge" d="m180.24 93.12 29.886-32.823-31.814 39.522m-148.55-6.6988-29.886-32.823 31.814 39.522" fill="#ffffff" stop-color="#000000"/>
  <path id="rudderEdge" d="m105 107.5v-96.505l1.3345 0.89464 0.94312 87.933zm0 0v-96.505l-1.3345 0.89464-0.94312 87.933z" fill="#ffffff" stop-color="#000000"/>
  <path id="redderTopEdge" d="m105-0.12807v17.606l3.9743-15.61zm0 0v17.606l-3.9743-15.61z" fill="#ffffff" stop-color="#000000"/>
  <path id="cockpit" d="m111.65 137.17s-3.2209 0.9723-6.6461 0.9723v16.975h1.8386s1.9704-1.8175 2.512-3.0325c0.61081-1.3702 1.0611-3.2653 1.3932-5.2449h-5.7221v-0.91614h5.8673c0.64425-4.3353 0.75706-8.754 0.75706-8.754zm-13.292 0s3.2209 0.9723 6.6461 0.9723v16.975h-1.8386s-1.9704-1.8175-2.512-3.0325c-0.61081-1.3702-1.0611-3.2653-1.3932-5.2449h5.7221v-0.91614h-5.8673c-0.64425-4.3353-0.75706-8.754-0.75706-8.754z" fill="#000000" stop-color="#000000"/>
  <circle id="raidar" cx="105" cy="177" r="13.002" fill="#000000" stop-color="#000000"/>
 </g>
 <g id="decals">
  <g id="numbers" fill="#ffffff">
    <g id="tailNumbers" font-family="'Manrope'" font-size="9.2571px" stroke-width=".37486">
    <text id="number_OnTailL" transform="matrix(.28478 -.91447 1.0135 .25695 0 0)" x="0.055253569" y="115.54601" stop-color="#000000" style="font-variant-caps:normal;font-variant-east-asian:normal;font-variant-ligatures:normal;font-variant-numeric:normal" xml:space="preserve"><tspan x="0.055253569" y="115.54601" font-size="9.2571px" stroke-width=".37486" style="font-variant-caps:normal;font-variant-east-asian:normal;font-variant-ligatures:normal;font-variant-numeric:normal">22</tspan></text>
    <text id="number_OnTailR" transform="matrix(.37223 .8825 -.94023 .45737 0 0)" x="62.292454" y="-72.724571" stop-color="#000000" style="font-variant-caps:normal;font-variant-east-asian:normal;font-variant-ligatures:normal;font-variant-numeric:normal" xml:space="preserve"><tspan x="62.292454" y="-72.724571" font-size="9.2571px" stroke-width=".37486" style="font-variant-caps:normal;font-variant-east-asian:normal;font-variant-ligatures:normal;font-variant-numeric:normal">22</tspan></text>
    </g>
    <g id="numbers">
    <use id="digit_InnerL" transform="rotate(193.14 80.841 37.072)" xlink:href="#n8"/>
    <use id="digit_OuterL" transform="rotate(180.39 88.207 47.871)" xlink:href="#n8"/>
    <use id="digit_OuterR" transform="rotate(179.27 25.461 48.205)" xlink:href="#n1"/>
    <use id="digit_InnerR" transform="rotate(166.61 32.918 48.167)" xlink:href="#n1"/>
    </g>
  </g>
  <g id="roundels">
   <image id="roundel_WingR" transform="rotate(166.41)" x="-11.362" y="-73.831" width="15.187" height="15.187" preserveAspectRatio="xMidYMid" xlink:href="../fe/src/assets/roundels/sweden.svg"/>
   <image id="roundel_WingL" transform="matrix(.97202 .2349 .2349 -.97202 0 0)" x="192.98" y="-24.45" width="15.187" height="15.187" preserveAspectRatio="xMidYMid" xlink:href="../fe/src/assets/roundels/sweden.svg"/>
   <image id="roundel_FrontR" transform="matrix(-.31686 -.94847 -.94847 .31686 0 0)" x="-176.85" y="-47.119" width="5.3602" height="5.3602" preserveAspectRatio="xMidYMid" xlink:href="../fe/src/assets/roundels/sweden.svg"/>
   <image id="roundel_FrontL" transform="rotate(-71.527)" x="-110.31" y="152.07" width="5.3602" height="5.3602" preserveAspectRatio="xMidYMid" xlink:href="../fe/src/assets/roundels/sweden.svg"/>
  </g>
 </g>
 <path id="guide" d="m105 177 105 104.68m0-45.294-69.516-41.92-8.5473 9.4675-11.727 9.7842m42.584-176.25-22.105-19.971m69.311 42.721-46.875 58.529 10.985-77.444 35.89 4.9887m-76.235-32.044-28.765 93.207m35.623-89.742-35.623 118.17m105-14.11-69.971 20.198 31.535-109.54 12.58-32.434m-79.143-0.28564 60.723 30.688 44.277 15.885v25.693m-32.094-71.98-72.906 177 105-105.22m-105 105.22 50.003 120m-50.003-120-105 104.68m0-45.294 69.516-41.92 8.5473 9.4675 11.727 9.7842m-42.584-176.25 22.105-19.971m-69.311 42.721 46.875 58.529-10.985-77.444-35.89 4.9887m76.235-32.044 28.765 93.207m-35.623-89.742 35.623 118.17m-105-14.11 69.971 20.198-31.535-109.54-12.58-32.434m79.143-0.28564-60.723 30.688-44.277 15.885v25.693m32.094-71.98 72.906 177-105-105.22m105 105.22-50.003 120m50.003 0.00648v-297m104.6 177-209.6 0.12999m0-177.13h210v297h-210z" fill="none" opacity=".4" stroke="#000000" stroke-width=".2"/>
</svg>
