<svg id="svg5" width="210mm" height="297mm" version="1.1" viewBox="0 0 210 297" xmlns="http://www.w3.org/2000/svg" xmlns:xlink="http://www.w3.org/1999/xlink">
 <defs id="defs31">
  <symbol id="n0">
   <path d="m3.4894-0.38173-3.5894 3.5894v8.8537h5.6657v-5.3969l1.0966-1.0966h3.7325l1.0557 1.0557v5.4378h6.0074v-8.8537l-3.5894-3.5894zm-3.5894 13.252v15.408l3.5894 3.5894h10.379l3.5894-3.5894v-15.408h-6.0074v11.605l-1.0352 1.0352h-3.9574l-0.89209-0.89209v-11.748z"/>
  </symbol>
  <symbol id="n1">
   <path d="m9.4585-0.38114-1.3951 0.7992-3.3633 5.7393-0.30087 1.1082v1.4652l0.59823 0.61984 1.2601 0.04612 0.51119 0.53046v2.1341h6.0974v-10.862l-1.5809-1.5808zm-2.6897 13.252v17.561l1.4366 1.436h3.2827l1.3782-1.3782v-17.619z"/>
  </symbol>
  <symbol id="n2">
   <path d="m7.4217-0.38115-1.7947 1.7947v2.3602l1.7947 1.7947h4.2536v6.4929h5.7568l-0.0111-9.279-3.1676-3.1635zm-4.0906 13.252-3.5012 3.4831v13.72l1.7947 1.7947h13.998l1.7947-1.7947v-2.7674l-1.7947-1.7947h-8.9361l-1.0592-1.0586v-4.6047l1.2023-1.2023h7.1607l3.4457-3.4498-3e-3 -2.3252z"/>
  </symbol>
  <symbol id="n3">
   <path d="m4.3745-0.38115-1.7947 1.7947v2.3602l1.7947 1.7947h6.0331l1.2169 1.2163v5.2766h5.8409v-8.4231l-4.02-4.0194zm2.7131 13.252-1.3332 1.3332v3.1676l1.2748 1.2742h4.5954v5.8222l-1.0434 1.0434h-8.894l-1.7947 1.7947v2.7674l1.7947 1.7947h11.643l4.1356-4.135v-14.862z"/>
  </symbol>
  <symbol id="n4">
   <path d="m6.5349-0.38115-1.9028 1.4389-3.1115 11.004h6.2452l2.6704-10.99-1.1421-1.4529zm-5.2427 13.252-1.4664 5.1849 0.0362 6.6249 0.83542 0.83075h8.7918v5.3525l1.0043 1.0043h3.5684l1.0913-1.0907v-5.2661h1.5961l0.68645-0.68645v-5.5214l-0.65782-0.65782h-1.6247v-4.8273l-0.94759-0.94759h-3.6823l-1.034 1.0341v4.7409h-3.323l1.4033-5.7749z"/>
  </symbol>
  <symbol id="n5">
   <path d="m16.287-0.37764-12.876 0.04264-3.5374 3.5491v8.8473h5.7714v-6.4929l10.642-0.10107 1.1965-1.2081v-3.4439zm-16.413 13.248v4.9541l0.82081 0.82081h10.875v6.1897l-0.67652 0.67593h-3.9644l-1.1965 1.1965v3.9639l1.1965 1.1965h6.4976l4.0573-4.0568v-13.772l-1.1684-1.1684z"/>
  </symbol>
  <symbol id="n6">
   <path d="m3.7622-0.38231-3.8885 3.8891v8.5499h5.8625v-5.8883l0.94584-0.94583h3.7886l1.3139-1.3139v-2.8954l-1.3957-1.3951zm-3.8885 13.248v15.032l3.9703 3.9703h9.7516l3.8885-3.8885v-11.512l-3.6262-3.6011h-2.4402l-5.6814 0.03968v-0.03968zm7.7484 4.1672h2.3176l1.8449 1.8449v5.4232l-1.5593 1.5593h-2.7668l-1.7222-1.7228v-5.2188z"/>
  </symbol>
  <symbol id="n7">
   <path d="m0.63903-0.43084-0.89735 0.89735v3.8096l0.89735 0.89735h11.095l-1.7392 6.8837h6.0653l1.2292-4.9985 0.19513-1.7684-0.10574-4.8238-0.91662-0.89735zm9.1511 13.297-4.5691 18.082 0.6771 0.87866 4.3898 0.04092 1.1118-0.86288 4.461-18.139z"/>
  </symbol>
  <symbol id="n8">
   <path d="m3.7605-0.38232-3.8447 3.8272-0.03213 7.0088 1.6475 1.6031h14.203l1.7503-1.7503v-7.1069l-3.5818-3.5818zm3.3715 5.6043h3.3598l1.6609 1.6609v2.5892l-1.5318 1.5318h-3.632l-1.5791-1.5785v-2.4811zm-5.2567 7.6438v3.2272l-2.0009 2.0003v10.397l3.3773 3.3773h10.529l3.6437-3.6443v-10.105l-2.0255-2.0255v-3.2272zm5.1545 4.1666h3.5029l1.62 1.62v5.6698l-1.5382 1.5376h-3.6665l-1.5382-1.5376v-5.6698z"/>
  </symbol>
  <symbol id="n9">
   <path d="m3.5863-0.38173-3.7495 3.75v8.6889h17.599v-8.8338l-3.6052-3.6052zm3.3236 5.6043h3.5105l1.4956 1.4956v2.6465l-1.4956 1.4956h-3.5105l-1.4956-1.4956v-2.6465zm-7.073 7.6438v1.1398l3.0274 3.0268h9.0517v8.8274h-5.0061l-1.4956 1.4956v3.0163l1.4956 1.4956h7.2962l3.2295-3.2289v-15.773z"/>
  </symbol>
  <defs>
    <style>
      @font-face {
        font-family: 'Roboto Condensed';
        src: url('../fonts/RobotoCondensed-Regular.ttf');
      }
    </style>
  </defs>
 </defs>
 <g id="body" class="UnoptimicedTransforms">
  <rect id="base" width="210" height="297" fill="#e6e6e6" stop-color="#000000" stroke="#000000" stroke-width=".2"/>
  <path id="mainBody" d="m210.09 281.77-78.138-77.9 8.5245-9.4359 69.59 42.06zm-105.09-104.77 105.12-105.02v-25.71l-38.743-13.838-5.9568-2.066-24.836-12.506-35.59-17.986zm-105.09 104.77 78.138-77.9-8.5245-9.4359-69.59 42.06zm105.09-104.77-105.12-105.02v-25.71l38.743-13.838 5.9568-2.066 24.836-12.506 35.59-17.986z" fill="#999999" stop-color="#000000"/>
  <path id="subBody" d="m157.32 229.34 9.3297-19.094 43.415 26.249 0.0237 45.276zm-52.32-116.12 7.4036-1.8937 19.29 0.86792 31.184 6.9924 47.247-47.205-0.0274-25.42-38.51-14.026-6.1455-2.1999-60.442-30.459zm-52.32 116.12-9.3297-19.094-43.415 26.249-0.0237 45.276zm52.32-116.12-7.4036-1.8937-19.29 0.86792-31.184 6.9924-47.247-47.205 0.0274-25.42 38.51-14.026 6.1455-2.1999 60.442-30.459z" fill="#666666" stop-color="#000000"/>
  <path id="intake" d="m131.96 203.91 0.92373 0.97017 8.5698-9.8547-0.96779-0.58493zm-53.918 0-0.92373 0.97017-8.5698-9.8547 0.96779-0.58493z" fill="#333333" stop-color="#000000"/>
  <path id="cockpit" d="m111.65 137.17s-3.2209 0.9723-6.6461 0.9723v16.975h1.8386s1.9704-1.8175 2.512-3.0325c0.61081-1.3702 1.0611-3.2653 1.3932-5.2449h-5.7221v-0.91614h5.8673c0.64425-4.3353 0.75706-8.754 0.75706-8.754zm-13.292 0s3.2209 0.9723 6.6461 0.9723v16.975h-1.8386s-1.9704-1.8175-2.512-3.0325c-0.61081-1.3702-1.0611-3.2653-1.3932-5.2449h5.7221v-0.91614h-5.8673c-0.64425-4.3353-0.75706-8.754-0.75706-8.754z" fill="#000000" stop-color="#000000"/>
   <circle id="raidar" cx="105" cy="177" r="13.002" fill="#000000" stop-color="#000000"/>
  <path id="wingEdge" d="m180.24 93.12 29.886-32.823-31.814 39.522m-148.55-6.6988-29.886-32.823 31.814 39.522" fill="#ffffff" stop-color="#000000"/>
  <path id="rudderEdge" d="m105 107.5v-96.505l1.3345 0.89464 0.94312 87.933zm0 0v-96.505l-1.3345 0.89464-0.94312 87.933z" fill="#ffffff" stop-color="#000000"/>
  <path id="redderTopEdge" d="m105-0.12807v17.606l3.9743-15.61zm0 0v17.606l-3.9743-15.61z" fill="#ffffff" stop-color="#000000"/>
 </g>
 <g id="decals">
  <g id="tailNumbers" fill="#000000" font-family="'Roboto Condensed'" font-size="9.2571px" stroke-width=".37486">
   <text id="number_OnTailL" transform="matrix(.28478 -.91447 1.0135 .25695 0 0)" x="0.055253569" y="115.54601" stop-color="#000000" style="font-variant-caps:normal;font-variant-east-asian:normal;font-variant-ligatures:normal;font-variant-numeric:normal" xml:space="preserve"><tspan x="0.055253569" y="115.54601" font-family="'Roboto Condensed'" font-size="9.2571px" stroke-width=".37486" style="font-variant-caps:normal;font-variant-east-asian:normal;font-variant-ligatures:normal;font-variant-numeric:normal">22</tspan></text>
   <text id="number_OnTailR" transform="matrix(.37223 .8825 -.94023 .45737 0 0)" x="62.292454" y="-72.724571" stop-color="#000000" style="font-variant-caps:normal;font-variant-east-asian:normal;font-variant-ligatures:normal;font-variant-numeric:normal" xml:space="preserve"><tspan x="62.292454" y="-72.724571" font-family="'Roboto Condensed'" font-size="9.2571px" stroke-width=".37486" style="font-variant-caps:normal;font-variant-east-asian:normal;font-variant-ligatures:normal;font-variant-numeric:normal">22</tspan></text>
  </g>
  <g id="numbers" fill="#ff4500">
   <use id="digit_InnerL" transform="rotate(193.67 80.266 36.118)" xlink:href="#n0"/>
   <use id="digit_OuterL" transform="rotate(181.42 88.237 46.621)" xlink:href="#n0"/>
   <use id="digit_OuterR" transform="rotate(178.7 25.53 47.855)" xlink:href="#n9"/>
   <use id="digit_InnerR" transform="rotate(166.68 33.482 47.551)" xlink:href="#n9"/>
  </g>
  <g id="roundels">
   <image id="roundel_WingR" transform="rotate(171.7)" x="-17.18" y="-72.614" width="11.426" height="11.426" preserveAspectRatio="xMidYMid" xlink:href="../fe/src/assets/roundels/austria.svg"/>
   <image id="roundel_FrontL" transform="rotate(-72.33)" x="-111.37" y="151.11" width="4.3475" height="4.3475" preserveAspectRatio="xMidYMid" xlink:href="../fe/src/assets/roundels/austria.svg"/>
   <image id="roundel_FrontR" transform="matrix(-.30353 -.95282 -.95282 .30353 0 0)" x="-175.07" y="-48.83" width="4.3475" height="4.3475" preserveAspectRatio="xMidYMid" xlink:href="../fe/src/assets/roundels/austria.svg"/>
  </g>
 </g>
 <path id="guide" d="m105 177 105 104.68m0-45.294-69.516-41.92-8.5473 9.4675-11.727 9.7842m42.584-176.25-22.105-19.971m69.311 42.721-46.875 58.529 10.985-77.444 35.89 4.9887m-76.235-32.044-28.765 93.207m35.623-89.742-35.623 118.17m105-14.11-69.971 20.198 31.535-109.54 12.58-32.434m-79.143-0.28564 60.723 30.688 44.277 15.885v25.693m-32.094-71.98-72.906 177 105-105.22m-105 105.22 50.003 120m-50.003-120-105 104.68m0-45.294 69.516-41.92 8.5473 9.4675 11.727 9.7842m-42.584-176.25 22.105-19.971m-69.311 42.721 46.875 58.529-10.985-77.444-35.89 4.9887m76.235-32.044 28.765 93.207m-35.623-89.742 35.623 118.17m-105-14.11 69.971 20.198-31.535-109.54-12.58-32.434m79.143-0.28564-60.723 30.688-44.277 15.885v25.693m32.094-71.98 72.906 177-105-105.22m105 105.22-50.003 120m50.003 0.00648v-297m104.6 177-209.6 0.12999m0-177.13h210v297h-210z" fill="none" opacity=".4" stroke="#000000" stroke-width=".2"/>
</svg>
