<svg width="210mm" height="297mm" version="1.1" viewBox="0 0 210 297" xmlns="http://www.w3.org/2000/svg" xmlns:xlink="http://www.w3.org/1999/xlink">
 <rect id="base" width="210" height="297" fill="#cccccc" stop-color="#000000"/>
 <g id="body">
  <path id="mainBody" d="m210.09 281.77-78.138-77.9 8.5245-9.4359 69.59 42.06zm-105.09-104.77 105.12-105.02v-25.71l-38.743-13.838-5.9568-2.066-24.836-12.506-35.59-17.986zm-105.09 104.77 78.138-77.9-8.5245-9.4359-69.59 42.06zm105.09-104.77-105.12-105.02v-25.71l38.743-13.838 5.9568-2.066 24.836-12.506 35.59-17.986z" fill="#b60000" stop-color="#000000"/>
  <path id="intake" d="m131.96 203.91 0.92373 0.97017 8.5698-9.8547-0.96779-0.58493zm-53.918 0-0.92373 0.97017-8.5698-9.8547 0.96779-0.58493z" fill="#333333" stop-color="#000000"/>
  <path id="cross" d="m59.391 222.47-14.133-13.374-27.055 16.341 19.831 18.488zm127.35-179.41-14.559 10.727-0.0284 0.20309-8.4656 5.8317-15.715 54.251 17.074-8.862 15.265-7.9158 29.787-37.001-0.0977-14.184zm-38.768 71.013 15.72-54.299-6.6998-9.0015-29.591 11.083-8.1954-0.51263-0.0165 0.05323-14.189-7.6083-12.739 12.371-0.01034-0.03359-8.2057 0.29714 0.0036 0.01085-17.671 16.767-0.0093-0.02274-12.868 1.463 4.825 16.873-4.825-16.837-10.72 5.948 0.0062 0.04496-16.605 7.5613 20.534 20.484 3.7486 3.5424 12.677-3.9031 0.0093 0.0331 15.726-4.6948-0.01964-0.0481 16.477-9.9162 9.6656 3.7672 9.7048-3.8034 22.505-5.0932z" fill="#ffffff" stop-color="#000000" stroke-opacity=".53367" stroke-width=".4"/>
  <path id="cockpit" d="m111.65 137.17s-3.2209 0.9723-6.6461 0.9723v16.975h1.8386s1.9704-1.8175 2.512-3.0325c0.61081-1.3702 1.0611-3.2653 1.3932-5.2449h-5.7221v-0.91614h5.8673c0.64425-4.3353 0.75706-8.754 0.75706-8.754zm-13.292 0s3.2209 0.9723 6.6461 0.9723v16.975h-1.8386s-1.9704-1.8175-2.512-3.0325c-0.61081-1.3702-1.0611-3.2653-1.3932-5.2449h5.7221v-0.91614h-5.8673c-0.64425-4.3353-0.75706-8.754-0.75706-8.754z" fill="#000000" stop-color="#000000"/>
  <circle id="raidar" cx="105" cy="177" r="13.002" fill="#000000" stop-color="#000000"/>
  <path id="wingEdge" d="m180.24 93.12 29.886-32.823-31.814 39.522m-148.55-6.6988-29.886-32.823 31.814 39.522m-1.93-6.6992-29.886-32.823 31.814 39.522m148.55-6.6988 29.886-32.823-31.814 39.522" fill="#ffffff" stop-color="#000000"/>
 </g>
 <g id="decal">
  <g id="roundels">
   <image id="roundel_WingR" transform="rotate(171.7)" x="-17.18" y="-72.614" width="11.426" height="11.426" preserveAspectRatio="xMidYMid" xlink:href="../fe/src/assets/roundels/austria.svg"/>
   <image id="roundel_FrontL" transform="rotate(-72.33)" x="-111.37" y="151.11" width="4.3475" height="4.3475" preserveAspectRatio="xMidYMid" xlink:href="../fe/src/assets/roundels/austria.svg"/>
   <image id="roundel_FrontR" transform="matrix(-.30353 -.95282 -.95282 .30353 0 0)" x="-175.07" y="-48.83" width="4.3475" height="4.3475" preserveAspectRatio="xMidYMid" xlink:href="../fe/src/assets/roundels/austria.svg"/>
  </g>
  <g id="letters" stroke-width=".26458">
   <path id="lettersGrey" transform="matrix(-.17343 -.35696 .35696 -.17343 44.675 160.91)" d="m175.1 74.278c0.0253-0.07516 0.0296-0.17813 0.0296-0.31424 0-1.6943-3.8647-3.37-7.243-3.3785-0.48262-0.0012-0.95519 0.03175-1.4052 0.10336-3.5339 0.56231-2.2853 0.33778-2.2853 2.7044 0 1.494 0.97195 1.1349 2.3151 0.93513 1.8569-0.27614 5.8489-0.28125 7.3622-0.01048 0.8882 0.15892 1.1507 0.18589 1.2266-0.0396zm-37.593-4.6052c-0.0753-2.6666-0.15689-5.3814-0.21199-7.8742-0.25689-11.62-0.32163-12.089-1.8932-13.588-0.78436-0.74815-1.3667-1.1332-1.7784-1.0595-0.9058 0.16218-0.98582 2.5409-0.57123 8.1364 0.19474 2.6282 0.54998 8.3237 0.86291 13.227zm28.811 259.34c-3.1803-0.99528-9.0665 2.0015-14.72 7.4937-6.9004 6.7042-8.313 12.091-4.0403 15.41 3.2661 2.5371 8.503 0.19455 9.1373-4.0872 0.4187-2.8262-1.1176-4.953-4.314-5.9724-2.482-0.79155-2.4788-0.81326 0.67169-4.2836 3.4672-3.8191 5.9375-5.3215 11.249-6.8407 2.9439-0.84207 3.4476-1.2715 2.0162-1.7194zm-39.954-4.1532c-1.0522-0.23735-2.3444-0.18752-3.8899 0.21411-6.9512 1.8064-3.5485 12.293 3.6471 11.24 0.61941-0.0907 0.27381 1.2745-0.92214 3.6432-2.4667 4.8856-8.8389 10.191-15.049 12.528-1.2219 0.45993-2.2483 0.95461-2.2807 1.099-0.31501 1.4019 5.8196-0.66098 9.5824-3.2222 11.864-8.0752 16.277-23.839 8.9119-25.502zm15.649 5.967c-0.69452-0.18093-1.4899-0.25604-2.3884-0.21118-6.7629 0.33784-7.1434 9.8751-0.45132 11.313l1.8483 0.39704-0.37208 0.93378c-1.3902 3.491-6.195 8.3888-11.159 11.375-2.6395 1.5879-3.9614 2.1625-9.2343 4.013-3.2028 1.124-3.2059 1.276-3.3394 1.8699-0.5531 2.4615 13.463-2.992 19.097-7.7908 10.006-8.5226 12.713-20.151 5.9993-21.899zm-16.582-3.3259c2.8033 0.70452 3.2547 5.2 0.32405 6.2999-0.71678 0.269-2.2861 0.15829-2.795-0.19711-2.8778-2.0097-1.5526-6.3752 1.8793-6.1909 0.20749 0.0111 0.40479 0.0412 0.59168 0.0881zm15.619 5.4951c1.0515 0.29608 1.9342 1.0678 2.1697 2.3244 0.35605 1.8994-0.74633 3.8842-2.3981 4.3169-2.5699 0.67327-4.8166-1.5602-4.2214-4.1966 0.476-2.1101 2.6974-2.9382 4.4498-2.4447zm10.68 10.907c2.0534 0.39533 3.4485 2.682 2.3842 4.7063-0.59356 1.1289-1.5532 1.8941-2.6096 2.0806-4.2842 0.75639-5.4969-5.627-1.279-6.7321 0.52187-0.13672 1.0306-0.14607 1.5044-0.0548zm-151.12-8.805c0.62541-1.3855 1.2331-2.9496 1.8304-4.6018l-1.6567-1.161c-2.1609 6.5568-4.7688 10.466-8.6746 13.895-1.0128 0.88912-1.859 1.8005-1.8813 2.0248-0.093135 0.93639 3.3814-0.50295 5.1854-2.148 1.8052-1.6461 3.5466-4.3529 5.1967-8.0086zm-9.5001-11.182c0.15899-0.33409 0.29814-0.70144 0.45109-1.0447l-2.6277-1.8412c-1.558 3.5658-3.3459 7.0685-4.7712 9.3735-1.9648 3.1775-4.1574 7.1751-4.856 7.8614-0.8639 0.84872-1.7093 2.5291-1.9772 3.0148-0.23563 0.42722 0.46532 0.56941 1.4429 0.23627 2.0464-0.69725 9.0463-10.683 12.338-17.6zm146.72-31.595c0.26907-0.62409 0.14311-1.8305-0.59976-3.5212-1.0563-2.404-1.0242-2.9729 1.1206-6.7852l-2.3682-2.2769c-4.2686 7.2227-4.11 6.5593-1.7661 10.396 1.6184 2.6494 3.165 3.2272 3.6135 2.187zm-14.002-14.413c0.70843-1.4544 1.7639-3.953 3.0167-6.957l-2.5602-2.4628c-0.16213 0.36872-0.23024 0.53451-0.405 0.93242-4.7003 10.689-4.6579 10.538-3.1853 11.222 1.0451 0.48588 1.6499 0.3121 3.134-2.735zm-19.69-4.4329c0.34945-0.60053 0.88002-2.2032 2.5715-7.1313 1.716-4.9997 2.979-8.3659 4.1031-10.811l-2.549-2.4501c-1.145 3.1095-2.273 6.1751-3.4462 9.2774-3.5992 9.5172-4.3433 10.697-3.4378 11.087 0.79193 0.34121 1.1324 1.0056 2.1136 0.53034 0.29048-0.14071 0.43514-0.14145 0.64479-0.50178zm-4.8821-6.5485c0.50813-1.1667-0.45797-1.9322-2.5032-1.5462-14.118 2.6644-20.677-6.061-12.183-16.209 6.1044-7.2931 12.506-7.566 17.119-0.72788 1.0128 1.5015 2.3773 1.802 3.0101 1.212l-9.1556-8.8043c-4.506-0.68663-9.5203 0.80606-12.902 4.7227-1.8443 2.1362-1.1211 0.86384 4.0942-7.2022 1.0477-1.6204 1.5857-3.1572 1.7057-4.3511l-2.1274-2.0455c-0.27878 0.13165-0.57497 0.30367-0.90218 0.55479-1.5679 1.2033-3.7605 1.8624-8.2188 2.4709-4.5796 0.625-4.4283 0.80057-2.7179-3.1692 1.8253-4.2364 2.3425-5.9537-0.34551-5.6893-3.0064-0.55386-9.1009 0.65567-11.195-0.1794-0.21433-0.30638 1.1722-3.38 1.5397-3.4343 1.5998-0.23649 0.93522-1.7799-1.1545-2.6803-2.6419-1.1383-4.126-0.53182-2.59 1.058 0.54007 0.55897 0.64081 0.89317 0.46906 1.5554-0.3086 1.1899-6.0976 15.104-6.6702 16.032l-0.47231 0.76654-1.0456-0.63103c-3.4818-2.1015-5.2686-7.9118-3.8682-12.581 1.4377-4.7931 1.6562-4.9567 4.8442-3.624 2.7155 1.1352 3.511 1.2709 3.8838 0.66509 0.75541-1.2272 0.20114-1.6063-7.01-4.8057l-6.6552-2.9525 1.0265-2.0651c0.68508-1.3775 1.518-2.6037 2.5001-3.6829 5.555-6.1036 5.3022-9.8935-1.0054-15.106-4.0213-3.323-6.1336-5.1112-6.6649-5.6412l-0.5549-0.55334 0.40228-0.9323-2.3612-2.2706c-0.38135 0.7397-0.67279 1.3728-0.52703 1.4841 0.39026 0.29779-1.4998-0.26211-5.4301-2.3066-7.0388-3.6616-9.5592-6.1481-7.188-7.0912 0.70818-0.28168 3.0188 0.0677 5.6177 0.67505l-3.4835-3.3486c-7.5093-0.55379-6.788 5.0492 5.3102 12.178 4.782 2.8178 5.1752 0.84236-3.9761 19.921-9.7678 20.364-13.191 28.235-19.103 43.92-2.62 6.9506-2.6522 7.0838-1.8456 7.8662 1.4634 1.4194 1.7058 1.0587 4.6469-6.9424 4.0775-11.093 14.862-35.372 19.767-44.504 0.44931-0.83635 2.3786-4.7242 4.2886-8.6394 4.2876-8.789 3.2694-8.4546 8.8644-2.9086 5.6313 5.5821 5.6302 5.5913-0.79694 14.856-3.2339 4.6614-2.7459 4.4215-6.8402 3.352-5.4344-1.4195-5.7459 0.15594-0.47904 2.4252l2.7916 1.2028-3.8132 8.6561c-4.6902 10.643-5.3888 13.308-3.6778 14.045 0.8172 0.3521 1.3085-0.38529 3.243-4.8753 7.5249-17.465 7.6262-17.616 10.75-16.025 3.4476 1.7564 3.2813 1.5118 2.4037 3.5536-3.2451 7.5543-2.5743 12.532 2.4923 18.485l1.7189 2.0193-3.3559 7.393c-1.8453 4.0661-3.92 8.3813-4.6109 9.5889-0.69093 1.2076-1.7896 3.1322-2.4415 4.2774-2.6253 4.6116-9.3512 11.975-13.363 15.419-2.8349 2.4332-6.1353 5.5781-7.009 6.0206-1.0804 0.54723-2.3951 1.8928-2.7974 2.2746-0.35395 0.33579 0.27135 0.68385 1.3039 0.66242 2.1615-0.0447 11.857-7.4422 17.089-13.038 5.8194-6.2236 10.759-15.083 18.775-33.683 5.9176-13.729 5.1707-11.981 8.86-13.207 1.5272-0.63894 5.937-1.693 7.5393 0.24492 0.52692 0.6373-0.16309 1.5064-0.38674 2.4498-0.48824 2.0595-2.2012 4.4862-3.2917 6.7336-3.3387 6.8805-6.5681 14.058-9.9555 20.67-0.99748 1.947-2.6573 5.1864-3.6883 7.1982-9.4702 18.479-14.443 24.667-22.749 28.304-1.2345 0.54063-2.3186 1.1523-2.4078 1.3593-0.37235 0.86421 3.3748 0.54486 5.5923-0.4766 8.8757-4.0884 21.931-24.649 35.227-55.481l0.64794-1.5035 5.2289-0.68503c7.5206-0.98409 7.5759-0.9722 6.0951 1.2747-4.1966 6.3676-5.4635 8.4222-7.3375 11.896-2.8298 5.2464-4.401 8.8977-4.4159 10.264-0.03184 2.8827 1.2921 4.9046 3.4797 5.317 2.6278 0.49547 3.1022 0.0333 1.8327-1.7878-2.1654-3.1064-1.6076-6.8144 1.8319-12.185l1.0849-1.6937-0.5714 1.781c-1.8725 5.834-0.27536 11.041 4.3342 14.124 3.2701 2.1877 13.539 3.2576 15.417 1.607 0.51208-0.44996 0.84507-0.88297 1.0146-1.2718zm-83.778-53.713c3.546-6.4573 0.88262-13.181-4.5878-15.381-2.2833-0.91836-5.0547-1.0479-8.0692-0.042-8.6321 2.8803-11.091 14.492-4.22 19.929 4.5159 3.5731 12.526 1.9702 16.084-3.2185 0.29259-0.4267 0.55669-0.85628 0.79309-1.2868zm-2.7486-1.8189c-1.4255 2.6127-4.1148 4.5971-7.1971 4.6885-5.7638 0.17105-8.7912-4.8718-6.381-10.63 1.8844-4.5015 6.7615-6.1199 10.401-4.6464 1.6542 0.66981 3.0531 1.9789 3.7983 3.946 0.83227 2.1969 0.48788 4.6093-0.62087 6.6415zm168.37-25.259c0.36755-0.64305-0.37349-1.8287-2.5076-3.0568-2.5712-1.4797-2.6178-1.5873-3.3309-7.7956-1.858-16.177-4.9121-27.07-7.977-28.453-1.6568-0.7475-2.9339-1.032-3.6057-0.94255-0.86374 0.11503-0.72677 0.8477 0.8889 2.0113 1.6734 1.2052 1.824 1.428 2.8953 4.2731 2.1642 5.7472 3.562 12.818 4.683 23.684 0.95494 9.2568 0.51263 8.328 4.8117 10.084 2.2992 0.93927 3.7748 0.83872 4.1423 0.19566zm-19.678-0.38909c0.5916-1.026-0.0346-3.9192-2.3082-13.11-2.9191-11.8-3.5131-12.987-7.7569-15.515-5.3347-3.1786-10.892-2.0841-15.649 3.0825-0.74505 0.80934-1.4279 1.4264-1.5172 1.3707-0.32419-0.20218-5.8431-20.407-9.6712-35.407-2.8742-11.262-3.0438-11.705-4.9132-12.81-0.9323-0.55128-1.5869-0.79323-1.9715-0.62922-0.84578 0.36253-0.38646 2.6974 1.281 8.0548 1.2063 3.8759 2.6823 8.7711 5.895 19.547 1.2913 4.3314 3.1432 10.502 4.1146 13.712 3.2474 10.733 5.5124 18.476 7.8884 26.961 2.7439 9.7981 2.845 11.189 3.8055 10.966 0.84004-0.19472 1.507 0.13843 2.0155-0.82605 0.40137-0.7614 0.5609-0.0993-1.9344-8.0537-3.3701-10.743-4.0858-14.462-3.4275-17.811 1.2919-6.5737 10.16-8.7629 14.517-3.5845 2.0067 2.3848 2.0734 2.5843 4.561 13.693 2.5515 11.394 2.4968 11.247 4.0887 10.926 0.45187-0.0913 0.78463-0.22478 0.98183-0.56676zm2.7438-55.958c8e-3 -0.0789-0.0113-0.18024-0.042-0.31283-0.3826-1.6506-4.5262-2.4108-7.8192-1.6563-0.47042 0.10782-0.92348 0.24753-1.3458 0.41892-3.3156 1.3458-2.1519 0.84497-1.6175 3.1504 0.33737 1.4555 1.2045 0.88615 2.4679 0.38828 1.7466-0.68832 5.6344-1.5953 7.1697-1.6733 0.90115-0.0458 1.1638-0.0784 1.1868-0.31519zm-29.38 60.303c0.0955-0.1725 0.16197-0.33582 0.19536-0.48851 0.5825-2.6637-0.97907-3.4182-2.87-1.3871-1.6023 1.7211-3.219 3.0404-4.8045 4.0457l4.471 0.6782c1.4241-1.0144 2.5564-2.0324 3.0081-2.8483zm-5.7991-18.8c0.45524-0.5746 0.26086-1.4461-0.95682-2.1456-7.8386-4.503-18.272 1.7958-19.025 11.486-0.21876 2.8137-0.39038 1.3598-0.97253-8.2277-0.32306-5.3206-3.3626-7.9518-4.5289-3.9202-0.54924 1.8985-1.9243 3.7294-5.1539 6.8626-3.3174 3.2183-3.0926 3.2707-4.0687-0.94019-1.0416-4.4937-1.6416-6.184-3.6495-4.3775-2.7495 1.3364-6.9417 5.9231-9.1229 6.492-0.35424-0.11967-1.0592-3.4169-0.79549-3.6785 1.1481-1.1389-0.3014-1.9877-2.5181-1.4738-2.8023 0.64958-3.6391 2.0178-1.4596 2.3875 0.76631 0.12996 1.0468 0.34008 1.3011 0.97521 0.27037 0.67525 1.5949 5.9396 2.6839 10.462l2.7991 0.42469c-1.2323-5.9079-0.58341-5.4897 1.1122-7.8881 0.85106-1.42 3.7773-4.8839 6.2165-4.2732 0.80216 0.20084 0.76113 1.3106 1.1403 2.2029 0.8278 1.948 0.88715 4.9169 1.3413 7.3733 0.25724 1.3912 0.54054 2.7974 0.8113 4.1972l2.7658 0.41868c-0.33034-1.5023-0.66081-3.0046-1.0173-4.5449l-0.36993-1.5956 3.8061-3.6506c5.473-5.2511 5.5242-5.2747 5.6638-2.5874 0.38995 7.5089 0.58993 9.9624 1.1231 13.776l3.2337 0.48963c-0.0188-0.22491-0.0488-0.4249-0.064-0.65793l-0.12943-2.0071 0.59499 1.7729c0.1206 0.35911 0.27751 0.67805 0.41633 1.0173l3.7902 0.57473c-0.98223-1.9763-1.4666-4.6057-1.2641-7.8511 0.59218-9.4922 5.5869-13.506 13.356-10.734 1.3814 0.4929 2.4857 0.21555 2.941-0.35904zm-28.798-34.525c0.34354-0.52597-0.57637-1.1949-2.7769-1.85-2.0732-0.61727-4.5081-0.47174-6.5235 0.072-3.3589 0.9062-5.5523 2.9194-2.9683 4.3544 1.4439 0.80183 1.1841 0.82945 4.4835-0.47388 2.059-0.81332 2.9701-1.0471 4.6988-1.206 1.7875-0.16438 2.8191-0.48739 3.0863-0.89649zm-24.585 40.921c0.10394-0.14447 0.13798-0.29997 0.12327-0.4772-0.11922-1.4361-0.78961-1.4127-8.4936 0.28602l-7.1098 1.5678-0.39743-2.272c-0.26495-1.5155-0.32235-2.9966-0.17122-4.448 0.85499-8.2086-1.594-11.111-9.7636-11.569-5.2084-0.29198-7.9712-0.47902-8.7132-0.59086l-0.77414-0.11697-0.74534-3.2126c-0.89524-3.8622-1.1841-3.4663 3.495-4.7891 11.089-3.1349 8.669-9.8457-2.9786-8.2585-3.6801 0.50149-3.3367 0.84211-4.5908-4.5467l-1.0294-4.4248 1.8527-1.8259c9.0395-8.9045 9.0884-23.335 0.07989-23.663-0.90305-0.0329-1.7267 0.0258-2.4707 0.17782-5.2079 1.0641-6.53 6.6889-4.1299 17.306 1.814 8.0241 2.0624 7.1332-2.5052 8.9645-12.996 5.2101-9.9795 12.599 4.8017 11.762 1.9619-0.11113 1.7989-0.2346 2.5571 1.9358 0.79751 2.2828 0.66483 2.4856-2.0262 3.1097-18.891 4.3809-18.454 12.657 0.56516 10.708 5.228-0.53576 4.8541-1.5651 8.1329 15.906l3.4332 0.51997c-0.15557-1.0522-0.86647-5.1093-1.6336-9.3075-1.7578-9.6198-2.3802-8.7457 5.4134-7.5964 7.8443 1.1568 7.8497 1.1641 8.1662 12.435 0.12732 4.5339 0.20794 5.1601-1.7315 6.0193l6.2941 0.95444c0.36637-0.73406 1.1161-0.88772 2.2334-1.072 3.8177-0.62952 3.5385-0.72916 4.0423 1.4355 0.05115 0.2196 0.11816 0.40174 0.17181 0.61478l2.3621 0.35862c-1.151-3.4083-0.85551-3.8714 2.1426-4.6007 2.1449-0.52181 3.0856-0.85623 3.3974-1.2896zm-28.434-29.794c-0.07052 0.23568-0.36943 0.43979-0.95088 0.57457-0.79065 0.18327-1.0051 0.81385-3.7258 1.5007-4.2116 1.0632-4.3365 1.0314-4.7518-1.1997l-0.32872-1.7608 1.2509-0.465c0.31435-0.1169 0.63177-0.21523 0.94998-0.2956 3.8782-0.97962 7.862 0.62463 7.5564 1.6459zm-9.8133 12.296c-0.08594 0.14323-1.9837 0.73065-5.8138 1.3288-7.8392 1.2243-11.343 0.71658-9.9931-1.4487 0.79405-1.2733 8.0255-4.2694 11.991-5.2941 1.3217-0.34156 2.2806-0.46541 2.5173-0.23192 0.48334 0.47686 0.69449 5.6038 1.2252 5.6129 0.06135 1e-3 0.08603 0.0125 0.07375 0.0329zm-3.3373-15.518-1.3558 0.29964c-7.5923 1.6851-13.765-2.0057-8.4976-5.0811 2.4714-1.4428 4.199-2.3233 5.451-2.6082 2.0866-0.47485 2.8531 0.70365 3.5438 3.6833zm4.7431-19.146c-0.64458 1.4824-1.5253 2.8749-2.6509 4.041-0.71129 0.73684-1.565 1.4028-1.8974 1.4799l-0.60349 0.13965-1.3032-5.6161c-2.0757-8.9547-1.4299-12.491 2.4443-13.389 5.1792-1.2005 6.804 6.9213 4.0108 13.345zm-144.71-137.7c-0.13584-1.685-0.25051-2.9622-0.38775-4.6429l-0.31525 0.13637-2.1258-1.4975c-10.375-7.3048-24.583-4.7772-23.298 4.1451 0.12879 0.89406 0.33448 1.6941 0.61668 2.3988 1.9767 4.9343 7.7463 5.2319 17.764 0.97521 5.6251-2.3901 6.5622-3.0416 7.7458-1.515zm-4.1419-3.0243-5.2934 2.2838c-8.4404 3.6408-12.034 3.6366-13.61-0.01503-2.5917-6.0083 9.6724-9.238 16.863-4.4411 0.85198 0.56834 1.6599 1.2899 1.7951 1.6032zm-123.55 229.16c-4.6388-3.6466-9.194-7.0446-15-11.235-6.0229-4.3474-6.1446-4.4122-7.1108-3.8384-1.7528 1.041-1.4666 1.3683 5.4861 6.3005 3.5346 2.5074 8.5527 6.359 13.852 10.571zm-32.787 21.253c-0.26567-0.24372-0.5791-0.52667-0.73044-0.67771-0.98473-0.98285-2.5549-2.5472-3.4896-3.476-3.7639-3.7405-9.1107-12.159-11.384-16.932-1.6067-3.3728-3.7798-7.3812-3.9783-8.3403-0.24546-1.1859-1.1994-2.8065-1.4626-3.2947-0.23148-0.42948-0.73048 0.0823-0.98 1.0845-0.52239 2.0978 4.0794 13.392 8.1109 19.906 2.5592 4.1351 6.0301 8.2226 11.479 13.309zm-10.579 6.8586c-14.337-13.169-18.813-19.497-20.112-28.21-0.19879-1.3329-0.50636-2.5396-0.68278-2.6799-0.73666-0.58551-1.4079 3.1148-1.0023 5.5224 1.0243 6.0795 7.9518 15.485 19.518 26.845z" fill="#999999"/>
   <path id="lettersBlack" transform="matrix(-.17343 -.35696 .35696 -.17343 44.675 160.91)" d="m174.09 73.267c0.0253-0.07516 0.0296-0.17813 0.0296-0.31424 0-1.6943-3.8659-3.3705-7.2442-3.3791-0.48262-0.0012-0.9552 0.03175-1.4053 0.10336-3.5339 0.56231-2.2853 0.33778-2.2853 2.7044 0 1.494 0.97195 1.1349 2.3151 0.93513 1.8569-0.27614 5.8495-0.28242 7.3628-0.01165 0.88821 0.15892 1.1513 0.18763 1.2272-0.03786zm-37.575-3.9147c-0.0835-2.9063-0.17041-5.8545-0.23036-8.5664-0.25689-11.62-0.32162-12.089-1.8932-13.588-0.78436-0.74815-1.3672-1.132-1.779-1.0583-0.9058 0.16218-0.98582 2.5409-0.57123 8.1364 0.20503 2.7672 0.56794 8.5564 0.90932 13.927zm29.108 258.57c-3.1803-0.99528-9.0665 2.0015-14.72 7.4937-6.9005 6.7042-8.313 12.091-4.0403 15.41 3.2661 2.537 8.503 0.19455 9.1373-4.0872 0.41871-2.8262-1.1176-4.953-4.314-5.9724-2.482-0.79154-2.4788-0.81325 0.67169-4.2835 3.4672-3.8191 5.9375-5.3215 11.249-6.8407 2.9439-0.84207 3.4476-1.2715 2.0162-1.7194zm-39.954-4.1532c-1.0522-0.23736-2.3444-0.18752-3.8899 0.21411-6.9513 1.8064-3.5485 12.293 3.6471 11.24 0.61942-0.0907 0.27381 1.2745-0.92214 3.6432-2.4667 4.8856-8.8389 10.191-15.049 12.528-1.2219 0.45994-2.2483 0.95462-2.2807 1.0991-0.31501 1.4019 5.8196-0.66099 9.5824-3.2222 11.864-8.0753 16.277-23.839 8.9119-25.502zm15.649 5.967c-0.69452-0.18093-1.4899-0.25604-2.3884-0.21118-6.7629 0.33784-7.1434 9.8751-0.45132 11.313l1.8483 0.39704-0.37208 0.93378c-1.3902 3.491-6.1951 8.3888-11.159 11.375-2.6395 1.5879-3.9614 2.1625-9.2343 4.013-3.2028 1.124-3.2059 1.276-3.3394 1.8699-0.5531 2.4615 13.463-2.992 19.097-7.7908 10.006-8.5226 12.713-20.151 5.9993-21.899zm-16.582-3.3259c2.8033 0.70452 3.2547 5.2 0.32404 6.2999-0.71678 0.269-2.2861 0.15829-2.795-0.19711-2.8778-2.0097-1.5526-6.3752 1.8793-6.1909 0.20749 0.0111 0.40478 0.0412 0.59168 0.0881zm15.619 5.4951c1.0515 0.29608 1.9342 1.0678 2.1697 2.3244 0.35605 1.8994-0.74633 3.8842-2.3981 4.3169-2.5699 0.67327-4.8166-1.5602-4.2214-4.1966 0.476-2.1101 2.6974-2.9382 4.4498-2.4447zm10.68 10.907c2.0534 0.39534 3.4485 2.682 2.3842 4.7063-0.59355 1.1289-1.5532 1.8941-2.6096 2.0806-4.2842 0.7564-5.4969-5.627-1.279-6.732 0.52186-0.13672 1.0306-0.14607 1.5044-0.0548zm-151.33-8.8122c0.57795-1.2804 1.1402-2.7178 1.6943-4.2264l-1.6438-1.1518c-2.1367 6.3331-4.7195 10.145-8.5508 13.509-1.0128 0.88912-1.8596 1.8017-1.8819 2.026l-0.0012-5.7e-4c-0.09314 0.93639 3.3826-0.50238 5.1866-2.1475 1.8052-1.6461 3.5466-4.3529 5.1967-8.0086zm-9.4995-11.183c0.10385-0.21823 0.19382-0.45981 0.29507-0.68183l-2.6277-1.8412c-1.5197 3.439-3.239 6.7853-4.6157 9.0118-1.9648 3.1775-4.1574 7.1751-4.856 7.8614-0.8639 0.84873-1.7099 2.5273-1.9778 3.013-0.23563 0.42722 0.46592 0.57116 1.4435 0.23804 2.0464-0.69726 9.0469-10.684 12.339-17.601zm147.09-31.817c0.26908-0.6241 0.14311-1.8305-0.59977-3.5212-1.0236-2.3297-1.1343-2.7679 0.81098-6.261l-2.37-2.2792c-3.9878 6.7349-3.7482 6.1199-1.4547 9.8744 1.6184 2.6494 3.165 3.2272 3.6135 2.187zm-14.001-14.414c0.68411-1.4046 1.5935-3.5189 2.7806-6.3609l-2.5761-2.4778c-0.0641 0.14631-0.0877 0.2019-0.15396 0.35228-4.7003 10.689-4.6568 10.538-3.1841 11.223 1.045 0.48597 1.6493 0.31036 3.1334-2.7367zm-19.691-4.4318c0.34945-0.60053 0.88002-2.2032 2.5715-7.1313 1.5882-4.6273 2.7845-7.8364 3.8465-10.235l-2.5066-2.4122c-1.0704 2.9019-2.1328 5.7571-3.2319 8.6635-3.5992 9.5172-4.3433 10.697-3.4378 11.087 0.79193 0.34121 1.1329 1.0044 2.1142 0.52916 0.29048-0.1407 0.43457-0.14028 0.64421-0.5006zm-4.8809-6.5479c0.50813-1.1667-0.45856-1.9339-2.5038-1.548-14.118 2.6644-20.677-6.061-12.183-16.209 6.1044-7.2931 12.506-7.5648 17.119-0.7267 0.76621 1.1358 1.7327 1.5803 2.4337 1.4777l-9.5731-9.2054c-4.2347-0.33585-8.7744 1.2288-11.908 4.8581-1.8443 2.1362-1.1211 0.86385 4.0942-7.2022 0.84777-1.3112 1.3621-2.5694 1.5945-3.6364l-2.5519-2.453c-0.12052 0.0793-0.23747 0.15012-0.36523 0.24817-1.5679 1.2033-3.7605 1.8624-8.2188 2.4709-4.5796 0.625-4.4295 0.8-2.7191-3.1698 1.8253-4.2364 2.3425-5.9537-0.34551-5.6893-3.0064-0.55385-9.1009 0.65568-11.195-0.17939-0.21433-0.30639 1.174-3.3806 1.5414-3.4349 1.5998-0.23648 0.93348-1.7793-1.1562-2.6797-2.6419-1.1383-4.126-0.53182-2.59 1.058 0.54007 0.55898 0.64081 0.89318 0.46906 1.5554-0.3086 1.1899-6.0976 15.104-6.6702 16.032l-0.47231 0.76654-1.0456-0.63103c-3.4818-2.1015-5.2686-7.9118-3.8682-12.581 1.4377-4.7931 1.6562-4.9567 4.8442-3.624 2.7155 1.1352 3.511 1.2709 3.8838 0.66509 0.75541-1.2272 0.20114-1.6063-7.01-4.8057l-6.6552-2.9525 1.0282-2.0657c0.68508-1.3775 1.5162-2.6031 2.4984-3.6823 4.1543-4.5646 5.0585-7.8353 2.6134-11.374l-5.5885-5.3745c-2.5408-2.114-4.2767-3.5806-4.6952-3.9981l-0.55373-0.55277 0.1515-0.35057-2.3977-2.3057c-0.22898 0.48961-0.351 0.85127-0.24034 0.9357 0.39026 0.29779-1.5004-0.26094-5.4307-2.3055-7.0388-3.6616-9.5592-6.1481-7.188-7.0912 0.60397-0.24023 2.3942-0.01 4.5137 0.43545l-3.2897-3.1632c-6.5388-0.0486-5.3776 5.3982 6.2205 12.232 4.782 2.8178 5.1758 0.84119-3.9755 19.92-9.7678 20.364-13.191 28.236-19.104 43.921-2.62 6.9506-2.6511 7.0844-1.8445 7.8667 1.4634 1.4194 1.7046 1.0581 4.6457-6.943 4.0775-11.093 14.862-35.372 19.767-44.504 0.44931-0.83636 2.3786-4.7242 4.2886-8.6394 4.2876-8.789 3.2694-8.4546 8.8644-2.9086 5.6313 5.5821 5.6307 5.5902-0.79637 14.854-3.2339 4.6614-2.7465 4.4226-6.8408 3.3532-5.4344-1.4195-5.7459 0.15594-0.47904 2.4252l2.7928 1.2034-3.8144 8.6556c-4.6902 10.643-5.3882 13.307-3.6773 14.044 0.8172 0.3521 1.3085-0.38529 3.243-4.8753 7.5249-17.465 7.6256-17.615 10.75-16.024 3.4476 1.7564 3.2813 1.5118 2.4037 3.5536-3.2451 7.5543-2.5743 12.532 2.4923 18.485l1.7189 2.0193-3.3559 7.393c-1.8453 4.0661-3.92 8.3813-4.6109 9.5889-0.69093 1.2076-1.7896 3.1322-2.4415 4.2774-2.6253 4.6116-9.3506 11.974-13.362 15.417-2.8349 2.4332-6.1359 5.5793-7.0096 6.0218-1.0804 0.54723-2.3945 1.8917-2.7969 2.2734-0.35395 0.33579 0.27079 0.68501 1.3033 0.66359 2.1615-0.0447 11.858-7.4417 17.09-13.037 5.8194-6.2236 10.758-15.084 18.774-33.684 5.9176-13.729 5.1707-11.981 8.86-13.207 1.5272-0.63895 5.937-1.693 7.5393 0.24491 0.52692 0.6373-0.16309 1.5064-0.38674 2.4498-0.48824 2.0595-2.2007 4.485-3.2912 6.7324-3.3387 6.8805-6.5686 14.059-9.9561 20.671-0.99748 1.947-2.6573 5.1864-3.6883 7.1982-9.4702 18.479-14.443 24.667-22.749 28.304-1.2345 0.54064-2.3174 1.1529-2.4066 1.3599l-0.0012-5.7e-4c-0.37235 0.86421 3.3748 0.54486 5.5923-0.4766 8.8757-4.0884 21.931-24.649 35.227-55.481l0.64851-1.5047 5.2283-0.68386c7.5206-0.98408 7.5759-0.9722 6.0951 1.2747-4.1966 6.3676-5.4635 8.4222-7.3375 11.896-2.8298 5.2464-4.4004 8.8965-4.4154 10.263-0.03183 2.8827 1.2927 4.9063 3.4803 5.3188 2.6278 0.49547 3.1022 0.0333 1.8327-1.7878-2.1654-3.1064-1.6088-6.8149 1.8308-12.186l1.0849-1.6937-0.57141 1.781c-1.8725 5.8339-0.27536 11.041 4.3342 14.124 3.27 2.1877 13.539 3.2576 15.417 1.607 0.51208-0.44995 0.84623-0.88239 1.0157-1.2712zm-83.445-54.359c3.0314-6.254 0.36752-12.608-4.9206-14.735-2.2833-0.91835-5.0559-1.0485-8.0704-0.0426-8.6321 2.8803-11.09 14.492-4.2188 19.929 4.5159 3.5731 12.525 1.9696 16.083-3.2191 0.4389-0.64005 0.81342-1.2854 1.127-1.9324zm-3.0807-1.1739c-1.4255 2.6127-4.1166 4.5977-7.1989 4.6891-5.7638 0.17104-8.7912-4.8718-6.381-10.63 1.8844-4.5015 6.7615-6.1199 10.401-4.6464 1.6542 0.66981 3.0531 1.9789 3.7983 3.946 0.83227 2.1969 0.48963 4.6087-0.61913 6.6409zm167.68-24.686c0.36756-0.64306-0.37403-1.8275-2.5081-3.0557-2.5712-1.4797-2.6173-1.5885-3.3303-7.7967-1.858-16.177-4.9121-27.07-7.9771-28.453-1.6568-0.7475-2.9339-1.032-3.6057-0.94255-0.86374 0.11503-0.72734 0.84886 0.88833 2.0124 1.6734 1.2052 1.8234 1.4262 2.8947 4.2713 2.1642 5.7472 3.5632 12.818 4.6842 23.684 0.95495 9.2568 0.51207 8.3292 4.8111 10.085 2.2992 0.93927 3.7753 0.83755 4.1429 0.1945zm-19.679-0.38967c0.5916-1.026-0.0335-3.9186-2.307-13.109-2.9191-11.8-3.5131-12.987-7.7569-15.515-5.3348-3.1786-10.893-2.0829-15.649 3.0837-0.74506 0.80934-1.4279 1.4264-1.5172 1.3707-0.32419-0.20219-5.8443-20.408-9.6724-35.408-2.8742-11.262-3.0426-11.704-4.912-12.81-0.93304-0.55171-1.5882-0.79458-1.9727-0.62979-0.84578 0.36253-0.38528 2.698 1.2821 8.0553 1.2063 3.8759 2.6829 8.77 5.8955 19.546 1.2913 4.3314 3.1414 10.502 4.1128 13.713 3.2474 10.733 5.5142 18.476 7.8902 26.96 2.7439 9.7981 2.8439 11.188 3.8043 10.966 0.84004-0.19472 1.507 0.13843 2.0155-0.82605 0.40137-0.7614 0.5615-0.0976-1.9338-8.052-3.3701-10.743-4.0858-14.462-3.4275-17.811 1.2919-6.5737 10.159-8.7646 14.517-3.5862 2.0067 2.3848 2.074 2.586 4.5616 13.695 2.5515 11.394 2.4968 11.247 4.0887 10.926 0.45187-0.0913 0.78404-0.2265 0.98123-0.56851zm2.7445-55.956c8e-3 -0.0789-0.0107-0.18141-0.0415-0.314-0.3826-1.6506-4.5268-2.4096-7.8197-1.6551-0.47042 0.10781-0.92409 0.24578-1.3464 0.41717-3.3156 1.3458-2.1507 0.84554-1.6163 3.151 0.33737 1.4555 1.2033 0.88558 2.4667 0.38772 1.7466-0.68832 5.6343-1.5953 7.1697-1.6733 0.90114-0.0457 1.1644-0.0766 1.1874-0.31345zm-29.38 60.303c0.0955-0.17252 0.16197-0.33583 0.19535-0.48851 0.58251-2.6638-0.97849-3.4194-2.8694-1.3883-1.8436 1.9803-3.7115 3.4747-5.5225 4.5105l4.4984 0.68138c1.7503-1.1665 3.1758-2.3717 3.6982-3.315zm-5.7991-18.8c0.45524-0.57459 0.26143-1.4473-0.95625-2.1468-7.8386-4.503-18.272 1.7958-19.025 11.486-0.21875 2.8137-0.39038 1.3598-0.97252-8.2278-0.32306-5.3206-3.3632-7.9506-4.5295-3.919-0.54924 1.8986-1.9237 3.7282-5.1533 6.8614-3.3174 3.2183-3.0926 3.2707-4.0687-0.94019-1.0416-4.4937-1.6434-6.1834-3.6512-4.3769-2.7495 1.3364-6.9399 5.9225-9.1211 6.4914-0.35424-0.11967-1.0592-3.4169-0.79549-3.6785 1.1481-1.1389-0.30197-1.9865-2.5186-1.4727-2.8023 0.64958-3.6385 2.0166-1.459 2.3863 0.76631 0.12997 1.0456 0.33952 1.2999 0.97465 0.28277 0.70622 1.7176 6.4252 2.827 11.058l2.7909 0.42363c-1.3558-6.3698-0.7591-6.0274 0.97726-8.4835 0.85106-1.42 3.7785-4.8833 6.2177-4.2726 0.80216 0.20084 0.76113 1.3106 1.1403 2.2029 0.8278 1.948 0.88716 4.9169 1.3413 7.3733 0.29345 1.5871 0.61499 3.1906 0.92519 4.7882l2.7845 0.42195c-0.36958-1.6926-0.74683-3.3977-1.1499-5.1392l-0.36993-1.5956 3.8044-3.65c5.473-5.2511 5.5242-5.2747 5.6638-2.5874 0.39552 7.6158 0.59468 10.021 1.1452 13.93 0.0223 0.15817 0.0455 0.27726 0.0678 0.43252l3.2027 0.48474c-0.0415-0.41058-0.0926-0.80093-0.12128-1.2402l-0.13001-2.006 0.59499 1.773c0.19307 0.57473 0.42806 1.1035 0.6673 1.6271l3.9127 0.59372c-1.2205-2.0331-1.8626-4.8643-1.637-8.4811 0.59218-9.4922 5.5869-13.506 13.356-10.734 1.3814 0.49289 2.4852 0.21671 2.9404-0.35788zm-28.797-34.526c0.34354-0.52598-0.57638-1.1949-2.7769-1.85-2.0732-0.61727-4.5081-0.47175-6.5235 0.072-3.3589 0.90621-5.5529 2.9206-2.9688 4.3556 1.4439 0.80184 1.1841 0.82946 4.4835-0.47387 2.059-0.81332 2.9707-1.0482 4.6994-1.2072 1.7874-0.16437 2.8191-0.48739 3.0863-0.89648zm-24.585 40.922c0.10394-0.14447 0.13798-0.29998 0.12327-0.4772-0.11921-1.4361-0.79021-1.4144-8.4942 0.28427l-7.1098 1.5678-0.39743-2.272c-0.26495-1.5155-0.32118-2.9961-0.17004-4.4474 0.85499-8.2086-1.5957-11.111-9.7654-11.569-5.2084-0.29198-7.9694-0.47962-8.7115-0.59146l-0.77414-0.11698-0.74534-3.2126c-0.89524-3.8622-1.1841-3.4663 3.495-4.7891 11.089-3.1349 8.669-9.8457-2.9786-8.2585-3.6801 0.5015-3.3367 0.84212-4.5908-4.5467l-1.0294-4.4248 1.8521-1.8247c9.0395-8.9046 9.0884-23.335 0.07987-23.663-0.90305-0.0329-1.7267 0.0258-2.4707 0.17782-5.2079 1.0641-6.53 6.6889-4.1299 17.306 1.814 8.0241 2.0624 7.1332-2.5052 8.9645-12.996 5.2101-9.9789 12.598 4.8023 11.76 1.9619-0.11112 1.7989-0.23459 2.5571 1.9358 0.79751 2.2828 0.66426 2.4868-2.0267 3.1108-18.891 4.3809-18.455 12.656 0.56399 10.707 5.2975-0.54288 4.8218-1.7267 8.2474 16.496l3.418 0.5184c-0.01695-0.11564-0.04852-0.28276-0.06448-0.3947-0.134-0.9399-0.88421-5.2152-1.6672-9.5005-1.7578-9.6198-2.3796-8.7468 5.414-7.5976 7.8443 1.1568 7.8491 1.1653 8.1656 12.436 0.14546 5.1799 0.21004 5.2747-2.7483 6.4374l7.1353 1.0823c0.2455-1.2165 1.0592-1.3953 2.4089-1.6179 3.8177-0.62952 3.5385-0.72916 4.0423 1.4355 0.10087 0.43302 0.22683 0.80444 0.33761 1.2122l2.393 0.36351c-1.4143-4.0309-1.2353-4.4299 1.9447-5.2035 2.1449-0.52181 3.0868-0.85567 3.3986-1.2891zm-28.434-29.795c-0.07052 0.23567-0.36943 0.43978-0.95088 0.57456-0.79065 0.18327-1.0051 0.81385-3.7258 1.5007-4.2116 1.0632-4.3371 1.0326-4.7524-1.1986l-0.32815-1.762 1.2509-0.465c0.31435-0.11691 0.6312-0.21406 0.94941-0.29444 3.8782-0.97961 7.8625 0.62346 7.557 1.6447zm-9.8133 12.296c-0.08594 0.14323-1.9855 0.73125-5.8156 1.3294-7.8392 1.2243-11.342 0.71597-9.9914-1.4493 0.79405-1.2732 8.0244-4.27 11.99-5.2946 1.3217-0.34157 2.2812-0.46368 2.5179-0.23018 0.48334 0.47685 0.69506 5.6026 1.2258 5.6118 0.06135 1e-3 0.08603 0.0125 0.07375 0.0329zm-3.3373-15.518-1.3564 0.30081c-7.5923 1.6851-13.765-2.0069-8.497-5.0822 2.4714-1.4428 4.1984-2.3222 5.4504-2.607 2.0866-0.47485 2.8536 0.70248 3.5443 3.6822zm4.7414-19.145c-0.64458 1.4824-1.5235 2.8743-2.6492 4.0404-0.71129 0.73685-1.565 1.4028-1.8974 1.4799l-0.60523 0.14025-1.3015-5.6167c-2.0757-8.9547-1.4304-12.49 2.4437-13.388 5.1792-1.2005 6.8028 6.9207 4.0096 13.344zm-143.31-134.54c-0.17354-2.1656-0.30952-3.8094-0.48626-5.9807l-0.93478 0.40431-2.1258-1.4975c-10.375-7.3048-24.582-4.7755-23.297 4.1469 0.12884 0.89442 0.33313 1.6933 0.61551 2.3982 1.9767 4.9343 7.748 5.2313 17.766 0.97461 6.6634-2.8313 6.7539-3.2298 8.4626-0.44582zm-4.8588-4.0935-5.2951 2.2844c-8.4404 3.6408-12.034 3.6366-13.61-0.01503-2.5917-6.0083 9.6724-9.238 16.863-4.4411 0.85198 0.56834 1.6599 1.2899 1.7951 1.6032zm-122.13 227.25c-4.4585-3.4906-8.8855-6.7859-14.472-10.818-6.0229-4.3474-6.1441-4.4133-7.1102-3.8395-1.7528 1.041-1.4684 1.3689 5.4844 6.3011 3.414 2.4218 8.2251 6.112 13.323 10.154zm-32.735 21.219c-0.049-0.0472-0.21386-0.18748-0.25417-0.22772-0.98473-0.98285-2.5549-2.5472-3.4896-3.476-3.7639-3.7405-9.1101-12.157-11.384-16.93-1.6067-3.3728-3.7792-7.3824-3.9777-8.3414-0.24546-1.1859-1.1994-2.8065-1.4626-3.2947-0.23147-0.42948-0.73222 0.0829-0.98175 1.0851-0.52239 2.0978 4.0794 13.392 8.1109 19.906 2.4764 4.0013 5.869 7.9878 11.019 12.848zm-10.575 6.8562c-13.902-12.827-18.357-19.156-19.64-27.758-0.19879-1.3329-0.50576-2.5379-0.68218-2.6781l5.8e-4 -1e-3c-0.73666-0.58551-1.4096 3.1155-1.004 5.523 1.0106 5.9983 7.7632 15.232 19.052 26.388z" fill="#000000"/>
  </g>
  <g id="tailNumbers" fill="#000000" font-family="Arial" font-size="3.5901px" stroke-opacity=".53367" stroke-width=".22615">
   <text id="number_OnTailR" transform="matrix(.32974 .92277 -.97181 .3131 0 0)" x="58.271122" y="-74.642395" stop-color="#000000" style="font-variant-caps:normal;font-variant-east-asian:normal;font-variant-ligatures:normal;font-variant-numeric:normal" xml:space="preserve"><tspan x="58.271122" y="-74.642395" font-family="Arial" font-size="7.9781px" stroke-width=".22615" style="font-variant-caps:normal;font-variant-east-asian:normal;font-variant-ligatures:normal;font-variant-numeric:normal">08</tspan></text>
   <text id="number_OnTailL" transform="matrix(.42124 -.88476 .90757 .46772 0 0)" x="18.372911" y="119.21615" stop-color="#000000" style="font-variant-caps:normal;font-variant-east-asian:normal;font-variant-ligatures:normal;font-variant-numeric:normal" xml:space="preserve"><tspan x="18.372911" y="119.21615" font-family="Arial" font-size="7.9781px" stroke-width=".22615" style="font-variant-caps:normal;font-variant-east-asian:normal;font-variant-ligatures:normal;font-variant-numeric:normal">08</tspan></text>
  </g>
 </g>
 <path id="guide" d="m105 177 105 104.68m0-45.294-69.516-41.92-8.5473 9.4675-11.727 9.7842m42.584-176.25-22.105-19.971m69.311 42.721-46.875 58.529 10.985-77.444 35.89 4.9887m-76.235-32.044-28.765 93.207m35.623-89.742-35.623 118.17m105-14.11-69.971 20.198 31.535-109.54 12.58-32.434m-79.143-0.28564 60.723 30.688 44.277 15.885v25.693m-32.094-71.98-72.906 177 105-105.22m-105 105.22 50.003 120m-50.003-120-105 104.68m0-45.294 69.516-41.92 8.5473 9.4675 11.727 9.7842m-42.584-176.25 22.105-19.971m-69.311 42.721 46.875 58.529-10.985-77.444-35.89 4.9887m76.235-32.044 28.765 93.207m-35.623-89.742 35.623 118.17m-105-14.11 69.971 20.198-31.535-109.54-12.58-32.434m79.143-0.28564-60.723 30.688-44.277 15.885v25.693m32.094-71.98 72.906 177-105-105.22m105 105.22-50.003 120m50.003 0.00648v-297m104.6 177-209.6 0.12999m0-177.13h210v297h-210z" fill="none" opacity=".5" stroke="#000000" stroke-width=".2"/>
</svg>
