<svg id="svg5" width="170mm" height="215mm" version="1.1" viewBox="0 0 170 215" xmlns="http://www.w3.org/2000/svg" xmlns:xlink="http://www.w3.org/1999/xlink">
 <g id="layer4">
  <rect id="bounds" width="170" height="215" fill="#ffffff" stop-color="#000000" stroke="#1a1a1a" stroke-opacity=".18517" stroke-width=".49428"/>
  <g id="body" transform="translate(0 -5.0647)">
   <path id="base" transform="matrix(.26458 0 0 .26458 0 5.0647)" d="m0 0v159.41l221.21 42.66-39.016-202.31zm183.28 0 109.97 274.42 28.008 27.215 28.008-27.215 109.97-274.42zm137.98 301.64-35.672 35.375-171.59 402.69 59.605-289.93-173.6 173.6v188.98h642.52v-188.98l-173.6-173.6 59.605 289.93-171.59-402.69zm139.06-301.88-39.016 202.31 221.21-42.66v-159.41zm-139.06 538.52 101.39 201.43-23.932-1.9e-4 -77.459-173.77-77.646 173.77-23.745 1.9e-4z" fill="#cccccc"/>
   <path id="camo1" transform="matrix(.26458 0 0 .26458 0 5.0647)" d="m0 0v77.91c13.576 11.146 29.22 40.457 40.574 89.326l50.936 9.8223-6.084-87.975-73.568-89.084zm564.74 0-9.0293 34.621 16.449 37.188 70.357-3.2578v-68.551zm-105.99 7.9004-16.978 88.036 56.838 50.75 14.758 37.631 77.369-14.92c-19.095-20.771-36.56-37.727-44.508-68.516-8.922-34.564-31.908-57.697-31.908-57.697zm-108.41 322.58c-19.374 3.5824-44.863 7.0533-63.16 4.9473l-1.5957 1.584-49.73 120.13c23.993 22.723 78.104 51.826 157.66-31.756l-36.584-88.375zm72.094 160.27-8.6017 5.4962-85.385 55.469 28.127 56.734c35.943-8.353 71.329-29.578 91.726-56.993-9.1224-19.941-16.745-40.765-25.867-60.706zm-212.61 29.281-28.439 68.697c11.765-4.5209 27.692-6.1273 46.654 3.3789 17.773 8.9099 38.407 15.134 56.882 18.367l27.692-56.041zm111.44 45.906-21.133 46.51c14.153 1.1909 28.163 0.78488 41.725-1.0508zm280.74 16.911-58.652 33.664-5.4141 146.25-25.404 49.594h97.82c8.4802-18.464 18.244-39.724 8.2245-67.949-14.947-42.108-10.579-49.206 23.949-112.09v-8.9336zm-598.62 66.867c-1.0693 0.02789-2.1919 0.16655-3.373 0.42773v162.21l32.235 0.24492c23.243-37.795 0.80073-53.502 26.171-95.434 13.973-23.095 5.1296-44.567-20.394-43.998-14.405 0.32095-18.599-23.871-34.639-23.453zm317.89 62.707-108.19 99.934h85.486s-0.97752-22.994 7.8457-27.449c8.2064-4.1439 5.0378-25.918 14.854-25.463 9.7162 0.45031 7.5572 22.571 15.248 28.525 7.1122 5.5068 8.1394 16.319 6.4844 24.387 13.124 0.0563 74.756 0 74.756 0h2.3125z" fill="#666666"/>
   <path id="camo2" transform="matrix(.26458 0 0 .26458 0 5.0647)" d="m3.2012 0c4.2967 12.392 13.945 32.803 34.719 66.24 30.13 48.496 40.827 91.717 43.197 108.81l39.709 7.6562s25.002-72.223 23.127-95.391c-3.135-38.725-68.111-54.881-81.893-87.32zm521.25 0c5.6484 11.166 11.964 26.478 16.465 45.623 10.141 43.133 26.272 44.589 46.617 39.436 48.834-12.369 43.462 11.541 54.99 13.135v-54.529c-15.45 4.7385-29.308 9.493-31.527 11.99-5.3907 6.0647-49.093 16.993-40.469-30.434 1.7849-9.8159 4.0992-18.133 6.6348-25.221zm-79.999 82.065-11.535 59.812s47.816 0.77229 53.571 47.626l49.746-9.5938c-22.359-48.305-91.782-97.844-91.782-97.844zm-123.19 219.57-35.672 35.375-23.52 56.818s18.094 34.625 59.191 47.213c41.098 12.588 54.266-59.115 54.266-59.115l-18.594-44.916zm89.654 162.06c-13.355 16.342-58.406 68.512-88.924 75.941l17.403 34.661c38.852-11.435 74.806-56.763 87.084-74.473zm-191.63 33.476-20.127 48.617c23.171 10.239 62.75 25.073 103.04 29.725l18.165-35.555c-35.152 2.8652-75.357-25.924-101.07-42.787zm375.53 78.479c-9.3691 6.4974-37.914 19.087-95.508 27.622l29.219 136.43-56.253-132.02c-47.406 12.313-48.005 40.324-86.888 57.971l37.272 74.046-23.744-1.9e-4 -30.568-68.157c-3.2093 0.98271-2.6545 0.93283-6.3282 1.8386-44.282 10.917-63.972 10.437-89.145 1.1149l-29.063 65.204-23.933 1.9e-4 35.928-71.377c-14.435-6.3877-32.072-11.569-53.836-20.153-13.119-5.1744-24.116-27.374-39.869-23.237l-16.304 38.908c48.858 12.827 0.90381 127.7-12.894 148.51h138.19c9.8525-15.056 10.557-34.148 25.088-44.436 13.505-9.5619 15.237-29.379 25.09-44.436 0 0 16.507 45.212 29.154 52.15 14.789 8.1137 19.277 36.721 19.277 36.721h211.89c9.2524-25.219-0.20606-75.766-9.9841-123.09-2.1019-10.173-9.425-79.517 17.858-89.235 11.91-4.2422 18.919-5.8458 23.037-6.6836zm-530.24 30.215c-9.9874-0.0884-18.389 4.5046-19.332 16.186-1.8789 23.27 64.109 40.83 84.384 41.893 0.61484-0.0378 7.4985-40.33 7.4985-40.33-2.8941-2.8306-31.596 8.9524-41.026-2.915-6.8495-8.6209-20.206-14.734-31.525-14.834z" fill="#000000"/>
  </g>
  <path id="guide" transform="translate(0 -5.0647)" d="m170 190.75-45.933-66.681m20.036 76.712-20.036-76.712m-39.067 96.358 48.368-19.646m-27.873 0-20.494-45.977m0-30.327 26.826 76.305m-26.826 0h85m-111.3-142.08-58.701-11.459m111.47 11.287 58.529-11.287m-170 122.76 165-165m-165 0v215h170v-215m-170 1.8e-6h170m-165-1.8e-6 165 165m-170 20.749 45.933-66.681m-20.036 76.712 20.036-76.712m39.067 96.358-48.368-19.646m27.873 0 20.494-45.977m0-30.327-26.826 76.305m26.826 0h-85m111.3-142.08 58.701-11.459m-111.47 11.287-58.529-11.287m170 122.76-165-165m165 0v215h-170v-215m170 1.8e-6h-170m165-1.8e-6 -165 165" fill="none" stroke="#b3b3b3" stroke-dasharray="1.05833, 0.264583" stroke-width=".26458"/>
  <g id="parts">
   <circle id="radar" cx="85.083" cy="80.019" r="19.235" fill="#808080" stop-color="#000000"/>
   <path id="cockpit" d="m85 134.83h-5.4221s-3.972-1.3362-2.8909-7.6899c1.0812-6.3537 2.5138-18.658 7.0571-18.759l1.2559-0.0279m0 26.476h5.4221s3.972-1.3362 2.8909-7.6899c-1.0812-6.3537-2.5138-18.658-7.0571-18.759l-1.2559-0.0279" fill="#aa8800"/>
   <path id="cockpitBorder" d="m85 130.25h-3.8104s-3.6774-1.845-4.5074-3.0769m8.3178 3.0769h3.8104s3.6774-1.845 4.5074-3.0769m-8.3178 7.6613h-5.4221s-3.972-1.3362-2.8909-7.6899c1.0812-6.3537 2.5138-18.658 7.0571-18.759l1.2559-0.0279m0 26.476h5.4221s3.972-1.3362 2.8909-7.6899c-1.0812-6.3537-2.5138-18.658-7.0571-18.759l-1.2559-0.0279" fill="none" stroke="#b3b3b3" stroke-width=".7"/>
  </g>
  <g id="decal" transform="translate(0 -5.0647)">
   <path id="text" d="m90.343 202.04q0.11144-0.12432 0.25527-0.27793 0.13848-0.15488 0.28817-0.32133 0.14765-0.16981 0.29534-0.33955 0.14765-0.16981 0.27087-0.31977-0.19527 0.0616-0.42038 0.14173-0.22714 0.0768-0.46343 0.16849-0.23631 0.0917-0.4673 0.18462-0.23631 0.0917-0.45199 0.17977l-0.32866-0.53966q0.64728-0.24137 1.3334-0.45636 0.68413-0.21833 1.3249-0.37299l0.29011 0.47638q-0.24694 0.31408-0.52774 0.64002-0.28412 0.32799-0.57027 0.65265 0.41599-0.11146 0.83198-0.22292 0.41267-0.10941 0.80163-0.1903l0.29011 0.47636q-0.4257 0.50777-0.92522 1.0292-0.50154 0.51814-1.0068 0.99269l-0.34286-0.56298q0.17513-0.15466 0.36275-0.3263 0.18431-0.16957 0.3699-0.34455 0.18561-0.17494 0.35794-0.34169 0.1703-0.1701 0.31082-0.32163-0.1988 0.0408-0.41545 0.0974-0.21666 0.0565-0.43126 0.11636-0.2146 0.0599-0.4099 0.12145-0.19733 0.0582-0.3521 0.10392zm4.2006 2.2577-2.2952 1.4256-0.94134-1.5457 0.43386-0.26949 0.62486 1.026 0.48023-0.29829-0.55588-0.91276 0.43387-0.26949 0.55588 0.91276 0.94721-0.58836zm-1.0249 2.1472q0.24803 0.025 0.53601 0.0481 0.28798 0.0231 0.5575-7e-3l-0.31852-0.52301zm-0.89898-0.11196 1.3778-0.85579-0.15012-0.24651 0.40406-0.25098 0.15012 0.24651 0.51335-0.31886 0.2962 0.48636-0.51335 0.31887 0.6066 0.99605-0.361 0.22423q-0.19034 0.0172-0.43947 0.0204-0.25242 5e-3 -0.52566-9e-3 -0.27859-0.0152-0.55534-0.0499-0.27676-0.0347-0.5171-0.092zm2.9849 1.236q-0.0961 0.0597-0.14256 0.14819-0.0498 0.0906-0.0346 0.22808 0.0152 0.13746 0.0983 0.33381t0.24941 0.46951q-0.33034 0.15464-0.66248 0.32884-0.33213 0.1742-0.61848 0.33363l-0.76078-1.2492 0.41399-0.25715 0.50719 0.83281q0.12306-0.0678 0.242-0.12732 0.11312-0.0616 0.20225-0.10264-0.26308-0.50692-0.20766-0.85816 0.0501-0.35251 0.39452-0.56645 0.15898-0.0988 0.32927-0.12644 0.1703-0.0277 0.33862 0.0238 0.16833 0.0515 0.33013 0.1898 0.15978 0.13492 0.29976 0.36478 0.0548 0.0899 0.10239 0.19811 0.0489 0.10277 0.0858 0.20839 0.0382 0.10023 0.063 0.18586 0.0247 0.0856 0.0292 0.13795l-0.46215 0.16309q-0.0143-0.10591-0.061-0.26512-0.0501-0.15715-0.1657-0.34703-0.13998-0.22986-0.2923-0.27759-0.15563-0.0457-0.27817 0.0305zm2.1454 1.8814q0.0548 0.0899 0.10239 0.19811 0.0509 0.1061 0.0879 0.21172 0.0369 0.10562 0.0604 0.19664 0.0235 0.091 0.03 0.14666l-0.46952 0.15849q-0.0163-0.10924-0.0544-0.26924-0.0434-0.16126-0.16516-0.36114-0.13998-0.22985-0.29102-0.28297-0.15103-0.0531-0.29675 0.0374-0.0894 0.0555-0.1247 0.13255-0.0406 0.0757-0.0365 0.16499 8.5e-4 0.0913 0.0444 0.19281 0.0382 0.10023 0.1011 0.2035l0.11767 0.19321-0.39743 0.24686-0.1339-0.21986q-0.0446-0.0733-0.0984-0.13169-0.0558-0.0617-0.11812-0.0965-0.0656-0.0327-0.13683-0.0298-0.0766 2e-3 -0.15937 0.0531-0.0629 0.0391-0.0931 0.0946-0.0301 0.0555-0.0336 0.11727-5e-3 0.0585 0.0158 0.12335 0.0159 0.0636 0.0504 0.12022 0.0872 0.14324 0.20535 0.23976 0.11608 0.0932 0.23988 0.15403l-0.25348 0.40079q-0.0656-0.0327-0.14461-0.08-0.0811-0.0506-0.16363-0.11876-0.0826-0.0681-0.16126-0.15236-0.0807-0.0876-0.14768-0.19753-0.12376-0.2032-0.16334-0.38064-0.0449-0.17871-0.0143-0.33085 0.0273-0.1501 0.1181-0.2708 0.0875-0.11866 0.22661-0.20506 0.13579-0.0844 0.31163-0.0879 0.17253-2e-3 0.31788 0.0872-0.0367-0.22514 0.0502-0.41227 0.0816-0.1884 0.28358-0.31388 0.15897-0.0988 0.32721-0.12982 0.16492-0.029 0.33327 0.0226 0.16502 0.0536 0.32885 0.19519 0.15848 0.14032 0.30456 0.38017zm-5.0556-0.0906q-0.08167 0.16322-0.16372 0.36953-0.08829 0.20481-0.1585 0.43056-0.07645 0.22425-0.13035 0.45057-0.05776 0.22871-0.08074 0.43583l1.1321-0.70322 0.36923 0.60629-2.6777 1.6632-0.36923-0.60629 1.0124-0.62882q-0.39167-0.0835-0.80266-0.15493-0.41723-0.073-0.77064-0.13735l-0.43787-0.71899q0.49262 0.0743 0.96442 0.16696 0.46944 0.0887 0.96167 0.20615 0.07017-0.48817 0.25499-1.0154 0.18246-0.53114 0.45877-1.0831zm1.5763 2.5884q-0.11308 0.12913-0.22676 0.27476-0.11607 0.14172-0.23213 0.28345l0.63906 1.0494q0.1776-0.0407 0.35757-0.0775 0.17759-0.0407 0.34273-0.0843l0.38344 0.62961q-0.52507 0.11723-0.97499 0.20921-0.44992 0.092-0.85259 0.16533-0.40505 0.0695-0.77059 0.1251-0.37176 0.0542-0.73281 0.0909l-0.35267-0.57909q0.19773-0.30494 0.41329-0.61559 0.21169-0.30826 0.45815-0.63812 0.2441-0.33374 0.52833-0.69777t0.62468-0.78441zm-1.6285 2.0132q0.06979-0.0166 0.19393-0.0401 0.12414-0.0235 0.28628-0.0546 0.16214-0.0311 0.35843-0.0673 0.19393-0.0401 0.40567-0.0859l-0.46627-0.76563q-0.13602 0.17017-0.25893 0.32688-0.12291 0.15671-0.22116 0.29271-0.10061 0.13212-0.1774 0.2334-0.07679 0.10127-0.12056 0.16057z" fill="#555555" stroke-width=".24372"/>
   <image id="roundel_2" transform="rotate(245.56)" x="-224.32" y="30.173" width="13.571" height="7.1848" preserveAspectRatio="xMidYMid" xlink:href="../fe/src/assets/roundels/us_white.svg"/>
   <image id="roundel_1" transform="rotate(82.162)" x="17.144" y="-9.8" width="13.571" height="7.1848" preserveAspectRatio="xMidYMid" xlink:href="../fe/src/assets/roundels/us_white.svg"/>
   <path id="upside" d="m99.668 150.72 0.04941 0.32105s0.04043 0.26081 0.09616 0.68651l-0.55624 0.1909c-0.02102-0.22623-0.03778-0.4151-0.04529-0.46552l-2.2212 0.7623 0.1477 0.43037-0.25812 0.0886-0.32468-0.94606zm0.25973 1.9674c0.0306 0.27987 0.0608 0.58273 0.0888 0.90126l-0.56224 0.19309c-0.01153-0.096-0.02487-0.20431-0.03954-0.34111l-1.7919 0.61496 0.1089 0.31732-0.25812 0.0886-0.28607-0.83354 0.25812-0.0886 1.9108-0.65578zm0.16138 1.8754c6e-3 0.10348 0.0124 0.20742 0.0175 0.31172 0.0491 0.97674 0.0505 1.9705-0.0626 2.7773-0.0565 0.40338-0.14022 0.76026-0.27382 1.0537-0.13361 0.29343-0.32941 0.54106-0.62054 0.64097l-1.3698-3.9912 0.25812-0.0886 1.5076-0.51741zm-0.53584 0.76094-1.338 0.45921 0.96362 2.8078c0.03216-0.047 0.06343-0.0431 0.09458-0.11175 0.09873-0.21685 0.17844-0.53155 0.23057-0.90355 0.08782-0.62658 0.07521-1.4457 0.04926-2.2517zm-29.221-4.6038-0.04941 0.32105s-0.04043 0.26081-0.09616 0.68651l0.55624 0.1909c0.02102-0.22623 0.03778-0.4151 0.04529-0.46552l2.2212 0.7623-0.1477 0.43037 0.25812 0.0886 0.32468-0.94606zm-0.25973 1.9674c-0.0306 0.27987-0.0608 0.58273-0.0888 0.90126l0.56262 0.19309c0.01153-0.096 0.02487-0.20431 0.03954-0.34111l1.7919 0.61496-0.1089 0.31732 0.25812 0.0886 0.28607-0.83354-0.25812-0.0886-1.9108-0.65578zm-0.16138 1.8754c-6e-3 0.10348-0.0124 0.20742-0.0175 0.31172-0.0491 0.97674-0.0505 1.9705 0.0626 2.7773 0.0565 0.40338 0.14022 0.76026 0.27382 1.0537 0.13361 0.29343 0.32941 0.54106 0.62054 0.64097l1.3698-3.9912-0.25812-0.0886-1.5076-0.51741zm0.53584 0.76094 1.338 0.45921-0.96362 2.8078c-0.03216-0.047-0.06343-0.0431-0.09458-0.11175-0.09873-0.21685-0.17844-0.53155-0.23057-0.90355-0.08782-0.62658-0.07521-1.4457-0.04926-2.2517z" color="#000000" fill="#d2d2d2" stroke-width="1.0911" style="-inkscape-stroke:none"/>
  </g>
  <image id="qr" transform="rotate(180.22)" x="-45.883" y="-20.231" width="17.186" height="17.186" preserveAspectRatio="xMidYMid" xlink:href="../fe/src/assets/qrCodes/origami-skin.svg"/>
 </g>
</svg>
