<svg id="svg16" width="210mm" height="297mm" version="1.1" viewBox="0 0 210 297" xmlns="http://www.w3.org/2000/svg" xmlns:xlink="http://www.w3.org/1999/xlink">
 <defs id="defs1">
  <style type="text/css">
   :root {
    --accent: #ffcc00;
    --base: #003067;
    --cockpit: #000000;
    --fold: #000000;
    --cut: #000000;
    --panel-line: #000000;
   }
   .fold {
    fill: none;
    stroke: var(--fold);
    stroke-width: 0.25;
    opacity: 1;
   }
   .cut {
    fill: none;
    stroke: var(--cut);
    stroke-width: 0.6;
    opacity: 1;
   }
   .panel-line {
    fill: none;
    stroke: var(--panel-line);
    stroke-width: 0.2;
    opacity: 0.5;
   }
  </style>
  <symbol id="numL0">
   <path id="l0" d="m9.5627 68.783-4.0432 12.201h7.4414l4.0432-12.201zm1.1725 1.9864h3.6763l-2.7342 8.2284h-3.5993z" style="fill:var(--accent)"/>
  </symbol>
  <symbol id="numL1">
   <path id="l1" d="m12.327 68.783h1.9122l-4.043 12.201h-1.9122l4.043-12.201" style="fill:var(--accent)"/>
  </symbol>
  <symbol id="numL2">
   <path id="l2" d="m9.6032 68.783h7.3601l-2.2331 6.739h-5.5127l-1.1741 3.4759h5.535l-0.65816 1.9862h-7.3601l2.4681-7.4483h5.5148l0.98869-2.7665h-3.7393l-0.29285 0.88378h-1.8474z" style="fill:var(--accent)"/>
  </symbol>
  <symbol id="numL3">
   <path id="l3" d="m9.5627 68.783h7.4413l-4.043 12.201h-7.4413l0.9461-2.8551 1.9212-4.3e-5 -0.30896 0.86897h3.5994s1.4367-3.4759 1.2204-3.4759h-3.6612l0.64883-1.9862h3.6303l0.896-2.7665h-3.6767l-0.35531 0.95763-1.7906-0.0058z" style="fill:var(--accent)"/>
  </symbol>
  <symbol id="numL4">
   <path id="l4" d="m6.3468 78.998h4.5223l-0.74279 1.9862h2.0681l0.6582-1.9862h1.0315c0.04369 0 0.96108-2.0788 0.72076-2.0537-0.24032 0.02513-1.0599-0.0361-1.0599-0.0361l2.6923-8.125h-2.0693l-6.9693 7.8098zm2.5562-2.1291 4.4785-5.1413-1.8132 5.1164z" style="fill:var(--accent)"/>
  </symbol>
  <symbol id="numL5">
   <path id="l5" d="m17.001 68.783h-7.3977l-2.2331 6.739h5.5497l-1.0705 3.4759h-3.6485l0.28401-0.97541-1.9362-0.02152-0.98851 2.9831h7.3977l2.4681-7.4483h-5.4555l0.87389-2.7665h5.4984z" style="fill:var(--accent)"/>
  </symbol>
  <symbol id="numL6">
   <path id="l6" d="m6.3468 80.984h7.3656l2.4682-7.4484h-5.5718l0.91754-2.7663 3.8234-1.3e-4 -0.32771 0.88307 1.8184-0.10788 0.91526-2.7613h-7.3659zm2.6235-1.9862 1.1143-3.4759h3.6266l-1.0923 3.4759z" style="fill:var(--accent)"/>
  </symbol>
  <symbol id="numL7">
   <path id="l7" d="m10.732 71.638-1.6649-0.01011 0.94298-2.8458h7.3929l-5.6514 12.202h-1.9465l4.7272-10.215h-3.4913z" style="fill:var(--accent)"/>
  </symbol>
  <symbol id="numL8">
   <path id="l8" d="m9.5627 68.783-4.0432 12.201h7.4414l4.0432-12.201h-7.4414zm1.1725 1.9864h3.6763l-0.91674 2.7668h-3.6763l0.91674-2.7668zm-1.5751 4.7527h3.6763l-1.1514 3.4758h-3.6768l1.1519-3.4758z" style="fill:var(--accent);stroke-width:.2"/>
  </symbol>
  <symbol id="numR0">
   <path id="r0" d="m6.6874 85.335 3.9905 12.039h7.4316l-3.991-12.039zm2.4996 1.9063h3.7062l2.7378 8.26h-3.7062z" style="fill:var(--accent)"/>
  </symbol>
  <symbol id="numR1">
   <path id="r1" d="m9.4289 85.335 3.9905 12.038h1.9486l-3.9905-12.038z" style="fill:var(--accent)"/>
  </symbol>
  <symbol id="numR2">
   <path id="r2" d="m6.6654 85.335 0.92438 2.7886h1.8912l-0.29255-0.88256h3.7511l0.96437 2.9092h-5.6424l2.3943 7.223h7.4533l-0.62063-1.8723h-5.5621l-1.1404-3.4404 5.569 0.0209-2.2363-6.7465z" style="fill:var(--accent)"/>
  </symbol>
  <symbol id="numR3">
   <path id="r3" d="m6.6877 85.335 0.92438 2.7886h1.8674l-0.29255-0.88256h3.7063l0.96437 2.9092h-3.7063l0.63322 1.9103h3.7063l1.1404 3.4404h-3.7063l-0.23514-0.70936h-1.8674l0.85577 2.5817h7.4311l-3.9905-12.038z" style="fill:var(--accent)"/>
  </symbol>
  <symbol id="numR4">
   <path id="r4" d="m17.459 95.501-0.66865-2.017-1.078 6e-3 -2.7032-8.1549h-1.8184l-1.8196 8.1613 0.66454 2.0049h4.5249l0.62072 1.8723h1.8184l-0.62072-1.8723zm-3.5385-1.9313-2.7194-0.0195 1.0589-4.9895z" style="fill:var(--accent)"/>
  </symbol>
  <symbol id="numR5">
   <path id="r5" d="m6.7366 85.335 2.2294 6.7256h5.6964l1.005 3.4404h-3.69l-0.23514-0.70936h-1.8709l0.85578 2.5817h7.3821l-2.3943-7.223h-5.5112l-0.96437-2.9092h5.5112l-0.63183-1.9061z" style="fill:var(--accent)"/>
  </symbol>
  <symbol id="numR6">
   <path id="r6" d="m17.459 97.373-2.3943-7.2231h-5.5275l-0.96414-2.9093h3.7018l0.29251 0.88265h1.8257l-0.92438-2.7887h-7.4223l3.9905 12.038zm-2.4462-1.8723h-3.7018l-1.1404-3.4405h3.7018z" style="fill:var(--accent)"/>
  </symbol>
  <symbol id="numR7">
   <path id="r7" d="m8.6436 88.124 0.04369-2.7886h7.4437l-2.7402 12.038h-1.9163l2.3064-10.132h-3.3458l-0.02184 0.88256z" style="fill:var(--accent)"/>
  </symbol>
  <symbol id="numR8">
   <path id="r8" d="m6.6874 85.335 3.9905 12.039h7.4316l-3.991-12.039zm2.5518 1.9063h3.654l0.96428 2.9094h-3.654zm1.5978 4.8193h3.6535l1.1405 3.4406h-3.6535z" style="fill:var(--accent)"/>
  </symbol>
  <symbol id="blueangels">
   <path id="path638" d="m17.706 103.55c-0.16301-0.10107-0.31215-0.36745-0.31215-0.55753 0-0.41891 0.2713-0.80633 0.77192-1.1023 0.31094-0.18383 0.31094-0.18383 0.09322-0.21864-0.16726-0.0267-0.22997-0.067-0.2706-0.1739-0.02909-0.0765-0.07104-0.12996-0.09322-0.11883-0.73556 0.36928-0.89284 0.43121-1.0163 0.40021-0.07761-0.0195-0.13578-0.0732-0.13578-0.12537 0-0.0502 0.18077-0.50734 0.4017-1.0158 0.48856-1.1244 0.49969-1.1591 0.3864-1.2026-0.15769-0.06052-0.27751 0.13151-0.76606 1.2276-0.48303 1.0837-0.48303 1.0837-0.82199 1.0839-0.18643 1.2e-4 -0.33896-0.0158-0.33896-0.0355 0-0.0196 0.26846-0.60041 0.59657-1.2906 0.32811-0.69022 0.59657-1.3231 0.59657-1.4063 0-0.15137 0-0.15137 0.33896-0.12007 0.45889 0.04238 0.52379 0.04251 0.76169 0.0014 0.15662-0.02705 0.23114-0.0126 0.31184 0.06043 0.18498 0.1674 0.13157 0.40429-0.3007 1.3337-0.41951 0.90193-0.45898 1.0233-0.33271 1.0233 0.11709 0 0.35983-0.21527 0.35983-0.31912 0-0.17026 0.22097-0.94959 0.34962-1.233 0.16231-0.35763 0.48701-0.71608 0.76217-0.8414 0.26487-0.12063 0.66685-0.13001 0.82499-0.01925 0.07404 0.05186 0.12941 0.06181 0.15085 0.02712 0.03176-0.05139 0.62404-0.08162 0.62404-0.03185 0 0.01263-0.23185 0.51735-0.51522 1.1216-0.28337 0.60425-0.51522 1.1191-0.51522 1.1442 0 0.0538 0.41925-0.14956 0.55589-0.26969 0.06183-0.0544 0.09491-0.16213 0.09491-0.30924 0-0.61184 0.40496-1.4142 0.82437-1.6333 0.36369-0.19 0.65251-0.05545 0.72639 0.3384 0.07086 0.37772-0.17047 0.7957-0.69426 1.2025-0.29371 0.22809-0.31998 0.26526-0.29076 0.41136 0.06554 0.32769 0.26293 0.42224 0.62096 0.29743 0.22724-0.0792 0.30944-0.25353 0.40904-0.8674 0.17151-1.0571 0.64756-2.2377 1.0743-2.6645 0.16543-0.16544 0.24404-0.20434 0.41286-0.20434 0.13451 0 0.24097 0.03585 0.29993 0.101 0.45048 0.49777-0.05454 1.8162-1.1165 2.9147-0.22981 0.23773-0.26522 0.303-0.25014 0.46099 0.01599 0.16743 0.0347 0.18537 0.20739 0.19882 0.11653 9e-3 0.25672-0.0266 0.36309-0.0923 0.15563-0.0962 0.17009-0.12667 0.14204-0.29951-0.03526-0.21729 0.05025-0.26223 0.14876-0.0782 0.06005 0.11222 0.06448 0.11103 0.24813-0.067 0.10284-0.0997 0.27136-0.30373 0.37447-0.45346 0.18749-0.27222 0.18749-0.27222 0.07918-0.55728-0.12974-0.34146-0.13706-0.54412-0.0254-0.70353 0.16344-0.23334 0.67076-0.20934 0.82589 0.03908 0.08959 0.14346-0.0054 0.19154-0.21061 0.10656-0.13737-0.0569-0.1763-0.0542-0.24769 0.01719-0.13343 0.13343-0.04487 0.43487 0.2252 0.76643 0.27238 0.33441 0.37996 0.52818 0.43496 0.7834 0.03904 0.18123 0.03904 0.18123 0.19635 0.0305 0.13974-0.13388 0.15724-0.13897 0.15679-0.0456-8.2e-4 0.16129-0.29385 0.63602-0.50958 0.82542-0.41356 0.36312-0.85115 0.34725-1.2992-0.0471-0.25164-0.2215-0.25164-0.2215-0.50924-0.0344-0.48443 0.35195-0.83877 0.38144-1.0483 0.0872-0.11153-0.15663-0.11153-0.15663-0.28511-0.0242-0.09547 0.0728-0.28566 0.16238-0.42266 0.19901-0.22192 0.0594-0.27175 0.0549-0.45697-0.0413-0.11513-0.0597-0.24554-0.1843-0.29227-0.27916-0.04641-0.0942-0.10537-0.17184-0.13102-0.17252-0.12171-3e-3 -0.70949 0.36334-0.8189 0.51068-0.0678 0.0913-0.26686 0.48217-0.44237 0.8686-0.48588 1.0698-0.82667 1.3553-1.2814 1.0733zm0.37985-0.40649c0.0982-0.1048 0.60961-1.0728 0.60961-1.1539 0-0.0594-0.34079 0.1512-0.54908 0.33938-0.26378 0.23831-0.37288 0.4375-0.37288 0.68076 0 0.28946 0.1188 0.34033 0.31236 0.13375zm0.86957-1.844c0.11948-0.14397 0.87428-1.942 0.84609-2.0155-0.12502-0.3258-0.61448 0.02174-0.94055 0.66782-0.28533 0.56537-0.39309 1.0845-0.27206 1.3106 0.06325 0.11818 0.28093 0.14018 0.36652 0.0371zm5.1022-0.11839c0.22124-0.11441 0.29287-0.22524 0.29287-0.45314 0-0.2103-0.1946-0.66222-0.28515-0.66222-0.02817 0-0.07834 0.0507-0.11148 0.11258-0.03314 0.0619-0.19117 0.2669-0.35117 0.45552-0.26792 0.31582-0.28368 0.3492-0.19927 0.42216 0.24743 0.21386 0.41908 0.24668 0.6542 0.1251zm-2.9655-0.93911c0.34636-0.37112 0.58806-0.93552 0.40064-0.93552-0.20121 0-0.62612 0.65189-0.62747 0.96264-6.14e-4 0.16095 0.05785 0.15395 0.22683-0.0271zm1.8057-0.55172c0.18983-0.28566 0.39578-0.64841 0.45767-0.80612 0.10807-0.27539 0.15619-0.82685 0.07185-0.82338-0.06565 0.0027-0.36872 0.43501-0.52854 0.7539-0.0812 0.16203-0.2304 0.52321-0.33155 0.80264-0.32699 0.90332-0.23475 0.92367 0.33058 0.07296zm-20.027 2.3201c-0.35973-0.23034-0.48466-0.72978-0.28974-1.1583 0.17707-0.38926 0.38306-0.4733 0.60822-0.24815 0.19207 0.19207 0.21813 0.43797 0.04642 0.43797-0.42808 0-0.55594 0.64913-0.16016 0.81308 0.27829 0.11527 0.63038-0.13417 0.88364-0.62602 0.04685-0.091 0.18569-0.51666 0.30852-0.94593 0.12283-0.42926 0.29723-0.93533 0.38755-1.1246 0.20882-0.43755 0.71909-0.98561 1.1057-1.1876 0.16399-0.08568 0.29822-0.1869 0.29829-0.22493 3.49e-4 -0.18339-0.74761-0.23624-1.251-0.08839-0.70661 0.20755-1.3131 0.68988-1.4525 1.1552-0.15106 0.50418 0.18169 0.93343 0.59187 0.76353 0.25125-0.10406 0.37817-0.42779 0.41594-1.0609 0.01675-0.28077 0.04823-0.51049 0.06995-0.51049 0.10694 0 0.14671 0.86654 0.05452 1.188-0.11394 0.3973-0.43564 0.71019-0.73018 0.71019-0.64248 0-0.98354-0.78764-0.61406-1.4181 0.30526-0.5209 1.0234-1.0056 1.6593-1.12 0.35991-0.06472 1.0388 0.0055 1.4755 0.15257 0.17582 0.05923 0.44857 0.10897 0.60611 0.11054 0.2672 0.0026 0.27883 0.0082 0.17312 0.08218-0.11332 0.07934-0.11332 0.07934 0.02518 0.3592 0.27591 0.55752 0.15136 1.0554-0.34202 1.3673-0.13627 0.08613-0.24776 0.16506-0.24776 0.17539 0 0.01037 0.08442 0.12938 0.18759 0.26454 0.10318 0.13516 0.20386 0.33247 0.22374 0.43845 0.14898 0.79415-0.5182 1.6981-1.3235 1.7932-0.54491 0.0643-1.0945-0.2561-1.0945-0.63811 0-0.17913 0-0.17913 0.20338 0.0158 0.11186 0.10721 0.26068 0.21219 0.33071 0.23328 0.33076 0.0996 0.94616-0.37161 1.0834-0.82959 0.16602-0.55413 0.01777-0.90319-0.48248-1.1359-0.30212-0.14056-0.40579-0.26562-0.25369-0.30604 0.03728-0.0099 0.18938-0.04717 0.33798-0.08281 0.35314-0.08468 0.6124-0.28812 0.74276-0.58284 0.12208-0.27597 0.11323-0.60468-0.01849-0.68716-0.1343-0.08409-0.47581 0.16425-0.70845 0.51519-0.10558 0.15927-0.35072 0.64927-0.54476 1.0889-0.39712 0.89973-0.83755 1.7217-1.0804 2.0163-0.32712 0.39684-0.86476 0.52627-1.2258 0.29507zm4.3838-0.0614c-0.08081-0.0409-0.14694-0.13339-0.1676-0.23443-0.05202-0.25434-0.09542-0.29759-0.25814-0.25721-0.14513 0.036-0.14489 0.0352 0.04895-0.18025 0.16993-0.18883 0.20653-0.28162 0.28696-0.72746 0.25793-1.4298 0.84735-2.646 1.3651-2.8169 0.15825-0.05223 0.21358-0.04825 0.32262 0.0232 0.21169 0.13871 0.25934 0.28477 0.23198 0.71112-0.03968 0.61839-0.35656 1.2082-1.176 2.1889-0.18187 0.21768-0.33067 0.44037-0.33067 0.49489 0 0.31124 0.22056 0.35942 0.50443 0.11018 0.13232-0.11618 0.30881-0.43038 0.63913-1.1378 0.45633-0.97732 0.45633-0.97732 0.74106-0.9784 0.1566-6.15e-4 0.28472 0.01804 0.28472 0.04141s-0.19524 0.49703-0.43387 1.0526c-0.23863 0.55554-0.43387 1.0489-0.43387 1.0964 0 0.12731 0.14855 0.10491 0.23673-0.0357 0.04209-0.0671 0.2684-0.57934 0.50291-1.1383 0.42638-1.0163 0.42638-1.0163 0.74403-1.0169 0.23318-4.09e-4 0.31014 0.0174 0.28944 0.06718-0.01551 0.03728-0.22557 0.53506-0.46679 1.1062-0.24122 0.5711-0.43858 1.0639-0.43858 1.095 0 0.16008 0.25979 0.10723 0.47454-0.0966 0.09703-0.0921 0.12202-0.17546 0.12202-0.40713 0-0.54435 0.32211-1.3143 0.64645-1.5453 0.32835-0.2338 0.70911-0.2116 0.84399 0.04922 0.19585 0.37873 0.01641 0.86999-0.4581 1.2541-0.5709 0.4622-0.5201 0.38847-0.43051 0.62482 0.10199 0.26905 0.28539 0.30593 0.52378 0.10534 0.19076-0.16051 0.33949-0.17974 0.3369-0.0436-0.0046 0.24177-0.4527 0.55539-0.79398 0.55569-0.24733 2.1e-4 -0.52452-0.18204-0.58984-0.38784-0.03284-0.10347-0.05503-0.0933-0.28762 0.13169-0.42393 0.4101-0.63324 0.46155-0.88731 0.21814-0.14987-0.14359-0.15641-0.14474-0.30962-0.0542-0.24549 0.14501-0.4741 0.11899-0.66927-0.0762-0.16864-0.16864-0.16864-0.16864-0.30767-5e-3 -0.23662 0.27769-0.45124 0.34254-0.70637 0.21343zm4.0786-1.6047c0.28044-0.36858 0.36142-0.57647 0.26294-0.67495-0.17529-0.17529-0.57609 0.34672-0.64168 0.83575-0.04132 0.30812 0.05218 0.26842 0.37874-0.1608zm-3.1048-0.44948c0.17276-0.25827 0.36553-0.60705 0.42839-0.77506 0.11587-0.3097 0.1553-0.78951 0.06488-0.78951-0.07934 0-0.32461 0.31794-0.47664 0.61786-0.18671 0.36833-0.55862 1.3758-0.55862 1.5133 0 0.10752 0.0017 0.10761 0.11394 6e-3 0.06267-0.0567 0.25529-0.31443 0.42804-0.57271zm4.1481 1.8275c-0.3216-0.34099-0.35661-0.83873-0.09556-1.3584 0.09956-0.19818 0.39341-0.51522 0.47753-0.51522 0.08226 0 0.26437 0.20439 0.3721 0.41762 0.10885 0.21544 0.11066 0.28742 0.0072 0.28742-0.04427 0-0.15816 0.0694-0.25309 0.15421-0.21621 0.19319-0.23762 0.46083-0.04908 0.61351 0.17372 0.14067 0.24414 0.12688 0.49098-0.0961 0.25706-0.23224 0.26348-0.30088 0.07849-0.83837-0.1705-0.49538-0.19177-0.90082-0.05798-1.105 0.10963-0.16731 0.38728-0.30099 0.62517-0.30099 0.33317 0 0.42759-0.08149 0.64855-0.55977 0.1154-0.24978 0.30296-0.55725 0.41681-0.68327 0.36635-0.4055 0.97932-0.64355 1.7862-0.69366 0.54134-0.03362 0.54134-0.03362 0.44798 0.09737-0.41776 0.58613-0.67196 1.022-0.89341 1.5318-1.512 3.4807-1.3622 3.2075-1.768 3.2252-0.3348 0.0146-0.36771 7e-3 -0.3522-0.0849 0.01958-0.1156-0.55132-0.78063-0.58746-0.68431-0.01246 0.0332-0.09445 0.17362-0.18218 0.31196-0.19422 0.30626-0.44432 0.46776-0.7248 0.46803-0.16995 1.6e-4 -0.24458-0.0359-0.38718-0.18711zm2.4012-1.0749c0.18654-0.42434 0.33907-0.80068 0.33896-0.83633-2.86e-4 -0.09116-0.60724-0.51586-0.66076-0.46235-0.07616 0.07616-0.64105 1.4236-0.64105 1.5291 0 0.10432 0.45753 0.54472 0.56353 0.54242 0.03308-6.2e-4 0.21278-0.34849 0.39932-0.77283zm-0.77842-0.76709c0.13451-0.32568 0.23202-0.61244 0.21669-0.63724-0.04708-0.07619-0.42425-0.04998-0.55019 0.03823-0.1498 0.10493-0.2512 0.47086-0.20702 0.74714 0.04275 0.26736 0.18771 0.55282 0.24929 0.49092 0.02566-0.0258 0.15672-0.31337 0.29123-0.63904zm1.5133-0.88572c0.13937-0.32066 0.37463-0.77825 0.52279-1.0169 0.26939-0.43387 0.26939-0.43387 0.06035-0.45028-0.28217-0.02215-0.6499 0.15809-0.91969 0.45079-0.22967 0.24916-0.61934 0.96342-0.5914 1.084 0.01945 0.08393 0.53196 0.5106 0.61675 0.51344 0.03179 1e-3 0.17182-0.26042 0.31119-0.58107zm8.7332-0.96889c-0.08327-0.12709-0.08462-0.15669-0.01299-0.28473 0.09721-0.17376 0.29263-0.21192 0.4333-0.08461 0.13128 0.11881 0.13341 0.30504 0.0049 0.42141-0.14549 0.13166-0.31863 0.11045-0.42512-0.05208zm0.30736 0.0094c0-0.04299-0.0244-0.09323-0.05423-0.11167-0.02983-0.01843-0.05423 0.0094-0.05423 0.06188 0 0.06856-0.01655 0.07884-0.05883 0.03657-0.09703-0.09703-0.03753-0.31538 0.08594-0.31538 0.08222 0 0.11557 0.04595 0.13783 0.18982 0.02507 0.16202 0.03518 0.17307 0.06903 0.07543 0.05174-0.14922-0.0012-0.28006-0.13003-0.32092-0.2073-0.0658-0.36195 0.16271-0.23387 0.34557 0.09289 0.13262 0.2384 0.15624 0.2384 0.0387z" style="fill:var(--accent);stroke-width:.20498"/>
  </symbol>
  <symbol id="Umriss" style="fill-rule:evenodd;image-rendering:optimizeQuality;shape-rendering:geometricPrecision">
   <g id="Umriss_transform" transform="matrix(3.6366e-5 0 0 3.6366e-5 1.3309 -.066827)">
    <path id="path1-5" class="fil0" d="m104003 235814c2135.4-2355.1 3215.2-3209.6 7377.6-6125 20129-10927 74304-29073 75472-72528 3713.6-36008-21980-74344 838-112725-26376-6716-49510-14022-49510-14022l-19087 7300.1-15858-9145.8 0.29 68.009-15460 8480.8-19772-6224.5c-426.23 107.49-24320 6142.1-50496 12807 22706 42097-2347.1 72747 1079.7 112438-347.57 46122 58403 63893 71976 70708 7541.5 3484.1 11252 6313.8 13438 8968.1z" style="fill:#f1b11b"/>
    <path id="path2-3" class="fil1" d="m26553 49262 139071 142830c-20186 21369-53840 28851-61496 37482-7378.2-9257.6-63515-20394-77784-58886-12111-46775 20673-66717 208.72-121426z" style="fill:#003399"/>
    <path id="path3" class="fil1" d="m27926 46039c46663 48020 93326 96040 139989 144060 14768-15557 18422-33931 10961-68272-3966.9-25785-11507-43754 2192.2-74536l-42592-11587-19730 6576.7-15346-8768.9-15137 8664.3-20252-6785.3-40086 10648z" style="fill:#003399"/>
    <path id="path4-4" class="fil2" d="m103755 48837c2714.2-1440.1 3967.4-2567.2 8768.9-250.54 1169.8-646.97 4009.4-2546.2 9771 250.54 6410.2-1209.9 17830-5446.1 25806 7015.1 11669-811.32 20833 8187.1 12778 26056 4320.6 2548.1 6136.6 8331.3 2004.3 17037 1252.4 2046.2 2087.4 2631.4 1252.7 8017.3 1754.1 2588.8 3090.5 5177.8-1002.2 7766.7 5387.5 5678.9 6807.5 12193-751.62 17037-1000.6 7475.5-14112 19754-34324 501.08-6848.4 1045-15158-4174.6-15533-17538-11276-2713.3-13363-13362-10022-25054-9270.2 1065.6-23239-7786.6-16222-17684-7956.2-12068-670.81-31028 17475-23154z" style="fill:#f3f5f6"/>
    <path id="path5-1" class="fil1" d="m106768 60374c1555.5 231.68 2792.8 1972.6 4389.3 3462.4l552.09-32.343c2163 1841.8 4065.7 2700.8 6902.5 5560.4l7681-2393.2-1341.1-1901.5 152.23-82.08 2261.1 2491.1c299.21 191.42 739.41 610.52 1038.8 802.04 309.08 591.46-3235.6 4036.4-4901.1 6102.4l2341.9 1506.2c1115.8 89.31 3242.1 216.83 3611.4 322.65 298.03 175.79 845.23 841.81 1006.6 1171.6 44.76 511.73-2426.3 1104.1-3719.5 1624.2 106.22 101.43-26.38 776.14 79.84 877.57l-1745.9 1547.7c-97.81-109.73-529.71-28.142-627.43-137.78-564.88 1274.2-1197.1 3819.8-1707 3757.2-323.92-172.66-970.4-694.94-1135.6-998.93-96.15-475.09-198.84-2648.9-249.17-3767.2l-1514-2493.5c-2122.8 1592.4-5453.6 4676.7-6034 4347.2-180.87-305.85-493.94-613.94-674.81-919.69l-2410.7-2346.6 87.36-149.31 1853.5 1406.7 2574.3-7452.7c-2758.9-2935-3465.4-5006.6-5230.6-7232.6l51.59-550.62c-1433.2-1647.6-3115.5-2958.7-3292.7-4521.3z" style="fill:#003399"/>
    <path id="path6-1" class="fil1" d="m129371 63123c1555.5 231.68 2792.8 1972.6 4389.3 3462.4l552.09-32.343c2163 1841.8 4065.7 2700.8 6902.5 5560.4l7681-2393.2-1341.1-1901.5 152.24-82.08 2261.1 2491.1c299.21 191.42 739.41 610.52 1038.8 802.04 309.07 591.46-3235.6 4036.4-4901.1 6102.4l2341.9 1506.2c1115.8 89.31 3242.1 216.83 3611.4 322.65 298.02 175.79 845.22 841.81 1006.5 1171.6 44.76 511.73-2426.3 1104.1-3719.5 1624.2 106.21 101.43-26.39 776.14 79.83 877.57l-1745.9 1547.7c-97.81-109.73-529.71-28.142-627.43-137.78-564.88 1274.2-1197.1 3819.8-1707 3757.2-323.92-172.66-970.4-694.94-1135.6-998.93-96.15-475.09-198.84-2648.9-249.17-3767.2l-1514-2493.5c-2122.8 1592.4-5453.6 4676.7-6034 4347.2-180.87-305.85-493.94-613.94-674.81-919.69l-2410.7-2346.6 87.36-149.31 1853.5 1406.7 2574.3-7452.7c-2758.9-2935-3465.4-5006.6-5230.6-7232.6l51.59-550.62c-1433.2-1647.6-3115.5-2958.7-3292.7-4521.3z" style="fill:#003399"/>
    <path id="path7-7" class="fil1" d="m130135 84200c1555.5 231.68 2792.8 1972.6 4389.3 3462.4l552.09-32.343c2163 1841.8 4065.7 2700.8 6902.5 5560.4l7681-2393.2-1341.1-1901.5 152.24-82.08 2261.1 2491.1c299.21 191.42 739.41 610.52 1038.8 802.04 309.07 591.46-3235.6 4036.4-4901.1 6102.4l2341.9 1506.2c1115.8 89.311 3242.1 216.83 3611.4 322.65 298.02 175.79 845.22 841.81 1006.5 1171.6 44.76 511.73-2426.3 1104.1-3719.5 1624.2 106.21 101.43-26.39 776.14 79.83 877.57l-1745.9 1547.7c-97.81-109.73-529.71-28.14-627.43-137.78-564.88 1274.2-1197.1 3819.8-1707 3757.2-323.92-172.66-970.4-694.94-1135.6-998.93-96.15-475.09-198.84-2648.9-249.17-3767.2l-1514-2493.5c-2122.8 1592.4-5453.6 4676.7-6034 4347.2-180.87-305.85-493.94-613.94-674.81-919.69l-2410.7-2346.6 87.36-149.3 1853.5 1406.7 2574.3-7452.7c-2758.9-2935-3465.4-5006.6-5230.6-7232.6l51.59-550.62c-1433.2-1647.6-3115.5-2958.7-3292.7-4521.3z" style="fill:#003399"/>
    <path id="path8-5" class="fil1" d="m109059 82978c1555.5 231.68 2792.8 1972.6 4389.3 3462.4l552.09-32.343c2163 1841.8 4065.7 2700.8 6902.5 5560.4l7681-2393.2-1341.1-1901.5 152.23-82.08 2261.1 2491.1c299.21 191.42 739.41 610.52 1038.8 802.04 309.08 591.46-3235.6 4036.4-4901.1 6102.4l2341.9 1506.2c1115.8 89.31 3242.1 216.83 3611.4 322.65 298.02 175.79 845.22 841.81 1006.5 1171.6 44.76 511.73-2426.3 1104.1-3719.5 1624.2 106.22 101.43-26.38 776.14 79.84 877.57l-1745.9 1547.7c-97.81-109.73-529.71-28.14-627.43-137.78-564.88 1274.2-1197.1 3819.8-1707 3757.2-323.92-172.66-970.4-694.94-1135.6-998.93-96.15-475.09-198.84-2648.9-249.17-3767.2l-1514-2493.5c-2122.8 1592.4-5453.6 4676.7-6034 4347.2-180.87-305.85-493.94-613.94-674.81-919.69l-2410.7-2346.6 87.36-149.3 1853.5 1406.7 2574.3-7452.7c-2758.9-2935-3465.4-5006.6-5230.6-7232.6l51.59-550.62c-1433.2-1647.6-3115.5-2958.7-3292.7-4521.3z" style="fill:#003399"/>
    <path id="path9-8" class="fil0" d="m30770 56145 132348 136052c-18768 19868-50120 27223-58909 34830-8948.2-8189.7-62707-20591-75974-56379-11887-44742 17176-60503 2534.9-114503z" style="fill:#f1b11b"/>
    <path id="path10-8" class="fil0" d="m6168.2 205205c8148.7 711.17 22402 4396.6 29142 14344-38.011 1897.2-75.924 3794.5-113.84 5691.9 21354 13480 88729 24454 135442-887.64-52.18-2400.2-104.36-4800.5-156.53-7200.8 9340.1-9861.9 19620-11584 28490-13149-2713.3 4330.9-5426.7 8661.8-8140 12993 3235.1 2087.2 6470.2 4174.4 9705.4 6261.5-8453.1 2922-12836 3339.5-20663 11114v8140c-45187 25777-121623 23282-154347 1252.3 52.179-2609 104.36-5217.9 156.54-7826.9-9914.1-7461.7-13410-8505.2-21289-11114 3339.5-2348.1 6679-4696.2 10018-7044.2-2748.4-4191.1-5496.8-8382.1-8245.2-12573z" style="fill:#f1b11b"/>
    <path id="path11-2" class="fil1" d="m26598 221313-465.41 22108c4837.4 3044.1 10427 5687.7 16581 7919.1 6302.1 2285 13202 4142 20497 5559.3 37401 7265.7 85069 2952.3 115862-14505-40.65-3877.8-81.5-7870.9-122.15-11863-36.35-3569.3-73.09-7137.9-109.44-10622-4360.5 3388-9555.7 6368.8-15376 8928.2-6307 2773.2-13354 5056.9-20873 6833.4-38120 9006.4-88469 4969.8-115994-14358zm-1331.6-2579.1c2.15-6.55 4.593-12.7 6.84-19.25l1.173-56.87 15.048 11.04c632.99-1695 3461.2-927.79 6274.6-256.89 5347 1273.9 1113.6-1304.7-1047.2-3041.2-1342.1-1078.6-2925.1-2083.1-4340.8-2953.3-6574.7-4041.3-13373-5804-18419-6441.9 2686 3784.3 5573.3 7579.8 7547.3 11806 273.21 584.92 297.64 506.36-239.6 864.48-3.714 2.44-3.518 1.66-0.782-1.08 0-0.1-0.1-0.19-0.196-0.39-2815 2106.8-5723.2 3828.4-8557.5 6042.5 4002.9 1093.5 6472.7 2177.6 9405.9 3710 3060.1 1598.8 5846.3 3510.3 9032.7 5903.2l301.45-14319 26.286-1243.4-6.352-4.49zm-367.02 17734c-3252.1-2481.4-6574.4-5255-9622.6-6847.7-3152.1-1646.8-6600.9-2948.6-11124-4098.1-1454.9-370.04-1417.5-207.25-280.15-1187.6 1816.7-1565.9 3950.8-2963.6 6038.8-4331.3 1255.3-822.17 2494.4-1633.9 3600-2436.1-525.31-1076.1-7471.4-11252-8028.9-11900-383.82-625.27-1278.3-1429.2 887.15-1231.7 5244.3 464.34 13132 1930.4 20615 6530 1451.1 891.94 2993.2 1895.1 4393.9 3020.7 1821.1 1467.7 3147.8 2341.2 4513.4 4055.2 834.28 1389.1 113.94 5124.6 124.59 6948.7 28246 14589 72153 17399 106263 9340.4 7436.7-1757 14402-4013.7 20631-6752.4 2385-1048.7 4661-2167.7 6813-3355.6-46.31-2125.8-349.03-5227.2 5.86-7250.8 2882-4042.4 8567.9-7411.7 13880-9678.5 4644.3-1981.6 9493.6-3067.4 14936-4085.2 3082.9-575.15 2490.2-516.81 721.14 1768.5-2670.5 3871-5371.8 7627-7777.5 11680 3142.1 2153.4 6513.4 3956.8 9623.1 6158.5 1421.2 1006.5 1450.8 832.62-242.34 1233.4-8664.4 2050.3-13785 5092.4-20258 10637 26.68 2601.2-183.31 5516.3-156.73 8048.3 0.1 18.57 0.49 37.33 0.59 55.79l4.2 401.81-351.68 201.38c-31062 17784-79336 22206-117156 14859-7361.3-1430-14332-3306.8-20707-5618.5-6393-2317.9-12182-5069.4-17163-8242.4l0.782-1.17-17.198-10.94-328.61-209.01 8.11-386.17 154-7315.6zm9464.3-12358c20.715-1354.6 16.025-1857.7 128.1-3207.8-965.32-114.81-2048.7-279.37-3208.4-555.9-2193.6-523.06-2505.9-694.94-3691.7-700.8 2391.4 1731.8 4038.7 2973 6772.1 4464.5zm142661-5132.7-5916.5 507.82 134.74 3712.6c3890.3-2358 4056-2343.4 5781.8-4220.5zm3568.9 13852c14.65-12.7 29.5-25.21 44.16-37.91 4559.2-3949.1 8344.2-7101.6 18416-9712.2-2927.5-1934.7-6014.3-3630-8879.6-5658.4-0.58-0.39-1.07-0.78-1.56-1.18-585.21-390.07-550.13-302.81-195.82-909.62 1257.4-2154.1 2662.1-4333 4066.6-6511.6 1104.7-1713.5 2209.1-3427.6 3254.5-5153.6-4754.1 924.67-9050.2 1964.2-13150 3713.2-2191.9 935.32-11091 5921.5-13040 9167.1 1946.9-132.69 3974.4-446.65 5921.2-579.25 1057.4-72.01 3396.2-784.55 3413.6 867.12 669.05 5853.8 99.67 9765.7 150.67 14816zm-165530-14184c0.391-0.39 0.879-0.98 1.466-1.56-0.587 0.39-1.075 0.78-1.661 1.17 0.1 0.19 0.195 0.29 0.195 0.39z" style="fill:#003399"/>
    <path id="path12-6" class="fil1" d="m163394 246977c-46.61-1076.6-453.1-3180 619.9-3896.4 623.9-415.29 1224.6 1184.5 1859.7 1239.8 484.96 43.87 1020.3 44.07 1549.8 0 1572.4-130.25 2870.9-2084.2 2656.8-3586.6-273.89-1964.4-2731.7-2908.9-3896.6-4073.7-755.14-755.14-2117.4-1326.4-2207.7-2732.4-175.4-2733.1 1835-5666.4 4864.4-5857.7 662.6-44.07 1329.7 44.17 2036.8 0 89.11-5.18 709.01-753.08 797.05-796.96 222.3-111.1 900.44-30.58 929.85 309.95 152.34 1752.8 92.44 2514.5-619.9 3940.8-19.73 39.58-98 39.58-177.15 0-21.6-10.84-704.91-962.97-752.69-1107-22.67-68.3-910.9-604.26-974.12-619.9-2265-565.37-3201 3138.2-1062.7 4206.5 1354 673.94 4169.1 2843.9 4383.7 4560.7 87.85 702.86 44.07 1418.3 0 2169.6-183.9 3331.6-5222.1 5304.7-8014.5 5490.6-105.82 6.65-1992.5 2292.2-1992.5 752.7z" style="fill:#003399"/>
    <path id="path13-1" class="fil1" d="m151792 251980c-677.16-126.25-832.62-759.92-325.88-1202.6 366.63-320.21 933.37-638.46 945.78-1144.2 103.19-4175.6 258.36-7934.8 177.06-12177-2.05-134.55-756.9-547.69-974.12-619.9-474.01-157.91-221.22-840.44-132.79-1107 236.86-710.68 3716.3-1770.8 4516.4-2036.8 740.77-246.53 1243.7 246.44 1107 929.85-88.92 452.03-615.5 826.76-752.69 1239.8-431.8 1295.8-1108.1 11120-177.16 12221 28.63 33.81 279.76 654.39 797.06 309.95 722.59-480.75 2728-1142.7 3276.6-1417 278.48-138.36 380.11-1132.7 619.9-1372.6 251.81-251.71 1208.4-745.76 1239.9-177.16 44.06 751.33 44.06 1551.2 0 2346.8-22.67 415.39-710.97 915.88-752.8 929.85-2810.5 934.25-5578.6 2007.2-8457.3 2966.7-199.04 66.06-771.16 372.29-1106.9 309.95z" style="fill:#003399"/>
    <path id="path14-6" class="fil1" d="m53538 252777c-694.55-96.74-9691.9-2996.6-9874.2-3453.7-82.08-205.49-43.581-490.72 0-752.69 25.797-157.81 1414.3-941.77 1417-1284.2 43.874-4029 44.069-8103.4 0-12177-0.489-84.14-1088.6-962.1-1239.8-1416.9-126.05-378.65 487.4-863.31 619.9-797.06 1486.4 739.99 3173.4 1339.9 4870.7 1904 291.68 97.13 730.22 730.61 619.9 1062.7-174.71 524.04-771.26 567.23-974.11 974.12-57.945 115.79-132.5 575.83-132.89 619.9-44.069 3940.4-43.874 7882 0 11867 4.886 627.71 2624.1 1604.7 3586.6 1284.1 552.28-183.51 597.23-154.39 929.85-487.01 299.69-299.69 261.97-529.32 664.16-797.06 110.52-73.58 271.06-42.89 442.84 0 42.897 10.65 477.82 399.07 487.01 487.11 88.041 836.53 44.167 1683.8 0 2523.9-12.214 239.69-1016.8 499.81-1416.9 442.74z" style="fill:#003399"/>
    <path id="path15-8" class="fil1" d="m139129 253087c483.1-240.57 453.79-12504 132.79-12664-394.96-197.58-196.11-63.32-442.74-309.95-85.21-85.3-459.16-226.11-487.1-309.95-83.84-251.91-43.59-534.99 0-797.06 99.76-608.76 9469.1-3174.2 10627-2789.6 176.96 58.93 650.77 532.35 664.26 619.9 149.5 972.75-137.78 1738-177.16 2656.8-13.09 306.14-654.98 364.87-929.85 309.95-307.21-60.38-615.7-1196.9-1107-1239.8-484.95-43.97-1020.3-44.16-1549.8 0-565.47 46.91-1710.7 501.18-2213.9 752.7-39.57 19.74-292.75 223.18-309.95 309.95-119.99 599.87-183.8 2413.9 0 2966.7 158.59 476.06 698.46 568.6 1106.9 487.1 690.74-135.82 1022.7-451.05 1239.9-1107 256.4-770.57 1221.6-40.45 1239.8 0 86.09 191.72 44.07 2082.1 0 3143.8-21.69 550.92-648.92 702.57-1062.7 619.9-137.48-26.97-723.57-776.04-796.96-796.96-696.5-198.75-1840.2 269.79-1859.8 1106.9-44.07 1814.8-44.07 3631.6 0 5490.6 11.93 502.65 867.8 694.17 1239.8 619.9 758.75-149.21 1764-396.91 2656.8-619.9 730.12-179.5 823.73-1195.6 929.85-1726.8 32.25-164.55 1290.7-1014.8 1417 0 87.85 702.86 44.07 1418.3 0 2169.6-50.91 930.05-9154.4 2806-9874.2 3011-1525.8 435.61-1761.3-1245.4-442.74-1904.1z" style="fill:#003399"/>
    <path id="path16-47" class="fil1" d="m56814 250298c-165.43-6971.1-280.24-11232-309.95-11291-50.714-101.62-173.54-241.74-309.95-309.95-568.4-284.15-546.61-1276.4 0-1549.8 246.14-122.93 3547.9 1037.9 5058.1 1417 750.15 188.2 769.01 357.34 626.54 929.85-47.782 192.1-1081 569.87-1301 972.55-21.986 2124.7-22.181 8422.6 0 10274 23.647 1987.8 4232.4 3321 4383.6 1106.9 124.88-1829.5 155.17-8516.7 132.89-10317-12.801-1049.7-953.1-693.38-752.79-1904 97.812-590.78 3459.7-16.71 3586.6 619.9 25.992 130.25 25.992 534.01 0 664.16-106.31 533.13-1089.2 169.44-1107 929.85-45.144 1915.7-110.52 8958-132.79 10804-26.383 2190.8-919.1 2393.8-2656.8 2479.6-4131.8 204.71-7170.7-2847.3-7217.5-4826.4z" style="fill:#003399"/>
    <path id="path17-8" class="fil1" d="m128015 255744c-2028.7-1453.5-3559-2626.2-3586.5-6110.5-44.17-4259.7 1587.1-9159.2 7350.3-9697.1 210.18-19.54 669.05-55.6 929.85 0 293.92 62.73 1000.8 136.21 1239.8 0 932.49-530.78 1026.6-523.16 1417-132.79 283.37 283.47 102.99 410.2 177.06 929.84 964.24 6914.3-1283.6 341.71-3940.8 929.85-2098.3 465.22-2835.4 3497.3-3276.6 5490.6-158.69 716.44-354.12 1824.3-310.05 2656.8 74.46 1450.6 1107 4030.5 2346.8 4383.6 1737.2 496 2226.5-1791.7 2346.8-2656.8 87.65-628.59 58.43-1272.2 0-1904-101.43-1097-1878.2-932.97-2213.9-1859.7-94.49-260.99 244.58-882.94 354.21-929.85 631.43-270.08 5098.5-907.37 5136.4-177.15 43.58 840.15 43.88 1683.8 0 2524-6.45 127.91-29.11 692.89 0 929.85 130.55 1045-73.97 2461.6-132.89 3586.5-168.55 3290.2-6636.2 2897.3-7837.4 2036.8z" style="fill:#003399"/>
    <path id="path18" class="fil1" d="m69478 255611c-211.26-317.47 178.72-853.73 487.11-929.85 879.92-219.66 491.01-48.37 929.85-487.1 601.53-601.63 564.4-10878 177.06-12044-82.275-247.03-818.94-331.84-1106.9-619.9-605.83-605.73-359.1-1284.1 309.95-1284.1 1536.8 194.25 10892 996.49 10937 2036.8 36.936 816.4 440.01 3795.8-929.85 3453.7-42.897-10.65-432.19-444.11-442.84-487.01-153.41-614.53-334.38-1762.3-797.06-1992.6-840.24-420.08-3874.2-746.64-3896.4-235.3-43.971 973.04-43.971 2317.5 0 3334.8 7.133 167.58 508.99 432.19 619.9 487.11 947.93 471.86 1377.7-803.12 2479.6-619.9 1060.8 172.17 211.06 4178.3 177.06 4206.5-898.97 745.56-1145.3-1061.9-2213.9-1417-370.92-123.41-1052.2-45.83-1062.6 487.11-44.167 2188.8-44.167 3477.8 0 5313.4 2.541 115.4 590.1 433.07 752.69 487.1 412.45 137.39 2587.7 378.94 2966.7 0 395.84-395.94 894.48-1243.3 1417-1417 157.91-52.47 778.68 124.78 796.96 309.95 88.041 881.09 44.167 1772.3 0 2656.8-19.347 408.06-10598 266.66-11601-1239.8z" style="fill:#003399"/>
    <path id="path19" class="fil1" d="m109373 258091c-917.44-1912.6 109.15-1171.8 664.16-1726.9 1413.4-1413.4 399.07-12797-820.89-12578-1200.5 215.95-693.29-1338.9-209.11-1358 570.16-22.47 2565.3-295.98 3199.8-145.01 3117.6 741.75 4585.7 8845.8 7217.4 8324.4 287.67-56.77 332.62-5374.1 309.95-6597.5-17.2-938.74-1368.8-516.42-1284.1-1859.8 31.75-501.86 4025.3-1115.1 4560.7-309.95 417.73 628.7-1230 958.19-1239.8 1859.8-21.6 1970-22.18 9741.6 0 11734 13.97 1266.9 1463.1-8.89 929.85 1594-27.85 83.94-485.55 309.66-487.11 309.95-237.54 52.67-997.66-24.04-1239.8 0-242.14 24.14-1426.6 140.22-1549.8 0-1873.5-2130.4-5013.2-5465.8-6287.5-8014.4-29.71-59.31-137.39-327.05-196.7-356.65-264.61-132.31-733.15-594.79-733.15 533.81 0 2184.3-154.68 4374.3 0 6553.2 13.58 191.91 324.71 206.76 487.01 309.95 331.25 210.77 1016.8 819.53 619.9 1417-197.19 296.66-3807 589.02-3940.8 309.95z" style="fill:#003399"/>
    <path id="path20" class="fil1" d="m91573 258268c-305.85-12.02-1259-478.99-1107-1239.8 8.501-43.39 70.257-114.52 132.79-177.06 28.142-28.04 227.87-144.32 310.05-177.15 240.38-96.06 516.13-59.22 664.16-132.8 1401.2-700.61 4839.1-11637 4693.5-12221-50.909-205.39-1611.6-1651.5 0-1726.9 1813.2-88.43 3631.6-44.07 5446.3 0 46.41 1.08 463.16 237.94 487.1 309.95 308.49 927.21-413.53 1028.8-797.05 1284.1-84.04 55.99-161.04 892.52-132.8 1062.7 592.64 3615.5 3006.6 8304 3896.4 10981 37.52 112.57 747.42 559.22 929.85 619.9 54.23 17.98 278.78 278.68 309.95 309.95 215.36 215.27 258.36 294.61 177.16 619.9-1.37 6.06-398.68 482.9-487.11 487.01-1813.1 88.43-3631.6 44.16-5446.2 0-338.97-8.01-466.68-768.43-354.31-1106.9 23.74-71.33 1083.2-474.21 1107-619.9 93.8-564.69-413.82-1818.1-752.69-1859.7-1693.3-211.65-3206.2-71.53-5357.8 0-296.76 9.18-1003.4 1386.9-929.85 1682.5 16.905 68.5 1940.9 1762.3 309.95 1904-1014.6 88.24-2037.9 44.17-3099.5 0z" style="fill:#003399"/>
    <path id="path21" class="fil1" d="m36623 246667c-1190-65.66-6642-2966.8-7040.3-3763.7-79.149-158.3-43.385-402.88 0-619.9 16.025-81.4 1106.2-834.48 1107-929.85 44.069-4471.8 44.069-8944.7 0-13461-2.15-270.37-632.7-588.43-797.06-752.79-299.69-299.69-130.06-1440.4 177.16-1594 158.2-79.15 402.78-43.38 619.9 0 2404.3 472.94 8088.7 4147.9 9564.2 5623.4 517.4 517.4 1020.3 1443 1239.8 2214 85.109 297.93 43.776 623.03 0 929.85-135.43 972.06-956.72 1832.6-1417 2523.9-250.64 376.69 108.66 374.25 177.16 442.74 554.14 554.24 1924.2 2833.5 2036.8 3630.9 87.454 613.65 44.069 1241.6 0 1859.8-76.022 1069.5-1877.9 3805-3453.8 3896.4-707.06 44.17-1462.6 44.17-2213.9 0z" style="fill:#003399"/>
    <path id="path22-9" class="fil0" d="m96110 252001c-130.35-260.9 1628.2-4716.6 1859.7-4870.7 110.52-73.58 315.42-42.9 487.11 0 51.593 12.8 1843.7 4225.4 1682.5 4870.7-260.02 1049.2-3680.5 700.81-4029.4 0zm-61193-8590.1c-96.053-1542.9-263.05-3009.7-177.16-4560.7 23.94-456.72 619.02-1225 974.21-1106.9 789.63 263.14 1908 1428.6 2169.6 2213.9 237.54 714.68 231.29 1650.7 0 2346.7-331.74 996-2894.2 2332.7-2966.7 1107zm487.11-8634.3c-17.979-3.52-485.54-398.67-487.11-442.84-44.069-1194.6-232.56-2413.2 0-3630.9 61.365-321.58 690.55-354.21 929.85-309.95 650.19 120.19 1447.7 1655.8 1726.9 2214 161.72 323.53-338.19 1400.8-487.11 1549.8-284.45 284.45-1050.3 746.24-1682.5 619.9z" style="fill:#f1b11b"/>
    <path id="path23" class="fil1" d="m75330 133554c16588 0 30118 13530 30118 30118 0 11876-6935.8 22183-16963 27081v-4428.2l-4160.2-1828.5c706.08-306.73 1393.2-649.31 2060.1-1023.6-387.05-301.74-834.09-609.64-1350.1-924.67 3985-1964.6 2053.2 1571.3 4111-7403.7-2466.5 75.92-3921.4-185.36-6387.8-109.54-2599.8 40.65-1490.1 3501.6-2162.9 3301.3-2043.5-55.7-1822.8 1141.1-3721.6 2867.7-2428.6 0-4664.4 433.56-7092.9 433.56-894.87-3653.5-489.06-2056.3-227.67-3301.3 151.75-379.43 207.15-807.02 359-1186.5-379.52-417.34-951.64 465.9-1042-1204-4898.6-1616.1-4401.6 910.7-6602.6 1366 921.64 1612.9-220.64 2653.2-1044.1 4108.6 1549.6 1234.6 3262.6 2272.2 5101.6 3071.9l-4150.6 1832.8v4428.2c-10027-4898.2-16963-15205-16963-27081 0-16589 13530-30118 30118-30118z" style="fill:#003399"/>
    <path id="path24" class="fil0" d="m102477 167136-487.98 2113.4 1860.2 1118.5-2161.9 188.69-487.99 2113.4-849.82-1994.8-2162 188.58 1639.2-1424.4-848.65-2000.3 1860.6 1117.4 1638.4-1420.4z" style="fill:#f1b11b"/>
    <path id="path25-4" class="fil0" d="m97305 155717 5989.9-726.41 419.98 1464.6-5533.5 2318.2-339.75-1184.9 1493.3-550.13-162.6-567.23-1567.8 290.21-299.49-1044.4z" style="fill:#f1b11b"/>
    <path id="path26" class="fil0" d="m95189 151454 5260.6-2797.1 800.09 1504.8-2564.6 1802.4c-197.58 142.56-477.92 325.97-836.24 550.91-30.389 19.25-52.179 33.91-67.911 45.34l22.376 33.42c173.25-76.41 344.15-148.62 513.98-217.12 170.32-67.13 359.88-136.7 568.4-208.43l2892.9-1011.9 764.52 1437.9-5260.6 2797.1-508.11-955.64 2781.8-1479.2c144.91-77 312.3-164.45 504.2-261.88 190.64-96.63 405.71-203.14 645.8-321.48l-13.1-30.48c-315.81 149.21-633.97 276.14-951.54 377.86-13.484 4.1-20.324 6.06-22.767 7.33l-3274.6 1086.9-473.82-891.16 2593.5-2006.8c86.38-66.34 216.24-157.22 391.54-273.89 174.13-115.99 380.5-247.61 619.8-396.72l-16.318-36.54c-8.501 4.49-49.835 26.48-120.58 64.1-1097.9 589.99-2364 1266.4-3798.2 2028.9l-451.24-848.65z" style="fill:#f1b11b"/>
    <path id="path27" class="fil0" d="m92282 147629 4630.3-3749.5 1072.6 1324.5-2173.6 2258.7c-166.7 177.65-406.98 411.18-715.76 700.32-26.09 24.72-44.753 43.29-58.042 57.55l28.337 28.44c155.56-108.08 309.56-211.46 463.17-311.13 154.39-98.39 327.15-202.85 518.18-313.07l2646.7-1545.2 1024.8 1265.5-4630.3 3749.5-681.17-841.22 2448.5-1982.7c127.52-103.29 275.16-221.13 444.99-353.34 168.66-131.23 359.39-276.82 572.61-438.74l-18.761-27.45c-281.52 206.66-569.58 392.03-861.94 552.47-12.41 6.55-18.761 9.77-20.911 11.53l-3007.1 1691.7-635.14-784.35 2162.9-2464.8c72.211-81.59 182.34-195.43 332.13-343.47 148.82-147.15 326.27-315.61 532.74-507.72l-22.963-32.83c-7.524 6.16-43.971 35.57-106.12 85.99-965.22 788.65-2079 1694.2-3341.3 2716.4l-604.85-746.93z" style="fill:#f1b11b"/>
    <path id="path28" class="fil0" d="m92849 142112c356.27-424.57 692.99-658.69 1009.4-701 317.38-41.53 665.24 97.42 1044.5 415.58 379.23 318.15 577.2 635.63 593.32 953.2 14.95 316.79-157.91 690.16-517.69 1119l-2020.8 2408.3c-358.12 426.82-694.94 660.74-1009.2 702.96-314.44 42.11-663.38-97.62-1044.7-417.54-381.28-319.91-579.54-639.34-592.54-956.33-13.191-316.88 158.88-689.08 516.91-1115.9l2020.8-2408.3z" style="fill:#f1b11b"/>
    <path id="path29" class="fil0" d="m90066 140044c319.43-456.33 634.56-718.79 944.02-788.16 309.56-69.48 667.1 37.81 1070.4 320.11 405.51 283.96 630.36 582.96 674.13 897.9 42.506 314.34-97.128 701.29-418.22 1159.9l-378.06 539.87-969.13-678.63 607.39-867.41c60.094-85.79 90.386-155.46 89.018-208.72-0.489-52.37-31.757-101.33-93.904-144.81-59.899-41.92-114.33-53.06-163.77-35.47-48.173 18.47-103.28 70.74-163.38 156.54l-2231.9 3187.4c-60.094 85.79-90.385 155.46-90.483 211.06-0.489 53.45 28.63 100.74 86.282 141.1 62.146 43.48 119.6 55.11 170.51 35.37 52.081-19.15 107.19-71.43 165.72-155.07l688.1-982.62 969.13 678.63-493.46 704.72c-317.96 454.07-632.31 715.46-941.09 783.76-308.68 68.3-667.68-41.62-1075.4-327.15-405.42-283.95-630.16-580.91-673.06-892.22-41.822-310.44 98.105-695.44 419.19-1154.1l1808-2582z" style="fill:#f1b11b"/>
    <path id="path30" class="fil0" d="m85071 137598c226.6-508.9 485.74-826.66 776.34-953.79 290.6-127.22 664.56-89.11 1119.2 113.35 425.74 189.57 698.85 430.43 821.19 721.82 122.24 291.48 95.271 637.09-81.982 1035.1l-363.4 816.3-1080.8-481.24 430.63-967.37c42.603-95.67 59.117-169.83 47.587-221.81-10.358-51.4-50.519-93.42-119.8-124.3-64.296-28.63-120.38-27.94-166.5 1.27-47.587 28.63-91.168 89.31-131.52 179.99l-1582.1 3553.5c-42.604 95.76-59.118 169.93-48.564 224.45 9.673 52.57 47.293 93.51 111.59 122.05 69.279 30.87 127.91 31.27 174.13 2.15 47.489-28.73 91.558-90.58 133.09-183.8l426.82-958.58-274.58-122.24 374.64-841.42 1355.4 603.48-1232.2 2767.4-535.28-238.32 82.08-371.02c-197.19 103.96-389 161.91-576.22 172.17-188.98 10.94-373.95-24.62-559.12-107.1-337.6-150.28-536.74-380.79-600.65-691.52-63.417-312 10.357-704.71 221.81-1179.6l1278.2-2870.8z" style="fill:#f1b11b"/>
    <path id="path31" class="fil0" d="m79829 140827 1542-5755 1576.8 422.52-248.49 2547.1c-22.572 228.06-57.554 481.34-103.38 758.85-45.828 277.5-107.29 592.24-182.24 946.16l46.707 12.51c90.191-411.28 171.88-769.11 243.5-1074 72.016-306.14 126.25-524.24 161.91-657.42l630.75-2386.2 901.71 241.55-1542 5755.1-1350.5-361.94 250.25-3283.3c8.502-127.61 28.728-320.5 60.486-577.58 31.366-255.72 67.911-535.67 109.44-840.05l-30.585-8.21c-48.271 243.99-92.34 456.42-131.13 638.66-38.89 182.33-74.165 329.88-104.85 444.4l-916.76 3421.7-913.63-244.87z" style="fill:#f1b11b"/>
    <path id="path32" class="fil0" d="m78270 140719 726.12-5913.6 1182.4 145.11-726.12 5913.7z" style="fill:#f1b11b"/>
    <path id="path33" class="fil0" d="m74765 140452 103.97-5957.2 1632.2 28.43 375.12 2531.6c33.223 226.8 60.583 481.05 83.253 761.3 22.669 280.44 39.183 600.65 52.081 962.19l48.271 0.88c-11.921-420.86-19.25-787.87-23.451-1101-4.202-314.45-4.397-539.29-1.954-677.16l34.688-2467.9 933.37 16.32-103.97 5957-1397.9-24.33-551.5-3246.4c-22.67-125.86-49.639-317.97-81.005-575.05-31.464-255.72-63.807-536.26-97.03-841.62l-31.66-0.58c12.117 248.49 20.813 465.22 27.165 651.46 6.449 186.34 7.915 337.99 5.863 456.52l-61.853 3541.8-945.68-16.42z" style="fill:#f1b11b"/>
    <path id="path34" class="fil0" d="m73201 140601-415.58-5943.5 1188.4-83.15 415.68 5943.6-1188.5 83.05z" style="fill:#f1b11b"/>
    <path id="path35" class="fil0" d="m69874 141102-96.249-6033 1500.5-264.51 1727.1 5745.4-1213.9 213.99-391.05-1542.6-581.2 102.5 124.88 1589.5-1070.1 188.69z" style="fill:#f1b11b"/>
    <path id="path36" class="fil0" d="m67087 142044-1841.1-5666.4 1321.9-429.55c461.6-149.99 821.09-176.87 1082.4-82.08 260.12 95.27 448.51 322.55 564.79 680.68l193.47 595.27c96.737 297.64 97.03 548.47 2.931 754.45-94.001 205.89-283.18 364.58-567.82 474.41l9.87 30.19c329.4-83.84 582.18-77.59 755.92 19.64 175.4 98.2 316.79 314.64 425.94 650.39l467.86 1439.9c37.424 115.3 84.522 229.04 139.05 338.97 56.381 110.71 118.33 212.33 184.39 303.99l-1117.4 363.01c-66.935-85.5-129.76-185.37-188.3-298.42-58.043-111.59-108.95-237.06-152.82-372.2l-67.326-207.15-401.02-1234c-51.495-158.69-120.38-268.23-207.15-329.98-86.281-60.29-190.05-71.63-310.63-32.44l-15.829 5.18 853.92 2628-1133 368.09z" style="fill:#f1b11b"/>
    <path id="path37" class="fil0" d="m65097 142939-2080.1-4672-694.06 309.07-343.17-770.97 2465-1097.5 343.27 770.97-694.06 308.97 2080.1 4672-1077 479.49z" style="fill:#f1b11b"/>
    <path id="path38" class="fil0" d="m60617 145717-3417.4-4880.5 1138.5-797.15c397.7-278.49 733.64-409.33 1011.2-395.06 276.63 15.14 523.16 177.35 739.11 485.83l359.1 512.71c179.5 256.4 253.18 496.09 223.38 720.64-29.705 224.36-164.16 431.41-404.34 619.71l18.273 25.99c290.5-176.47 534.11-244.38 728.66-202.17 196.41 42.5 394.96 208.23 597.42 497.36l868.39 1240.2c69.572 99.38 147.84 194.36 232.17 283.47 86.184 89.41 175.2 168.46 265.2 236.86l-962.39 673.84c-89.018-62.24-178.33-139.34-267.35-230.31-88.139-89.8-173.54-194.85-255.03-311.22l-124.88-178.43-744.29-1062.9c-95.663-136.7-193.57-221.32-294.61-254.94-100.16-32.44-202.66-12.99-306.53 59.81l-13.583 9.47 1584.9 2263.6-975.87 683.32z" style="fill:#f1b11b"/>
    <path id="path39" class="fil0" d="m59450 146784-3829.7-4564 912.55-765.79 3829.8 4564.1-912.65 765.69z" style="fill:#f1b11b"/>
    <path id="path40" class="fil0" d="m57142 149347-3871.4-4627.9 999.62-1149.9 4957.8 3378.2-808.68 930.34-1274.7-952.72-387.14 445.29 1097.3 1156.8-712.83 819.92z" style="fill:#f1b11b"/>
    <path id="path41" class="fil0" d="m55004 152693-5159.9-2979 595.67-1031.8 4380 2528.8 513-888.52 779.76 450.27-1108.6 1920.2z" style="fill:#f1b11b"/>
    <path id="path42" class="fil0" d="m53555 155710-4997.1-3381.5 643.84-1380.9 5697 1880.7-521.01 1117.2-1487.9-564.4-249.37 534.79 1373.7 809.47z" style="fill:#f1b11b"/>
    <path id="path43" class="fil0" d="m52862 158042-5909.6-1006.1 337.11-1175.6 3664.5 806.92c102.99 20.82 240.87 50.33 414.9 88.83 173.93 38.4 361.25 80.61 560.1 127.61l8.013-27.85c-215.56-79.05-419-154.58-612.96-228.84-192.89-72.51-381.09-146.48-564.5-222.11l-3255-1294.8 291.87-1017.9 5501.1 2430.8-435.61 1519z" style="fill:#f1b11b"/>
    <path id="path44" class="fil0" d="m52207 161911-5767.5-1772.7 212.04-1508.8 5997.9 132.79-171.49 1220.7-1588-104.75-82.178 584.33 1550.3 372.49-151.16 1075.9z" style="fill:#f1b11b"/>
    <path id="path45" class="fil0" d="m52175 165251-5954.4-207.94 56.967-1631.5 2537.7-330.76c227.28-29.31 482.02-52.28 762.66-69.96 280.73-17.79 601.24-28.73 962.97-35.38l1.662-48.17c-420.95 4.5-788.07 5.47-1101.2 4.2-314.44-1.27-539.19-4.98-676.96-9.87l-2467-77.78 32.636-932.87 5954.3 207.93-48.759 1397.2-3255.4 494.73c-126.25 20.42-318.84 44.17-576.42 71.04-256.21 26.97-537.23 54.33-843.18 82.27l-1.075 31.66c248.58-7.82 465.51-12.7 651.85-15.83 186.34-3.22 338.09-1.95 456.52 2.15l3540.2 123.61-33.028 945.29z" style="fill:#f1b11b"/>
    <path id="path46" class="fil0" d="m49644 172772-487.89-2113.4-2162.3-189.96 1860.5-1117.3-487.89-2113.4 1638.4 1420.4 1860.5-1117.3-848.84 1998.8 1639.6 1425.8-2162-188.59-849.92 1994.7z" style="fill:#f1b11b"/>
    <path id="path47" class="fil0" d="m98684 163040c15.341 339.56 24.038 680.77 24.038 1023.8 0 80.52-1.271 160.74-2.15 241.06 47.001 267.44 140.61 474.79 280.34 621.27 219.37 229.92 596.55 349.62 1132.8 359l3017.9 52.67c537.72 9.38 918.61-88.73 1141.5-295.88 222.79-205.69 339.36-562.25 348.16-1068.2l24.33-1389.7-5957.2-103.97-9.772 559.9z" style="fill:#f1b11b"/>
    <path id="path48" class="fil0" d="m98295 159710c14.071 73.48 29.021 146.67 42.408 220.44l3496.7-491.5c117.35-16.42 266.95-41.63 449.97-77.1 182.92-35.47 395.65-77.97 639.15-128.78l4.4 31.27c-296.47 80.71-568.41 156.53-816.01 227.47-249.08 71.24-434.54 128.01-555.41 170.03l-3093.1 1043.5c60.778 415.58 110.03 834.67 148.33 1256.9l19.25 136.7 5900.1-829.2-129.96-924.38-2443 351.67c-136.51 19.25-358.52 54.53-668.47 107.88-308.58 53.16-669.92 117.84-1083.8 195.43l-6.64-47.78c355-69.38 668.76-135.73 942.16-201.98 273.31-66.25 520.13-132.99 738.92-201.39l2441.7-766.47-227.19-1616.6-5900.1 829.2z" style="fill:#f1b11b"/>
    <path id="path49" class="fil1" d="m103924 163809-4309.8-75.14-1.075 64.68c-2.15 124.1 22.474 212.83 72.602 264.71 50.03 51.89 133.77 79.54 252.3 81.59l3631.4 63.42c137.88 2.35 230.61-22.18 278.39-73.77 47.88-52.87 73.19-160.06 76.12-325.49z" style="fill:#003399"/>
    <path id="path50" class="fil1" d="m100139 156376 121.26 422.81 1710-629.48c95.86-36.15 271.94-92.33 527.56-171.29 110.62-34.69 196.31-60.68 258.65-78.56l-12.51-43.68c-222.69 53.84-400.23 94.69-533.81 124.29-133.48 29.71-221.61 47.79-264.12 54.33z" style="fill:#003399"/>
    <path id="path51" class="fil1" d="m94116 142627-2501.2 2980.8c-67.325 80.22-103.58 147.06-108.56 202.37-5.081 53.15 19.836 102.89 73.677 148.13 58.14 48.76 114.33 65.27 166.8 50.03 53.547-14.56 113.06-61.85 178.62-140.02l2501.2-2980.8c67.325-80.23 103.58-146.97 106.8-200.12 4.201-52.28-22.768-103.78-80.908-152.44-53.84-45.24-107.97-60.09-160.45-44.75-53.547 14.46-112.18 60.68-175.98 136.8z" style="fill:#003399"/>
    <path id="path52" class="fil1" d="m70857 138500 433.26-76.41-447.34-1766.5c-25.894-98.99-63.319-280.05-115.2-542.51-22.865-113.55-39.77-201.59-51.105-265.49l-44.753 7.91c30.292 227.19 52.375 408.06 67.912 543.88 15.536 135.82 24.331 225.43 26.383 268.42z" style="fill:#003399"/>
    <path id="path53" class="fil1" d="m67486 137887-293.14-902.2c-41.724-128.49-94.294-205.69-158.2-232.75-65.175-26.77-172.17-16.51-324.22 32.93l502.74 1547.4 61.755-20.13c117.94-38.3 192.89-88.72 223.47-150.87 30.487-62.15 26.872-153.71-12.409-274.38z" style="fill:#003399"/>
    <path id="path54" class="fil1" d="m59770 141656-544.07-777.02c-77.487-110.71-150.38-169.05-219.37-176.38-70.159-6.45-169.44 34.59-300.47 126.35l933.27 1332.7 53.157-37.13c101.62-71.24 158.59-141.4 169.63-209.7 10.944-68.3-19.348-154.88-92.145-258.84z" style="fill:#003399"/>
    <path id="path55" class="fil1" d="m56255 146781 288.55-331.93-1459.3-1091.4c-82.471-60.59-225.52-177.75-431.02-349.14-89.213-73.77-157.71-131.52-206.76-174.12l-29.803 34.29c166.5 157.52 297.44 284.16 395.06 380.01 97.617 95.76 160.74 159.86 189.37 192.01l1253.9 1340.2z" style="fill:#003399"/>
    <path id="path56" class="fil1" d="m51984 153517 185.95-398.77-1703.6-646.77c-96.053-35.57-265.78-108.66-510.56-216.83-106.12-46.32-187.9-82.96-246.73-110.42l-19.25 41.24c203.44 105.53 364.28 191.13 484.47 256.4 120.19 65.08 198.56 109.34 235 132.3l1574.7 942.85z" style="fill:#003399"/>
    <path id="path57" class="fil1" d="m50050 160304 61.267-435.61-1818.3-120.48c-102.11-5.96-285.91-26.29-551.6-58.04-115.11-13.29-204.03-24.43-268.23-33.52l-6.352 45.05c225.43 41.43 404.24 76.31 538.21 103.57 134.06 27.07 221.91 46.42 263.44 57.85z" style="fill:#003399"/>
    <path id="path58" class="fil2" d="m76201 173127c0-369.85-436.29-1629.6 0-1629.6 0 875.91 614.52 600.36 945.48 600.36 0-432.98 1374.1-1072 1890.9-1072 0-42.9 1736.9-900.54 1755.8-900.54 0-1106.3 11931-783.86 11931-4245.5-3033.6 0-11300-290.01-11300-300.18h-8554.1v-171.58h-5762.7v-128.59h-4592.2v-471.77c664.26 0 5897.7-193.96 5897.7 171.59 8222.3 0 16410 300.18 24627 300.18 0 462.38 876.6 1329.4 1305.7 1329.4 0 911.48 63.807 1372.2-1305.7 1372.2 0 1099.5-5344.4 2144.2-6843.2 2144.2 0-1048.4-3708.6-249.47 339.17 327.24-136.9 524.33-83.155 872.78-339.17 873.47-1750.8-3528.4-8554.1 3340.3-8869.2 1200.7-87.747 0-810.44 526.38-810.44 600.35h-315.13z" style="fill:#f3f5f6"/>
    <path id="path59" class="fil2" d="m95605 167081c0-636.12-90.386-471.67 1575.7-471.67 0 762.37-790.41 471.67-1575.7 471.67z" style="fill:#f3f5f6"/>
    <path id="path60" class="fil2" d="m62334 164336v-600.36c224.84 0 4952.4-3367.2 4952.4-3473.6 467.56 0 3196.5 203.54 3196.5-171.58 333.4 0 280.54-128.59 630.26-128.59 0-446.95 1890.9-235.11 1890.9 0 562.44 0 585.11 471.66 1260.6 471.66 0-243.31 70.745-171.49 315.13-171.49 0-187.32 2775.3-1672.5-135.04-1672.5 0-38.69-1821.1-900.53-2071-900.53 0-239.5-180.09-178.72-180.09-600.36 689.76 0 5762.7-375.91 5762.7 0 3710.6 0 6442.2 2101.2 9679.7 2101.2 0 191.42-19.543 171.49 180.09 171.49 0 202.86-116.48 128.69-315.23 128.69 0 330.27-495.22 255.13-495.22 0h-810.34v471.77c551.6 0 2071 1165.7 2071 1672.4h180.09c0 372.68 3556.7 2701.7 3961.9 2701.7v343.07c-10029 0-20044-343.07-30074-343.07z" style="fill:#f3f5f6"/>
    <path id="path61" class="fil2" d="m70933 153640c0-232.17 134.75-771.94-135.04-771.94 0-389.2 135.04-664.17 135.04-900.54 383.92 0 222.2 171.59 495.22 171.59v728.95c-330.47 0-180.09 488.86-180.09 771.94h-315.13z" style="fill:#f3f5f6"/>
    <path id="path62" class="fil2" d="m69988 146993c0-393.69 82.275-471.77 495.31-471.77 0-262.94 315.13-275.55 315.13 0h315.13c0 751.72-437.66 471.77-1125.6 471.77z" style="fill:#f3f5f6"/>
    <path id="path63" class="fil2" d="m66791 146821c0-276.73-134.94-60.88-134.94-300.28h630.16v300.28h-495.22z" style="fill:#f3f5f6"/>
    <path id="path64" class="fil2" d="m72665 175794c0-349.43-53.059-857.64 315.13-857.64 0-2180 313.17-300.18 630.36-300.18 0 1286 135.04-867.8 135.04-1200.7-822.66 0-2386.2-445.18-2386.2-1372.3-361.25 0-2521.2-519.84-2521.2-600.35h-630.26c0-367.9-55.795-771.95 450.17-771.95 0-949-6843.2-513.09-6843.2-1801.1-1675.4 0-3310.8-771.94-4772.3-771.94 0-407.86-1575.7 26.87-1575.7-1200.7-306.43-53.84-429.75 16.91-539.87-240.96-1747.4 66.05-144.42-1588.7-90.386-2332-1729 0-924.77-1372.2-2251.1-1372.2v-300.18c-331.45 0 399.46-3888.2 1032.7-6171 180.67-529.42 379.72-1050.6 597.13-1562.3 138.36 8.4 727.78 170.02 756.31 142.76 293.34-279.76 436.59-1.27 495.22 0 614.23 14.56 5402.5-156.15 5402.5 171.59 686.54 0 4277 333.2 4277-300.18-167.87 0-135.04-6.35-135.04-171.59-419.19 0-1260.6 194.16-1260.6 0-460.43 0-4141.9 137.68-4141.9-128.59-180.38 0-630.36 294.41-630.36 0-190.93 0-315.13-77.49-315.13 128.59h-180.09c0-225.91-2516-61.07-3016.4-300.18-71.136-33.61-818.46-102.89-983.2-146.57 3652-7949.4 11692-13493 20988-13493 9656.8 0 17959 5983.1 21393 14431 1492.2 3947.1 1660.5 7447.5 1553.7 8702 0 504.21 50.519 869.56 103.87 1132.4-10.944 214.88-25.503 428.77-42.408 642.08-208.82-0.87-653.02-73.18-1522.5-73.18 0-42.9-2501.9 83.25-2501.9 40.35-392.42 0-613.26-471.76-810.44-471.76 0-254.35-79.539-900.54-315.13-900.54v-471.66c-958.58 0-4457.1-2054.4-4457.1-2873.2 285.23 0 135.14-944.61 135.14-1200.7 253.08 0 675.3-232.56 675.3-471.77-255.42 0-675.3-50.62-675.3-300.18-318.16 0-1710.9-322.45-1710.9-600.35-1001.5 0-7833.8-1930.4-7833.8-1972.7-2738.8 0-5525-128.69-8419-128.69 0-163.09 36.545-171.49-135.04-171.49 0-137.98-468.64-1200.7 135.04-1200.7 0-292.27 221.42-171.59 495.22-171.59 0-172.66 135.04-140.12 135.04-428.77 391.25 0 180.09-3315.5 180.09-3816.6-260.41 0-450.95-300.18-630.26-300.18 0-653.22-630.26-1467.7-630.26-2272.8 521.79 0 1121.1-428.87 1890.9-428.87v-171.48c436.88 0-15.634-729.05 630.26-729.05 0-212.43 315.23-391.05 315.23-643.25h-135.14v-300.18c-428.77 0-695.82-128.69-1305.6-128.69v128.69h-1891c0-343.96-495.22-793.54-495.22-1200.7h-945.48c0 496.88-450.17 525.41-450.17 1072-195.92 0-360.18-86.97-360.18 128.69h-4097v300.18h135.04c0 275.65 315.23 262.95 315.23 0h810.34c0 196.79-74.36 300.17 135.04 300.17v471.77c-244.77 0-135.04 260.51-135.04 471.67 106.31 0 2206.1 1667.2 2206.1 1801.1h180.09v771.94c-661.82 0-821.48 600.36-1125.6 600.36v1072.1c-330.08 0 74.556 300.17-315.13 300.17v1329.4h-135.14v171.49h-1125.5v471.77h135.04v128.59h180.09c0 346.11 1440.7 495.51 1440.7 900.54 406 0 315.81 300.17 630.26 300.17 0 266.67 113.84 471.77-180.09 471.77 0 154.09-1228.3 1972.7-1440.6 1972.7 0 490.53-315.23 310.24-315.23 771.84 358.9 0 298.13 1801.2 0 1801.2 0 486.23-6387.7 3945.2-6978.3 3945.2v128.69c-322.07 0-294.02 643.26 0 643.26 0 203.44 315.13 504.5 315.13 900.53 158.2 0 495.22 130.65 495.22 300.18h2071c0 158.69 1105.6 300.18 1395.8 300.18 17.784 170.9 196.89 174.03 214.97-41.92 120.09 17.98 200.12 30 280.24 41.92 0 27.55 2364 771.94 3016.4 771.94 0 230.02 819.82 428.77-135.14 428.77 0 294.02 135.14 55.31 135.14 300.18h2251c0 319.04 356.07 171.59 630.26 171.59 0 87.64 4277 2795.7 4277 3645 258.45 0 549.25 128.69 945.48 128.69 0-364.48 495.22-710.68 495.22-128.69-877.67 0 0 874.64 0 900.63 282 0 135.04 816.6 135.04 1072 1412 0 834.58 128.69 2251.1 128.69 0 821.19 875.23 0 1125.5 0v171.49h135.14v1029.2c-1587.5 0-3570.4 600.35-4907.4 600.35 0 406.89-234.12 257.29-630.26 257.29z" style="fill:#f3f5f6"/>
    <path id="path65" class="fil1" d="m86093 154736c-463.46 43.87-682.05 59.02-1188.7 304.97-313.96 202.95 1057.4 507.03 1521.1 739.01-800.38 1444.7 1553.6 1085.8 2380.7 1188.7 144.91-145.01 851.58-419.78 996.59-564.69 289.82 347.86 464.44 811.12 754.35 1159 188.69 230.41 578.96 42.5 695.73-260.9 0-492.87-100.74-956.72-100.74-1449.5 724.65-666.8 1939-1160.3 2274.9-2029.1-710.68 72.6-1983.1 231.68-2276.1 448.51-231.97 260.9-204.52 478.51-767.74 595.08-1498.8 166.41-2785.5 111.59-4290.2-131.04zm-11278-5561.5c-43.483-165.82-192.5-505.87 0-600.36 391.83-192.49 780.93-386.65 1395.6-171.49 215.17 75.34 570.75 513.79 810.44 471.67 42.115-7.33 128.49-54.82 180.09-128.59 73.774-105.34-43.483-305.85 0-471.77 56.381-214.58 304.28-136.5 315.13-171.49 85.891-277.89-1382.3-679.11-1440.7-900.53-180.09-682.24-1773.3-994.63-1935.9-1672.5-87.552-364.87-445.77-771.55-765.3-729.05-42.506 5.57 42.701 125.57 0 128.69-576.61 42.71-442.65-431.41 315.13-900.53 469.13-290.41 1394.1-384.6 1890.9-300.18 609.05 103.58-1062.2 574.76-945.48 600.36 571.63 125.66 1526.9-538.51 1755.8 0 538.5 1266.3-1800.8-991.41-1755.8 1200.7 0.879 44.95 1469.8 963.07 1575.7 1243.6 84.523 223.76 625.96 428.28 630.36 428.87 284.94 42.4 526.09-109.74 675.3 171.48 79.149 149.21 890.76 926.73 1080.5 0 38.793-189.76 1020.7-734.9 1125.6-771.84 297.15-104.85 719.76-219.86 945.39 0 219.86 214.38 851.29 402.29 945.48 908.94 10.944 59.21 313.08-337.7 360.18-246.73 135.04 261.19 140.51 801.45 450.17 838.68 0 1147.8 1560.4 471.67 2386.2 471.67 0-325 1062.4-1972.6 1260.6-1972.6v-128.69c363.89 0-253.37-564.69 0-771.95 253.37-207.25 720.35 0 1125.5 0 0 935.91 3495.9 2573 4637.2 2573v300.18c-2075.6 0-3258.2-1801.1-5267.5-1801.1 0 252.4-403.07 600.36-180.09 600.36 0 302.43 360.18-103.68 360.18 600.36-441.38 0-645.3 128.69-990.43 128.69 39.965 1418.6-2862.2 1486.4-4015.7 438.05-352.26-320.21-489.26-599.09-756.6-1167.1-290.5-617.36-1445.3-341.32-1575.8 0-144.23 376.79-775.46 646.09-810.34 729.05-82.959 197.57 114.23 461.79 0 643.25-71.918 114.23-275.07 41.72-450.17 0-417.34-98.69-285.42-572.61-495.31 428.77-68.889 330.08-2719.6 444.31-2836.4 0zm18099 6389.6c0-353.73 2585.8-171.49 3016.4-171.49 0 317.87 488.57 42.6 180.09 300.18-44.655 496.68-2680.3-128.69-3196.5-128.69zm990.53 4974.5c517.01 0 1395.6-278.09 1395.6 300.18-638.46 0-1395.6 478.8-1395.6-300.18zm1575.7 3816.6v-471.77c414.41 0 564.89 128.69 810.34 128.69v343.08h-810.34zm-37728-4116.8c0-919 1789.4-128.69 1305.6-128.69 0 270.67-1040.3 128.69-1305.6 128.69zm-630.36 1844c557.85 0 630.36-140.61 630.36 428.87-337.7 0-1260.6-153.41-1260.6 0-1397.1 0 630.26-1493.4 630.26-428.87zm-1080.5 1929.8c898.68 0 1080.5 1256.8 1080.5 2144.1-907.47 0-1080.5-1242.6-1080.5-2144.1zm4772.3 3344.9c0-202.37-1352.8-428.77-1620.7-428.77 0-850.5 2711.9 428.77 1620.7 428.77zm21160-23328c-332.42-346.01 304.38-300.18 765.4-300.18 0 479.78-446.07 632.6-765.4 300.18zm-4637.2 300.18c-514.27-179.89 1467.9-753.87 1890.9-471.77 282.1 188.1 904.64-47.49 1125.6 171.59 219.08 217.22 82.275 417.04-135.04 471.67-864.09 217.31-1411.9 342.78-2881.4-171.49zm3961.9 1072c506.65-838.29 1472.8-600.36 2386.1-600.36 0-433.17 180.09-172.37 180.09-471.67h1755.8v300.18h-1440.7c0 545.15-1220.6 471.67-1755.8 471.67 0 879.13-1414.5 778.39-1125.5 300.18zm-3781.8 1072.1c236.27-322.36 790.02 357.24 450.27 600.36-474.6 339.75-772.63-160.35-450.27-600.36zm-4141.9 1929.8c-96.053-183.41 17.882-205.89-180.09-300.18-186.34-88.72 863.31-367.21 630.26 300.18-77.292 221.42-348.25 195.62-450.17 0zm2836.2 2744.5c0-630.94-179.79-494.34-135.04-900.54 4.886-44.75 128.59-44.46 135.04 0 44.46 303.11 495.31 279.56 495.31 900.54h-495.31zm5087.5 300.18v171.58c-537.14 0-507.53-471.76-135.04-471.76 0-226.7 240.48-128.59 450.17-128.59 0-921.06 3309.8 428.77 4457.1 428.77v171.58h180.09c0 566.55-4814.5-171.58-4952.4-171.58zm-2836.4 771.94c-424.47-1006.2-404.54-900.54-810.44-900.54 0-850.11 1125.6 18.47 1125.6 600.36 283.27 0 315.13 198.36 315.13 428.77-344.93 0-399.16-128.59-630.26-128.59zm-180.09 3173.4c-580.13 0-4772.3 197.87-4772.3-171.59-878.55 0-765.4 184.49-765.4-300.17 720.54 0 6032.9-605.05 6032.9 171.58 790.51 0 5222.5-422.42 5222.5 471.67-649.12 0-5717.8 194.55-5717.8-171.49z" style="fill:#003399"/>
    <path id="path66" class="fil1" d="m80154 180143h1894.1c1323 109.73 640.52-3050 2112.6-3270.5 4197.8 27.07 7353.7 4.01 11130 31.17 308.88-50.22 332.33 284.15 367.99 382.26 3776.4 9.09 7155.3 18.08 10931 27.36 2512.5 158.88 336.34 2649.3-1219.7 2783.4-160.05 1594.5-2528.1 2271.2-3308.4 2203.3-849.33 2025.6-2889.7 1855.8-3590.7 1896.9-1188.7 1436.6-2551.2 1396.6-3243.9 1195.8-1014.2 767.64-1953.7 890.37-2843.8 492.67-1088 805.46-1842.4 394.77-2583.3 9.68-1.857 497.75 33.321 995.61-241.45 1344.4-517.1-68.6-924.38-162.79-1391.6-454.96-266.47 2482.7-1758 1319.4-1825.5 1024.1-521.11 1118.3-1352.5 500.1-1625.1 80.42-470.49 1068.2-1126.8 400.04-1299.3 227.97-554.43-206.28-1109.6-412.75-1664.2-618.54-26.969-98.88-28.923-123.02-56.088-221.12-610.81 784.35-1325.5 1069.4-1296.5 127.51-955.55 1387.9-1104.6-275.26-1117.3-525.11 447.63-2195.9 423.59-4540.6 871.12-6736.8z" style="fill:#003399"/>
    <path id="path67" class="fil0" d="m94282 179281h-9214.4c-6.351 60.78-14.559 126.73-25.503 197.19-0.684 5.18-1.857 9.67-2.638 14.65 2780.6 334.38 5575.5 539 8370.6 712.15 588.14 37.13 913.73-350.5 871.9-923.99z" style="fill:#f1b11b"/>
    <path id="path68" class="fil0" d="m94746 179328c3425.8 214.39 6854.8 369.07 10286 460.82 570.16-48.56 3784.2-1968.2 1346.7-2120.6-3546.4-8.01-7093.2-17.88-10640-25.99-285.03 612.86-477.82 991.41-1026.7 1387.9 18.175 93.51 30.096 194.45 33.809 297.83z" style="fill:#f1b11b"/>
    <path id="path69" class="fil0" d="m92989 181774c2074.3 1093.9 6847.3 3632.5 8507.6 585.99-2690.2-310.14-5353.1-785.52-7990.9-1395-108.95 302.53-276.53 591.96-516.71 808.98z" style="fill:#f1b11b"/>
    <path id="path70" class="fil0" d="m91951 182125c-55.013 171.1-165.63 396.82-363.11 602.11 1145 865.36 2374.1 1612 3626.3 2310.3 1000.1 285.61 2018.8-142.08 2723-848.46-1896-462.87-3690.9-1215.6-5406-2139-186.05 65.47-383.82 87.26-580.13 75.05z" style="fill:#f1b11b"/>
    <path id="path71" class="fil0" d="m84856 180195c537.62 126.44 6928.4 1580.2 6952.9 1448.8 703.25 133.48 1150.3-378.15 1315.1-994.05-2733.3-171.97-5465.4-376.88-8185-705.01-24.233 84.33-51.984 167.78-82.959 250.25z" style="fill:#f1b11b"/>
    <path id="path72" class="fil0" d="m84611 180708c1631.5 855.49 3356.9 1526.1 5103.9 2105.6l76.999 25.21c637.49 44.07 1412.5-116.87 1693.7-762.95-2287.8-422.81-4560.8-921.84-6825-1454.5-16.318 29.12-32.539 57.94-49.639 86.57z" style="fill:#f1b11b"/>
    <path id="path73" class="fil0" d="m89964 183306c770.18 815.04 1623.5 1547.9 2506.4 2237.5 776.63 333.89 1554 179.21 2250.6-256.21-1214.4-685.46-2400.4-1419.5-3508.8-2267.4-376.98 217.71-816.89 292.46-1248.2 286.11z" style="fill:#f1b11b"/>
    <path id="path74" class="fil0" d="m91955 185722c-815.72-647.75-1601.8-1332.6-2318.3-2090-257.18 361.54-679.5 546.42-1109.7 607.2 366.43 408.64 757.38 792.65 1171.5 1153l22.865 12.11c709.89 364.48 1435.2 734.62 2233.6 317.67z" style="fill:#f1b11b"/>
    <path id="path75" class="fil0" d="m84291 181148c1101.5 925.35 2243.7 1801 3422.4 2626 544.27 75.24 1328 48.86 1614.8-518.57 12.019-23.94 23.158-48.76 33.223-74.75-1716-577.49-3416.2-1243.7-5017.3-2094.5-17.296 20.91-35.177 41.62-53.157 61.85z" style="fill:#f1b11b"/>
    <path id="path76" class="fil0" d="m83690 181655 1973.7 2110.2 57.456 62.34 0.684 6.06c385.68 273.79 1063.2 299.98 1515.6 170.02-1128.8-798.81-2225-1644.9-3281.5-2536.6-82.666 66.06-171.29 128.89-265.88 187.91z" style="fill:#f1b11b"/>
    <path id="path77" class="fil0" d="m82444 184039c254.64 308.58 803.21 307.31 1128 120.19 10.944-5.96 20.227-11.82 29.412-17.3l-1485.3-1998.8c-29.021 2.54-57.945 4.99-86.966 7.14h-744.88c345.81 626.44 755.23 1215 1124.3 1828.2l35.373 59.31v1.27z" style="fill:#f1b11b"/>
    <path id="path78" class="fil0" d="m82632 182067 1442.4 1941.3 1.368 1.47 0.782-0.69c130.45 179.11 989.26 234.42 1162.3 22.96h0.586c6.742-7.81 12.214-17.39 16.221-28.14l-1992.2-2130c-190.35 78.96-400.24 144.42-631.43 193.09z" style="fill:#f1b11b"/>
    <path id="path79" class="fil0" d="m81590 186988c361.05-736.37 471.18-1525.3 582.57-2318.8 2.834-22.67 6.449-45.34 9.381-68.3-103.48 65.47-229.14 94-368.48 93.02-100.65-0.58-209.79-17.88-322.46-47.39-50.714 891.15-336.92 1691.6-714.58 2491.6-1.759 729.83 574.36 146.57 813.57-150.19z" style="fill:#f1b11b"/>
    <path id="path80" class="fil0" d="m82734 187401c374.15-836.73 520.52-1763.9 554.82-2674.8-6.254 0.59-12.605 1.86-19.25 2.35-201.1 26.67-418.51 18.85-621.66-39.38-4.397-1.47-8.892-2.64-13.191-3.72-2.15 15.44-4.104 31.17-6.449 47-112.96 806.83-225.43 1609.6-592.64 2390.8 1.661 7.82 3.615 15.54 5.276 23.06l693.09 254.75z" style="fill:#f1b11b"/>
    <path id="path81" class="fil0" d="m84525 187473c233.24-942.65 312.49-1895.2 353.53-2862-309.85 15.44-643.45-32.54-927.6-159.47-42.701 38.6-92.535 74.46-147.74 106.02-16.025 9.28-32.441 18.57-49.248 26.87-21.106 1010.5-179.11 2046.5-587.65 2975.3l405.12 148.92 46.121 17.1 35.861 34.98c383.24 378.64 672.86 153.02 871.61-287.77z" style="fill:#f1b11b"/>
    <path id="path82" class="fil0" d="m86152 187497c10.651-91.75 17.686-155.17 21.497-190.15 105.34-922.62 210.09-1837.4 144.42-2800.6-249.66-32.05-497.46-97.33-706.08-204.32-5.667 7.33-11.237 14.56-17.393 22.18h0.782c-66.055 80.71-152.63 142.47-252.3 187.02-41.333 1011.2-116.67 2011.8-353.24 2999 377.47 472.06 864.77 575.64 1162.3-13.19z" style="fill:#f1b11b"/>
    <path id="path83" class="fil0" d="m87860 184253c181.36 603.39 325.88 1419.6 401.31 2052 333.99 206.27 647.75 368.19 1037.6 439.32 140.02-301.25 92.438-688.59 87.747-1013.8-523.16-449.39-1007.9-947.24-1454.3-1472.3-24.037-1.76-48.173-3.32-72.406-5.27z" style="fill:#f1b11b"/>
    <path id="path84" class="fil0" d="m87834 186581c-86.086-765.98-213.99-1486.4-402-2156.2-9.674 3.52-19.836 6.55-29.705 9.58-200.02 63.02-413.04 88.33-622.44 93.9 62.048 987.99-42.994 1905-148.92 2830-7.133 65.08-13.387 117.65-18.175 158.1 29.803 53.35 139.54 147.35 287.28 219.86 174.22 85.21 365.16 97.22 518.47-38.5l-0.489-0.2c178.33-158.49 334.08-494.72 415.97-1116.6z" style="fill:#f1b11b"/>
    <path id="path85" class="fil0" d="m79988 182343c36.643-216.83 74.361-433.46 113.54-650.48 0.977-6.36 2.736-13.1 3.811-19.16h-0.391c70.061-388.02 144.03-776.53 221.81-1166.7h1810.7c1689.8 89.12 980.76-3127.4 2086.7-3234 1.563-0.19 8.403 0.2 20.325 1.18h17.491c2067.3 12.99 3879.8 13.87 5639.7 15.04 1770.2 1.08 3487.5 2.25 5359.3 15.35l37.229-3.52c29.607-4.99 40.747 49.83 47.782 85.6 0.391 2.15 1.172 4.39 1.466 6.54-304.87 657.91-480.17 1015.8-1151.6 1427.3h-9565.1c-98.789 2671-2077.1 2869-4145.3 2869v460.92h276.92c360.96 692.5 805.46 1332.5 1211.3 1998.2-4.398 21.3-11.042 37.23-19.25 48.47-213.99 279.85-1284.9-461.61-1409.6-632.41l-370.83 271.84c146.67 200.71 496.39 460.43 863.21 639.35-26.871 897.4-308.58 1687.4-688.1 2490.2-452.03 644.13-654 538.5-711.56-236.96 219.76-1080.3 227.87-1817.7 235.88-2555.2 6.449-560.39 12.507-1121.5 114.52-1830.4z" style="fill:#f1b11b"/>
    <path id="path86" class="fil0" d="m86924 188234c-125.46-4.59-253.08-57.46-377.86-172.76 114.52 78.47 243.21 138.95 377.86 172.76z" style="fill:#f1b11b"/>
    <path id="path87" class="fil0" d="m93978 180601c5810.5 1083.6 9651.7 2350.4 10856-357.54-3380.4-92.53-6759.1-245.36-10134-456.71-94.685 378.93-343.27 687.02-722.21 814.25z" style="fill:#f1b11b"/>
    <path id="path88" class="fil1" d="m70505 180143h-1894.3c-1323.2 109.73-640.42-3050-2112.5-3270.5-4197.8 27.07-7353.6 4.01-11130 31.17-308.78-50.22-331.74 284.15-367.89 382.26-3776 9.09-7155 18.08-10932 27.36-2512.2 158.88-335.75 2649.3 1220.1 2783.4 159.96 1594.5 2527.7 2271.2 3308 2203.3 849.72 2025.6 2890.2 1855.8 3590.8 1896.9 1188.9 1436.6 2551.4 1396.6 3244 1195.8 1014.3 767.64 1953.8 890.37 2843.5 492.67 1088.7 805.46 1842.3 394.77 2583.5 9.68 2.247 497.75-33.027 995.61 241.84 1344.4 517.01-68.6 924.08-162.79 1391.6-454.96 265.98 2482.7 1757.8 1319.4 1825.3 1024.1 521.21 1118.3 1352.5 500.1 1625.5 80.42 469.81 1068.2 1126.1 400.04 1298.6 227.97 555.02-206.28 1109.6-412.75 1664.3-618.54 27.165-98.88 29.119-123.02 55.893-221.12 611.2 784.35 1325.8 1069.4 1296.9 127.51 955.55 1387.9 1104.4-275.26 1117.3-525.11-447.63-2195.9-423.59-4540.6-870.93-6736.8z" style="fill:#003399"/>
    <path id="path89" class="fil0" d="m56377 179281h9214.1c6.742 60.78 15.048 126.73 25.992 197.19 0.879 5.18 1.563 9.67 2.443 14.65-2780.4 334.38-5575.9 539-8370 712.15-589.02 37.13-914.02-350.5-872.49-923.99z" style="fill:#f1b11b"/>
    <path id="path90" class="fil0" d="m55912 179328c-3425.6 214.39-6854.7 369.07-10286 460.82-569.87-48.56-3784-1968.2-1346.5-2120.6 3546.3-8.01 7093.1-17.88 10640-25.99 285.03 612.86 478.31 991.41 1027 1387.9-17.979 93.51-30.194 194.45-33.907 297.83z" style="fill:#f1b11b"/>
    <path id="path91" class="fil0" d="m57670 181774c-2073.8 1093.9-6846.6 3632.5-8506.9 585.99 2689.9-310.14 5352.9-785.52 7990.7-1395 109.05 302.53 276.24 591.96 516.22 808.98z" style="fill:#f1b11b"/>
    <path id="path92" class="fil0" d="m58707 182125c55.209 171.1 165.63 396.82 363.4 602.11-1144.9 865.36-2374.2 1612-3626.4 2310.3-1000.3 285.61-2018.6-142.08-2722.8-848.46 1895.6-462.87 3691.1-1215.6 5405.8-2139 186.05 65.47 384.12 87.26 580.03 75.05z" style="fill:#f1b11b"/>
    <path id="path93" class="fil0" d="m65803 180195c-537.53 126.44-6928.2 1580.2-6953.1 1448.8-703.05 133.48-1150-378.15-1314.9-994.05 2733.3-171.97 5465.3-376.88 8184.6-705.01 24.624 84.33 52.57 167.78 83.448 250.25z" style="fill:#f1b11b"/>
    <path id="path94" class="fil0" d="m66047 180708c-1631.3 855.49-3357.3 1526.1-5103.7 2105.6l-77.194 25.21c-637.39 44.07-1412.5-116.87-1693.9-762.95 2287.8-422.81 4561.2-921.84 6825.5-1454.5 15.634 29.12 32.343 57.94 49.248 86.57z" style="fill:#f1b11b"/>
    <path id="path95" class="fil0" d="m60695 183306c-770.58 815.04-1623.8 1547.9-2506.7 2237.5-776.34 333.89-1553.4 179.21-2250.4-256.21 1214.5-685.46 2400.2-1419.5 3508.8-2267.4 376.49 217.71 817.09 292.46 1248.2 286.11z" style="fill:#f1b11b"/>
    <path id="path96" class="fil0" d="m58704 185722c815.72-647.75 1601.7-1332.6 2318-2090 257.28 361.54 679.5 546.42 1109.8 607.2-366.33 408.64-757.19 792.65-1171.2 1153l-22.963 12.11c-709.89 364.48-1435.2 734.62-2233.6 317.67z" style="fill:#f1b11b"/>
    <path id="path97" class="fil0" d="m66367 181148c-1101.1 925.35-2243.8 1801-3422.5 2626-543.88 75.24-1327.6 48.86-1614.3-518.57-12.117-23.94-23.061-48.76-33.516-74.75 1715.9-577.49 3416-1243.7 5017.4-2094.5 17.295 20.91 35.275 41.62 52.961 61.85z" style="fill:#f1b11b"/>
    <path id="path98" class="fil0" d="m66969 181655-1973.7 2110.2-57.945 62.34v6.06c-386.36 273.79-1063.4 299.98-1515.8 170.02 1128.7-798.81 2224.5-1644.9 3281.3-2536.6 82.764 66.06 171 128.89 266.17 187.91z" style="fill:#f1b11b"/>
    <path id="path99" class="fil0" d="m68214 184039c-254.55 308.58-803.21 307.31-1128.3 120.19-10.455-5.96-19.934-11.82-29.021-17.3l1485.3-1998.8c28.63 2.54 57.749 4.99 87.063 7.14h744.78c-346.01 626.44-755.53 1215-1124 1828.2l-35.763 59.31v1.27z" style="fill:#f1b11b"/>
    <path id="path100" class="fil0" d="m68026 182067-1442.6 1941.3-0.879 1.47-0.684-0.69c-130.84 179.11-989.65 234.42-1162.5 22.96h-0.88c-6.84-7.81-11.921-17.39-15.927-28.14l1992.1-2130c190.35 78.96 399.94 144.42 631.33 193.09z" style="fill:#f1b11b"/>
    <path id="path101" class="fil0" d="m69068 186988c-360.66-736.37-471.18-1525.3-582.08-2318.8-3.225-22.67-6.351-45.34-9.771-68.3 103.97 65.47 229.43 94 368.38 93.02 100.94-0.58 209.79-17.88 322.36-47.39 51.3 891.15 337.31 1691.6 714.58 2491.6 2.247 729.83-573.78 146.57-813.47-150.19z" style="fill:#f1b11b"/>
    <path id="path102" class="fil0" d="m67925 187401c-373.76-836.73-520.52-1763.9-554.43-2674.8 6.058 0.59 12.898 1.86 19.152 2.35 201 26.67 418.61 18.85 621.27-39.38 4.69-1.47 9.185-2.64 13.582-3.72 2.248 15.44 4.3 31.17 6.547 47 112.76 806.83 225.13 1609.6 592.74 2390.8-2.247 7.82-3.713 15.54-5.179 23.06l-693.67 254.75z" style="fill:#f1b11b"/>
    <path id="path103" class="fil0" d="m66134 187473c-232.85-942.65-312.49-1895.2-352.94-2862 309.56 15.44 643.06-32.54 926.82-159.47 43.287 38.6 92.829 74.46 148.04 106.02 15.927 9.28 32.637 18.57 49.443 26.87 21.204 1010.5 178.72 2046.5 587.26 2975.3l-404.73 148.92-46.316 17.1-35.861 34.98c-383.53 378.64-673.06 153.02-871.71-287.77z" style="fill:#f1b11b"/>
    <path id="path104" class="fil0" d="m64506 187497c-10.455-91.75-17.589-155.17-21.497-190.15-105.82-922.62-210.57-1837.4-144.91-2800.6 249.76-32.05 497.56-97.33 706.47-204.32 5.765 7.33 11.335 14.56 17.1 22.18h-0.391c66.055 80.71 152.63 142.47 252.3 187.02 40.942 1011.2 116.28 2011.8 353.53 2999-377.76 472.06-865.26 575.64-1162.6-13.19z" style="fill:#f1b11b"/>
    <path id="path105" class="fil0" d="m62798 184253c-181.06 603.39-325.58 1419.6-401.12 2052-333.79 206.27-647.65 368.19-1037.6 439.32-140.12-301.25-92.633-688.59-88.041-1013.8 523.36-449.39 1008.4-947.24 1454.7-1472.3 23.843-1.76 48.076-3.32 72.114-5.27z" style="fill:#f1b11b"/>
    <path id="path106" class="fil0" d="m62825 186581c86.184-765.98 214.29-1486.4 402.09-2156.2 9.869 3.52 19.445 6.55 29.803 9.58 199.73 63.02 413.23 88.33 622.54 93.9-62.049 987.99 42.506 1905 148.33 2830 7.622 65.08 13.778 117.65 18.37 158.1-29.412 53.35-139.73 147.35-286.99 219.86-174.71 85.21-365.35 97.22-518.47-38.5l0.586-0.2c-178.72-158.49-334.48-494.72-416.26-1116.6z" style="fill:#f1b11b"/>
    <path id="path107" class="fil0" d="m70670 182343c-36.447-216.83-74.067-433.46-113.35-650.48-1.466-6.36-2.834-13.1-3.909-19.16h0.294c-69.768-388.02-143.84-776.53-221.62-1166.7h-1810.8c-1690 89.12-980.46-3127.4-2086.9-3234-1.564-0.19-8.208 0.2-20.618 1.18h-16.905c-2067.3 12.99-3880 13.87-5640.2 15.04-1769.9 1.08-3487.1 2.25-5359.2 15.35l-36.838-3.52c-29.705-4.99-40.845 49.83-48.075 85.6-0.391 2.15-0.782 4.39-1.368 6.54 305.16 657.91 480.07 1015.8 1151.4 1427.3h9565.2c99.082 2671 2077.1 2869 4145.4 2869v460.92h-276.92c-360.86 692.5-805.17 1332.5-1211.3 1998.2 4.397 21.3 10.748 37.23 19.249 48.47 213.8 279.85 1285-461.61 1409.8-632.41l370.92 271.84c-147.16 200.71-496.49 460.43-863.4 639.35 26.774 897.4 308.39 1687.4 688.1 2490.2 451.83 644.13 653.71 538.5 711.36-236.96-219.66-1080.3-227.67-1817.7-235.59-2555.2-6.547-560.39-12.898-1121.5-114.72-1830.4z" style="fill:#f1b11b"/>
    <path id="path108" class="fil0" d="m63734 188234c125.07-4.59 253.08-57.46 377.67-172.76-114.91 78.47-243.02 138.95-377.67 172.76z" style="fill:#f1b11b"/>
    <path id="path109" class="fil0" d="m56681 180601c-5810.3 1083.6-9651.6 2350.4-10856-357.54 3380.1-92.53 6758.5-245.36 10134-456.71 94.392 378.93 343.08 687.02 722.01 814.25z" style="fill:#f1b11b"/>
    <path id="path110" class="fil3" d="m73208 189205c-940.7 870.93-1437 1626.4-1604.6 3194.6 444.6 180.87 889.3 361.15 1333.7 542.02 219.27-1271.4 626.35-2100.5 1237.1-2768.7-322.07-322.75-644.13-645.3-966.2-967.86z" style="fill:#0033cc"/>
    <path id="path111" class="fil0" d="m73221 189510c-807.32 752.99-1230.1 1409.7-1346.4 2776.4 297.93 127.91 595.76 255.82 893.5 383.82 195.72-1143.4 556.97-1890.4 1097.4-2495.2-214.78-221.32-429.84-443.43-644.52-664.94z" style="fill:#f1b11b"/>
    <path id="path112" class="fil1" d="m75329 176448c2349.9 0 4266.4 527.66 4266.4 1174.7 0 531.37-1292.3 981.83-3055.5 1126.4v13209c207.74 625.08 2199.8-307.9 3120.8-873.96-220.64-339.36-422.71-731.29-621.07-1195 1566.6-616.96 2905.6-2186.4 4016.6-4016.6 1327.9 3402.3 351.09 5652-954.47 7144.5-396.92-174.71-742.92-353.53-1050.9-550.81-1301.8 1040.2-2748.5 1810.1-4439.3 2029.1-108.46 526.68-546.91 1233.2-1093.2 1375.1-126.44 32.93-252.4 32.93-378.45 0-546.52-141.78-985.06-848.45-1093.6-1375.1-1691.3-219.08-3136.9-988.97-4438.8-2029.2-308.29 197.38-654.59 376.2-1050.9 550.91-1306.2-1575.7-2283-3735.3-955.26-7144.5 1111.4 1703.6 2450.3 3211.1 4016.8 4016.6-196.7 460.72-397.89 850.51-616.48 1187.8 878.94 514.96 2919.6 1473.6 3116.9 881.09v-13209c-1763.6-144.52-3056.1-594.98-3056.1-1126.4 0-647.06 1916.5-1174.7 4266.5-1174.7z" style="fill:#003399"/>
    <path id="path113" class="fil0" d="m76169 194359c0-1.37 0.293-1.17 0.879 0h0.489c-75.045-287.96-95.76-253.57 199.24-284.54 1622.4-168.95 3092.8-885.88 4347.2-1907.9l-751.91-693.68c-570.75 409.23-3885.3 2109.3-3885.3 535.48v-13255c-656.35 81.88-844.06 81.88-1500.1 0v13255c0 1576.5-3315.4-127.13-3885.5-535.48l-752.11 693.87c1254.6 1021.8 2724.7 1738.7 4347.3 1907.7 295.39 30.98 274.09-3.42 199.14 284.55h0.586c0.684-1.18 0.977-1.37 0.977 0 0 1336.8 1679.1 1336.8 1679.1 0zm0.879 0c2.248 3.91 1.075 2.74 0.489 0zm-1681.6 0c0 0.39-0.39 0.98-0.39 1.27-0.684 3.42 0 0 0.977-1.27h-0.587z" style="fill:#f1b11b"/>
    <path id="path114" class="fil0" d="m67684 186712c-815.13 2739.7-36.057 4523.4 980.07 5762.4 1235.5-539.38 1865.1-1096.4 2517.8-2368.7-1304.4-592.05-2473.7-1891.6-3497.9-3393.7z" style="fill:#f1b11b"/>
    <path id="path115" class="fil0" d="m82923 186817c839.66 2689.3 74.556 4445.6-927.9 5657.8-1213.9-537.62-1832.1-1093.6-2465.9-2368.7 1272.4-560.68 2407.3-1824.8 3393.8-3289.2z" style="fill:#f1b11b"/>
    <circle id="circle115" class="fil3" cx="81706" cy="190413" r="1180.8" style="fill:#0033cc"/>
    <circle id="circle116" class="fil0" cx="81706" cy="190413" r="962.49" style="fill:#f1b11b"/>
    <ellipse id="ellipse116" class="fil0" cx="75329" cy="177623" rx="3590" ry="872.1" style="fill:#f1b11b"/>
    <path id="path116" class="fil3" d="m77789 195420c648.43-219.37 1605.6-632.41 1681.7-2981.8-64.687-1690.8-1107.5-2762.3-1855.7-3272.2-354.31 283.96-708.33 567.82-1063.1 851.97 534.99 419.49 992.58 1071.4 1372.7 2013.6 140.51 638.76 107.19 1413-328.91 1916.8-857.83-107.49-1098.5 535.38-830.86 1181.4 287.38 310.44 703.15 329.1 1024.2 290.31z" style="fill:#0033cc"/>
    <path id="path117" class="fil0" d="m77768 195208c585.7-181.16 1455.8-541.43 1490-2628.6-92.242-1623.2-990.72-2629.6-1669.6-3128-227.77 199.63-455.54 399.46-683.12 599.58 499.61 449.09 931.02 1118.7 1296.3 2076.9 60.778 686.93-43.19 1505.7-515.15 2074.1-771.36-219.86-986.82 336.62-726.12 835.55 213.99 245.95 552.57 232.37 807.71 170.51z" style="fill:#f1b11b"/>
    <circle id="circle117" class="fil1" cx="75329" cy="175164" r="1707.8" style="fill:#003399"/>
    <circle id="circle118" class="fil0" cx="75329" cy="175164" r="1476.5" style="fill:#f1b11b"/>
    <circle id="circle119" class="fil1" cx="75329" cy="175164" r="862.52" style="fill:#003399"/>
    <path id="path119" class="fil1" d="m74848 174666c273.89-169.24 722.11-194.94 969.23-1.07 246.83 194.15 285.91 621.65 211.55 931.51-759.44 583.06-1229.3 1700.4-1337.8 2699.8 0 1710.7 387.34 1847.9 726.31 2808.1-643.25 129.17-1286.7 258.25-1930.4 387.24-125.95-790.71-281.42-758.46-376.49-2372.3 5.277-2001.9 803.11-3656.5 1737.6-4453.2z" style="fill:#003399"/>
    <path id="path120" class="fil0" d="m75030 174647c199.34-117.36 498.83-82.76 734.32 51.89 235.2 135.23 223.47 437.56 164.26 652.73-728.85 680.19-1394.4 1867.9-1435.9 2883.4 55.404 1671 324.61 2029.4 699.34 2763.8-503.52 92.24-1007.5 183.9-1511.6 275.84-254.25-522.47-195.53-535.67-376.1-1951.9 30.389-2295.5 879.23-3777.2 1725.7-4675.6z" style="fill:#f1b11b"/>
    <path id="path121" class="fil1" d="m75339 179120c1638.2 752.79 3224 712.83 4835.8 838.49 461.41 41.52 707.45 300.76 707.45 530.29 286.69 2737.2-967.47 8181.1-5543.2 11093-12.801 8.31-6.938 8.31-19.836 0-4576-2911.5-5829.7-8355.4-5543-11093 0-229.53 245.07-494.04 706.47-530.29 1612-129.77 3198-85.5 4836.6-838.49 10.065-5.28 10.065-5.28 19.836 0z" style="fill:#003399"/>
    <path id="path122" class="fil0" d="m75339 179525c1562.1 718.01 3074 679.41 4610.9 798.91 439.81 40.75 439.81 169.83 439.81 389.1 272.33 2609.7-688.01 7476.8-5050.8 10253-12.019 6.84-7.133 6.84-19.25 0-4361.6-2775.9-5322.6-7643-5050.1-10253 0-219.27 0-353.63 440.2-389.1 1536.3-123.12 3048.6-80.51 4609.9-798.91 10.065-4.89 10.065-4.89 19.25 0z" style="fill:#f1b11b"/>
    <path id="path123" class="fil1" d="m80408 183435h-1152.2v3375c-207.45 402-567.13 924.18-835.75 1314.4v-4689.4h-543.68v5560.5c-220.74 258.94-580.52 512.61-834.77 757.29v-6317.8h-544.17v6910.2c-225.62 183.99-585.8 362.22-834.77 533.61v-7443.8h-545.05v7566.5c-248.78-171.68-608.37-472.64-834.87-656.34v-6910.2h-543.78v6441.3c-253.76-245.07-614.23-621.86-834.97-881.09v-5560.2h-543.78v5056.5c-267.93-389.98-627.81-1156.6-835.36-1558.6v-3497.9h-1275.5c-39.672-243.31-69.866-726.31-92.926-958.68h10345c-22.181 232.37-53.352 715.37-93.122 958.68z" style="fill:#003399"/>
    <path id="path124" class="fil0" d="m70291 182712h10077c-17.784 159.67-38.499 322.07-64.296 486.91h-1283.2v3823.3c-147.55 273.4-309.85 543.88-486.03 810.54v-4633.8h-892.52v5803.2c-154.88 175.69-317.18 348.74-487.3 518.57v-6321.8h-892.13v7114.2c-155.95 124.1-318.55 245.85-486.13 363.99v-7478.2h-893.21v7478.5c-166.8-118.14-329.4-240.19-485.84-364.09v-7114.4h-892.82v6321.9c-170.51-169.14-332.42-342.68-487.59-518.66v-5803.2h-891.25v4633.8c-175.98-266.37-339.07-536.55-487.3-809.27v-3824.5h-1283.4c-25.113-164.85-46.707-327.25-63.612-486.91z"/>
   </g>
  </symbol>
 </defs>
 <g>
  <rect id="base" x="-.25" y="-.25" width="210" height="297" stroke-dasharray="1, 0.25" stroke-width=".25" style="fill:var(--base)"/>
  <g id="wingEnds" style="fill:var(--accent)">
   <path id="rudderEnd" d="m192.76 192.83 2.7268 17.161 14.517 5e-3zm-175.52 0-2.7268 17.161-14.517 5e-3zm175.52-4.7e-4 17.173 2.6495 0.0704 14.517zm-175.52 0-17.173 2.6495-0.070384 14.517z"/>
   <path id="cockpitAround" d="m103.41 125.45-13.068 43.809-11.408 51.812h52.133l-11.408-51.812-13.068-43.809c2.677 11.918 7.5689 28.237 7.3398 34.564-0.36361 10.047-4.609 20.375-8.9297 20.375s-8.5661-10.328-8.9297-20.375c-0.22901-6.3278 4.6628-22.646 7.3398-34.564z"/>
   <path id="frontWingEnd" d="m198.69 11.313 11.313 4.0239v-15.337zm-187.37 0-11.313 4.0239v-15.337zm198.69-11.313c1.2e-4 210 1.2e-4 210 0 0zm-210 0c-1.263e-4 210-1.263e-4 210 0 0zm198.69 11.313-4.0239-11.313 15.337-9.2236e-6zm-187.37 0 4.0239-11.313-15.337-9.2236e-6z"/>
   <path id="elevatorEnd" d="m200.48 270.63 9.5193 3.1911v22.253zm-190.96 0-9.5193 3.1911v22.253zm190.96-23.186 9.5193-3.1911v-22.253zm-190.96 0-9.5193-3.1911v-22.253z"/>
   <path id="path632" d="m105 3.7559-4.0684 57.963c-1.3845-0.19154-2.654-0.61616-3.957-0.9707l8.0254 17.951 8.0254-17.951c-1.303 0.35455-2.5725 0.77917-3.957 0.9707zm-4.2656 60.264c1.3706 0.26497 2.6238 0.49609 4.2656 0.49609s2.895-0.23112 4.2656-0.49609l-4.2656 9.1328z"/>
  </g>
  <path id="cockpit" d="m105 136.02s-2.9738-0.0595-5.4172 6.4171c0.70331 0.33003 3.3464 1.4705 5.4172 1.0082 2.0708 0.46234 4.7144-0.67817 5.4178-1.0082-2.4434-6.4766-5.4178-6.4171-5.4178-6.4171zm0 7.4253v1.6935s-3.083 0.25463-5.9283-1.2196c-0.05625 0.178-0.11264 0.35519-0.16795 0.54131-2.5304 8.5163-1.5906 16.044-1.5906 16.044s2.3602 5.8546 7.6869 5.8546c5.3267 0 7.6874-5.8546 7.6874-5.8546s0.9398-7.5278-1.5906-16.044c-0.0553-0.18612-0.1117-0.36331-0.16795-0.54131-2.8453 1.4742-5.9283 1.2196-5.9283 1.2196z" style="fill:var(--cockpit)"/>
 </g>
 <g id="blueAngelsDecal">
  <path id="usNavyR" d="m46.185 15.779a0.53906 0.55235 3.1935 0 1-0.28367-0.72421 0.53906 0.55235 3.1935 0 1 0.70767-0.29258 0.53906 0.55235 3.1935 0 1 0.28367 0.72421 0.53906 0.55235 3.1935 0 1-0.70767 0.29258zm-7.9705-3.5198a0.53906 0.55235 3.1935 0 1-0.28366-0.72421 0.53906 0.55235 3.1935 0 1 0.70767-0.29258 0.53906 0.55235 3.1935 0 1 0.28366 0.72421 0.53906 0.55235 3.1935 0 1-0.70767 0.29257zm-17.504-8.9958-1.0694 3.6765 0.056794 6.9114-1.3095-0.98287-0.079616-4.3014-2.4477 2.4044-1.0642-0.7988 3.5598-3.6802 0.9977-3.833zm5.376 2.3943-0.91643 12.301-1.1994-0.90027 0.68041-9.362s-2.3128 5.2613-3.2575 7.4277l-1.0885-0.81702 3.9203-9.4782zm6.7749 3.0173-1.1832-0.52694-0.76365 1.5552-2.2265-0.98912 0.18074-1.8174s-1.1863-0.52833-1.2513-0.55726c-0.06497-0.028981-1.3541 12.44-1.3541 12.44l1.1181 0.8392zm-2.5268 2.2783-2.2588 4.4368 0.39472-5.1925zm6.8026-0.37392-3.3461 13.85-1.1776-0.88393 0.39448-8.1594-1.963 6.9821-1.0663-0.80037s3.2511-12.729 3.4349-12.647c0.18378 0.081854 1.1953 0.53236 1.1953 0.53236l-0.7895 7.9067 2.2586-7.2524zm0.92479 14.244-1.1726-0.65024-0.5225 2.19 4.177 3.1352 1.3411-4.0442-1.7511-8.4737 0.9362-3.0289 2.3549 1.0812-0.31526 1.148 1.1001 0.5628 0.89658-2.6145-5.1203-2.2805-1.261 5.6361 1.7115 8.3727s-0.32151 1.6202-0.47969 1.4116c-0.15819-0.20857-2.1412-1.4631-2.1412-1.4631zm9.0205 9.5828 5.103-17.124-4.251-1.8933-4.8495 16.017 1.1751 0.88204 4.4576-14.923 1.818 0.73567-4.6376 15.416z" style="fill:var(--accent)"/>
  <path id="usNavyL" d="m180.62 7.8119a0.53377 0.56643 0 0 1-0.74736-0.1127 0.53377 0.56643 0 0 1 0.10615-0.79309 0.53377 0.56643 0 0 1 0.74735 0.1127 0.53377 0.56643 0 0 1-0.10616 0.79309zm6.8005-3.1188a0.53377 0.56643 0 0 1-0.74736-0.1127 0.53377 0.56643 0 0 1 0.10615-0.7931 0.53377 0.56643 0 0 1 0.74735 0.1127 0.53377 0.56643 0 0 1-0.10616 0.7931zm-26.161 10.791 2.0349 7.3042 4.2371 8.1786-1.2008 0.93515-2.8452-5.7732 0.4831 7.6127-1.4617 1.1383-0.51284-11.384-2.0281-7.4046zm5.8941-2.7643-1.6748 0.78547 3.0739 16.666 1.2404-0.96597-2.0533-11.411 4.4355 9.5557 1.3009-1.0131zm6.5051-3.0508-1.3121 0.61542 0.39958 2.1689-1.8515 0.84985-0.9259-1.9036-1.3106 0.61473 6.3013 13.168 1.4806-1.153zm-0.59873 4.2806 1.181 6.0112-2.6651-5.2566zm6.3328-6.9699 2.7311 12.624-1.24 0.96563-2.9326-5.8065 1.7317 6.7417-1.2818 0.99819-3.3929-13.466 1.2118-0.56835 3.3795 6.167-1.476-7.0598zm5.3113 7.672-1.3202 0.85464 0.98205 2.351 4.8844-3.8036-0.97477-3.0623-5.1156-1.7415-0.60493-1.9481 2.2324-1.2177 0.58693 1.4433 1.3401-0.73874-1.1464-2.705-4.6909 2.2 1.2321 4.176 4.8672 1.7877 0.60856 1.3914-2.5824 1.9613zm9.991-4.838-2.3703-8.899-4.153 1.9477 2.7188 9.914 1.24-0.96562-2.2802-8.0492 1.648-0.65468 2.0367 7.61z" style="fill:var(--accent)"/>
  <use id="numL" transform="rotate(171.63 7.628 129.68)" xlink:href="#numL3"/>
  <use id="numR" transform="rotate(187.72 108.34 131.33)" xlink:href="#numR3"/>
  <use id="markR" transform="matrix(-.26641 -.85922 .85922 -.26641 113.24 148.64)" xlink:href="#Umriss"/>
  <use id="markL" transform="matrix(-.3035 .84683 -.84683 -.3035 99.906 139.96)" xlink:href="#Umriss"/>
  <use id="blueangelsL" transform="matrix(-.25513 .79854 -.74456 -.27362 167.95 176.45)" xlink:href="#blueangels"/>
  <use id="blueangelsR" transform="matrix(-.27246 -.79193 .73839 -.29221 49.976 200.08)" xlink:href="#blueangels"/>
 </g>
 <g id="fold" class="UnoptimicedTransforms fold">
  <path id="path7" d="m0 220.95h105m105 0h-105"/>
  <path id="path11" d="m105 105-105 0.12122m105-0.12122 105 0.12122"/>
  <path id="path12" d="M 105,105 0,0 M 105,105 210,0"/>
  <path id="path25" d="m0 259.04h210"/>
  <g id="g18">
   <path id="path14" d="m153.84 64.515 56.153-5.4177 4e-3 -46.754-9.0241-3.2981zm-8.3579-8.3579 5.4177-56.153 46.754-0.0040022 3.2981 9.0241zm-89.328 8.3579-56.153-5.4177-4e-3 -46.754 9.0241-3.2981zm8.3579-8.3579-5.4177-56.153-46.754-0.0040022-3.2981 9.0241z"/>
   <path id="path15" d="m153.97 259.04 17.783 32.82 31.272 0.54081 6.9737-5.6626-4.4499-11.981zm0 0 17.783-32.82 31.272-0.54081 6.9737 5.6626-4.4499 11.981zm-97.943 0-17.783 32.82-31.272 0.54081-6.9737-5.6626 4.4499-11.981zm0 0-17.783-32.82-31.272-0.54081-6.9737 5.6626 4.4499 11.981z"/>
   <path id="path16" d="m210 210-41.655-41.317 6.0879 41.304zm0 0-41.486-41.486 41.328 5.9194zm-210 0 41.655-41.317-6.0879 41.304zm4.98e-6 0 41.486-41.486-41.328 5.9194z"/>
   <path id="path5" d="m105 139.27 26.067 81.801m-26.067-81.801-26.067 81.801"/>
  </g>
 </g>
 <g id="cut" class="UnoptimicedTransforms cut">
  <path id="path13" d="m0 105.12 27.907-0.0322m182.09 0.0322-27.907-0.0322"/>
  <path id="path22" d="m210 210-48.304 2.1e-4 3.3931 11.079 44.908-0.125m-210-10.954 48.304 2.1e-4 -3.3931 11.079-44.908-0.125"/>
  <rect id="rect1" width="210" height="297"/>
 </g>
 <g id="panel_lines" class="panel-line">
  <g id="g31" style="stroke-width:.2">
   <path id="path8" d="m162.55 63.674 40.087-54.021m-56.315 37.792 54.021-40.087m-152.9 56.315-40.087-54.021m56.315 37.792-54.021-40.087"/>
   <path id="path9" d="m202.22 59.847 7.7783-47.504m-202.22 47.504-7.7783-47.504"/>
   <path id="path10" d="m207.34 279.58-47.754-10.176m47.754-30.902-47.754 10.176m-156.93 30.902 47.754-10.176m-47.754-30.902 47.754 10.176"/>
   <path id="path17" d="m173.19 201.54 30.859 2.5505m-2.6534-30.873 2.6775 30.849m-167.27-2.5263-30.859 2.5505m2.6534-30.873-2.6775 30.849"/>
  </g>
 </g>
</svg>
