<svg id="svg16" width="210mm" height="297mm" version="1.1" viewBox="0 0 210 297" xmlns="http://www.w3.org/2000/svg" xmlns:xlink="http://www.w3.org/1999/xlink">
 <defs id="defs1">
  <symbol id="belt" stroke-dasharray="1, 0.25" stroke-width=".25">
   <g id="belt_transform" transform="rotate(5.3665 110.24 151.91)">
    <rect x="111.44" y="142.89" width="14.217" height="3.6441" fill="#ffcc00"/>
    <rect x="111.44" y="143.56" width="14.217" height="2.2945" fill="#000000"/>
    <path d="m112.73 143.74-0.78998 0.98257s0.78998 1.0437 0.78998 0.95512c0-0.0886-0.23452-0.95512-0.23452-0.95512z" fill="#ffffff"/>
    <path d="m114.52 143.74-0.78998 0.98257s0.78998 1.0437 0.78998 0.95512c0-0.0886-0.23452-0.95512-0.23452-0.95512z" fill="#ffffff"/>
    <path d="m116.29 143.74-0.78998 0.98257s0.78998 1.0437 0.78998 0.95512c0-0.0886-0.23452-0.95512-0.23452-0.95512z" fill="#ffffff"/>
    <path d="m118.08 143.74-0.78998 0.98257s0.78998 1.0437 0.78998 0.95512c0-0.0886-0.23452-0.95512-0.23452-0.95512z" fill="#ffffff"/>
    <path d="m119.85 143.74-0.78998 0.98257s0.78998 1.0437 0.78998 0.95512c0-0.0886-0.23452-0.95512-0.23452-0.95512z" fill="#ffffff"/>
    <path d="m121.64 143.74-0.78998 0.98257s0.78998 1.0437 0.78998 0.95512c0-0.0886-0.23452-0.95512-0.23452-0.95512z" fill="#ffffff"/>
    <path d="m123.41 143.74-0.78998 0.98257s0.78998 1.0437 0.78998 0.95512c0-0.0886-0.23452-0.95512-0.23452-0.95512z" fill="#ffffff"/>
    <path d="m125.19 143.74-0.78998 0.98257s0.78998 1.0437 0.78998 0.95512c0-0.0886-0.23452-0.95512-0.23452-0.95512z" fill="#ffffff"/>
   </g>
  </symbol>
 </defs>
 <rect id="base" width="210" height="297" fill="#b3b3b3" stop-color="#000000" stroke-dasharray="1, 0.25" stroke-width=".25" style="-inkscape-stroke:none"/>
 <g id="decals">
  <use id="belt_r" transform="translate(-1.029)" xlink:href="#belt"/>
  <use id="belt_l" transform="matrix(-1,0,0,1,210.62,0)" xlink:href="#belt"/>
  <path id="cockpit" d="m105 137.51s-3.566-0.0723-6.0964 8.0251-1.5906 15.255-1.5906 15.255 2.3603 5.5669 7.687 5.5669zm0 0s3.566-0.0723 6.0964 8.0251 1.5906 15.255 1.5906 15.255-2.3603 5.5669-7.687 5.5669z" fill="#666666" stop-color="#000000" style="-inkscape-stroke:none"/>
  <g id="secondary" fill="#241c1c">
   <path id="cockpit_around" d="m105 145.99v0.18913s3.0773 0.23705 5.9206-1.1606c-0.16719-0.50203-0.33782-0.9712-0.5116-1.4082-0.5041 0.23231-3.2227 1.4224-5.409 0.9586zm5.409-2.3797c0.17378 0.43698 0.34441 0.90615 0.5116 1.4082 0.0908-0.0446 0.1821-0.0858 0.27233-0.13384l-0.58601-1.3612s-0.14679 0.0633-0.19792 0.0868zm-11.33 1.4082c0.16719-0.50203 0.33782-0.9712 0.5116-1.4082-0.05112-0.0236-0.19792-0.0868-0.19792-0.0868l-0.58601 1.3612c0.09024 0.0481 0.18151 0.0892 0.27234 0.13384zm5.9206-0.44958c-2.1864 0.46413-4.9048-0.72628-5.409-0.9586-0.17378 0.43698-0.34441 0.90615-0.5116 1.4082 2.8432 1.3977 5.9206 1.1606 5.9206 1.1606zm0-17.44v10.38s2.9674-0.0394 5.4095 6.1014c0.0511-0.0236 0.19792-0.0868 0.19792-0.0868l0.58601 1.3612c-0.0902 0.0481-0.18151 0.0892-0.27233 0.13384 0.0583 0.17492 0.11845 0.33255 0.1757 0.51573 2.5304 8.0974 1.5906 15.255 1.5906 15.255s-1.1052 2.6006-3.5052 4.2468l4.1589 16.442 3.7595-1.527c-3.2281-38.685-6.4981-44.514-7.6533-48.238-1.1528-3.7156-2.9829-4.5837-4.4473-4.5837zm0 0c-1.4644 0-3.294 0.86815-4.4468 4.5837-1.1552 3.7236-4.4252 9.5529-7.6533 48.238l3.7595 1.527 4.1589-16.442c-2.4-1.6462-3.5052-4.2468-3.5052-4.2468s-0.9398-7.1575 1.5906-15.255c0.05724-0.18318 0.11745-0.34081 0.1757-0.51573-0.09083-0.0446-0.1821-0.0858-0.27234-0.13384l0.58601-1.3612s0.1468 0.0633 0.19792 0.0868c2.4421-6.1408 5.409-6.1014 5.409-6.1014z" stop-color="#000000"/>
   <path id="rudder" class="UnoptimicedTransforms" d="m41.486 168.51-41.486 5.9412v35.545zm-6e-6 -1e-5 -5.9412 41.486h-35.545zm127.03 1e-5 41.486 5.9412v35.545zm1e-5 -1e-5 5.9412 41.486h35.545z" stop-color="#000000" style="-inkscape-stroke:none"/>
  </g>
  <path id="rudder_end" d="m199.39 199.39h10.609v-4.5338h-11.922l-4.919-1.6291zm-0.0348 0.0353 0.15321 10.608-4.5334 0.0655-0.17216-11.921-1.7-4.8949zm-188.75-0.0353h-10.609v-4.5338h11.922l4.919-1.6291zm0.0348 0.0353-0.15321 10.608 4.5334 0.0655 0.17216-11.921 1.7-4.8949z" fill="#ffcc00" stroke-width=".25"/>
  <path id="texts" fill="#000000" transform="rotate(98.269)" d="m146.77-113.47q-0.0138 0.0218-0.0297 0.0356-0.0158 0.0138-0.0415 0.0217-0.0257 8e-3 -0.0653 0.01-0.0396 4e-3 -0.0989 4e-3 -0.0633 0-0.10483-4e-3 -0.0415-2e-3 -0.0653-0.01-0.0237-8e-3 -0.0356-0.0217-0.01-0.0158-0.0119-0.0376l-0.36195-2.3932q-6e-3 -0.0376-6e-3 -0.0613 2e-3 -0.0237 0.0178-0.0356 0.0178-0.0119 0.0514-0.0158 0.0356-4e-3 0.0969-4e-3 0.0593 0 0.093 4e-3 0.0356 2e-3 0.0554 0.01t0.0257 0.0217q8e-3 0.0139 0.0119 0.0336l0.29866 2.1519h2e-3l1.1412-2.1539q0.01-0.0198 0.0218-0.0316 0.0138-0.0138 0.0356-0.0217 0.0218-8e-3 0.0574-0.01 0.0376-4e-3 0.0969-4e-3 0.0613 0 0.0969 6e-3 0.0356 4e-3 0.0494 0.0178t8e-3 0.0415q-6e-3 0.0257-0.0297 0.0692zm3.0854-2.4328q0 0.0119-2e-3 0.0316 0 0.0198-6e-3 0.0455-4e-3 0.0237-0.0119 0.0494-8e-3 0.0257-0.0198 0.0475-0.0119 0.0218-0.0277 0.0356-0.0158 0.0119-0.0356 0.0119h-0.93552l-0.17405 0.87026h0.88608q0.0237 0 0.0336 0.0178 0.0119 0.0158 0.0119 0.0455 0 0.0158-2e-3 0.0376-2e-3 0.0198-8e-3 0.0435-4e-3 0.0217-0.0119 0.0475-8e-3 0.0257-0.0198 0.0455-0.0119 0.0198-0.0277 0.0336-0.0158 0.0119-0.0356 0.0119h-0.88409l-0.21361 1.0661q-2e-3 0.0158-0.0138 0.0277-0.01 0.0119-0.0316 0.0198-0.0198 6e-3 -0.0534 0.01-0.0336 6e-3 -0.0831 6e-3t-0.0831-6e-3q-0.0317-4e-3 -0.0495-0.01-0.0178-8e-3 -0.0237-0.0198-6e-3 -0.0119-2e-3 -0.0277l0.47468-2.3695q0.0138-0.0771 0.0613-0.10681 0.0475-0.0316 0.093-0.0316h1.1491q0.0277 0 0.0356 0.0198 0.01 0.0178 0.01 0.0475zm1.7544 2.3714q6e-3 0.0435 2e-3 0.0712-2e-3 0.0257-0.0218 0.0396-0.0178 0.0139-0.0574 0.0178-0.0396 4e-3 -0.10681 4e-3 -0.0435 0-0.0752-4e-3 -0.0316-2e-3 -0.0494-8e-3 -0.0158-8e-3 -0.0237-0.0198-8e-3 -0.0119-0.01-0.0297l-0.0949-0.62302h-1.0661l-0.33426 0.61709q-0.01 0.0198-0.0237 0.0336-0.0119 0.0119-0.0356 0.0198-0.0218 8e-3 -0.0593 0.01-0.0356 4e-3 -0.089 4e-3 -0.0593 0-0.0949-6e-3 -0.0356-4e-3 -0.0494-0.0178t-8e-3 -0.0395q6e-3 -0.0277 0.0277-0.0712l1.3331-2.3774q0.0139-0.0217 0.0297-0.0356 0.0158-0.0138 0.0415-0.0217 0.0257-8e-3 0.0653-0.01 0.0395-4e-3 0.0969-4e-3 0.0653 0 0.10483 4e-3 0.0415 2e-3 0.0653 0.01 0.0257 8e-3 0.0356 0.0237 0.01 0.0138 0.0138 0.0356zm-0.66653-2.0985h-2e-3l-0.69225 1.2757h0.88608zm3.5126 2.0174q0 0.0119-4e-3 0.0336-2e-3 0.0198-8e-3 0.0435-4e-3 0.0218-0.0119 0.0435-8e-3 0.0218-0.0198 0.0415-0.0119 0.0178-0.0277 0.0297-0.0138 0.01-0.0316 0.01h-1.339q-0.0237 0-0.0395-0.0198-0.0139-0.0198-0.0139-0.0534 0-0.01 2e-3 -0.0277 4e-3 -0.0198 8e-3 -0.0415 6e-3 -0.0218 0.0138-0.0455 0.01-0.0237 0.0217-0.0415 0.0119-0.0178 0.0277-0.0297 0.0158-0.0138 0.0356-0.0138h0.53402l0.38568-1.9264-0.55577 0.29272q-0.0316 0.0158-0.0514 0.0217-0.0198 4e-3 -0.0336-2e-3 -0.0119-6e-3 -0.0178-0.0218-4e-3 -0.0158-4e-3 -0.0396 0-0.0217 4e-3 -0.0534 6e-3 -0.0336 0.0158-0.0653 0.0119-0.0336 0.0297-0.0633t0.0455-0.0455l0.66653-0.37777q0.01-6e-3 0.0218-0.01 0.0138-4e-3 0.0316-8e-3t0.0415-4e-3q0.0257-2e-3 0.0593-2e-3 0.0494 0 0.0791 4e-3 0.0317 4e-3 0.0475 0.0119 0.0178 6e-3 0.0198 0.0178 4e-3 0.01 2e-3 0.0218l-0.447 2.2488h0.46282q0.0277 0 0.0376 0.0198 0.0119 0.0178 0.0119 0.0514zm2.413-1.6278q0 0.087-0.0119 0.21361-0.01 0.1246-0.0356 0.27097-0.0237 0.14438-0.0633 0.30063t-0.0969 0.30459q-0.0574 0.14833-0.13647 0.28283-0.0771 0.13449-0.178 0.23338-0.1167 0.11868-0.28284 0.18988-0.16416 0.0712-0.38568 0.0712-0.18591 0-0.31843-0.0495-0.13252-0.0514-0.21756-0.14833-0.0851-0.0989-0.12461-0.2413-0.0395-0.14438-0.0395-0.32832 0-0.087 0.01-0.21163 0.0119-0.12659 0.0356-0.27097 0.0257-0.14636 0.0653-0.30063 0.0395-0.15625 0.0969-0.30459 0.0593-0.15032 0.13647-0.28283 0.0771-0.1345 0.17801-0.23537 0.0613-0.0613 0.13251-0.11076 0.0732-0.0494 0.15625-0.0811 0.085-0.0336 0.17999-0.0514 0.0949-0.0178 0.20174-0.0178 0.18789 0 0.32041 0.0514 0.13251 0.0514 0.21558 0.15032 0.085 0.0969 0.12263 0.2413 0.0396 0.1424 0.0396 0.32436zm-0.34613 4e-3q0-0.25119-0.0949-0.37184-0.093-0.12065-0.29866-0.12065-0.11669 0-0.21163 0.0415-0.093 0.0396-0.17207 0.11669-0.0791 0.0791-0.14043 0.19581-0.0613 0.11669-0.10878 0.25316-0.0475 0.1345-0.0791 0.27888-0.0316 0.1424-0.0534 0.2769-0.0198 0.13251-0.0297 0.24327-0.01 0.10879-0.01 0.17801 0 0.25119 0.0949 0.37183 0.0949 0.12065 0.29865 0.12065 0.11867 0 0.21163-0.0396 0.0949-0.0415 0.17207-0.11867 0.0771-0.0771 0.13845-0.19383 0.0633-0.11867 0.11076-0.25317 0.0475-0.13647 0.0791-0.27887 0.0336-0.14439 0.0534-0.2769 0.0217-0.13252 0.0297-0.24328 0.01-0.11076 0.01-0.17998zm2.1282 1.0087q0 0.0969-0.0257 0.19778-0.0237 0.10088-0.0771 0.19581-0.0534 0.0949-0.13647 0.17999-0.0811 0.0831-0.19779 0.14636-0.11471 0.0613-0.26305 0.0969-0.14834 0.0376-0.33623 0.0376-0.0989 0-0.1879-0.0119-0.087-0.0119-0.16614-0.0316-0.0771-0.0218-0.1424-0.0495-0.0633-0.0297-0.11472-0.0633-0.0297-0.0178-0.0435-0.0415-0.0119-0.0257-0.0119-0.0574 0-0.0119 2e-3 -0.0316 2e-3 -0.0218 6e-3 -0.0455t0.01-0.0494q6e-3 -0.0277 0.0138-0.0475 0.01-0.0218 0.0217-0.0336 0.0139-0.0138 0.0297-0.0138 0.0178 0 0.0633 0.0316 0.0475 0.0297 0.12263 0.0673 0.0752 0.0356 0.17603 0.0673 0.10284 0.0297 0.23536 0.0297 0.16614 0 0.28679-0.0514 0.12262-0.0514 0.20174-0.13054 0.0791-0.0811 0.11669-0.178 0.0396-0.0989 0.0396-0.19581 0-0.0791-0.0297-0.14834-0.0277-0.0692-0.091-0.11867-0.0613-0.0514-0.16218-0.0811-0.0989-0.0297-0.23932-0.0297h-0.27492q-0.0316 0-0.0495-0.0158-0.0158-0.0178-0.0158-0.0554 0-0.0139 2e-3 -0.0356 4e-3 -0.0218 0.01-0.0415 6e-3 -0.0217 0.0138-0.0435 0.01-0.0218 0.0218-0.0396 0.0138-0.0178 0.0297-0.0277 0.0158-0.01 0.0376-0.01h0.2235q0.14636 0 0.26899-0.0435 0.12262-0.0455 0.20965-0.12262 0.089-0.0791 0.13845-0.18197 0.0494-0.10284 0.0494-0.21954 0-0.14042-0.0811-0.22152-0.0791-0.0811-0.26503-0.0811-0.11274 0-0.21559 0.0356-0.10284 0.0336-0.18591 0.0752-0.0831 0.0396-0.14241 0.0752-0.0574 0.0356-0.0811 0.0356-0.0178 0-0.0277-0.0158-0.01-0.0178-0.01-0.0475 0-0.0158 4e-3 -0.0455t0.0119-0.0633q0.01-0.0336 0.0237-0.0653 0.0158-0.0316 0.0356-0.0514 0.0218-0.0218 0.085-0.0574 0.0633-0.0376 0.15427-0.0712 0.091-0.0356 0.20372-0.0593 0.11471-0.0257 0.23536-0.0257 0.15625 0 0.27294 0.0376 0.11867 0.0356 0.19581 0.10482 0.0771 0.0673 0.11472 0.16614 0.0396 0.0969 0.0396 0.21757 0 0.13844-0.0455 0.26107-0.0435 0.12065-0.12658 0.21559-0.0811 0.0949-0.19383 0.16416-0.11274 0.0672-0.24723 0.0969v4e-3q0.13054 0.0138 0.22152 0.0633 0.093 0.0475 0.15032 0.11867 0.0574 0.0692 0.0831 0.15625 0.0257 0.085 0.0257 0.17405zm-5.6957-30.027q6e-3 -0.025 0.0168-0.0432 0.0106-0.0182 0.0324-0.0338 0.0219-0.0157 0.0588-0.0302 0.0363-0.0164 0.0925-0.0353 0.06-0.0202 0.10063-0.0296 0.04-0.0113 0.0651-0.0114 0.025-6e-5 0.0407 9e-3 0.0145 0.0118 0.0233 0.0318l1.1052 2.1534q0.0177 0.0337 0.0252 0.0562 6e-3 0.0231-6e-3 0.0394-0.0131 0.0169-0.0437 0.0314-0.0325 0.0151-0.0906 0.0346-0.0562 0.0189-0.0894 0.0258-0.0344 9e-3 -0.0557 8e-3t-0.0313-0.0124q-0.012-0.0106-0.022-0.0281l-0.96837-1.9448-2e-3 6.3e-4 -0.39589 2.4052q-3e-3 0.0219-0.0105 0.0369-9e-3 0.0175-0.0268 0.032-0.0182 0.0144-0.0513 0.0277-0.0344 0.0158-0.0906 0.0346-0.0581 0.0195-0.0937 0.0253-0.035 8e-3 -0.0525-1e-3t-0.0208-0.0368q-2e-3 -0.0263 6e-3 -0.0751zm-2.1501 3.2887q-4e-3 -0.0112-8e-3 -0.0306-6e-3 -0.0187-9e-3 -0.045-4e-3 -0.0238-4e-3 -0.0507-6.1e-4 -0.0269 4e-3 -0.0513 4e-3 -0.0244 0.0149-0.0426 0.0112-0.0163 0.03-0.0226l0.88681-0.29792-0.11214-0.88037-0.83994 0.28217q-0.0225 8e-3 -0.0375-6e-3 -0.0163-0.0112-0.0258-0.0393-5e-3 -0.015-0.0101-0.0363-4e-3 -0.0194-6e-3 -0.0438-3e-3 -0.0219-4e-3 -0.0488-6.1e-4 -0.0269 4e-3 -0.0494 5e-3 -0.0225 0.0155-0.0407 0.0112-0.0163 0.03-0.0226l0.83807-0.28154-0.137-1.0786q-3e-3 -0.0156 4e-3 -0.0306 6e-3 -0.0144 0.0238-0.0289 0.0169-0.0119 0.0475-0.0264 0.03-0.0163 0.0769-0.032 0.0468-0.0157 0.0807-0.0209 0.0312-6e-3 0.0501-6e-3 0.0194 2e-3 0.0288 0.0112 9e-3 9e-3 0.0107 0.0256l0.30458 2.3973q0.0115 0.0775-0.0241 0.12076-0.0349 0.0451-0.0781 0.0596l-1.0893 0.36593q-0.0263 9e-3 -0.0401-7e-3 -0.0151-0.0137-0.0246-0.0418zm-2.4182-1.6893q-0.0195-0.0393-0.0246-0.0669-6e-3 -0.025 8e-3 -0.0444 0.0125-0.0188 0.0487-0.0352 0.0363-0.0164 0.1-0.0378 0.0412-0.0139 0.0726-0.0202 0.0307-8e-3 0.0494-8e-3 0.0175 2e-3 0.0288 0.0112 0.0114 9e-3 0.0189 0.0249l0.28836 0.56036 1.0106-0.33949 0.12034-0.69141q3e-3 -0.0219 0.0118-0.0394 7e-3 -0.0151 0.0274-0.0301 0.018-0.0144 0.0531-0.0283 0.0325-0.0151 0.0831-0.0321 0.0562-0.0189 0.0918-0.0246 0.035-8e-3 0.0526 1e-3 0.0175 9e-3 0.0202 0.035 3e-3 0.0282-4e-3 0.0763l-0.50663 2.6782q-6e-3 0.025-0.0168 0.0432-0.0106 0.0181-0.0324 0.0338t-0.0588 0.0302q-0.0363 0.0164-0.0906 0.0346-0.0619 0.0208-0.10064 0.0296-0.04 0.0113-0.0651 0.0114-0.0269 6.9e-4 -0.0413-0.0112-0.0139-0.01-0.0244-0.0293zm1.3001 1.777 2e-3 -6.3e-4 0.24997-1.4297-0.83994 0.28217zm-3.9723-0.79376q-4e-3 -0.0113-7e-3 -0.0332-4e-3 -0.0194-6e-3 -0.0438-3e-3 -0.0219-3e-3 -0.045 6.5e-4 -0.0232 6e-3 -0.0457 6e-3 -0.0207 0.0168-0.0369 0.01-0.0138 0.0269-0.0195l1.2693-0.4264q0.0225-8e-3 0.0438 6e-3 0.0194 0.0144 0.0301 0.0462 3e-3 9e-3 7e-3 0.0269 3e-3 0.02 6e-3 0.0419 1e-3 0.0225 1e-3 0.0475-2e-3 0.0257-7e-3 0.0463-6e-3 0.0207-0.0168 0.0369-0.0106 0.0182-0.0293 0.0245l-0.50622 0.17006 0.24786 1.9489 0.43363-0.45447q0.0249-0.0251 0.0418-0.037 0.0175-0.0101 0.0325-9e-3 0.0132 2e-3 0.0238 0.015 9e-3 0.0137 0.0164 0.0362 7e-3 0.0206 0.0132 0.0519 5e-3 0.0338 6e-3 0.0669-5.7e-4 0.0357-8e-3 0.0694-7e-3 0.0338-0.0286 0.0576l-0.51153 0.57036q-8e-3 9e-3 -0.0175 0.0163-0.0118 8e-3 -0.0274 0.0175-0.0156 9e-3 -0.0381 0.017-0.0237 0.0101-0.0556 0.0208-0.0469 0.0158-0.0762 0.0214-0.0312 6e-3 -0.0488 4e-3 -0.0188 7e-5 -0.0244-0.0106-7e-3 -8e-3 -9e-3 -0.02l-0.29241-2.2741-0.43871 0.14738q-0.0263 9e-3 -0.0419-7e-3 -0.017-0.0131-0.0277-0.045zm-1.769 2.3115q-0.0277-0.0825-0.0567-0.20628-0.0302-0.1213-0.0525-0.26819-0.0235-0.14442-0.0357-0.30514-0.0122-0.16073-5e-3 -0.31959 7e-3 -0.1589 0.0393-0.31157 0.0303-0.15204 0.0944-0.27792 0.0728-0.14966 0.20764-0.27006 0.13294-0.11977 0.34293-0.19031 0.17624-0.0592 0.3176-0.0545 0.142 7e-3 0.25348 0.0713 0.11207 0.0667 0.19496 0.18906 0.0835 0.12425 0.14209 0.29862 0.0277 0.0825 0.0579 0.20379 0.029 0.12378 0.0525 0.26819 0.0222 0.14693 0.0338 0.30578 0.0122 0.16072 5e-3 0.31959-8e-3 0.16138-0.0393 0.31157-0.0303 0.15204-0.0938 0.27979-0.0386 0.0776-0.0904 0.14719-0.0536 0.0702-0.12229 0.12663-0.0699 0.0589-0.15424 0.10605-0.0843 0.0471-0.18557 0.0811-0.17811 0.0598-0.3201 0.0533-0.14199-7e-3 -0.25223-0.0738-0.11144-0.0648-0.19309-0.18969-0.0829-0.12237-0.14083-0.29487zm0.32683-0.11402q0.08 0.23812 0.20837 0.32226 0.12658 0.0848 0.32152 0.0193 0.11063-0.0372 0.18739-0.10676 0.0756-0.0671 0.12595-0.16541 0.0498-0.10018 0.0708-0.23034 0.0209-0.13013 0.0225-0.27462 2e-3 -0.14261-0.0138-0.28955-0.0154-0.14505-0.0376-0.27949-0.0234-0.13193-0.0493-0.24007-0.0252-0.1063-0.0472-0.17193-0.08-0.23811-0.20837-0.32226-0.12838-0.0841-0.32153-0.0193-0.1125 0.0378-0.18802 0.10489-0.0767 0.0696-0.12532 0.16729-0.0485 0.0977-0.0695 0.22783-0.0222 0.13265-0.0244 0.27525-2e-3 0.14449 0.0138 0.28955 0.0141 0.14756 0.0376 0.27949 0.0215 0.13256 0.0493 0.24007 0.0258 0.10818 0.0478 0.1738zm-2.3386-0.27847q-0.0309-0.0919-0.0386-0.19567-0.01-0.10316 0.0107-0.21016 0.0204-0.10701 0.0721-0.21407 0.0504-0.10457 0.14087-0.20173 0.0892-0.0947 0.21851-0.17563 0.12864-0.0829 0.30676-0.1427 0.0937-0.0315 0.1819-0.0486 0.0863-0.0165 0.16756-0.0229 0.08-4e-3 0.15074 2e-3 0.0694 8e-3 0.12889 0.0235 0.0338 7e-3 0.0545 0.0255 0.0195 0.0206 0.0296 0.0506 4e-3 0.0113 8e-3 0.0306 5e-3 0.0213 9e-3 0.045 4e-3 0.0238 6e-3 0.0501 3e-3 0.0282 2e-3 0.0494-3e-3 0.0238-0.01 0.0388-9e-3 0.0175-0.0237 0.0226-0.0169 6e-3 -0.0701-0.01-0.0545-0.013-0.13765-0.0247-0.0826-0.01-0.18829-8e-3 -0.10694 5e-3 -0.23255 0.0468-0.15749 0.0529-0.25549 0.14007-0.0999 0.0878-0.14966 0.18799-0.0492 0.10206-0.0539 0.2059-6e-3 0.10636 0.0248 0.19823 0.0252 0.075 0.0754 0.13116 0.0483 0.0568 0.12405 0.0835 0.0745 0.0292 0.17956 0.0252 0.1032-3e-3 0.23631-0.0481l0.26061-0.0875q0.03-0.0101 0.0519-7.3e-4 0.0206 0.0118 0.0326 0.0475 4e-3 0.0131 9e-3 0.0344 3e-3 0.0219 4e-3 0.0426 1e-3 0.0225 7.8e-4 0.0456-3e-3 0.0238-8e-3 0.0444-7e-3 0.0213-0.0193 0.0357-0.0118 0.0144-0.0325 0.0214l-0.21185 0.0712q-0.13874 0.0466-0.24113 0.1269-0.10176 0.0822-0.15969 0.18301-0.0592 0.10333-0.0733 0.21658-0.0141 0.11322 0.0231 0.22384 0.0447 0.13312 0.14742 0.18416 0.1008 0.0517 0.27706-8e-3 0.10686-0.0359 0.19302-0.1024 0.0868-0.0646 0.15231-0.13045 0.0662-0.064 0.11105-0.1166 0.0431-0.052 0.0655-0.0596 0.0169-6e-3 0.0313 6e-3 0.0151 0.0137 0.0246 0.0418 5e-3 0.015 0.0107 0.0444 6e-3 0.0294 9e-3 0.0638 1e-3 0.0351-2e-3 0.0694-5e-3 0.035-0.0174 0.0601-0.0137 0.0276-0.0623 0.0814-0.048 0.0558-0.12356 0.11662-0.0749 0.0627-0.17422 0.12113-0.10056 0.0609-0.21493 0.0993-0.14812 0.0498-0.2707 0.0513-0.12383 4e-3 -0.219-0.037-0.0945-0.0392-0.16164-0.12097-0.0684-0.0793-0.10682-0.19362-0.0441-0.13124-0.04-0.26198 3e-3 -0.12822 0.0513-0.24468 0.0466-0.11582 0.13146-0.21733 0.0854-0.0997 0.20351-0.1706l-1e-3 -4e-3q-0.12815 0.0284-0.23014 0.0105-0.10328-0.0154-0.18029-0.0646-0.0765-0.0473-0.12853-0.12165-0.0514-0.0724-0.0798-0.1568zm-113.1 131.28q3e-3 0.011483 0.0046 0.033544 0.0031 0.019642 0.0033 0.044098 0.0016 0.022061-4.99e-4 0.0451-0.0022 0.023046-0.0087 0.045183-7e-3 0.020221-0.0193 0.035698-0.0109 0.013063-0.02813 0.017559l-1.2956 0.33806q-0.02297 0.00599-0.04327-0.00915-0.01839-0.015643-0.02688-0.048178-0.0025-0.00957-0.0051-0.027298-0.0011-0.020147-0.0028-0.042184 2.16e-4 -0.022541 0.0019-0.04751 0.0036-0.025465 0.01057-0.045683 7e-3 -0.020221 0.0193-0.035698 0.01181-0.017391 0.03095-0.022385l0.51672-0.13483-0.11318-1.9614-0.46387 0.42356q-0.02663 0.023301-0.04426 0.034033-0.01814 0.00883-0.03303 0.00657-0.01298-0.00274-0.02272-0.016557-0.0079-0.014301-0.01386-0.037266-0.0055-0.021051-0.0096-0.052682-0.0028-0.034023-0.0012-0.067149 3e-3 -0.03553 0.01273-0.06873 0.0097-0.0332 0.03253-0.0555l0.54956-0.53381q0.0081-0.0082 0.01856-0.01506 0.01239-0.0073 0.02862-0.01564 0.01622-0.0083 0.03918-0.01432 0.02438-0.0084 0.05692-0.0169 0.04785-0.01248 0.07755-0.01614 0.03163-0.0042 0.04893-5.02e-4 0.01872 0.0012 0.02363 0.01223 0.0064 0.0086 0.0074 0.02055l0.13526 2.2888 0.44783-0.11685q0.02679-0.00699 0.04136 0.00965 0.01598 0.014227 0.02447 0.046761zm1.9238-2.1843q0.02197 0.08421 0.04245 0.20969 0.02188 0.12306 0.03396 0.27117 0.01348 0.1457 0.01466 0.30687 0.0012 0.16118-0.01687 0.31919-0.01805 0.15802-0.06064 0.30812-0.04068 0.14961-0.11332 0.27077-0.08295 0.14429-0.22573 0.25513-0.14086 0.11034-0.35521 0.16627-0.1799 0.04694-0.3206 0.032551-0.14121-0.0163-0.24796-0.088606-0.10726-0.074215-0.18148-0.20202-0.07473-0.12971-0.12117-0.3077-0.02197-0.084206-0.04385-0.20727-0.02047-0.12548-0.03396-0.27117-0.01207-0.14811-0.01275-0.30737-0.0012-0.16118 0.01687-0.31919 0.01947-0.16043 0.06064-0.30812 0.04069-0.14961 0.11282-0.27268 0.04384-0.07481 0.10026-0.14063 0.05832-0.06632 0.13071-0.11792 0.07381-0.05401 0.16117-0.0952 0.08737-0.04119 0.19071-0.06816 0.18181-0.04744 0.32301-0.03114 0.1412 0.0163 0.24655 0.09102 0.10676 0.0723 0.17958 0.20252 0.07423 0.1278 0.12017 0.30387zm-0.33391 0.09122q-0.06342-0.24305-0.18574-0.33582-0.12041-0.09327-0.31944-0.04134-0.11291 0.02946-0.19429 0.09362-0.07996 0.06175-0.13703 0.15635-0.05657 0.09652-0.08644 0.22492-0.02986 0.12839-0.04134 0.27242-0.01198 0.14212-0.0061 0.28982 0.0053 0.14578 0.01824 0.28141 0.01432 0.13322 0.03271 0.24289 0.01788 0.10776 0.03536 0.17474 0.06342 0.24305 0.18574 0.33582 0.12232 0.092771 0.31944 0.041337 0.11483-0.029961 0.19479-0.091707 0.08138-0.064159 0.13653-0.15827 0.05517-0.094113 0.08503-0.22251 0.03128-0.1308 0.04325-0.27292 0.01148-0.14403 0.0061-0.28982-0.0039-0.14819-0.01824-0.28141-0.0124-0.13372-0.03271-0.24289-0.01839-0.10967-0.03586-0.17665zm2.3139 0.4387q0.02447 0.09377 0.02506 0.19786 0.0025 0.10359-0.0252 0.20894-0.0277 0.10534-0.08661 0.2086-0.05749 0.10085-0.15442 0.19155-0.09552 0.08829-0.23006 0.16019-0.13405 0.073814-0.31585 0.12125-0.09569 0.024967-0.18481 0.035957-0.08721 0.01049-0.16875 0.011325-0.08013-0.00158-0.15027-0.011892-0.06873-0.012728-0.12698-0.032277-0.0332-0.00973-0.05259-0.029204-0.01798-0.021882-0.02597-0.052503-3e-3 -0.011482-0.0061-0.031126-0.0036-0.021556-0.0058-0.045506-0.0021-0.023975-0.0029-0.050344-0.0013-0.028283 0.0014-0.049425 0.0041-0.023551 0.01257-0.038028 0.0099-0.016893 0.02521-0.020887 0.01722-0.00449 0.06923 0.014641 0.05342 0.016722 0.13564 0.034107 0.08171 0.015472 0.1873 0.020625 0.10701 0.00274 0.23523-0.030716 0.16076-0.041946 0.26452-0.12217 0.10567-0.080719 0.16225-0.17725 0.05607-0.098438 0.06797-0.2017 0.01331-0.10568-0.01116-0.19945-0.01997-0.07655-0.06616-0.13604-0.04427-0.05999-0.11799-0.09185-0.07231-0.03428-0.1774-0.03752-0.10318-0.0037-0.23906 0.03172l-0.26601 0.06941q-0.03063 8e-3 -0.05184-0.0028-0.0198-0.01323-0.02929-0.04959-0.0035-0.0134-0.0071-0.03495-0.0016-0.02206-9.07e-4 -0.04269 2.16e-4 -0.02254 0.0024-0.0456 0.0041-0.02355 0.01107-0.04377 0.0089-0.02072 0.02172-0.03428 0.01281-0.01356 0.03387-0.01906l0.21626-0.05643q0.14162-0.03695 0.24929-0.11002 0.10717-0.07498 0.1719-0.17159 0.06614-0.09902 0.08802-0.21102 0.02188-0.112-0.0076-0.22491-0.03546-0.13588-0.13439-0.19387-0.09702-0.05849-0.27692-0.01155-0.10909 0.02846-0.19961 0.08888-0.09103 0.0585-0.16092 0.11966-0.07039 0.05925-0.11881 0.10868-0.04651 0.04893-0.06947 0.05492-0.01722 0.0045-0.03079-0.0083-0.01407-0.01472-0.02156-0.04343-4e-3 -0.01531-0.0076-0.04503t-0.0045-0.06424q0.0011-0.03503 0.0065-0.06915 0.0073-0.03462 0.02146-0.05875 0.01556-0.02654 0.06781-0.07697 0.05175-0.05234 0.1313-0.10784 0.07904-0.05742 0.18214-0.10885 0.10451-0.05384 0.22124-0.0843 0.15119-0.03945 0.27358-0.03255 0.12381 0.0045 0.21593 0.052 0.09162 0.04559 0.15295 0.13179 0.06275 0.08379 0.09321 0.20052 0.03496 0.13396 0.0219 0.26411-0.01164 0.12773-0.06805 0.24056-0.05449 0.11234-0.1461 0.20778-0.09211 0.09353-0.21475 0.15619l1e-3 0.0038q0.12981-0.01956 0.23032 0.0053 0.10193 0.02246 0.17541 0.07687 0.07298 0.0525 0.11983 0.13022 0.04635 0.0758 0.06882 0.16192zm-29.145-196.98q0.00106-0.0119 0.00698-0.0331 0.00376-0.0196 0.011751-0.0426 0.00593-0.0214 0.015705-0.0423 0.00981-0.021 0.023405-0.0396 0.013411-0.0167 0.03023-0.0271 0.014687-9e-3 0.032416-7e-3l1.3337 0.1195q0.023635 2e-3 0.037635 0.0232 0.012018 0.021 0.00902 0.0544-8.924e-4 0.01-0.00446 0.0274-0.00575 0.0194-0.011572 0.0406-0.00781 0.0211-0.017845 0.0441-0.011976 0.0227-0.025377 0.0394-0.013411 0.0167-0.03023 0.0271-0.016997 0.0124-0.036698 0.0107l-0.53189-0.0477-0.55606 1.8843 0.57969-0.24195q0.032934-0.0129 0.05316-0.0171 0.020058-2e-3 0.033307 5e-3 0.011287 7e-3 0.015784 0.0233 0.00257 0.0161 4.5e-4 0.0398-0.00195 0.0217-0.00875 0.0528-0.00887 0.0329-0.021584 0.0636-0.014821 0.0324-0.035201 0.0604-0.020379 0.028-0.049369 0.0413l-0.69758 0.31678q-0.010396 5e-3 -0.022566 8e-3 -0.014142 3e-3 -0.032238 5e-3 -0.018086 2e-3 -0.041721 2.8e-4 -0.025786-3.1e-4 -0.059282-3e-3 -0.049253-4e-3 -0.078437-0.011-0.031167-7e-3 -0.046219-0.0161-0.017194-8e-3 -0.018113-0.0195-0.00309-0.0103-5.55e-5 -0.0218l0.64589-2.1999-0.46097-0.0413q-0.02758-2e-3 -0.035663-0.0231-0.010234-0.0188-0.00724-0.0523zm-2.5486 1.406q0.00776-0.0866 0.030886-0.2117 0.02098-0.12322 0.059639-0.2667 0.03652-0.14169 0.089866-0.29378 0.053346-0.1521 0.12371-0.29473 0.070369-0.14263 0.16117-0.26952 0.088835-0.12708 0.19813-0.21657 0.12681-0.10779 0.29865-0.16388 0.16986-0.0563 0.3905-0.0365 0.18518 0.0166 0.31275 0.0776 0.1274 0.063 0.20345 0.16716 0.075885 0.1061 0.10257 0.25146 0.026517 0.14733 0.010102 0.33054-0.00776 0.0867-0.028747 0.2099-0.023119 0.12502-0.059639 0.2667-0.038669 0.14348-0.091839 0.29362-0.053346 0.15209-0.1237 0.29471-0.072518 0.14443-0.16117 0.26954-0.088834 0.12707-0.1983 0.21853-0.066536 0.0556-0.14188 0.0985-0.077306 0.0428-0.16286 0.0668-0.087709 0.0259-0.18385 0.0351-0.09615 9e-3 -0.20252-2.8e-4 -0.18715-0.0168-0.31454-0.0798t-0.20131-0.16894q-0.076063-0.10411-0.10061-0.25129-0.026693-0.14537-0.010455-0.3266zm0.3451 0.0269q-0.022416 0.25018 0.061378 0.37882 0.081822 0.12847 0.2867 0.14683 0.11622 0.0104 0.21449-0.0224 0.096123-0.0311 0.1818-0.10088 0.085853-0.0717 0.15734-0.18249 0.07148-0.11076 0.13094-0.24245 0.059283-0.12972 0.10368-0.27071 0.044222-0.13901 0.077897-0.27102 0.031527-0.13022 0.051262-0.23966 0.019568-0.10746 0.025746-0.17641 0.022416-0.25018-0.061378-0.37882-0.083794-0.12865-0.2867-0.14683-0.1182-0.0106-0.21432 0.0206-0.098265 0.0329-0.18197 0.10284-0.083713 0.0699-0.1552 0.1807-0.073628 0.11255-0.13291 0.24227-0.059459 0.13169-0.10368 0.2707-0.046371 0.14081-0.077898 0.27103-0.033499 0.13004-0.051261 0.23966-0.019745 0.10943-0.025923 0.17838zm-2.0297-1.1946q0.008648-0.0965 0.043258-0.19469 0.032647-0.0983 0.094307-0.18815 0.061656-0.0898 0.15199-0.16708 0.088182-0.0755 0.21005-0.12813 0.11973-0.0508 0.27065-0.073 0.1511-0.0242 0.33824-7e-3 0.098495 9e-3 0.18609 0.0286 0.085621 0.0196 0.16265 0.0464 0.074896 0.0285 0.13742 0.0619 0.060387 0.0352 0.10861 0.0733 0.027963 0.0204 0.039633 0.0452 0.00953 0.0266 0.0067 0.0582-0.00106 0.0119-0.00481 0.0313-0.00394 0.0215-0.00994 0.0448-0.0061 0.0232-0.014269 0.0483-0.00835 0.0271-0.018024 0.0461-0.011797 0.0207-0.024672 0.0315-0.015016 0.0125-0.030783 0.0111-0.017729-2e-3 -0.060218-0.0371-0.04463-0.0338-0.11613-0.078-0.071683-0.0422-0.16933-0.0826-0.099789-0.0388-0.23177-0.0506-0.16548-0.0148-0.29023 0.0256-0.12673 0.0402-0.21258 0.11201-0.086032 0.0737-0.13211 0.16689-0.048228 0.095-0.056876 0.19149-0.007059 0.0788 0.016314 0.15039 0.021404 0.0714 0.080027 0.12632 0.056478 0.0567 0.1543 0.0952 0.095845 0.0384 0.23571 0.0509l0.27382 0.0245q0.031524 3e-3 0.047843 0.0202 0.014168 0.0191 0.010813 0.0566-0.001232 0.0138-0.005169 0.0353-0.005921 0.0213-0.013564 0.0405-0.007822 0.0212-0.017667 0.0421-0.011806 0.0208-0.025207 0.0375-0.015373 0.0165-0.032024 0.0249-0.016649 9e-3 -0.038322 7e-3l-0.22261-0.0199q-0.14578-0.0131-0.2718 0.0193-0.1262 0.0344-0.21976 0.10343-0.095704 0.0708-0.15414 0.16888-0.058431 0.098-0.068845 0.21425-0.012532 0.13987 0.060998 0.22787 0.071557 0.0878 0.25674 0.10443 0.11229 0.0101 0.21791-0.0162 0.10544-0.0243 0.19189-0.0583 0.086264-0.0319 0.14854-0.0622 0.060308-0.0303 0.083944-0.0282 0.017729 2e-3 0.02617 0.0182 0.008272 0.0186 0.005622 0.0482-0.00141 0.0157-0.008045 0.045-0.006635 0.0292-0.017472 0.062-0.012859 0.0326-0.029463 0.0629-0.018577 0.0301-0.040045 0.048-0.023619 0.0198-0.089833 0.0496-0.066393 0.0318-0.16001 0.0571-0.093794 0.0273-0.2082 0.0409-0.11656 0.0154-0.23671 5e-3 -0.15563-0.014-0.2685-0.0618-0.11502-0.0461-0.18567-0.12189-0.070826-0.0739-0.099436-0.17571-0.030755-0.10004-0.019987-0.22022 0.012356-0.1379 0.068608-0.25598 0.054103-0.11629 0.14531-0.20343 0.089236-0.0873 0.20771-0.1462 0.1183-0.057 0.25489-0.0744l3.5697e-4 -4e-3q-0.12879-0.0254-0.21499-0.0828-0.08835-0.0556-0.13913-0.13162-0.050956-0.074-0.068794-0.16304-0.018022-0.087-0.010075-0.17565z"/>
  <path id="dash_lines" transform="matrix(1.1614 0 0 1.1614 -28.999 -30.812)" d="m195.61 185.26 0.79163 2.9766h0.58687l-0.79164-2.9766zm-1.0497-3.947 0.79163 2.9766h0.58687l-0.79164-2.9766zm-1.0497-3.947 0.79163 2.9766h0.58687l-0.79164-2.9766zm-158.35 7.8941-0.79163 2.9766h-0.58687l0.79164-2.9766zm1.0497-3.947-0.79163 2.9766h-0.58687l0.79164-2.9766zm1.0497-3.947-0.79163 2.9766h-0.58687l0.79164-2.9766z" fill="#ffffff" stroke-width=".25"/>
  <g id="skulls" fill="#ffffff" stroke-dasharray="0.111446, 0.0278616" stroke-width=".027862">
   <path transform="rotate(181.62 99.66 93.689)" d="m10.507 13.675-0.07515-0.0174-0.04442-0.0196-0.04443-0.0196-0.146-0.0998-0.13152-0.1082-0.05787-0.0398-0.05787-0.0397-0.41977-0.21591-0.108-0.0518-0.108-0.0517-0.22545-0.1032-0.05636-0.0264-0.11272-0.0508-0.34757-0.1448-0.24424-0.0952-0.26303-0.0954-0.21606-0.074-0.3006-0.0958-0.05636-0.0158-0.05636-0.0157-0.07842-0.0262-0.29734-0.078-0.08986-0.0322 0.0054-0.0294 0.07044-0.0222 0.07046-0.0222 0.14953-0.0479 0.14953-0.048 0.34911-0.1342 0.18788-0.01 0.22897 0.0404 0.27829 0.0562 0.24424 0.0576 0.13152 0.0368 0.1493 0.0418 0.20766 0.068 0.09394 0.0364 0.09394 0.0365 0.07046 0.0303 0.07045 0.0303 0.12212 0.0578 0.19352 0.0966 0.16982 0.02 0.19088-0.0238 0.20666-0.0472 0.21606-0.0758 0.1673-0.0392 0.0721-4.6e-4 0.0721-4.5e-4 0.07364 0.014 0.10764 0.035 0.12238 0.0594 0.0106 0.043-0.0099 0.0618-0.0098 0.0619-9.6e-5 0.0107-9.4e-5 0.0107 0.02818 0.0362 0.02818 0.0361 4e-6 0.0452-0.06732 0.0718-0.0553 0.1106-0.02218 0.0931-0.02218 0.0932-0.03374 0.0894 0.01816 0.0607 0.01817 0.0607-2.1e-5 0.0628-2e-5 0.0627-0.06938 0.1424-0.04344 0.0607-0.04344 0.0606-0.06158 0.0262-0.07869 0.01-0.07869 0.0101-0.08009-6.7e-4 -0.08009-6.9e-4zm0.39455-0.59035 0.01544-0.0157-0.0096-0.0404-0.013-0.1244-0.0176-0.0346-0.03908 6e-3 -0.013 0.0288-0.03858 0.0864-0.0108 0.0338 0.02076 0.0466 0.05856 0.0294 0.01577 2.2e-4 0.01577 2.3e-4zm-8.1773 0.47864-0.07046-0.025-0.06738-0.054-0.02888-0.0554-0.02889-0.0554-0.03266-0.1148-2e-3 -0.1628 0.03532-0.0958 0.0581-0.0628 0.03785-0.0104 0.03784-0.0104 0.05262-0.02-0.0056-0.0394-0.10334-0.084-0.18788-0.156-0.09676-0.0924-0.051-0.069-0.051-0.0689-0.03346-0.0924 0.0078-0.195 0.05948-0.1256 0.04364-0.0439 0.04363-0.0439 0.05303-0.0265 0.05303-0.0266 0.15554-0.02 0.06314 0.0113 0.06314 0.0114 0.30999 0.1044 0.38514 0.137 0.17848 0.063 0.06611 0.0112 0.0661 0.0112 0.08382-0.0107 0.08382-0.0106 0.15536-0.0367 0.15536-0.0368 0.16908-0.0302 0.05636-0.01 0.33818-0.0488 0.13621-0.0239 0.13621-0.0238 0.29121-0.0588 0.30999-0.0724 0.22545-0.0606 0.26302-0.0772 0.34757-0.1146 0.23099-0.088-0.0032-0.0153-0.0032-0.0154-0.10266 6e-3 -0.10803 0.0237-0.10803 0.0236-0.08924 0.0281-0.08924 0.028-0.24424 0.0524-0.16909 2.2e-4 -0.16909 2.3e-4 -0.18788-0.0418-0.21606-0.0834-0.0056-0.0382 0.02438-0.02 0.12682-0.023 0.04698-0.018 2e-6 -0.0123 1e-6 -0.0123-0.27712-0.0924-0.28181-0.1114-0.07837-0.0249-0.07838-0.025-0.2284-0.0464-0.20666-0.021-0.43211-0.018-0.16908-0.042-0.13152-0.0564-0.07928-0.026-0.22133-0.0508-0.26302-0.0256-0.40393-0.021-0.1503-0.02-0.09394-0.021-0.08658-0.0396-0.02715-0.0438-0.02716-0.0437 8.58e-4 -0.0719 8.59e-4 -0.0718 0.02941-0.0802 0.02941-0.0801 0.06792-0.127 0.03859-0.0589 0.03858-0.0589 0.05398-0.0326 0.06364 0.012 0.01918 0.0249 0.01919 0.0249 3.6e-5 8e-3 3.7e-5 8e-3 0.04928 0.106 0.0224 5e-3 0.02239 5e-3 0.04742-0.0316 0.0482-0.1092 0.01-0.1164-0.0301-0.1056-0.04736-0.0655-0.04737-0.0655-0.011-0.0446 0.0128-0.0522 0.03352-0.0611 0.03353-0.0611 0.04976-0.052 0.04977-0.052 0.10914-0.0512 0.06106-5.5e-4 0.06106-5.6e-4 0.06574 0.027 0.11272 0.0674 0.05167 0.0339 0.05166 0.0339 0.11272 0.0866 0.06574 0.0568 0.2071 0.21162 0.1361 0.1854 0.0889 0.0802 0.07984 0.0535 0.07984 0.0534 0.30085 0.158 0.17822 0.069 0.03758 0.018 0.31 0.1228 0.11742 0.0499 0.11742 0.0498 0.1503 0.0675 0.1503 0.0674 0.13152 0.0626 0.33406 0.1638 0.12887 0.0428 0.12887 0.0429 0.35696 0.1042 0.35972 0.0982h0.03323l0.03323-1e-5 0.10926-0.0466 0.46029-0.186 0.0188-0.014 0.18788-0.0592 0.20666-0.0502 0.15968-0.0396 0.0869-0.0344 0.09158-0.0434 0.06888-0.0412 0.06889-0.0412 0.0066-6e-5 0.22201-0.1498 0.11272-0.07 0.0509-0.0154 0.0509-0.0153 0.06728 0.01 0.10826 0.0404 0.0443-0.01 0.13274-0.13647 0.13274-0.13649-5.2e-5 -0.0115-5e-5 -0.0115-0.11346-0.1242 0.0148-0.026 0.1876-0.1698 0.12548-0.1244 0.15182-0.1704 0.06116-0.042 0.10778-0.0408 0.17402-0.0502 0.18828-0.01 0.10112 0.022 0.12058 0.0586 0.06024 0.0578 0.06025 0.0578 0.02844 0.0582 6e-6 0.035-7e-6 0.0349-0.02946 0.0473-0.02945 0.0473-0.03943 0.0526-0.03942 0.0526-0.06512 0.1244-0.02036 0.0574-0.02035 0.0574-0.01442 0.0588-0.01441 0.0588-2e-6 0.0353v0.0353l0.05492 0.056 0.01907 1e-5 0.01907-1e-5 0.02289-0.0106 0.02288-0.0107 0.0186-0.041 0.02601-0.0718 0.026-0.0718 0.07406-0.1568 0.07054-0.0778h0.07595l0.15708 0.0296 0.10334 0.0286 0.09542 0.0476 0.06726 0.0712 0.01994 0.0368 0.01994 0.0367 0.01364 0.0591 0.01365 0.0591 1.05e-4 0.0493 1.06e-4 0.0493-0.01885 0.0622-0.01884 0.0622-0.09568 0.0964-0.13436 0.067-0.09194 0.014-0.10534 0.0342-0.18788 0.0716-0.3006 8e-3 -0.55423 0.02-0.26302 0.0262-0.2912 0.0604-0.22545 0.0666-0.22545 0.0784-0.13546 0.0544-0.28725 0.1464-0.2199 0.122-0.3813 0.1968-0.25363 0.108-0.07515 0.0291-0.07515 0.029-0.22545 0.0798-0.11272 0.047-0.05636 0.026-0.22545 0.069-0.18788 0.0656-0.44151 0.165-0.07514 0.0254-0.1503 0.0478-0.22545 0.0608-0.07514 0.026-0.09863 0.0286-0.09864 0.0286-0.53544 0.1832-0.07515 0.0251-0.07516 0.0252-0.05636 0.0134-0.05637 0.0134-0.07984 6e-3 -0.07985 6e-3 -0.10978-0.0163-0.10978-0.0162-0.14088 0.02-0.1468 0.0512-0.08662 0.0359-0.08661 0.0358-0.15556 0.0874-0.05636 0.0474 0.02816 0.0288 0.48847-0.20018 0.0443-0.012 0.0072 0.0119 0.0072 0.0118-0.0152 0.0684-0.0334 0.0206-0.38586 0.2025-0.16766 0.091-0.03358-6e-3 -0.03359-6e-3 -0.08734-0.0216-0.02987 0.0126-0.02988 0.0127-0.19344 0.1742-0.04258 0.0356-0.09598 0.0456-0.11273-2.2e-4zm0.84372-3.4481 0.0029-0.0214-0.05294-0.05-0.03614-0.0189-0.03613-0.0189-0.02817-6.8e-4 -0.02817-6.9e-4 -0.0158 0.026 0.03012 0.052 0.05691 0.03 0.05692 0.03 0.04742-6e-3zm4.6911 1.4698-0.01128-0.0138 0.0164-0.015 0.01641-0.0149 0.23484-0.0958 0.12212-0.0482 0.16908-0.0606 0.26302-0.092 0.24424-0.0772 0.07046-0.0158 0.07045-0.0157 0.0933-0.018 0.2355-0.0282 0.16912-8e-5 0.16912-9e-5 0.12988 0.0378 0.03668 0.0247 0.03669 0.0247-0.02012 0.0248-0.4744 0.01-0.17848 0.021-0.07984 0.0146-0.07984 0.0147-0.13678 0.037-0.41745 0.1416-0.09863 0.0305-0.09864 0.0305-0.07045 0.0225-0.07046 0.0225-0.18788 0.0382-0.14176 0.012zm2.4428-0.4909-0.03052-0.0252-4e-6 -0.0122-6e-6 -0.0122 0.03523-0.0153 0.03522-0.0153 0.14286-0.0532 0.14287-0.0532 0.0098 4e-5 0.0098 3e-5 4e-6 0.0466-0.01 0.027-0.01 0.0269-0.02523 0.0273-0.02523 0.0272-0.04697 0.0248-0.04697 0.0247-0.07515 4e-3 -0.07515 5e-3zm-3.4683-0.68657-0.03973-0.0185-0.12004-0.0838-0.07068-0.0664-0.02381-0.0191-0.02381-0.019-0.07942-0.0218-0.11265 0.021-0.11726 0.0556-0.12212 0.0712-0.11272 0.035-0.0539 7e-5 -0.0539 6e-5 -0.04561-0.0177-0.0456-0.0177-0.08558-0.06-0.08354-0.1132-0.05547-0.11354-0.05547-0.11353-0.0104-0.01-0.06264-0.1052-0.04654-0.0574-0.26872-0.2874-0.05796-0.0744-1e-6 -0.0555-1e-6 -0.0556-0.02348-0.016h-0.21606l-0.04325-0.0211-0.04326-0.0211-0.10236-0.13-0.0952-0.1436-0.04616-0.0814-0.04617-0.0814-0.04195-0.10054-0.04195-0.10056 4.48e-4 -0.16757 4.48e-4 -0.16759 0.02629-0.17715 0.02629-0.17716 0.0194-0.0238 0.0089-6e-5 0.0089 7e-5 0.04172 0.0293 0.04174 0.0293 0.02799 0.0497 0.02799 0.0498 8.6e-5 0.0922 8.5e-5 0.0922 0.03056 0.0258 0.0345 1e-5h0.0345l0.09156-0.0618h0.04469l0.04469-1e-5 0.02952 0.0302 4e-6 0.0988 4e-6 0.0989-0.03976 0.1312 0.0094 0.1246 0.05731 0.15457 0.0573 0.15457 0.0451 0.1718 0.0097 0.0185 0.0097 0.0186 0.14614 0.035 0.07556 0.0311 0.07556 0.0312 0.03757 0.0221 0.03757 0.0222 0.1334 0.1012 0.0737 0.0818 0.0812 0.1182 0.01487 5e-3 0.01486 5e-3 0.01087-0.0124 0.01088-0.0124 0.01097-0.10533 0.01097-0.10534 0.019-0.067 0.03374-0.0444 0.07898-0.01 0.20537 0.0338 0.02873 0.0178 0.02872 0.0178-5e-6 0.0394-4e-6 0.0394-0.01344 0.0301-0.01343 0.0302-0.04293 0.1019-0.04293 0.10189 2e-6 0.0254 3e-6 0.0254 0.0389 0.0778 0.12204 0.1226 0.02164 1e-5h0.02164l0.05289-0.0544 0.05289-0.0543-5.2e-5 -8e-3 -5e-5 -8e-3 -0.12212-0.1356v-0.0294l1e-6 -0.0294 0.03706-0.0489 0.03706-0.049 0.12104-0.1192 0.04896-0.0336 0.04897-0.0336h0.04812l0.10242 0.0328 0.03074-0.0412 0.04574-0.0774 0.03022-0.0146 0.03023-0.0146 0.02676 2e-5 0.02676 3e-5 0.06004 0.0372 0.02826 0.044 0.0034 0.22024 0.016 0.0432h0.03426l0.07796-0.0814 0.01067-0.0287 0.01066-0.0287 5.6e-5 -0.0386 5.7e-5 -0.0387-0.03166-0.1236 0.0053-0.0471 0.0053-0.047 0.02458-0.0261 0.02459-0.0261 0.041-0.016 0.04099-0.016 0.0043-0.0161 0.0043-0.0162 0.0126-0.0766 0.03786-0.069 0.01548-0.011 0.01549-0.011 0.10222-0.0622 0.04892-0.1244 0.06862-0.0346 0.04609-3.3e-4 0.04609-3.5e-4 0.0776 0.0404 0.0124 0.0506-0.02026 0.111-0.0301 0.0646-0.08006 0.0454-0.08005 0.0454-0.0488 0.048-0.0488 0.0479-0.0435 0.018h-0.05361l-0.01485 5e-3 -0.01486 5e-3 4.32e-4 0.089 0.01772 0.0397 0.01772 0.0398 0.03932 0.012 0.01889-6e-3 0.0189-6e-3 0.03076-0.0608 0.04712-0.0632 0.0797-0.0476 0.1381-0.039 0.05958-0.0376 0.06524-0.1288 0.02447-0.0819 0.02448-0.0819-2.33e-4 -0.0522-2.32e-4 -0.0522-0.01768-0.0397-0.01767-0.0397-0.10522-0.1532-0.02808-0.0812 3e-6 -0.0371 4e-6 -0.0371 0.03758-0.0382h0.09938l0.11178 0.0298 0.04319 0.0283 0.04318 0.0283h0.0376l0.02766-0.0336 0.02296-0.1436 0.0457-0.1018 0.05179-0.0515 0.05179-0.0516 0.1265-0.0616 0.06572-0.00136 0.0066 0.0334-0.02859 0.0756-0.0286 0.0756-0.0099 0.0417-0.0099 0.0418-9e-3 0.18674-9e-3 0.18672-0.02106 0.142-0.04688 0.1424-0.07364 0.1632-0.0753 0.0962-0.2712 0.2854-0.05414 0.0737-0.05415 0.0737-0.0946 0.1032-0.04826 0.0365-0.04827 0.0365-0.11634 0.0622-0.01802 0.0234-0.01803 0.0233-3e-6 0.11001-5e-6 0.11001-0.08626 0.1232-0.11598 0.1186-0.08428 0.0696-0.06331 0.0393-0.06332 0.0393-0.0556 0.0238-0.05561 0.0238-0.0744 0.016zm-1.3107-1.1143-0.05636-0.0239-0.07992-0.0394-0.0054-0.022-0.0054-0.0219 0.04644-0.0936 0.05366-0.0552 0.03205-0.0138 0.03206-0.0138 0.03371 6e-3 0.0337 6e-3 0.0348 0.0318 0.02626 0.0516-8.96e-4 0.1014-0.02556 0.0732-0.03288 0.037-0.01498-4.2e-4 -0.01498-4.3e-4zm0.73593-0.23409-0.03436-0.0185-0.08658-0.1328-0.03598-0.083-0.03278-0.1244-0.0178-0.0238h-0.01846l-0.01846-1e-5 -0.12516 0.1154-0.094 0.0304-0.0763-0.021-0.04576-0.0496-0.011-0.2002-0.02194-0.0224-0.0096 0.01-0.0097 0.01-0.0116 0.1038-0.07954 0.1244-0.02902 0.067-0.01067 0.035-0.01065 0.035-0.03008 0.0144-0.03008 0.0145-0.06436 0.0246-0.06436 0.0247-0.04328-0.01-0.0211-0.0228-0.0211-0.0229-0.0142-0.1682-0.0099-0.0432-0.0098-0.0431-0.02444-0.061-0.02443-0.061 0.0106-0.0284 0.07027 0.012 0.14438 0.01 0.10426-0.0488 0.03301-0.0257 0.03301-0.0256-5.48e-4 -0.0204-5.46e-4 -0.0204-0.0787-0.0576-0.04382-0.086 0.0048-0.11492 5e-3 -0.1149 0.0401-0.1436 0.03553-0.0766 0.03552-0.0766 0.05331-0.0752 0.05331-0.0751 0.02862-0.0292-0.0058-0.0312-0.05008-6e-3 -0.03718 0.0102-0.03719 0.0102-0.09144 0.0694-0.03534 0.049-0.03533 0.049-0.05245 0.0766-0.05244 0.0766-0.03429 0.0363-0.03431 0.0363-0.09504 0.0458-0.06064 0.0108-0.06064 0.0107-0.11256-0.018-0.10468-0.04-0.13018-0.0884-0.13152-0.1172-0.15968-0.1568-0.07514-0.0608-0.1282-0.0778-0.23522-0.1002-0.02062-0.021 0.0042-0.1582 0.0196-0.1512 0.036-0.0978 0.025-0.0274 0.02499-0.0274 0.06246-0.0266h0.09302l0.01498 6e-3 0.01499 6e-3 0.06472 0.118 0.06408 0.0762 0.05195 0.0365 0.05195 0.0364 0.12676 0.0468h0.05361l5.6e-5 -5e-3 -5.6e-5 -5e-3 -0.01079-0.0209-0.01081-0.0209-0.013-0.01-0.06405-0.0958-0.06404-0.0958-0.0563-0.1244-0.0086-0.1546 0.05202-0.16692 0.05204-0.16693 0.01974-0.0664 0.01975-0.0664 0.01962-0.11074 0.01962-0.11073 1.14e-4 -0.11013 1.15e-4 -0.11013-0.03204-0.1646 6e-3 -0.0644 0.0313-0.0186 0.0313-0.0185 0.08142 0.0115 0.08143 0.0116 0.17352 0.0602 0.02144-0.0218-0.011-0.0446-0.08962-0.1244-0.011-0.01-0.06684-0.11013-0.06684-0.11011-0.0718-0.0698-0.06014-0.0308h-0.04175l-0.04174 1e-5 -0.12342 0.0388-0.0131 0.0191-0.0131 0.019 0.04524 0.1864 0.02278 0.11491 0.02278 0.11492 7e-5 0.10055 6.9e-5 0.10055-0.01234 0.0526-0.01233 0.0526-0.06802 0.1722-0.03231 0.11555-0.0323 0.11553-0.02526 0.12387-0.02525 0.12386-0.03828 0.1216-0.05598 0.065-0.07342 0.0202-0.07046-0.02-0.02098-0.014-0.07144-0.1144-0.07874-0.173-0.03413-0.10533-0.03413-0.10535-0.0391-0.182-0.01393-0.0861-0.01393-0.0862-0.01358-0.14364-0.01359-0.14365-0.0059-0.28727-0.0059-0.28728 0.01126-0.0861 0.01125-0.0862 0.0286-0.1052 0.02847-0.0713 0.02847-0.0712 0.0453-0.0744 0.0453-0.0745 0.11706-0.1568 0.09475-0.10045 0.09475-0.10044 0.07515-0.0638 0.07516-0.0638 0.09103-0.0688 0.09104-0.0688 0.24065-0.1602 0.154-0.0886 0.15136-0.0754 0.13616-0.0512 0.15968-0.0462 0.24424-0.0466 0.3006-0.02 0.4509 0.018 0.36636 0.02 0.19726 0.0206 0.07985 0.0251 0.07984 0.0251 0.13608 0.084 0.02832 0.0412 4.5e-5 0.0115 4.3e-5 0.0116-0.02818 0.0288-0.09862 0.0276-0.05328 0.0113-0.05329 0.0113-0.01071 0.0132-0.01072 0.0132-0.01332 0.0892-0.01333 0.0892-4.32e-4 0.0628 0.05621 0.0596 0.05622 0.0596 1.15e-4 0.0171 1.16e-4 0.0171-0.0585 0.1192-0.04528 0.0766-0.04527 0.0766-0.10506 0.1294-0.14514 0.1064-0.3006 0.1932-0.11272 0.0872-0.0092 0.01-0.12714 0.112-0.05418 0.0684-0.05418 0.0685-0.07806 0.1244-0.03218 0.0718-0.03219 0.0718-0.014 0.0382-0.014 0.0596 0.0172 0.0312h0.051l0.07376-0.0402 0.03085-0.0349 0.03086-0.035 0.0658-0.1348 0.07162-0.22242 0.01303-0.016 0.01303-0.0161 0.0553-0.0292 0.04002 0.0102 0.04001 0.0103 0.04348 0.0191 0.04348 0.019 0.09048 0.0864 0.04966 0.1032 0.0206 0.0936-9.2e-5 0.11013-9.3e-5 0.11013-0.0128 0.1682 0.03354 0.0378h0.08052l0.0108-0.018 0.01876-0.20419 0.01876-0.20421 0.0198-0.1628 0.02724-0.1532 0.02823-0.10813 0.02824-0.10812 0.0763-0.1956 0.03387-0.067 0.03388-0.067 0.11774-0.1842 0.04972-0.0528 0.04973-0.0528 0.11272-0.0422 0.07046-0.0153 0.07045-0.0152 0.48848-0.00136 0.18566 0.0656 0.13372 0.0894 0.10076 0.1036 0.04944 0.067 0.0094 0.01 0.04898 0.0766 0.03972 0.0684 0.07135 0.14657 0.07135 0.14656-0.0174 0.018-0.05947 0.0141-0.05948 0.0141-0.01234 0.0105-0.01235 0.0105v0.0908l0.06014 0.1188-0.02728 0.018-0.03569 1.2e-4 -0.03569 1e-4 -0.02537 0.0134-0.02537 0.0135-0.04803 0.0608-0.04802 0.0608-0.0714 0.136 0.0061 0.0162 0.0061 0.0163 0.0707-0.014 0.0383 2.2e-4 0.0383 2.1e-4 0.02598 0.0173 0.02599 0.0173 0.03458 0.0798 0.0087 0.12928 0.0087 0.12927 0.08772 0.20508 0.03062 0.13 0.0182 0.0238h0.08404l0.02551-0.0185 0.0255-0.0185 0.05076-0.014 0.02794 0.0236-2.17e-4 0.0491-2.14e-4 0.0491-0.03145 0.21674-0.03145 0.21676-0.0065 0.0107-0.0065 0.0106-0.0339-1e-5h-0.03389l-0.06183-0.0107-0.06183-0.0108-0.04698-0.0248-0.03004-0.0275-0.03005-0.0275-0.06598-0.1118-0.04674-0.127-0.02974-0.12-0.0088-0.1938-0.0088-0.19379-0.01043-0.0958-0.01044-0.0958-0.01316-0.0622-0.01317-0.0622-0.0146-0.0478-0.0188-0.032-0.07279-0.0338-0.0728-0.0338-1e-6 -0.0359-2e-6 -0.0359 0.0227-0.1602-0.0194-0.0314-0.04552-0.012-0.07836 0.016-0.44404 0.4514 0.0056 0.0494 0.05636 0.016 0.21341-0.02 0.05718 0.0106 0.05717 0.0106 0.03808 0.0198 0.03809 0.0198 0.02171 0.0249 0.02171 0.025 0.03498 0.0682 0.02836 0.1138 0.02055 0.12927 0.02055 0.12928 0.04532 0.1604 0.07556 0.181 0.07954 0.1662 0.0168 0.0453 0.01681 0.0453 0.0102 0.1392-0.02274 0.134-0.0102 0.1124 0.0259 0.016 0.03973 2.4e-4 0.04798-0.0384 0.02-0.0908 0.05408-0.1872 0.0112-0.01 0.02794 0.01 0.06628 0.10142 0.06628 0.10143 7.8e-5 0.018 0.0188-2e-5 -1.1e-5 9e-3 -9e-6 9e-3 0.10362 0.1788 0.018 0.0662-0.01737 0.04-0.01738 0.0401-0.06776 0.0528-0.20218 0.0852-0.0425 0.0278-0.0425 0.0277-0.04674 0.0555-0.04674 0.0554-0.10787 0.1134-0.10787 0.11341-0.04728 0.0988-0.06914 0.0378-0.04997-0.0108-0.04997-0.0107-0.20666-0.0898-0.17848-0.0912-0.05166-0.0311-0.05167-0.0311-0.17556-0.1272-0.05838-0.0376-0.12256-3.4e-4 -0.12256-3.3e-4 -0.07514-0.04-0.06668-0.1036-0.0679-0.1536-0.01518-0.0597-0.01519-0.0597 0.01-0.019 0.0099-0.019 0.0479-0.012 0.11903 0.0579 0.11903 0.058 0.07514 0.0312 0.21617 0.056 0.17838 0.016 0.16718-0.016 0.14742-0.058 0.05455-0.0418 0.05454-0.0418 0.05286-0.0634 0.06178-0.0968 0.05038-0.122 0.03598-0.1434 1e-6 -0.0446v-0.0446l-0.0299-0.0894-0.04377-0.0445-0.04376-0.0445-0.10864-0.0824-0.11978-0.0578-0.07837-0.0215-0.07837-0.0216-0.18318 2.3e-4 -0.18318 2.2e-4 -0.13595 0.0209-0.13595 0.0208h-0.16234l-0.1012-0.02-0.11272-0.0568-0.04227-0.0413-0.04228-0.0414-0.06776-0.0806h-0.05866l-0.08709 0.0895-0.08708 0.0895-0.11168 0.053-0.06948 0.01-0.11946-0.0394-0.1503-0.0348-0.13621 6.7e-4 -0.13621 6.9e-4 -0.18496 0.0506-0.20958 0.0884-0.47438 0.194-2e-6 0.0238-3e-6 0.0237 0.0915 0.1354 0.06064 0.1148 0.0639 0.178 0.03106 0.0612 0.07304 0.0884 0.08986 0.0498 0.05528 0.0147 0.05528 0.0146 0.05786 1e-5h0.05786l0.15832-0.0282 0.13066-0.0404 0.12212-0.0484 0.21606-0.107 0.16908-0.1036 0.05338-0.0508 0.04008-0.0766 4.5e-5 -0.091 4.7e-5 -0.091-0.0162-0.144 0.02459-0.0135 0.02458-0.0134 0.1364 0.04 0.10962 0.034 0.10962 0.0341 0.03398 0.0205 0.03398 0.0204 0.03188 0.06-0.0021 0.0958-0.0022 0.0958-0.0096 0.10055-0.0096 0.10056-0.01466 0.0524-0.01467 0.0524-0.01908 0.0381-0.0191 0.0381-0.02388 0.0196-0.02389 0.0196-0.01958 0.0116-0.01957 0.0117-0.06212 6.8e-4 -0.08468-0.0216-0.04522 0.0248-0.06052 0.14457-0.06051 0.14456-0.08067 0.1912-0.08067 0.19119 3e-6 0.0265 2e-6 0.0264 0.02387 0.016 0.02386 0.016 0.1918-0.01 0.07984-0.0208 0.07985-0.0208 0.07064-2.2e-4 0.07064-2.4e-4 0.04678 0.0245 0.04677 0.0245 0.07891 0.0685 0.07891 0.0684 0.04884-0.012 0.03288-0.0396v-0.0543l1e-6 -0.0543-0.03154-0.0474-0.02775-0.0335-0.02774-0.0335-0.0774-0.0864-0.03888-0.0526-0.03887-0.0526-0.0192-0.094 0.0164-0.0436 0.01862-0.0102 0.01863-0.0102h0.06068l0.06069 1e-5 0.12018 0.0378 0.08862 0.06 0.09468 0.1082 0.08244 0.1436 0.06528 0.1436 0.0514 0.11969 0.0514 0.11971 0.09896 0.23398-0.01257 0.0154-0.01256 0.0154-0.17128-0.014-0.06002 0.0698 3e-6 0.0325 5e-6 0.0325-0.0184 0.0492h-0.02946l-0.08844-0.085-0.06574-0.0864-0.02527-6e-3 -0.02529-6e-3 -0.03982 0.0216 0.013 0.197-0.02206 0.0682-0.03144 0.012-0.27023 0.0562-0.0334-0.018-0.0116-0.0308v-0.3425l-0.03634-0.02h-0.02942l-0.02942-1e-5 -0.03482 0.018-0.0058 0.0266-0.0058 0.0267 0.03379 0.1662 0.03379 0.16621-0.01135 0.0279-0.01136 0.0279-0.05278 0.0278-0.0169-4.7e-4 -0.0169-4.5e-4zm-2.1898-3.0282 0.0092-0.0119 0.02296-0.067 0.0164-0.182-0.0092-0.11971-0.0092-0.1197-0.03764-0.1628-0.0736-0.1264-0.0411-0.1034-1e-3 -0.10055-1e-3 -0.10054 0.0152-0.146-0.01515-6e-3 -0.01516-6e-3 -0.01762 0.0112-0.01763 0.0112-0.01434 0.0868-0.01433 0.0868-0.011 0.0998 0.01899 0.18945 0.019 0.18946 0.019 0.34474 0.0164 0.067 0.0391 0.1032 0.0481 0.074h0.04441zm2.2724-2.3578 0.07384-0.0141 0.16908-0.0304 0.16908-0.0276 0.04226-0.01 1e-6 -0.0138 2e-6 -0.0138-0.04226-0.0246-0.10333 1.1e-4 -0.10333 1e-4 -0.13152 0.0264-0.06576 0.0236-0.06576 0.0237-0.03053 0.0233-0.03054 0.0234-3e-6 0.0138-4e-6 0.0138h0.0449z"/>
   <path transform="rotate(181.62 14.531 94.892)" d="m10.507 13.675-0.07515-0.0174-0.04442-0.0196-0.04443-0.0196-0.146-0.0998-0.13152-0.1082-0.05787-0.0398-0.05787-0.0397-0.41977-0.21591-0.108-0.0518-0.108-0.0517-0.22545-0.1032-0.05636-0.0264-0.11272-0.0508-0.34757-0.1448-0.24424-0.0952-0.26303-0.0954-0.21606-0.074-0.3006-0.0958-0.05636-0.0158-0.05636-0.0157-0.07842-0.0262-0.29734-0.078-0.08986-0.0322 0.0054-0.0294 0.07044-0.0222 0.07046-0.0222 0.14953-0.0479 0.14953-0.048 0.34911-0.1342 0.18788-0.01 0.22897 0.0404 0.27829 0.0562 0.24424 0.0576 0.13152 0.0368 0.1493 0.0418 0.20766 0.068 0.09394 0.0364 0.09394 0.0365 0.07046 0.0303 0.07045 0.0303 0.12212 0.0578 0.19352 0.0966 0.16982 0.02 0.19088-0.0238 0.20666-0.0472 0.21606-0.0758 0.1673-0.0392 0.0721-4.6e-4 0.0721-4.5e-4 0.07364 0.014 0.10764 0.035 0.12238 0.0594 0.0106 0.043-0.0099 0.0618-0.0098 0.0619-9.6e-5 0.0107-9.4e-5 0.0107 0.02818 0.0362 0.02818 0.0361 4e-6 0.0452-0.06732 0.0718-0.0553 0.1106-0.02218 0.0931-0.02218 0.0932-0.03374 0.0894 0.01816 0.0607 0.01817 0.0607-2.1e-5 0.0628-2e-5 0.0627-0.06938 0.1424-0.04344 0.0607-0.04344 0.0606-0.06158 0.0262-0.07869 0.01-0.07869 0.0101-0.08009-6.7e-4 -0.08009-6.9e-4zm0.39455-0.59035 0.01544-0.0157-0.0096-0.0404-0.013-0.1244-0.0176-0.0346-0.03908 6e-3 -0.013 0.0288-0.03858 0.0864-0.0108 0.0338 0.02076 0.0466 0.05856 0.0294 0.01577 2.2e-4 0.01577 2.3e-4zm-8.1773 0.47864-0.07046-0.025-0.06738-0.054-0.02888-0.0554-0.02889-0.0554-0.03266-0.1148-2e-3 -0.1628 0.03532-0.0958 0.0581-0.0628 0.03785-0.0104 0.03784-0.0104 0.05262-0.02-0.0056-0.0394-0.10334-0.084-0.18788-0.156-0.09676-0.0924-0.051-0.069-0.051-0.0689-0.03346-0.0924 0.0078-0.195 0.05948-0.1256 0.04364-0.0439 0.04363-0.0439 0.05303-0.0265 0.05303-0.0266 0.15554-0.02 0.06314 0.0113 0.06314 0.0114 0.30999 0.1044 0.38514 0.137 0.17848 0.063 0.06611 0.0112 0.0661 0.0112 0.08382-0.0107 0.08382-0.0106 0.15536-0.0367 0.15536-0.0368 0.16908-0.0302 0.05636-0.01 0.33818-0.0488 0.13621-0.0239 0.13621-0.0238 0.29121-0.0588 0.30999-0.0724 0.22545-0.0606 0.26302-0.0772 0.34757-0.1146 0.23099-0.088-0.0032-0.0153-0.0032-0.0154-0.10266 6e-3 -0.10803 0.0237-0.10803 0.0236-0.08924 0.0281-0.08924 0.028-0.24424 0.0524-0.16909 2.2e-4 -0.16909 2.3e-4 -0.18788-0.0418-0.21606-0.0834-0.0056-0.0382 0.02438-0.02 0.12682-0.023 0.04698-0.018 2e-6 -0.0123 1e-6 -0.0123-0.27712-0.0924-0.28181-0.1114-0.07837-0.0249-0.07838-0.025-0.2284-0.0464-0.20666-0.021-0.43211-0.018-0.16908-0.042-0.13152-0.0564-0.07928-0.026-0.22133-0.0508-0.26302-0.0256-0.40393-0.021-0.1503-0.02-0.09394-0.021-0.08658-0.0396-0.02715-0.0438-0.02716-0.0437 8.58e-4 -0.0719 8.59e-4 -0.0718 0.02941-0.0802 0.02941-0.0801 0.06792-0.127 0.03859-0.0589 0.03858-0.0589 0.05398-0.0326 0.06364 0.012 0.01918 0.0249 0.01919 0.0249 3.6e-5 8e-3 3.7e-5 8e-3 0.04928 0.106 0.0224 5e-3 0.02239 5e-3 0.04742-0.0316 0.0482-0.1092 0.01-0.1164-0.0301-0.1056-0.04736-0.0655-0.04737-0.0655-0.011-0.0446 0.0128-0.0522 0.03352-0.0611 0.03353-0.0611 0.04976-0.052 0.04977-0.052 0.10914-0.0512 0.06106-5.5e-4 0.06106-5.6e-4 0.06574 0.027 0.11272 0.0674 0.05167 0.0339 0.05166 0.0339 0.11272 0.0866 0.06574 0.0568 0.2071 0.21162 0.1361 0.1854 0.0889 0.0802 0.07984 0.0535 0.07984 0.0534 0.30085 0.158 0.17822 0.069 0.03758 0.018 0.31 0.1228 0.11742 0.0499 0.11742 0.0498 0.1503 0.0675 0.1503 0.0674 0.13152 0.0626 0.33406 0.1638 0.12887 0.0428 0.12887 0.0429 0.35696 0.1042 0.35972 0.0982h0.03323l0.03323-1e-5 0.10926-0.0466 0.46029-0.186 0.0188-0.014 0.18788-0.0592 0.20666-0.0502 0.15968-0.0396 0.0869-0.0344 0.09158-0.0434 0.06888-0.0412 0.06889-0.0412 0.0066-6e-5 0.22201-0.1498 0.11272-0.07 0.0509-0.0154 0.0509-0.0153 0.06728 0.01 0.10826 0.0404 0.0443-0.01 0.13274-0.13647 0.13274-0.13649-5.2e-5 -0.0115-5e-5 -0.0115-0.11346-0.1242 0.0148-0.026 0.1876-0.1698 0.12548-0.1244 0.15182-0.1704 0.06116-0.042 0.10778-0.0408 0.17402-0.0502 0.18828-0.01 0.10112 0.022 0.12058 0.0586 0.06024 0.0578 0.06025 0.0578 0.02844 0.0582 6e-6 0.035-7e-6 0.0349-0.02946 0.0473-0.02945 0.0473-0.03943 0.0526-0.03942 0.0526-0.06512 0.1244-0.02036 0.0574-0.02035 0.0574-0.01442 0.0588-0.01441 0.0588-2e-6 0.0353v0.0353l0.05492 0.056 0.01907 1e-5 0.01907-1e-5 0.02289-0.0106 0.02288-0.0107 0.0186-0.041 0.02601-0.0718 0.026-0.0718 0.07406-0.1568 0.07054-0.0778h0.07595l0.15708 0.0296 0.10334 0.0286 0.09542 0.0476 0.06726 0.0712 0.01994 0.0368 0.01994 0.0367 0.01364 0.0591 0.01365 0.0591 1.05e-4 0.0493 1.06e-4 0.0493-0.01885 0.0622-0.01884 0.0622-0.09568 0.0964-0.13436 0.067-0.09194 0.014-0.10534 0.0342-0.18788 0.0716-0.3006 8e-3 -0.55423 0.02-0.26302 0.0262-0.2912 0.0604-0.22545 0.0666-0.22545 0.0784-0.13546 0.0544-0.28725 0.1464-0.2199 0.122-0.3813 0.1968-0.25363 0.108-0.07515 0.0291-0.07515 0.029-0.22545 0.0798-0.11272 0.047-0.05636 0.026-0.22545 0.069-0.18788 0.0656-0.44151 0.165-0.07514 0.0254-0.1503 0.0478-0.22545 0.0608-0.07514 0.026-0.09863 0.0286-0.09864 0.0286-0.53544 0.1832-0.07515 0.0251-0.07516 0.0252-0.05636 0.0134-0.05637 0.0134-0.07984 6e-3 -0.07985 6e-3 -0.10978-0.0163-0.10978-0.0162-0.14088 0.02-0.1468 0.0512-0.08662 0.0359-0.08661 0.0358-0.15556 0.0874-0.05636 0.0474 0.02816 0.0288 0.48847-0.20018 0.0443-0.012 0.0072 0.0119 0.0072 0.0118-0.0152 0.0684-0.0334 0.0206-0.38586 0.2025-0.16766 0.091-0.03358-6e-3 -0.03359-6e-3 -0.08734-0.0216-0.02987 0.0126-0.02988 0.0127-0.19344 0.1742-0.04258 0.0356-0.09598 0.0456-0.11273-2.2e-4zm0.84372-3.4481 0.0029-0.0214-0.05294-0.05-0.03614-0.0189-0.03613-0.0189-0.02817-6.8e-4 -0.02817-6.9e-4 -0.0158 0.026 0.03012 0.052 0.05691 0.03 0.05692 0.03 0.04742-6e-3zm4.6911 1.4698-0.01128-0.0138 0.0164-0.015 0.01641-0.0149 0.23484-0.0958 0.12212-0.0482 0.16908-0.0606 0.26302-0.092 0.24424-0.0772 0.07046-0.0158 0.07045-0.0157 0.0933-0.018 0.2355-0.0282 0.16912-8e-5 0.16912-9e-5 0.12988 0.0378 0.03668 0.0247 0.03669 0.0247-0.02012 0.0248-0.4744 0.01-0.17848 0.021-0.07984 0.0146-0.07984 0.0147-0.13678 0.037-0.41745 0.1416-0.09863 0.0305-0.09864 0.0305-0.07045 0.0225-0.07046 0.0225-0.18788 0.0382-0.14176 0.012zm2.4428-0.4909-0.03052-0.0252-4e-6 -0.0122-6e-6 -0.0122 0.03523-0.0153 0.03522-0.0153 0.14286-0.0532 0.14287-0.0532 0.0098 4e-5 0.0098 3e-5 4e-6 0.0466-0.01 0.027-0.01 0.0269-0.02523 0.0273-0.02523 0.0272-0.04697 0.0248-0.04697 0.0247-0.07515 4e-3 -0.07515 5e-3zm-3.4683-0.68657-0.03973-0.0185-0.12004-0.0838-0.07068-0.0664-0.02381-0.0191-0.02381-0.019-0.07942-0.0218-0.11265 0.021-0.11726 0.0556-0.12212 0.0712-0.11272 0.035-0.0539 7e-5 -0.0539 6e-5 -0.04561-0.0177-0.0456-0.0177-0.08558-0.06-0.08354-0.1132-0.05547-0.11354-0.05547-0.11353-0.0104-0.01-0.06264-0.1052-0.04654-0.0574-0.26872-0.2874-0.05796-0.0744-1e-6 -0.0555-1e-6 -0.0556-0.02348-0.016h-0.21606l-0.04325-0.0211-0.04326-0.0211-0.10236-0.13-0.0952-0.1436-0.04616-0.0814-0.04617-0.0814-0.04195-0.10054-0.04195-0.10056 4.48e-4 -0.16757 4.48e-4 -0.16759 0.02629-0.17715 0.02629-0.17716 0.0194-0.0238 0.0089-6e-5 0.0089 7e-5 0.04172 0.0293 0.04174 0.0293 0.02799 0.0497 0.02799 0.0498 8.6e-5 0.0922 8.5e-5 0.0922 0.03056 0.0258 0.0345 1e-5h0.0345l0.09156-0.0618h0.04469l0.04469-1e-5 0.02952 0.0302 4e-6 0.0988 4e-6 0.0989-0.03976 0.1312 0.0094 0.1246 0.05731 0.15457 0.0573 0.15457 0.0451 0.1718 0.0097 0.0185 0.0097 0.0186 0.14614 0.035 0.07556 0.0311 0.07556 0.0312 0.03757 0.0221 0.03757 0.0222 0.1334 0.1012 0.0737 0.0818 0.0812 0.1182 0.01487 5e-3 0.01486 5e-3 0.01087-0.0124 0.01088-0.0124 0.01097-0.10533 0.01097-0.10534 0.019-0.067 0.03374-0.0444 0.07898-0.01 0.20537 0.0338 0.02873 0.0178 0.02872 0.0178-5e-6 0.0394-4e-6 0.0394-0.01344 0.0301-0.01343 0.0302-0.04293 0.1019-0.04293 0.10189 2e-6 0.0254 3e-6 0.0254 0.0389 0.0778 0.12204 0.1226 0.02164 1e-5h0.02164l0.05289-0.0544 0.05289-0.0543-5.2e-5 -8e-3 -5e-5 -8e-3 -0.12212-0.1356v-0.0294l1e-6 -0.0294 0.03706-0.0489 0.03706-0.049 0.12104-0.1192 0.04896-0.0336 0.04897-0.0336h0.04812l0.10242 0.0328 0.03074-0.0412 0.04574-0.0774 0.03022-0.0146 0.03023-0.0146 0.02676 2e-5 0.02676 3e-5 0.06004 0.0372 0.02826 0.044 0.0034 0.22024 0.016 0.0432h0.03426l0.07796-0.0814 0.01067-0.0287 0.01066-0.0287 5.6e-5 -0.0386 5.7e-5 -0.0387-0.03166-0.1236 0.0053-0.0471 0.0053-0.047 0.02458-0.0261 0.02459-0.0261 0.041-0.016 0.04099-0.016 0.0043-0.0161 0.0043-0.0162 0.0126-0.0766 0.03786-0.069 0.01548-0.011 0.01549-0.011 0.10222-0.0622 0.04892-0.1244 0.06862-0.0346 0.04609-3.3e-4 0.04609-3.5e-4 0.0776 0.0404 0.0124 0.0506-0.02026 0.111-0.0301 0.0646-0.08006 0.0454-0.08005 0.0454-0.0488 0.048-0.0488 0.0479-0.0435 0.018h-0.05361l-0.01485 5e-3 -0.01486 5e-3 4.32e-4 0.089 0.01772 0.0397 0.01772 0.0398 0.03932 0.012 0.01889-6e-3 0.0189-6e-3 0.03076-0.0608 0.04712-0.0632 0.0797-0.0476 0.1381-0.039 0.05958-0.0376 0.06524-0.1288 0.02447-0.0819 0.02448-0.0819-2.33e-4 -0.0522-2.32e-4 -0.0522-0.01768-0.0397-0.01767-0.0397-0.10522-0.1532-0.02808-0.0812 3e-6 -0.0371 4e-6 -0.0371 0.03758-0.0382h0.09938l0.11178 0.0298 0.04319 0.0283 0.04318 0.0283h0.0376l0.02766-0.0336 0.02296-0.1436 0.0457-0.1018 0.05179-0.0515 0.05179-0.0516 0.1265-0.0616 0.06572-0.00136 0.0066 0.0334-0.02859 0.0756-0.0286 0.0756-0.0099 0.0417-0.0099 0.0418-9e-3 0.18674-9e-3 0.18672-0.02106 0.142-0.04688 0.1424-0.07364 0.1632-0.0753 0.0962-0.2712 0.2854-0.05414 0.0737-0.05415 0.0737-0.0946 0.1032-0.04826 0.0365-0.04827 0.0365-0.11634 0.0622-0.01802 0.0234-0.01803 0.0233-3e-6 0.11001-5e-6 0.11001-0.08626 0.1232-0.11598 0.1186-0.08428 0.0696-0.06331 0.0393-0.06332 0.0393-0.0556 0.0238-0.05561 0.0238-0.0744 0.016zm-1.3107-1.1143-0.05636-0.0239-0.07992-0.0394-0.0054-0.022-0.0054-0.0219 0.04644-0.0936 0.05366-0.0552 0.03205-0.0138 0.03206-0.0138 0.03371 6e-3 0.0337 6e-3 0.0348 0.0318 0.02626 0.0516-8.96e-4 0.1014-0.02556 0.0732-0.03288 0.037-0.01498-4.2e-4 -0.01498-4.3e-4zm0.73593-0.23409-0.03436-0.0185-0.08658-0.1328-0.03598-0.083-0.03278-0.1244-0.0178-0.0238h-0.01846l-0.01846-1e-5 -0.12516 0.1154-0.094 0.0304-0.0763-0.021-0.04576-0.0496-0.011-0.2002-0.02194-0.0224-0.0096 0.01-0.0097 0.01-0.0116 0.1038-0.07954 0.1244-0.02902 0.067-0.01067 0.035-0.01065 0.035-0.03008 0.0144-0.03008 0.0145-0.06436 0.0246-0.06436 0.0247-0.04328-0.01-0.0211-0.0228-0.0211-0.0229-0.0142-0.1682-0.0099-0.0432-0.0098-0.0431-0.02444-0.061-0.02443-0.061 0.0106-0.0284 0.07027 0.012 0.14438 0.01 0.10426-0.0488 0.03301-0.0257 0.03301-0.0256-5.48e-4 -0.0204-5.46e-4 -0.0204-0.0787-0.0576-0.04382-0.086 0.0048-0.11492 5e-3 -0.1149 0.0401-0.1436 0.03553-0.0766 0.03552-0.0766 0.05331-0.0752 0.05331-0.0751 0.02862-0.0292-0.0058-0.0312-0.05008-6e-3 -0.03718 0.0102-0.03719 0.0102-0.09144 0.0694-0.03534 0.049-0.03533 0.049-0.05245 0.0766-0.05244 0.0766-0.03429 0.0363-0.03431 0.0363-0.09504 0.0458-0.06064 0.0108-0.06064 0.0107-0.11256-0.018-0.10468-0.04-0.13018-0.0884-0.13152-0.1172-0.15968-0.1568-0.07514-0.0608-0.1282-0.0778-0.23522-0.1002-0.02062-0.021 0.0042-0.1582 0.0196-0.1512 0.036-0.0978 0.025-0.0274 0.02499-0.0274 0.06246-0.0266h0.09302l0.01498 6e-3 0.01499 6e-3 0.06472 0.118 0.06408 0.0762 0.05195 0.0365 0.05195 0.0364 0.12676 0.0468h0.05361l5.6e-5 -5e-3 -5.6e-5 -5e-3 -0.01079-0.0209-0.01081-0.0209-0.013-0.01-0.06405-0.0958-0.06404-0.0958-0.0563-0.1244-0.0086-0.1546 0.05202-0.16692 0.05204-0.16693 0.01974-0.0664 0.01975-0.0664 0.01962-0.11074 0.01962-0.11073 1.14e-4 -0.11013 1.15e-4 -0.11013-0.03204-0.1646 6e-3 -0.0644 0.0313-0.0186 0.0313-0.0185 0.08142 0.0115 0.08143 0.0116 0.17352 0.0602 0.02144-0.0218-0.011-0.0446-0.08962-0.1244-0.011-0.01-0.06684-0.11013-0.06684-0.11011-0.0718-0.0698-0.06014-0.0308h-0.04175l-0.04174 1e-5 -0.12342 0.0388-0.0131 0.0191-0.0131 0.019 0.04524 0.1864 0.02278 0.11491 0.02278 0.11492 7e-5 0.10055 6.9e-5 0.10055-0.01234 0.0526-0.01233 0.0526-0.06802 0.1722-0.03231 0.11555-0.0323 0.11553-0.02526 0.12387-0.02525 0.12386-0.03828 0.1216-0.05598 0.065-0.07342 0.0202-0.07046-0.02-0.02098-0.014-0.07144-0.1144-0.07874-0.173-0.03413-0.10533-0.03413-0.10535-0.0391-0.182-0.01393-0.0861-0.01393-0.0862-0.01358-0.14364-0.01359-0.14365-0.0059-0.28727-0.0059-0.28728 0.01126-0.0861 0.01125-0.0862 0.0286-0.1052 0.02847-0.0713 0.02847-0.0712 0.0453-0.0744 0.0453-0.0745 0.11706-0.1568 0.09475-0.10045 0.09475-0.10044 0.07515-0.0638 0.07516-0.0638 0.09103-0.0688 0.09104-0.0688 0.24065-0.1602 0.154-0.0886 0.15136-0.0754 0.13616-0.0512 0.15968-0.0462 0.24424-0.0466 0.3006-0.02 0.4509 0.018 0.36636 0.02 0.19726 0.0206 0.07985 0.0251 0.07984 0.0251 0.13608 0.084 0.02832 0.0412 4.5e-5 0.0115 4.3e-5 0.0116-0.02818 0.0288-0.09862 0.0276-0.05328 0.0113-0.05329 0.0113-0.01071 0.0132-0.01072 0.0132-0.01332 0.0892-0.01333 0.0892-4.32e-4 0.0628 0.05621 0.0596 0.05622 0.0596 1.15e-4 0.0171 1.16e-4 0.0171-0.0585 0.1192-0.04528 0.0766-0.04527 0.0766-0.10506 0.1294-0.14514 0.1064-0.3006 0.1932-0.11272 0.0872-0.0092 0.01-0.12714 0.112-0.05418 0.0684-0.05418 0.0685-0.07806 0.1244-0.03218 0.0718-0.03219 0.0718-0.014 0.0382-0.014 0.0596 0.0172 0.0312h0.051l0.07376-0.0402 0.03085-0.0349 0.03086-0.035 0.0658-0.1348 0.07162-0.22242 0.01303-0.016 0.01303-0.0161 0.0553-0.0292 0.04002 0.0102 0.04001 0.0103 0.04348 0.0191 0.04348 0.019 0.09048 0.0864 0.04966 0.1032 0.0206 0.0936-9.2e-5 0.11013-9.3e-5 0.11013-0.0128 0.1682 0.03354 0.0378h0.08052l0.0108-0.018 0.01876-0.20419 0.01876-0.20421 0.0198-0.1628 0.02724-0.1532 0.02823-0.10813 0.02824-0.10812 0.0763-0.1956 0.03387-0.067 0.03388-0.067 0.11774-0.1842 0.04972-0.0528 0.04973-0.0528 0.11272-0.0422 0.07046-0.0153 0.07045-0.0152 0.48848-0.00136 0.18566 0.0656 0.13372 0.0894 0.10076 0.1036 0.04944 0.067 0.0094 0.01 0.04898 0.0766 0.03972 0.0684 0.07135 0.14657 0.07135 0.14656-0.0174 0.018-0.05947 0.0141-0.05948 0.0141-0.01234 0.0105-0.01235 0.0105v0.0908l0.06014 0.1188-0.02728 0.018-0.03569 1.2e-4 -0.03569 1e-4 -0.02537 0.0134-0.02537 0.0135-0.04803 0.0608-0.04802 0.0608-0.0714 0.136 0.0061 0.0162 0.0061 0.0163 0.0707-0.014 0.0383 2.2e-4 0.0383 2.1e-4 0.02598 0.0173 0.02599 0.0173 0.03458 0.0798 0.0087 0.12928 0.0087 0.12927 0.08772 0.20508 0.03062 0.13 0.0182 0.0238h0.08404l0.02551-0.0185 0.0255-0.0185 0.05076-0.014 0.02794 0.0236-2.17e-4 0.0491-2.14e-4 0.0491-0.03145 0.21674-0.03145 0.21676-0.0065 0.0107-0.0065 0.0106-0.0339-1e-5h-0.03389l-0.06183-0.0107-0.06183-0.0108-0.04698-0.0248-0.03004-0.0275-0.03005-0.0275-0.06598-0.1118-0.04674-0.127-0.02974-0.12-0.0088-0.1938-0.0088-0.19379-0.01043-0.0958-0.01044-0.0958-0.01316-0.0622-0.01317-0.0622-0.0146-0.0478-0.0188-0.032-0.07279-0.0338-0.0728-0.0338-1e-6 -0.0359-2e-6 -0.0359 0.0227-0.1602-0.0194-0.0314-0.04552-0.012-0.07836 0.016-0.44404 0.4514 0.0056 0.0494 0.05636 0.016 0.21341-0.02 0.05718 0.0106 0.05717 0.0106 0.03808 0.0198 0.03809 0.0198 0.02171 0.0249 0.02171 0.025 0.03498 0.0682 0.02836 0.1138 0.02055 0.12927 0.02055 0.12928 0.04532 0.1604 0.07556 0.181 0.07954 0.1662 0.0168 0.0453 0.01681 0.0453 0.0102 0.1392-0.02274 0.134-0.0102 0.1124 0.0259 0.016 0.03973 2.4e-4 0.04798-0.0384 0.02-0.0908 0.05408-0.1872 0.0112-0.01 0.02794 0.01 0.06628 0.10142 0.06628 0.10143 7.8e-5 0.018 0.0188-2e-5 -1.1e-5 9e-3 -9e-6 9e-3 0.10362 0.1788 0.018 0.0662-0.01737 0.04-0.01738 0.0401-0.06776 0.0528-0.20218 0.0852-0.0425 0.0278-0.0425 0.0277-0.04674 0.0555-0.04674 0.0554-0.10787 0.1134-0.10787 0.11341-0.04728 0.0988-0.06914 0.0378-0.04997-0.0108-0.04997-0.0107-0.20666-0.0898-0.17848-0.0912-0.05166-0.0311-0.05167-0.0311-0.17556-0.1272-0.05838-0.0376-0.12256-3.4e-4 -0.12256-3.3e-4 -0.07514-0.04-0.06668-0.1036-0.0679-0.1536-0.01518-0.0597-0.01519-0.0597 0.01-0.019 0.0099-0.019 0.0479-0.012 0.11903 0.0579 0.11903 0.058 0.07514 0.0312 0.21617 0.056 0.17838 0.016 0.16718-0.016 0.14742-0.058 0.05455-0.0418 0.05454-0.0418 0.05286-0.0634 0.06178-0.0968 0.05038-0.122 0.03598-0.1434 1e-6 -0.0446v-0.0446l-0.0299-0.0894-0.04377-0.0445-0.04376-0.0445-0.10864-0.0824-0.11978-0.0578-0.07837-0.0215-0.07837-0.0216-0.18318 2.3e-4 -0.18318 2.2e-4 -0.13595 0.0209-0.13595 0.0208h-0.16234l-0.1012-0.02-0.11272-0.0568-0.04227-0.0413-0.04228-0.0414-0.06776-0.0806h-0.05866l-0.08709 0.0895-0.08708 0.0895-0.11168 0.053-0.06948 0.01-0.11946-0.0394-0.1503-0.0348-0.13621 6.7e-4 -0.13621 6.9e-4 -0.18496 0.0506-0.20958 0.0884-0.47438 0.194-2e-6 0.0238-3e-6 0.0237 0.0915 0.1354 0.06064 0.1148 0.0639 0.178 0.03106 0.0612 0.07304 0.0884 0.08986 0.0498 0.05528 0.0147 0.05528 0.0146 0.05786 1e-5h0.05786l0.15832-0.0282 0.13066-0.0404 0.12212-0.0484 0.21606-0.107 0.16908-0.1036 0.05338-0.0508 0.04008-0.0766 4.5e-5 -0.091 4.7e-5 -0.091-0.0162-0.144 0.02459-0.0135 0.02458-0.0134 0.1364 0.04 0.10962 0.034 0.10962 0.0341 0.03398 0.0205 0.03398 0.0204 0.03188 0.06-0.0021 0.0958-0.0022 0.0958-0.0096 0.10055-0.0096 0.10056-0.01466 0.0524-0.01467 0.0524-0.01908 0.0381-0.0191 0.0381-0.02388 0.0196-0.02389 0.0196-0.01958 0.0116-0.01957 0.0117-0.06212 6.8e-4 -0.08468-0.0216-0.04522 0.0248-0.06052 0.14457-0.06051 0.14456-0.08067 0.1912-0.08067 0.19119 3e-6 0.0265 2e-6 0.0264 0.02387 0.016 0.02386 0.016 0.1918-0.01 0.07984-0.0208 0.07985-0.0208 0.07064-2.2e-4 0.07064-2.4e-4 0.04678 0.0245 0.04677 0.0245 0.07891 0.0685 0.07891 0.0684 0.04884-0.012 0.03288-0.0396v-0.0543l1e-6 -0.0543-0.03154-0.0474-0.02775-0.0335-0.02774-0.0335-0.0774-0.0864-0.03888-0.0526-0.03887-0.0526-0.0192-0.094 0.0164-0.0436 0.01862-0.0102 0.01863-0.0102h0.06068l0.06069 1e-5 0.12018 0.0378 0.08862 0.06 0.09468 0.1082 0.08244 0.1436 0.06528 0.1436 0.0514 0.11969 0.0514 0.11971 0.09896 0.23398-0.01257 0.0154-0.01256 0.0154-0.17128-0.014-0.06002 0.0698 3e-6 0.0325 5e-6 0.0325-0.0184 0.0492h-0.02946l-0.08844-0.085-0.06574-0.0864-0.02527-6e-3 -0.02529-6e-3 -0.03982 0.0216 0.013 0.197-0.02206 0.0682-0.03144 0.012-0.27023 0.0562-0.0334-0.018-0.0116-0.0308v-0.3425l-0.03634-0.02h-0.02942l-0.02942-1e-5 -0.03482 0.018-0.0058 0.0266-0.0058 0.0267 0.03379 0.1662 0.03379 0.16621-0.01135 0.0279-0.01136 0.0279-0.05278 0.0278-0.0169-4.7e-4 -0.0169-4.5e-4zm-2.1898-3.0282 0.0092-0.0119 0.02296-0.067 0.0164-0.182-0.0092-0.11971-0.0092-0.1197-0.03764-0.1628-0.0736-0.1264-0.0411-0.1034-1e-3 -0.10055-1e-3 -0.10054 0.0152-0.146-0.01515-6e-3 -0.01516-6e-3 -0.01762 0.0112-0.01763 0.0112-0.01434 0.0868-0.01433 0.0868-0.011 0.0998 0.01899 0.18945 0.019 0.18946 0.019 0.34474 0.0164 0.067 0.0391 0.1032 0.0481 0.074h0.04441zm2.2724-2.3578 0.07384-0.0141 0.16908-0.0304 0.16908-0.0276 0.04226-0.01 1e-6 -0.0138 2e-6 -0.0138-0.04226-0.0246-0.10333 1.1e-4 -0.10333 1e-4 -0.13152 0.0264-0.06576 0.0236-0.06576 0.0237-0.03053 0.0233-0.03054 0.0234-3e-6 0.0138-4e-6 0.0138h0.0449z"/>
  </g>
 </g>
 <g id="roundels">
  <image id="roundel_frontL" transform="matrix(-.38551 .9227 -.92024 -.39136 0 0)" x="85.554" y="-142.37" width="6.4463" height="3.3917" preserveAspectRatio="xMidYMid" xlink:href="file:///D:/Projects/private/OrigamiFighterJet/fe/src/assets/roundels/us.svg"/>
  <image id="roundel_frontR" transform="matrix(-.36467 -.93114 .93343 -.35875 0 0)" x="-172.09" y="55.073" width="6.4463" height="3.3917" preserveAspectRatio="xMidYMid" xlink:href="file:///D:/Projects/private/OrigamiFighterJet/fe/src/assets/roundels/us.svg"/>
  <image id="roundel_winL" transform="rotate(66.333)" x="21.156" y="-4.0858" width="8.7946" height="4.656" preserveAspectRatio="xMidYMid" xlink:href="file:///D:/Projects/private/OrigamiFighterJet/fe/src/assets/roundels/us.svg"/>
 </g>
 <g id="guide" class="UnoptimicedTransforms" fill="none" opacity=".5" stroke="#000000" stroke-width=".25">
  <path d="m0 220.95h105m105 0h-105" opacity="1" stop-color="#000000"/>
  <path d="m105 105-47.812-47.812-18.291-6.7237-30.365-41.933-8.5312 0.28919m105 96.18 47.812-47.812 18.291-6.7237 30.365-41.933 8.5312 0.28919" display="none" opacity="1" stop-color="#000000"/>
  <path d="m0 210 105-105m105 105-105-105" display="none" opacity="1" stop-color="#000000"/>
  <path d="m63.596 63.596-63.596-4.4988m146.4 4.4988 63.596-4.4988" opacity="1" stop-color="#000000"/>
  <path d="m105 105-105 0.12122m105-0.12122 105 0.12122" opacity="1" stop-color="#000000"/>
  <path d="M 105,105 0,0 M 105,105 210,0" opacity="1" stop-color="#000000"/>
  <path id="wing" d="m201.71 8.2905 8.2905 4.0527-7.1878 47.262-56.412 3.9906zm0 1.6e-6 -4.0527-8.2905-47.262 7.1878-3.9906 56.412zm-193.42-1.6e-6 -8.2905 4.0527 7.1878 47.262 56.412 3.9906zm0 1.6e-6 4.0527-8.2905 47.262 7.1878 3.9906 56.412z" opacity="1" stroke-width=".25"/>
  <path id="tail" d="m210 241.96-56.028 17.073 17.783-32.82 31.272-0.54082 6.9737 5.6626zm0 34.146-56.028-17.073 17.783 32.82 31.272 0.54082 6.9737-5.6626zm-210-34.146 56.028 17.073-17.783-32.82-31.272-0.54082-6.9737 5.6626zm0 34.146 56.028-17.073-17.783 32.82-31.272 0.54082-6.9737-5.6626z" opacity="1" stroke-width=".25"/>
  <path d="m129.71 220.95-24.712-80.339m-24.712 80.339 24.712-80.339" opacity="1" stroke-width=".25"/>
  <path d="m0 259.04h210" opacity="1" stroke-width=".25"/>
  <path d="m210 210-2e-4 -35.545-41.486-5.9412zm1e-5 -1e-5 -35.545 0.14482-6.1104-41.461zm-210 1e-5 2e-4 -35.545 41.486-5.9412zm-1e-5 -1e-5 35.545 0.14482 6.1104-41.461z" opacity="1" stroke-width=".25"/>
  <path d="m105 137.51s-3.566-0.0723-6.0964 8.0251-1.5906 15.255-1.5906 15.255 2.3603 5.5669 7.687 5.5669zm0 0s3.566-0.0723 6.0964 8.0251 1.5906 15.255 1.5906 15.255-2.3603 5.5669-7.687 5.5669z" stop-color="#000000" style="-inkscape-stroke:none"/>
 </g>
 <g id="cut" class="UnoptimicedTransforms" fill="none" stroke="#000000" stroke-width=".6">
  <path d="m0 105.12 27.907-0.0322m182.09 0.0322-27.907-0.0322" stop-color="#000000"/>
  <path d="m210 210-46.716 2.1e-4 3.3931 11.079 43.321-0.125m-210-10.954 46.716 2.1e-4 -3.3931 11.079-43.321-0.125"/>
 </g>
</svg>
