<svg width="210mm" height="297mm" version="1.1" viewBox="0 0 210 297" xmlns="http://www.w3.org/2000/svg" xmlns:xlink="http://www.w3.org/1999/xlink">
 <defs>
  <linearGradient id="linearGradient1360" x1="105" x2="104.95" y1="88.497" y2="77.714" gradientUnits="userSpaceOnUse">
   <stop stop-color="#ff6600" offset="0"/>
   <stop stop-color="#803300" offset="1"/>
  </linearGradient>
 </defs>
 <rect id="bg" x="-.25" width="210.25" height="297" fill="#cccccc"/>
 <path id="base" d="m162.13 259.24 38.062-32.687 8.6508 5.114-6.4542 23.282zm-114.26 0-38.062-32.687-8.6508 5.114 6.4542 23.282zm129.1 37.762-14.879-37.762 34.691 20.951 0.34126 6.4788zm25.478-42.103-40.355 4.3378 34.654 21.012 5.8977-2.7034zm-169.42 42.103 14.879-37.762-34.691 20.951-0.34126 6.4788zm-25.478-42.103 40.355 4.3378-34.654 21.012-5.8977-2.7034zm97.468-144.49 89.277-89.204-0.9312-8.6422-30.234-10.709-3.6179-2.0043-54.513 0.15485zm-0.039 0-89.277-89.204 0.9312-8.6422 30.234-10.709 3.6179-2.0043 54.513 0.15485z" fill="#808080" stroke="#666" stroke-width=".26458"/>
 <path id="camo" d="m194.26 273.44s2.5854 3.85 4.4984-0.75053c1.7521-4.2135-0.65418-5.5814-0.5013-7.6983 0.12524-1.7341 0.92131-1.3444-0.52862-3.6254-1.4949-2.3518-4.7574-3.2388-8.2006-2.5136-3.4336 0.72308-11.608-1.3455-11.71 2.0497-0.13843 4.6181 3.0382 2.1222 5.1139 3.2172 3.0429 1.6052 2.2822 1.275 3.8922 3.996 0.92828 1.5688 3.6884 1.4118 6.4128 2.9074zm-15.337 0.92206c-0.40518-1.5083-4.9591-0.53925-3.444 3.8905 1.4767 4.3177 1.5928 3.993 1.0479 6.0442-0.60184 2.2653-1.8348 2.9746 0.15622 4.8025 2.0528 1.8846 5.3339 0.18004 8.1177-1.9722 2.6256-2.03 5.5847 0.16472 6.8894-2.3618 2.0012-3.8753-0.25792-3.7692-2.5463-4.2894-3.3547-0.76271-5.8894 0.66459-6.7868-1.3759-1.2729-2.8942-0.41537-3.9987-3.4341-4.7379zm6.0658-28.561c-1.1158 1.3018-2.9754 5.7649 1.5342 5.0675 4.5096-0.69736 2.838 1.5838 4.928 1.9526 1.7121 0.30212 4.0912 1.5342 6.5088 0.32544 2.4926-1.2463 2.9713-4.6749 1.9526-8.043-0.96078-3.1767 3.8123-7.8105 0.88334-9.5307-3.7609-2.2088-5.6254 0.32543-6.9272 2.2781-1.9084 2.8625 0.74384 5.393-2.4175 5.3465-3.1614-0.0465-4.6956 0.0465-6.4623 2.6035zm-169.25 27.639s-2.5854 3.85-4.4984-0.75053c-1.7521-4.2135 0.65418-5.5814 0.5013-7.6983-0.12524-1.7341-0.92131-1.3444 0.52862-3.6254 1.4949-2.3518 4.7574-3.2388 8.2006-2.5136 3.4336 0.72308 11.608-1.3455 11.71 2.0497 0.13843 4.6181-3.0382 2.1222-5.1139 3.2172-3.0429 1.6052-2.2822 1.275-3.8922 3.996-0.92828 1.5688-3.6884 1.4118-6.4128 2.9074zm15.337 0.92206c0.40518-1.5083 4.9591-0.53925 3.444 3.8905-1.4767 4.3177-1.5928 3.993-1.0479 6.0442 0.60184 2.2653 1.8348 2.9746-0.15622 4.8025-2.0528 1.8846-5.3339 0.18004-8.1177-1.9722-2.6256-2.03-5.5847 0.16472-6.8894-2.3618-2.0012-3.8753 0.25792-3.7692 2.5463-4.2894 3.3547-0.76271 5.8894 0.66459 6.7868-1.3759 1.2729-2.8942 0.41537-3.9987 3.4341-4.7379zm-6.0658-28.561c1.1158 1.3018 2.9754 5.7649-1.5342 5.0675-4.5096-0.69736-2.838 1.5838-4.928 1.9526-1.7121 0.30212-4.0912 1.5342-6.5088 0.32544-2.4926-1.2463-2.9713-4.6749-1.9526-8.043 0.96078-3.1767-3.8123-7.8105-0.88334-9.5307 3.7609-2.2088 5.6254 0.32543 6.9272 2.2781 1.9084 2.8625-0.74384 5.393 2.4175 5.3465 3.1614-0.0465 4.6956 0.0465 6.4623 2.6035zm44.747-219.76s-1.6437-5.4571 2.3669-5.3256 4.7996 1.2492 5.5229 3.0244c0.72323 1.7752 2.2059 3.1582 0 4.7339-1.3807 0.98622-1.7752 2.8929-0.92048 3.4847 0.85473 0.59173 0.59174 1.5122 0.26299 2.2354-0.32874 0.72323-0.39449 1.7752 0.52599 2.8929s1.903 4.1438-0.98623 5.4571c-0.72323 0.32874-9.9937 1.7752-9.9937 1.7752s-7.4953-0.98623-5.9173-5.1284c1.578-4.1421 2.0382-4.9969 0.72323-7.2981-1.315-2.3012 1.9067-3.7476 1.9067-3.7476zm-34.905-14.088c1.2315 3.3146 3.8791 1.7328 4.9159 3.7728 0.52599 1.1506 1.3109-0.49736 1.4871-1.6183 0.26974-1.716 6.0846-1.8642 5.4242 4.5366-0.42737 4.1421-1.975 4.3775-0.39449 8.5473 0.65789 1.7357 3.2217 3.6162 1.8738 4.9311-1.5475 1.5097-0.52006 3.0362-0.29586 3.649 0.49311 1.3478 0.52598 6.9693-3.0244 4.6024-3.5504-2.3669 0.1315-3.8791-3.1559-7.8569s-4.701-2.7614-7.3638-4.5366-6.016-2.1368-6.4762-4.9969c-0.36064-2.2412-1.4527-1.3506-2.6251-2.2707-1.6226-1.2733 0.52667-6.7134 3.8675-4.2955 1.9235-0.86561 3.8264-6.5642 5.7673-4.4644zm90.988 12.641s7.2323 1.578 4.2079 9.2048-4.7996 5.1941-6.5091 10.322c-1.7094 5.1284 1.052 5.7858 3.1559 4.8654 2.104-0.92048 2.5642-3.5504 5.2599-3.1559 2.6957 0.39449 10 1.8664 10.848 1.9724 1.578 0.19724 6.6811 3.2976 2.6957 5.7201-3.3532 2.0382 0.40043 6.3207-5.3256 7.4953-0.34267 0.07029-13.939-1.4465-13.939-1.4465s-9.8622 0.46024-9.0075 12.952c0.74595 10.902-12.229 12.952-12.229 12.952s-11.635 2.41-9.5993-5.9173c1.4465-5.9173 1.052-9.665-2.1039-12.952-3.1559-3.2874-7.1008-3.8791-5.2599-12.032 1.841-8.1528-2.2501-12.947-5.4571-14.925-3.9449-2.4327-6.4914-14.81 3.4189-14.859zm38.89-6.7392s4.4709 7.7583 0.92048 8.3829-5.5886 3.2217-4.2736 5.9502c1.315 2.7286-0.85472 5.1612 0.0328 7.0351 1.0212 2.156 8.4798 3.887 9.5992-1.1506 0.72322-3.2545 0.55886-6.1146 4.0106-7.0022 3.4518-0.8876 6.8049-0.46024 6.8049-6.0488 0-3.0433 6.4097-3.4792 4.5695-8.5473-2.0053-5.5229-11.473-0.1315-11.539-4.9311-0.0432-3.1519-6.8707-3.5175-8.9418-1.7095-2.0711 1.8081-2.5642 5.1941-1.1835 8.0213z" fill="#666666" stop-color="#000000" style="font-variation-settings:normal"/>
 <path id="line" d="m202.41 254.75 6.5898-23.121-8.6608-5.2424-38.298 32.861 3.7131-0.39449 34.815-29.756 5.7201 3.386-6.3138 22.632zm-42.975-254.75 0.05 2.4157 3.2314 1.6843 27.816 10.226 0.42291 7.0059-53.604 53.19-0.89905 4.2103 57.848-57.531-0.9312-8.6422-30.234-10.709zm-151.84 254.75-6.5898-23.121 8.6608-5.2424 38.298 32.861-3.7131-0.39449-34.815-29.756-5.7201 3.386 6.3138 22.632zm42.975-254.75-0.05 2.4157-3.2314 1.6843-27.816 10.226-0.42291 7.0059 53.604 53.19 0.89905 4.2103-57.848-57.531 0.9312-8.6422 30.234-10.709zm126.4 296.93 20.139-10.243-0.33696-6.5091-34.678-20.997 1.3807 3.2171 30.412 18.446 0.52598 4.6024-18.249 9.3983zm25.513-42.121 0.25003 22.593-5.9248 2.7163-34.672-21.008 3.4907-0.26648 30.435 18.409 4.3225-1.6656-0.12347-20.527zm-169.44 42.121-20.139-10.243 0.33696-6.5091 34.678-20.997-1.3807 3.2171-30.412 18.446-0.52598 4.6024 18.249 9.3983zm-25.513-42.121-0.25003 22.593 5.9248 2.7163 34.672-21.008-3.4907-0.26648-30.435 18.409-4.3225-1.6656 0.12347-20.527z" fill="#b3b3b3" stroke="#999999" stroke-width=".1"/>
 <path id="raidar" transform="translate(5e-6 -.49311)" d="m105 123.34-1.9317-1.1477-2.2901 0.40329-1.4227-1.7392-2.29-0.40431-0.74203-2.1209-2.0136-1.1631 0.0281-2.2468-1.4943-1.7817 0.79484-2.1016-0.79484-2.1853 1.4657-1.703 5.18e-4 -2.3254 1.9598-1.099 0.79581-2.185 2.2175-0.36247 1.4951-1.781 2.2077 0.41782 2.0141-1.1622 1.9317 1.1477 2.2901-0.40329 1.4227 1.7392 2.29 0.40431 0.74202 2.1209 2.0136 1.1631-0.0281 2.2468 1.4943 1.7817-0.79484 2.1016 0.79484 2.1853-1.4657 1.703-5.2e-4 2.3254-1.9598 1.099-0.79581 2.185-2.2175 0.36247-1.4951 1.781-2.2077-0.41782z" fill="#b3b3b3" stop-color="#000000" style="font-variation-settings:normal"/>
 <path id="cockpit" transform="matrix(.86844 0 0 .90005 13.814 8.3559)" d="m101.4 71.224s-1.7666 0.4653-3.8122 3.7197c-0.39952 9.5609 3.4401 18.038 3.4401 18.038l3.975 2.8825 3.9755-2.8825s3.8396-8.4772 3.4401-18.038c-2.0456-3.2544-3.8122-3.7197-3.8122-3.7197l-3.6034 1.8598z" fill="url(#linearGradient1360)" stop-color="#000000" style="-inkscape-stroke:none;font-variation-settings:normal"/>
 <path id="cockpitBorder" transform="matrix(.86844 0 0 .90005 13.814 8.3559)" d="m101.4 71.224s-1.7666 0.4653-3.8122 3.7197c-0.39952 9.5609 3.4401 18.038 3.4401 18.038l3.975 2.8825 3.9755-2.8825s3.8396-8.4772 3.4401-18.038c-2.0456-3.2544-3.8122-3.7197-3.8122-3.7197l-3.6034 1.8598z" fill="none" stop-color="#000000" stroke="#b3b3b3" stroke-width="1.265" style="font-variation-settings:normal"/>
 <path id="nozzle" class="UnoptimicedTransforms" d="m136.45-8.7024e-4 3.4895 1.9535 3.1448-1.9717 2.806 3.1805 4.7495-3.1614zm30.64 220.91-6.8807-13.186-26.779 7.7475 0.27895 5.5043zm9.7631 76.154-45.887 2e-5 -0.0465-3.1461 41.23-9.1544zm-103.3-297.06-3.4895 1.9535-3.1448-1.9717-2.806 3.1805-4.7495-3.1614zm-30.64 220.91 6.8807-13.186 26.779 7.7475-0.27895 5.5043zm-9.7631 76.154 45.887 2e-5 0.0465-3.1461-41.23-9.1544z" fill="#666666" stop-color="#000000" style="font-variation-settings:normal"/>
 <path id="break" class="UnoptimicedTransforms" d="m119.97 45.303-0.84655 7.1597 1.1903 5.31e-4 0.14488-7.0087zm-2.5826 0.28127-0.17529 0.5673 2.2702 0.70178 0.1753-0.5673zm-0.63727 2.0472-0.17529 0.5673 2.402 0.74251 0.17529-0.5673zm-0.70769 2.258-0.17528 0.5673 2.8592 0.88378 0.17528-0.5673zm-26.006-4.5864 0.84655 7.1597-1.1903 5.31e-4 -0.14488-7.0087zm2.5826 0.28127 0.17529 0.5673-2.2702 0.70178-0.1753-0.5673zm0.63727 2.0472 0.17529 0.5673-2.402 0.74251-0.17529-0.5673zm0.70769 2.258 0.17528 0.5673-2.8592 0.88378-0.17528-0.5673z" fill="#ccc" stop-color="#000000" style="font-variation-settings:normal"/>
 <image id="roundel_1" transform="rotate(138.52)" x="-124.61" y="-135.63" width="10.297" height="5.6163" preserveAspectRatio="xMidYMid" xlink:href="../fe/src/assets/roundels/us_white.svg"/>
 <image id="qr" transform="rotate(224.23)" x="-173.34" y="87.557" width="18.092" height="18.092" preserveAspectRatio="xMidYMid" xlink:href="../fe/src/assets/qrCodes/origami-skin.svg"/>
 <path id="cutLine" class="UnoptimicedTransforms" transform="translate(4.7625,5.1594)" d="m150.68 169.69 13.299-13.377m-114.19 13.377-13.299-13.377" fill="none" stop-color="#000000" stroke="#000000" stroke-width=".2"/>
 <path id="guide" d="m0 0h210v297h-210zm210 259.24-210-8e-3m0-38.245 210-0.0312m-105-220.96v297m105-291.54-210 209.97m0 0.0371h210.18l-210.18-209.97m159.43-5.5006-1.2511 57.275m1.2511-57.275-13.728 69.688zm-6.8476-0.095601-16.179 78.981zm-47.583 110.54 45.638-110.45m-100.07 0 1.2511 57.275m-1.2511-57.275 13.728 69.688zm6.8476-0.095601 16.179 78.981zm47.583 110.54-45.638-110.45" fill="none" stroke="#666666" stroke-width=".1"/>
</svg>
