<svg id="svg610" width="170mm" height="215mm" version="1.1" viewBox="0 0 170 215" xmlns="http://www.w3.org/2000/svg" xmlns:xlink="http://www.w3.org/1999/xlink">
 <rect id="base" width="170" height="215" fill="#b3b3b3" stop-color="#000000" stroke="#1a1a1a" stroke-opacity=".18517" stroke-width=".49428"/>
 <defs>
  <filter id="camoBlur" x="-0.2" y="-0.2" width="1.4" height="1.4">
   <feGaussianBlur in="SourceGraphic" stdDeviation="0.4"/>
  </filter>
 </defs>
 <g id="body">
  <path id="main" d="m84.875 79.875-10.82 10.94-43.957 104.9h-4.2656l20.036-76.712-45.933 45.933v50l85 0.0217v-65.22l-20.494 45.977h-6.3318l26.826-56.751zm-36.734-79.94 10.323 53.529-53.53-53.529zm-43.142 0.064595 53.464 53.464-58.529-11.287v-42.177zm80.06 79.875 10.82 10.94 43.957 104.9h4.2656l-20.036-76.712 45.933 45.933v50l-85 0.0217v-65.22l20.494 45.977h6.3318l-26.826-56.751zm36.734-79.94-10.323 53.529 53.53-53.529zm43.142 0.064595-53.464 53.464 58.529-11.287v-42.177z" fill="#3a76a0"/>
  <path id="camo" d="m166.17 2.2929c-1.0939-0.032915-1.6031 2.1193-3.3445 3.8607-2.1433 2.1433-0.89861 1.6593-1.8666 3.3187-0.96795 1.6593-1.5212 1.1749-4.0793 3.0417s-0.76078 2.42-2.4893 4.7708c-1.7285 2.3507-0.76057 1.1063-2.6965 2.3508s-2.9729 2.5583-4.6323 4.7708-5.1856 5.8077-6.0844 6.983c-0.89881 1.1754-3.8023 4.2865-5.7382 5.9459-1.9359 1.6593-1.6598 3.0422-1.9363 4.7015-0.27655 1.6593-2.2125 1.9358-4.0101 3.5951-1.0379 0.95806-1.3299 3.0531-1.3984 4.6659l40.94-7.8951c-0.0109-0.94095-0.0625-5.3098-0.0625-6.9339 0-1.7976-0.27653-2.005-1.3136-5.6694s-0.8985-1.1064-0.8294-2.7657 1.1059-5.8079 0.76016-8.4351 2.1e-4 -1.5211 0.13849-3.6644 0.5533-0.8295 1.4521-2.558c0.89881-1.7285 0.76044-1.3138 0.27646-3.1114-0.48396-1.7976-0.34556-0.69109-0.27646-3.8024 0.0692-3.1113-0.1387-1.3138-1.9363-2.7657-0.33705-0.27224-0.62038-0.396-0.87281-0.40359zm-161.91 1.0656c-1.0209-0.048614-2.0319 0.49594-2.1875 1.896-0.20373 1.8336 1.1059 2.9042 1.1059 3.8721 0 0.96795 0.030819 1.5056 0.69143 4.1481 0.62225 2.489 0.34582 1.9359 0.41496 4.0101 0.070469 2.1141-1.3825 0.968-0.82941 4.7015 0.77669 5.2427 1.9359 4.4248 0.69143 6.9138-1.2445 2.489-1.7286 3.3188-1.3829 5.393 0.54983 3.299 2.3504 3.872 2.7652 5.8079 0.18366 0.85708 0.50228 2.1375 0.80098 3.3099l36.633 7.0647c-1.4502-2.9719-4.9172-9.8017-7.4967-12.587-1.2993-1.4031-1.7287-3.526-4.1486-5.2545-2.6675-1.9054-3.5259-4.5631-5.1852-6.6373s-5.255-4.0099-5.9464-5.5309-2.212-4.4252-4.0096-5.5314-3.5957-1.5212-4.9785-3.7336c-1.3828-2.2125-1.2442-2.9035-2.4887-4.4245-1.2445-1.5211-1.309-2.226-3.4572-3.1807-0.31113-0.13828-0.65241-0.22047-0.9927-0.23668zm80.61 76.721-1.6722 1.4903-9.1441 9.2454-2.0045 4.7842c2.326 2.5107 5.6057 6.8514 5.0963 10.978-0.40884 3.3122-0.09788 12.613-1.7601 13.689-1.6622 1.0756-4.3022 7.6265-4.2044 8.8976 0.09778 1.2711-5.5732 4.0089-6.551 3.7155-0.744-0.2232-5.727 0.5703-8.3721 0.4036l-11.291 26.944c-1.62e-4 5.2e-4 -8.7e-4 2e-3 -1e-3 3e-3 -0.07446 0.23637-0.38086 1.2015-0.38086 1.2015s10.658 2.9335 8.4093 14.178c-2.2489 11.244-5.2803 17.013-5.2803 17.013s-3.8604 3.0917-2.5911 6.5996l12.027 4.5956 2.9822-4.7418 1.5069-3.3616h-3.531l26.826-56.752-0.05994-58.88zm0.1881 0.14108-0.05943 58.742 26.826 56.751h-2.4934l3.6985 8.03 11.562-4.4974s-2.5669-7.0158-3.3492-10.047-2.6396-6.942-2.6396-9.8754c0-2.9333 0.19533-4.5956 0.19533-6.4534s-0.58652-1.3691-0.58652-3.5202 3.1287-13.004 5.2798-12.222c0.0607 0.0221 0.12074 0.0233 0.17983 0.0103l-9.0956-21.705-1.3121-3.1311c-6.742-1.722-9.6382-1.9353-10.892-2.2588-5.6674-1.4618-5.0832-3.8358-4.7899-5.7914 0.29334-1.9556 0.78805-4.661-1.2387-8.7943-2.3926-4.8794-1.9556-7.1971-2.249-8.9571-0.23189-1.3914 1.9073-7.1519 4.0695-10.233l-2.2846-5.4524-9.4568-9.5617c-3.08e-4 -2.34e-4 -2.09e-4 -2.83e-4 -5.16e-4 -5.17e-4 -0.72733-0.55316-1.2091-0.9176-1.3637-1.0325zm-61.825 85.28c-0.24464 0.0187-0.46469 0.0615-0.64802 0.13488-1.4667 0.58666-2.0533 1.467-2.8355 2.0536-0.78222 0.58667-3.6179 0.78215-4.4979 2.8355-0.88 2.0533-1.0758 3.6177-1.6624 4.2044-0.58667 0.58667-2.7375 1.858-2.542 3.0313 0.19556 1.1733-0.39113 2.0533-1.3689 2.8355-0.97778 0.78222-4.3024 1.271-3.5202 5.671 0.78222 4.4-0.097605 4.9864 4.0091 5.2798 4.1067 0.29333 2.2489-0.0974 5.0844 0.0982 2.8356 0.19555 3.129-0.88039 4.4979-1.956 1.3689-1.0756 1.9556-1.3687 3.2267-1.5642 1.1285-0.17362 3.9721 0.61813 4.6261 0.80616l5.5531-21.262-5.2906-1.2506s-2.9193-1.0483-4.6318-0.91726zm127.22 4.1372c-0.60615 0.0163-1.3816 0.18212-2.2164 0.59531-2.1291 1.0538-8.601 4.3327-9.4077 4.7971-0.0384 0.0221-0.0711 0.0479-0.10749 0.0713l3.7915 14.517c2.8689-0.55436 6.7962-1.4058 7.5778-0.83458 1.2711 0.92889 1.7112 0.44036 2.8112 1.8826 1.1 1.4422 4.033 1.3933 4.8886 1.2955 0.85556-0.0978 0.83098-0.46484 2.1999-0.0248 1.3689 0.44 4.2779-1.1733 4.4979-2.9089s0.12229-1.3932 0.63562-1.711c0.51334-0.31778-0.24453-1.3199-0.39119-1.4666-0.14667-0.14666-0.44008 0.0978-0.39119-0.56224 0.0489-0.66-0.36662-2.0288-0.73329-2.5177s-1.4418-0.68454-1.833-2.5668c-0.39111-1.8822-2.7383-5.4753-3.9605-6.0864-1.2222-0.61111-1.8573-0.29362-2.1751-1.247-0.31778-0.95333-2.2982-1.9556-2.5182-2.0045s-1.1488-0.56196-1.4666-0.92862c-0.15889-0.18334-0.59585-0.31654-1.202-0.30024zm-110.21 1.8619-8.584 20.484 5.0054 2.8882s2.8359-1.6622 4.3026-1.8578c1.4667-0.19555 2.9331-0.78232 3.422-1.7601 0.48889-0.97777 0.97796 0.19535 2.1513-1.6624 1.1733-1.8578 0.97772-2.1513 0.97772-4.0091s0.39105-2.4444 0.97772-4.2044-0.97778-2.9332 0-3.8132 1.8578-1.8575 0.88005-3.0308c-0.97778-1.1733-4.6933-1.3689-4.6933-1.3689zm90.029 1.3922-4.8204 2.2381s-1.106 1.0026-1.2097 2.6965-1.4177 1.7631-0.86455 4.0101c0.55311 2.247 1.1755 2.662 1.0718 3.0768-0.10371 0.41483-0.20723 1.7632 0.44959 2.7311 0.65683 0.96795 0.72559 1.0712 0.76016 1.6934 0.0346 0.62225 0.31121 1.3138 0.72605 1.4521s1.0719 0.10364 1.1756 0.62219c0.10371 0.51854-0.13853 1.6596 1.1751 2.1782 1.3136 0.51854 3.6992 1.2787 4.4597 1.417 0.65285 0.1187 4.4338-1.4445 5.5433-1.911zm-58.3 6.4554-9.1261 20.535s5.6001 2.3507 7.1903 2.9729c1.5902 0.62226 0.76077 1.1755 2.4893 2.0743 1.7285 0.89878 1.3828 0.48371 2.6965 0.82941 1.3136 0.34569 2.4889 1.4519 5.2545 1.6593 2.7656 0.20742 1.9356-2.4196 1.4516-3.1802-0.48397-0.76053 0.06914-1.1756 0-1.7978s-0.48373-2.8347-1.1751-3.6644c-0.69139-0.82967-0.89872-4.4941-0.27647-5.393 0.62225-0.89881 0.13792-5.047-0.89917-8.5731-1.0371-3.5261-7.6052-5.4622-7.6052-5.4622zm19.67 4.114c-0.41484 0.0173-0.9334 0.44958-1.3482 2.1089-0.82967 3.3187-0.20726 2.2121-0.89865 3.8024-0.69139 1.5902-1.5212 3.5954-0.76068 4.7708 0.76053 1.1754 0.82971 2.2125 0.69143 2.6965-0.13828 0.48398-1.1061 1.3138-0.89865 2.42s1.0373 3.5262 0.13849 4.0793-1.452 3.9408-0.06925 4.9087c1.3828 0.96795 4.2175 0.89874 4.978 0.62219 0.76053-0.27656 2.2125-1.5902 3.0422-1.3136 0.82967 0.27656 4.8396-0.48384 5.2545-1.2444 0.41483-0.76052 1.5212-2.0745 0.76067-2.5585s-1.5215-0.76054-1.5906-2.005c-0.0691-1.2445 0.89924-2.0049 0.27699-3.2494-0.62226-1.2445-1.7285-1.3828-2.3508-3.0422-0.62225-1.6593-3.3881-10.647-6.4993-11.615 0 0-0.31122-0.39762-0.72605-0.38034z" fill="#064b70" filter="url(#camoBlur)" stop-color="#000000" style="-inkscape-stroke:none"/>

 </g>
 <path id="guide" class="UnoptimicedTransforms" transform="translate(0,-5.0647)" d="m170 190.75-45.933-66.681m20.036 76.712-20.036-76.712m-39.067 95.955 48.368-19.243m-27.873 0-20.494-45.977m0-30.327 26.826 76.305m-26.826 0h85m-111.3-142.08-58.701-11.459m111.47 11.287 58.529-11.287m-170 122.76 165-165m-165 0v215h170v-215m-170 1.8e-6h170m-165-1.8e-6 165 165m-170 20.749 45.933-66.681m-20.036 76.712 20.036-76.712m39.067 95.955-48.368-19.243m27.873 0 20.494-45.977m3e-6 -30.327-26.826 76.305m26.826 0-85-1e-5m111.3-142.08 58.701-11.459m-111.47 11.287-58.529-11.287m170 122.76-165-165m165 1.38e-5 -2e-5 215-170-2e-5 1.7926e-5 -215m170 1.6e-5 -170-1.42e-5m165 1.2e-5 -165 165m-0.066001-164.94h170.07v215h-170.07z" fill="none" stroke="#000000" stroke-dasharray="0.25, 0.5" stroke-width=".25"/>
 <path id="cockpit" d="m85 134.83h-5.4221s-3.972-1.3362-2.8909-7.6899c1.0812-6.3537 2.5138-18.658 7.0571-18.759l1.2559-0.0279m0 26.476h5.4221s3.972-1.3362 2.8909-7.6899c-1.0812-6.3537-2.5138-18.658-7.0571-18.759l-1.2559-0.0279" fill="#4f3c28"/>
 <path id="cockpitBorder" d="m85 130.25h-3.8104s-3.6774-1.845-4.5074-3.0769m8.3178 3.0769h3.8104s3.6774-1.845 4.5074-3.0769m-8.3178 7.6613h-5.4221s-3.972-1.3362-2.8909-7.6899c1.0812-6.3537 2.5138-18.658 7.0571-18.759l1.2559-0.0279m0 26.476h5.4221s3.972-1.3362 2.8909-7.6899c-1.0812-6.3537-2.5138-18.658-7.0571-18.759l-1.2559-0.0279" fill="none" stroke="#000000" stroke-width=".7"/>
 <circle id="radar" cx="85.083" cy="80.019" r="19.235" fill="#bbccde" stop-color="#000000"/>
 <g id="decal" transform="matrix(-1,0,0,1,169.83,-5.0647)">
  <path id="upside" transform="matrix(-1 0 0 1 169.83 6.0417e-8)" d="m99.668 150.72 0.04941 0.32105s0.04043 0.26081 0.09616 0.68651l-0.55624 0.1909c-0.02102-0.22623-0.03778-0.4151-0.04529-0.46552l-2.2212 0.7623 0.1477 0.43037-0.25812 0.0886-0.32468-0.94606zm0.25973 1.9674c0.0306 0.27987 0.0608 0.58273 0.0888 0.90126l-0.5622 0.19309c-0.01153-0.096-0.02487-0.20431-0.03954-0.34111l-1.7919 0.61496 0.1089 0.31732-0.25812 0.0886-0.28607-0.83354 0.25812-0.0886 1.9108-0.65578zm0.16138 1.8754c6e-3 0.10348 0.0124 0.20742 0.0175 0.31172 0.0491 0.97674 0.0505 1.9705-0.0626 2.7773-0.0565 0.40338-0.14022 0.76026-0.27382 1.0537-0.13361 0.29343-0.32941 0.54106-0.62054 0.64097l-1.3698-3.9912 0.25812-0.0886 1.5076-0.51741zm-0.53584 0.76094-1.338 0.45921 0.96362 2.8078c0.03216-0.047 0.06343-0.0431 0.09458-0.11175 0.09873-0.21685 0.17844-0.53155 0.23057-0.90355 0.08782-0.62658 0.07521-1.4457 0.04926-2.2517zm-29.221-4.6038-0.04941 0.32105s-0.04043 0.26081-0.09616 0.68651l0.55624 0.1909c0.02102-0.22623 0.03778-0.4151 0.04529-0.46552l2.2212 0.7623-0.1477 0.43037 0.25812 0.0886 0.32468-0.94606zm-0.25973 1.9674c-0.0306 0.27987-0.0608 0.58273-0.0888 0.90126l0.56262 0.19309c0.01153-0.096 0.02487-0.20431 0.03954-0.34111l1.7919 0.61496-0.1089 0.31732 0.25812 0.0886 0.28607-0.83354-0.25812-0.0886-1.9108-0.65578zm-0.16138 1.8754c-6e-3 0.10348-0.0124 0.20742-0.0175 0.31172-0.0491 0.97674-0.0505 1.9705 0.0626 2.7773 0.0565 0.40338 0.14022 0.76026 0.27382 1.0537 0.13361 0.29343 0.32941 0.54106 0.62054 0.64097l1.3698-3.9912-0.25812-0.0886-1.5076-0.51741zm0.53584 0.76094 1.338 0.45921-0.96362 2.8078c-0.03216-0.047-0.06343-0.0431-0.09458-0.11175-0.09873-0.21685-0.17844-0.53155-0.23057-0.90355-0.08782-0.62658-0.07521-1.4457-0.04926-2.2517z" color="#000000" fill="#bbccde" stroke-width="1.0911" style="-inkscape-stroke:none"/>
  <image id="roundel_wingL" transform="matrix(-.39592 .91828 .91828 .39592 0 0)" x="-38.471" y="152.38" width="7.3678" height="7.3678" preserveAspectRatio="xMidYMid" xlink:href="../fe/src/assets/roundels/japan.svg"/>
  <image id="roundel_wingR" transform="matrix(.34111 -.94002 -.94002 -.34111 0 0)" x="-27.171" y="-25.414" width="7.3678" height="7.3678" preserveAspectRatio="xMidYMid" xlink:href="../fe/src/assets/roundels/japan.svg"/>
  <image id="roundel_frontL" transform="matrix(-.28517 .95848 .95848 .28517 0 0)" x="96.346" y="129.08" width="4.0638" height="4.0638" preserveAspectRatio="xMidYMid" xlink:href="../fe/src/assets/roundels/japan.svg"/>
  <image id="roundel_frontR" transform="matrix(.7093 -.70491 -.70491 -.7093 0 0)" x="-43.698" y="-145.94" width="4.0638" height="4.0638" preserveAspectRatio="xMidYMid" xlink:href="../fe/src/assets/roundels/japan.svg"/>
 </g>
 <image id="qr" transform="rotate(180.22)" x="-45.883" y="-20.231" width="17.186" height="17.186" preserveAspectRatio="xMidYMid" xlink:href="../fe/src/assets/qrCodes/origami-skin.svg"/>
</svg>

