<svg id="svg5" width="210mm" height="297mm" version="1.1" viewBox="0 0 210 297"
	xmlns="http://www.w3.org/2000/svg"
	xmlns:xlink="http://www.w3.org/1999/xlink">
	<defs id="defs2">
		<linearGradient id="linearGradient1139" x1="105" x2="105" y1="64.754" y2="86.714" gradientUnits="userSpaceOnUse">
			<stop id="cockpit_0" stop-color="#6f0808" offset="0"/>
			<stop id="cockpit_1" stop-color="#f1338e" offset="1"/>
		</linearGradient>
	</defs>
	<rect id="base" width="210" height="297" fill="#cccccc" stop-color="#000000" stroke="#666666" stroke-width=".2"/>
	<path id="frontBody" fill="#4F4F4F" d="m105 105 85.783-85.783-1.0894-8.3146-37.406-5.3291 0.66769-5.582-47.955 0.0090774zm0 0-85.783-85.783 1.0894-8.3146 37.406-5.3291-0.66769-5.582 47.955 0.0090774z" stop-color="#000000" stroke-dasharray="2.4, 2.4" stroke-width=".1"/>
	<path id="elevator" fill="#4F4F4F" d="m191.1 260.32 18.905-7.0549-8.5056-26.01-11.597-0.63527-17.349 26.813-1.5668 9.012 20.954 6.0353zm-86.095 36.81v-8.5969l54.831-7.9634 7.253 16.56zm-86.095-36.81-18.905-7.0549 8.5056-26.01 11.597-0.63527 17.349 26.813 1.5668 9.012-20.954 6.0353zm86.095 36.81v-8.5969l-54.831-7.9634-7.253 16.56z" stop-color="#000000" stroke="#4d4d4d" stroke-width=".25"/>
	<path id="rudder" fill="#4F4F4F" class="UnoptimicedTransforms" d="m149.18 256.36 39.529 34.287 1.2598 6.3503h-22.896zm-7e-3 8e-3 39.525 34.292 6.4645 0.35042-3.2331-22.667zm-88.343-8e-3 -39.529 34.287-1.2598 6.3503h22.896zm7e-3 8e-3 -39.525 34.292-6.4645 0.35042 3.2331-22.667z" stop-color="#000000" stroke="#666666" stroke-width=".25"/>
	<path id="lines" d="m25.545 10.156-5.2483 0.74259-0.09664 0.8108 5.2953-0.83509zm158.91 0 0.0496 0.7183 5.2953 0.83509-0.0966-0.8108zm-101.56 1.3436-0.16743 0.31574-0.447 0.73846-0.2496-0.1943-0.45217-0.35295-0.73277 1.1074-0.57929-0.63149-0.89297 1.2382-0.75086-0.59738-0.69453 1.2929-0.58756-0.44855-0.709 0.99374-0.51056-0.44648-0.0021 5.17e-4 -0.60513 0.98495-0.0021 5.17e-4 -0.67593-0.58188-0.57516 1.0609-0.73794-0.40308-0.51418 0.94464-0.61908-0.44493-0.92191 1.5782 6.4694 18.381 1.1296-1.6474 0.78548 0.62994 0.71313-1.3684 0.88263 0.88935 0.83096-1.5947 1.003 0.87695 0.55656-1.3084 0.83612 0.55346 1.0878-1.4066 0.56948 0.80409 0.0021-5.17e-4 1.4196-1.8862 0.0021-5.17e-4 1.8428 0.33331-0.38706-1.1002-1.8955-0.34262-0.75861 1.0077-1.3503-3.8365-2.9559 1.0377-1.3312-3.7812 2.7595-0.96842-0.3328-0.94413-2.759 0.96842-1.2924-3.6721 5.5268-1.9394-5.17e-4 -0.0021 0.09147-0.02894zm44.212 0-2.018 5.8084 0.0915 0.02894-5.2e-4 0.0021 5.5268 1.9394-1.2924 3.6721-2.7595-0.96842-0.33228 0.94413 2.759 0.96842-1.3307 3.7812-2.9559-1.0377-1.3503 3.8365-0.75861-1.0077-1.8955 0.34262-0.38706 1.1002 1.8428-0.33331 2e-3 5.17e-4 1.4196 1.8862 2e-3 5.17e-4 0.56947-0.80409 1.0873 1.4066 0.83665-0.55346 0.55655 1.3084 1.003-0.87695 0.83096 1.5947 0.88263-0.88935 0.71314 1.3684 0.78548-0.62994 1.1296 1.6474 6.4694-18.381-0.92191-1.5782-0.61909 0.44493-0.51418-0.94464-0.73845 0.40308-0.57464-1.0609-0.67645 0.58188-2e-3 -5.17e-4 -0.60513-0.98495-2e-3 -5.17e-4 -0.51108 0.44648-0.709-0.99374-0.58756 0.44855-0.69401-1.2929-0.75086 0.59738-0.89297-1.2382-0.57929 0.63149-0.73277-1.1074-0.45217 0.35295-0.2496 0.1943-0.4439-0.73277zm-102.31 0.56431-0.76946 0.04341-0.24185 3.0195-1.0919 1.617-1.0227-2.1735 0.2465-2.3342-0.84388 0.10542s-0.52044 3.6617-0.57051 4.3434l0.85628 0.83664 0.14986-1.4185 1.0082 1.7761 1.9957-2.2381zm-3.4375 5.4575-0.08578 0.81494s-0.73991-1.3492-0.79375-1.4025c-0.0045-0.0045 0.01865-0.18645 0.02325-0.24908l-0.84698-0.82734-0.13798 1.0537 31.896 31.528 0.02532-1.54zm163.84-5.4575 0.2837 3.577 1.9958 2.2381 1.0082-1.7756 0.14935 1.418 0.85628-0.83664c-0.0501-0.68175-0.56999-4.3434-0.56999-4.3434l-0.8444-0.10542 0.2465 2.3347-1.0222 2.173-1.0924-1.617-0.24133-3.0195zm4.2933 4.6209c5e-3 0.06264 0.0283 0.2446 0.0238 0.24908-0.0538 0.05327-0.79375 1.4025-0.79375 1.4025l-0.0863-0.81494-30.08 29.378 0.0258 1.54 31.896-31.528-0.13798-1.0537zm-106.23-3.7791 0.81907 2.3291-0.81959-2.3285zm-0.21342 0.3514 1.1105 3.251-5.1976 1.8247-0.87747-2.4939 0.17363 0.13281 0.68264-1.2697 0.62218 0.49558 0.78238-1.0837 0.61753 0.67179 0.0016-5.17e-4 0.84698-1.2826 0.73742 0.57619 0.0021-5.17e-4zm43.904 0 0.49816 0.82114 2e-3 5.17e-4 0.73742-0.57619 0.84646 1.2826 2e-3 5.17e-4 0.61753-0.67179 0.78238 1.0837 0.62219-0.49558 0.68264 1.2697 0.17364-0.13281-0.87799 2.4939-5.1971-1.8242zm-50.606 2.8376 0.447 0.39222 0.0021-5.17e-4 0.26924-0.37827 0.90537 2.5725-4.4762 1.571-0.8878-2.5213 0.09198-0.15658 0.0021-5.16e-4 0.64854 0.46716 0.0021-5.17e-4 0.58084-1.0682 0.74052 0.40359 0.45268-0.83612 0.62063 0.53175zm57.308 0 0.60099 0.97617 0.62064-0.53175 0.45268 0.83612 0.74001-0.40359 0.58136 1.0682 2e-3 5.17e-4 0.64854-0.46716 2e-3 5.16e-4 0.0915 0.15658-0.88728 2.5213-4.4762-1.571 0.90538-2.5725 0.26923 0.37827 2e-3 5.17e-4zm-114.31 2.1864-0.12609 0.86765 31.917 32.028 0.13074-1.5363zm171.31 0-31.922 31.359 0.13075 1.5363 31.917-32.028zm-112.35 1.3451 1.2924 3.6721-4.4762 1.571-1.2924-3.6721zm53.393 0 4.4762 1.571-1.2924 3.6721-4.4762-1.571zm-51.768 4.6163 1.3307 3.7812-4.4762 1.571-1.3307-3.7812zm50.143 0 4.4762 1.571-1.3312 3.7812-4.4762-1.571zm-45.523 3.6897 0.87902 2.4965-0.96893 1.2547-1.0402-0.68936-0.83509-2.3719zm40.903 0 1.9658 0.68988-0.83509 2.3719-1.0402 0.68936-0.96893-1.2547zm-43.859 1.0377 1.0139 2.8794-0.62838-0.54829-0.78342 1.5033-0.8816-0.8878-0.78858 1.5105-0.66663-0.53485-0.0021 5.17e-4 -0.60255 0.8785-1.1369-3.2303zm46.815 0 4.4762 1.571-1.1369 3.2303-0.60255-0.8785-2e-3 -5.17e-4 -0.66714 0.53485-0.78807-1.5105-0.8816 0.8878-0.78341-1.5033-0.62839 0.54829zm-3.4189 5.1521-4.2044 10.849 0.93017 0.36794 0.53486-1.3798 0.31832 0.40824 0.91674-0.09095 0.36019 1.0299 0.72295-0.22066 0.26665 0.90899 0.84698-0.3297 0.0176 0.02945-0.66146 1.7162-0.16382 0.07596-0.43201-0.72502-1.5849 0.82631-1.5984 3.3817 1.5565-0.5116 0.30075 0.86093 0.69608-0.31574 0.48215 0.91881 0.66507-0.29714 0.10749 0.46664-4.3176 10.69 1.0315 1.1043 0.33383-0.81856-0.28112-0.30076 5.4824-13.575-0.38913-1.3751-0.69763 0.21652-0.18655-0.44648 0.56792-1.4728 1.7089-0.632 1.4051-3.1884 0.79117-0.15141c0.0178 0.03176 0.0161 0.03051 0.0351 0.06356 0.0126 0.02194 0.0263 0.04398 0.0393 0.06615l0.4222-1.0361-0.0165-0.03256-1.8443 0.34882-0.22117-0.66869-0.47749 0.14108 0.96221-2.9662-2.0546-2.5451-0.31109 0.65474-0.88005-1.3069-0.2465 0.60461zm-35.789 0.94154-0.30696 0.56172 0.96997 2.9838-0.81545 0.67438 1.4748 4.222 1.6356 0.13488 1.1374-1.0046-1.7591-5.41-1.2588 1.0413-0.87282-2.6846 0.06511-0.11679 1.5348 0.12351-0.12712-0.39067zm31.6 0-1.6774 0.13488-0.12712 0.39067 1.5343-0.12351 0.0651 0.11679-0.8723 2.6846-1.2594-1.0413-1.7586 5.41 1.1374 1.0046 1.635-0.13488 1.4754-4.222-0.81597-0.67438 0.96996-2.9838zm4.5119 0.98805 0.91519 1.3152 0.23358-0.57309 0.81855 1.2149 0.38654-0.81287 0.69815 0.86351-0.9679 2.9864-0.44648-0.57671-0.37001 0.15193-0.13229-0.65887-0.16019 0.10852 0.0279-0.30076-0.89555 0.44338-0.12713-0.47491-0.85834 0.22738-0.37982-0.66663zm-33.774 1.6619 1.4723 4.6669-0.98289 0.86868-1.0955-0.09095-1.341-3.8349zm26.924 0 1.9477 1.6097-1.341 3.8349-1.0961 0.09095-0.98236-0.86868zm-40.23 0.27647-0.44752 0.5979 0.40463 0.9648 0.38964-0.5209 0.64389 0.18397 1.4578 3.6313-0.94 0.40669 0.34623 0.82579 0.92656-0.40049 0.9679 2.4102-0.12609 0.32298-0.87953-0.21342 0.6873 1.6397-0.23306-0.59945 0.9834 0.23978 0.5519-1.4092-3.051-7.5954zm45.422 2.3404 0.35812 0.62787 0.61236-0.16175 0.19327 0.7214 0.37052-0.185-0.0584 0.65577 0.68058-0.46406 0.0672 0.33745 0.84232-0.34416 0.14883 0.19327 0.35967-0.14676-0.25942 0.79633 1.3627-0.40411 0.18604 0.56431 0.0129-0.0026-1.0258 2.3316-1.0806 0.39946-0.39325-0.65991-0.59066 0.22841-0.24082-0.82166-0.77514 0.23564-0.29404-0.83664-1.1886 0.11627-0.34778-0.4439zm-51.585 0.2005-0.31213 0.32091-1.0185-0.29197-0.92656 0.98392-0.8723-0.2806-1.2583 1.278 2.497 9.2253 0.39171-0.01033 1.6051 4.901 1.1503-1.6221 0.83147 0.3638 0.47129-0.56276 1.3989 0.61082-1.2976-5.2441-0.47181-1.7141-0.99529-0.3824 0.21084 0.85318-0.85163-0.36794-0.36174 1.1116-1.1079-0.30024-0.25321 0.40566-0.17518-0.53795-0.12661 0.524-0.66404-2.4546 3.7155-1.0671-0.2372-0.86351-3.7124 1.0656-0.99684-3.684 0.48989-0.4992 0.88522 0.28629 0.94154-0.99839 1.0098 0.28887 0.31833-0.32814zm65.389 1.5193-0.0429 0.01395-0.26561 1.0346c1e-3 0.0021 1e-3 2e-3 3e-3 0.0047 0.0811 0.10464 0.1677 0.21331 0.25528 0.31058 0.0438 0.04863 0.0873 0.09416 0.13746 0.14004 0.0502 0.04588 0.0907 0.09164 0.22841 0.15606 0.20566 0.09622 0.28221 0.07523 0.3669 0.07752 0.0847 0.0023 0.16223-1e-3 0.24391-0.0072 0.16336-0.01244 0.34158-0.03522 0.51212-0.06046 0.13293-0.01967 0.14721-0.02389 0.25476-0.04237l0.86765 1.2542 0.29921-0.27027-5.9805 21.324-1.156-1.0196-0.58653 0.74569-1.033-0.84129-0.22014 0.85628 1.5033 1.2252 0.55707-0.709 1.5244 1.3446 6.457-23.025-0.6258-1.5524-0.62425 0.56224-0.5457-0.78962-0.39223 0.07545s-0.29727 0.05672-0.60874 0.10284c-0.15031 0.02225-0.30116 0.03997-0.41393 0.04909-0.0581-0.06586-0.12768-0.14989-0.19534-0.2372-0.14615-0.18858-0.27387-0.37052-0.27388-0.37052zm-13.309 5.8865 0.40825 0.68471 0.8015-0.3731 0.35398 0.84956 0.57464-0.17983 0.0258 0.08837-0.64285 1.5932-0.0569-0.24236-0.94206 0.42065-0.48421-0.92242-0.54363 0.24598-0.2589-0.74001-0.30851 0.09974 0.60668-1.2816zm-29.091 0.14521-2.2732 2.2577 0.65629 2.1823 3.1238 0.17208-0.12454-0.38292-2.5838-0.14159-0.5426-1.8087 1.8841-1.8712-0.13178-0.40669zm19.884 0-8e-3 1e-3 -0.13177 0.40669 1.8841 1.8712-0.5426 1.8087-2.5838 0.14159-0.12454 0.38292 3.1238-0.17208 0.65577-2.1823zm-41.759 1.7374 0.56534 0.24598 0.94154 3.8096-0.31833-0.13849-0.47129 0.56276-0.88677-0.38912-0.52658 0.74259-1.219-3.7217 0.29972-0.48007 1.295 0.35088zm23.492 3.2107-3.4411 2.9631 1.8051 5.3697 3.3088-3.1869-0.31368-0.96532-3.0045 0.99115-0.71624-2.1353 1.1203-0.96687 1.7508-0.5023-0.10955-0.33745-1.1643 0.33331 1.1638-0.33383-0.10904-0.33641-0.24753 0.0708 0.21136-0.18138zm16.652 0-0.25425 0.78238 0.21136 0.18138-0.24753-0.0708-0.10904 0.33641 1.1638 0.33383-1.1643-0.33331-0.10955 0.33745 1.7503 0.5023 1.1209 0.96687-0.71623 2.1353-3.0045-0.99115-0.31368 0.96532 3.3088 3.1869 1.805-5.3697zm-17.286 1.0475-0.56534 0.48731v-0.0016zm17.92 0 0.56534 0.48576-5.2e-4 0.0016zm-16.793 4.1641-1.6061 1.5472-0.30644-0.91674zm15.665 0 1.9125 0.63045-0.30592 0.91674zm-32.223 12.683-3.5176 4.5077-3.638-3.8468 0.43615 2.1983 3.4566 3.5626 3.5161-4.8493zm48.782 0-0.25322 1.5725 3.5161 4.8493 3.4566-3.5626 0.43614-2.1983-3.638 3.8468zm-118.06 156.17-2.8277 0.0739-8.5018 26.049 2.7838 1.0723zm187.34 0 8.5457 27.195 2.7838-1.0723-8.5018-26.049zm-113.36-224.65-0.75195 1.2246-1.791-0.35156-0.80078 1.3027-1.6426-0.4375-0.98828 1.1973-1.4805-0.50977-1.0352 1.2402-1.3809-0.4082-0.56836 0.68555-0.85938-2.2637-1.123 0.42578 1.5938 4.1934 1.375-1.666 1.3789 0.4082 1.0098-1.2109 1.4844 0.51172 1.0293-1.2461 1.7598 0.4707 0.83398-1.3555 1.7891 0.34961 1.1895-1.9297zm39.375 0-1.0215 0.63086 1.1894 1.9297 1.7891-0.34961 0.83399 1.3555 1.7598-0.4707 1.0293 1.2461 1.4844-0.51172 1.0098 1.2109 1.3789-0.4082 1.375 1.666 1.5938-4.1934-1.123-0.42578-0.85938 2.2637-0.56836-0.68555-1.3809 0.4082-1.0352-1.2402-1.4805 0.50977-0.98828-1.1973-1.6426 0.4375-0.80078-1.3027-1.791 0.35156z" fill="#808080" stop-color="#000000"/>
	<path id="nozzle" d="m71.188-0.064079 1.7033 4.7093 12.096-3.977 0.02532-0.73226zm53.799 0 0.0258 0.73226 12.096 3.977 1.7033-4.7093z" fill="#2b0000" stop-color="#000000"/>
	<path id="guide" class="UnoptimicedTransforms" d="m126.54 83.606 21.798-83.639m-43.103 103.58 43.011-103.58m-38.135 62.368 20.659-62.368m-25.771 210.19h105.19m-210.19-0.08837 210.1-210.17m-62.975 62.975 5.7311-62.875m-16.773 73.918 15.547-73.958m-35.893 94.305 32.417-94.264m-64.694 83.606-21.798-83.639m43.103 103.58-43.011-103.58m38.135 62.368-20.659-62.368m25.771 210.19h-105.19m210.19-0.08837-210.1-210.17m62.975 62.975-5.7311-62.875m16.773 73.918-15.547-73.958m35.893 94.305-32.417-94.264" stop-color="#000000" stroke="#000000" stroke-opacity=".27969" stroke-width=".2"/>
	<path id="cockpit" class="UnoptimicedTransforms" d="m105 64.359 5.4291-1.4743 2.552 2.0831 0.11402 8.9709-3.3001 8.1546-4.795 4.9035zm0 0-5.4291-1.4743-2.552 2.0831-0.11402 8.9709 3.3001 8.1546 4.795 4.9035z" fill="url(#linearGradient1139)" stop-color="#000000"/>
	<path id="cockpitBorder" d="m99.576 62.887-2.5564 2.0386-0.10232 9.0181 3.3745 8.3638 4.7082 4.9077 4.7088-4.9077 3.374-8.3638-0.10232-9.0181-2.5559-2.0386-5.4245 1.5276zm10.848 0 2.5564 2.0386 0.10232 9.0181-3.3745 8.3638-4.7082 4.9077-4.7088-4.9077-3.374-8.3638 0.10232-9.0181 2.5559-2.0386 5.4245 1.5276z" fill="none" stop-color="#000000" stroke="#808080"/>
	<circle id="radar" cx="105" cy="105" r="13.868" fill="#808080" stop-color="#000000"/>
	<g transform="matrix(.94899 .31529 -.22291 .67095 15.841 13.133)">
		<path id="breakBg" class="UnoptimicedTransforms" transform="matrix(1 0 0 1.4144 .066146 -65.518)" d="m105.03 42.486-0.0574 0.03204v5.8307l5.0622-0.10852-2.7595-5.5888-0.98237 0.42995zm-22.372 7.4329 0.06516-0.0087 3.4892 4.6714-4.1207 2.9424-1.1336-6.129 1.0443-0.2434z" fill="#ffffff" stop-color="#000000"/>
		<path id="breakFg" class="UnoptimicedTransforms" transform="matrix(1 0 0 1.4144 .066146 -65.518)" d="m106.57 43.081-0.32763 0.09922 0.84233 5.1589 1.2625-0.03307zm-1.6009 0.5178v0.35347h0.71262v-0.35347zm0 1.9844v0.35347h0.89968v-0.35347zm0 1.8846v0.35347h1.3198v-0.35347zm-23.195 3.8515 0.32187-0.11657 2.4123 4.6373-1.0312 0.72899zm1.5925-0.54318 0.21152 0.28319-0.57094 0.42645-0.21152-0.28319zm1.1875 1.5898 0.21152 0.28319-0.72081 0.53839-0.21152-0.28319zm1.1278 1.5099 0.21152 0.28319-1.0574 0.7898-0.21152-0.28319z" fill="#2b1100" stop-color="#000000"/>
	</g>
	<image id="roundel_1" transform="rotate(-2.6738)" x="172.04" y="21.093" width="11.1" height="5.8764" preserveAspectRatio="xMidYMid" xlink:href="../fe/src/assets/roundels/us_white.svg"/>
	<image id="qr" x="182.41" y="29.369" width="14.226" height="14.226" preserveAspectRatio="xMidYMid" xlink:href="../fe/src/assets/qrCodes/origami-skin.svg"/>
</svg>
