<svg version="1.1" viewBox="0 0 601 601" xmlns="http://www.w3.org/2000/svg">
 <circle cx="300.5" cy="300.5" r="300" fill="#c80000"/>
 <circle cx="300.5" cy="300.5" r="200" fill="#ffffff"/>
 <circle cx="300.5" cy="300.5" r="100" fill="#1e64b4"/>
 <path d="m286.5 100.5-1.6992 37.4h-84.301v22h82.9l-15.73 334.49s-0.077 29.56-33.264 26.641c-91.173-8.0192-121.55-60.316-121.55-60.316l13.115-8.6484-57.467-47.568 8.0684 80.748 12.949-8.2734s23.442 42.205 77.574 66.07c48.722 19.674 78.365 21.064 110.01 36.777 13.743 6.8317 23.396 18.678 23.396 18.678s9.6537-11.846 23.396-18.678c31.647-15.713 61.289-17.103 110.01-36.777 54.132-23.866 77.574-66.07 77.574-66.07l12.949 8.2734 8.0683-80.748-57.467 47.568 13.115 8.6484s-30.381 52.297-121.55 60.316c-33.187 2.919-33.264-26.641-33.264-26.641l-15.73-334.49h82.9v-22h-84.301l-1.6993-37.4z" fill="#000000" fill-rule="evenodd"/>
 <path d="m300.5 2.5a60 60 0 0 0-60 60 60 60 0 0 0 60 60 60 60 0 0 0 60-60 60 60 0 0 0-60-60zm0 19a41 41 0 0 1 41 41 41 41 0 0 1-41 41 41 41 0 0 1-41-41 41 41 0 0 1 41-41z" fill="#000000" style="paint-order:stroke fill markers"/>
</svg>
