<svg version="1.1" viewBox="0 0 601 601" xmlns="http://www.w3.org/2000/svg">
 <g transform="translate(0 -521.52)">
  <path d="m134.72 522.02c35.878 94.979 54.785 196.51 54.785 300s-18.907 205.02-54.785 300h6.416l159.37-50 159.37 50h6.416c-35.878-94.979-54.785-196.51-54.785-300s18.907-205.02 54.785-300h-6.416l-159.37 50-159.37-50z" style="paint-order:stroke fill markers"/>
  <path d="m0.50018 987.8c94.979-35.878 196.51-54.785 300-54.785 103.49 0 205.02 18.907 300 54.785v-6.416l-50-159.37 50-159.37v-6.416c-94.979 35.878-196.51 54.785-300 54.785-103.49 0-205.02-18.907-300-54.785v6.416l50 159.37-50 159.37z" style="paint-order:stroke fill markers"/>
  <path d="m141.13 522.02c35.613 95.04 54.369 196.55 54.369 300s-18.756 204.96-54.369 300h47.883l111.49-50 111.49 50h47.883c-35.613-95.04-54.369-196.55-54.369-300s18.756-204.96 54.369-300h-47.883l-111.49 50-111.49-50z" fill="#fff" style="paint-order:stroke fill markers"/>
  <path d="m0.50013 981.39c95.04-35.613 196.55-54.369 300-54.369 103.45 0 204.96 18.756 300 54.369v-47.883l-50-111.49 50-111.49v-47.883c-95.04 35.613-196.55 54.369-300 54.369-103.45 0-204.96-18.756-300-54.369v47.883l50 111.49-50 111.49z" fill="#fff" style="paint-order:stroke fill markers"/>
  <path d="m411.99 522.02c-33.754 95.462-51.486 196.82-51.486 300 0 103.18 17.733 204.54 51.486 300h-222.97c33.754-95.462 51.486-196.82 51.486-300 0-103.18-17.733-204.54-51.486-300z" style="paint-order:stroke fill markers"/>
  <path d="m0.5 710.53c95.462 33.754 196.82 51.486 300 51.486 103.18 0 204.54-17.733 300-51.486v222.97c-95.462-33.754-196.82-51.486-300-51.486-103.18 0-204.54 17.733-300 51.486z" style="paint-order:stroke fill markers"/>
 </g>
</svg>
