<svg version="1.1" viewBox="0 0 1160 481.39" xmlns="http://www.w3.org/2000/svg">
 <g transform="matrix(.92131 0 0 .92123 45.801 18.849)">
  <rect x="-14.81" y="121.77" width="328.06" height="238.83" fill="#808080" stop-color="#000000"/>
  <rect x="847.02" y="121.77" width="328.06" height="238.83" fill="#808080" stop-color="#000000"/>
  <circle cx="583.16" cy="239.28" r="254.85" fill="#808080" stop-color="#000000"/>
  <rect y="300" width="300" height="40" fill="#b3b3b3"/>
  <rect y="220" width="300" height="40" fill="#b3b3b3"/>
  <rect y="140" width="300" height="40" fill="#b3b3b3"/>
  <rect x="860" y="300" width="300" height="40" fill="#b3b3b3"/>
  <rect x="860" y="220" width="300" height="40" fill="#b3b3b3"/>
  <rect x="860" y="140" width="300" height="40" fill="#b3b3b3"/>
  <g transform="matrix(10 0 0 10 580 240.7)">
   <g>
    <path d="m19.969 13.313a24 24 0 1 0-39.938-26.626 18 18 0 1 0 29.954 19.969" fill="#b3b3b3"/>
    <path d="m-19.969-13.313a12 12 0 1 0 19.969 13.313 12 12 0 0 1 19.969 13.313 24 24 0 0 1-39.938-26.626" fill="#b3b3b3"/>
    <path d="m-19.969-13.313s0.17874-0.24323 0 0c-0.73361 0.99828-1.5903 2.4436-2.0807 4.3574-0.35856 1.3992-0.51089 3.0205-0.27419 4.7669 0.20554 1.5165 0.70406 3.1064 1.5848 4.6254 0.81926 1.4129 1.9617 2.7482 3.4575 3.8525 1.451 1.0713 3.077 1.8172 4.7891 2.2193 1.7112 0.40194 3.4718 0.45176 5.175 0.16933 1.7609-0.29201 3.4253-0.93294 4.8975-1.8648 1.3047-0.82592 2.4295-1.8614 3.3448-3.0471 0.19172-0.24835 0.37775-0.50779 0.55698-0.77846 0.74523-1.128 1.6935-2.123 2.8348-2.9234 1.0686-0.74944 2.2924-1.3172 3.6207-1.6452 1.2907-0.31878 2.6623-0.40624 4.0409-0.22064 1.3819 0.18603 2.7558 0.6446 4.0441 1.4017 1.3316 0.78256 2.4236 1.7862 3.2749 2.9134 0.91729 1.2146 1.5413 2.5532 1.905 3.8994 0.41898 1.5509 0.48266 3.0676 0.31074 4.4404-0.23533 1.8792-0.89403 3.3861-1.5435 4.4595-0.15673 0.25902 0 0 0 0s-0.17881 0.2443 0 0c0.73454-1.0035 1.5849-2.4501 2.0691-4.3596 0.35465-1.3985 0.50272-3.0176 0.2628-4.7601-0.2082-1.5122-0.7083-3.0974-1.5894-4.6118-0.81835-1.4065-1.9586-2.737-3.4518-3.8378-1.4455-1.0656-3.0662-1.8093-4.775-2.211-1.7024-0.40017-3.4575-0.45243-5.1596-0.1727-1.751 0.28776-3.4134 0.92116-4.8904 1.8492-1.5802 0.99284-2.9027 2.293-3.9164 3.8033-0.13522 0.20101-0.2743 0.3938-0.41642 0.57864-0.67668 0.88011-1.4892 1.6669-2.433 2.3226-1.0655 0.74024-2.286 1.3039-3.6137 1.6296-1.2837 0.31488-2.6498 0.40222-4.0255 0.21728-1.3744-0.18478-2.7438-0.63963-4.03-1.3933-1.3268-0.7775-2.4173-1.7754-3.2693-2.8987-0.91673-1.2086-1.5429-2.5422-1.9096-3.8858-0.42218-1.5469-0.49017-3.0613-0.32214-4.4336 0.23044-1.882 0.88662-3.3907 1.5319-4.4617 0.15577-0.25855 0 0 0 0z" fill="#808080"/>
   </g>
  </g>
 </g>
</svg>
