<svg version="1.1" viewBox="0 0 1160 481.39" xmlns="http://www.w3.org/2000/svg">
 <rect y="300" width="300" height="40"/>
 <rect y="220" width="300" height="40"/>
 <rect y="140" width="300" height="40"/>
 <rect x="860" y="300" width="300" height="40"/>
 <rect x="860" y="220" width="300" height="40"/>
 <rect x="860" y="140" width="300" height="40"/>
 <g transform="matrix(10 0 0 10 580 240.7)">
  <path d="m19.969 13.313a24 24 0 1 0-39.938-26.626 18 18 0 1 0 29.954 19.969" fill="#cd2e3a"/>
  <path d="m-19.969-13.313a12 12 0 1 0 19.969 13.313 12 12 0 0 1 19.969 13.313 24 24 0 0 1-39.938-26.626" fill="#0047a0"/>
  <path d="m-19.969-13.313s0.17103-0.2489 0 0c-0.70373 1.0242-1.4899 2.4913-1.8904 4.3936-0.2926 1.3898-0.36834 2.9741-0.06745 4.6513 0.26126 1.4563 0.80417 2.9576 1.6973 4.369 0.83035 1.3122 1.9549 2.5309 3.3921 3.522 1.3936 0.96102 2.9305 1.6064 4.526 1.9333 1.5945 0.32675 3.2184 0.32945 4.7768 0.035852 1.6102-0.30335 3.1211-0.91696 4.4533-1.7827 1.2558-0.81608 2.3265-1.8382 3.1882-3.0051 0.11939-0.16168 0.23634-0.32825 0.35051-0.49978 0.83783-1.259 1.9152-2.3592 3.2093-3.2267 1.2093-0.81053 2.5845-1.4009 4.0594-1.7151 1.4323-0.30508 2.9362-0.34429 4.427-0.084515 1.4944 0.26041 2.9535 0.81747 4.2962 1.6811 1.3871 0.89216 2.4959 2.0088 3.3358 3.2324 0.90461 1.3178 1.4861 2.7416 1.7961 4.1451 0.35711 1.6169 0.34798 3.169 0.11295 4.5506-0.32155 1.8902-1.046 3.3762-1.7247 4.4251-0.16442 0.25406 0 0 0 0s-0.17128 0.24949 0 0c0.70515-1.0271 1.4891-2.4944 1.8879-4.394 0.29175-1.3896 0.36659-2.9735 0.065-4.6499-0.26175-1.455-0.80486-2.9553-1.6983-4.3661-0.82977-1.3102-1.9536-2.5281-3.3909-3.5189-1.3916-0.95925-2.9272-1.6045-4.5229-1.9316-1.5912-0.3261-3.2139-0.32988-4.7735-0.036574-1.6057 0.30198-3.1166 0.91314-4.4518 1.7793-1.4297 0.92746-2.6221 2.1226-3.5419 3.5001-0.10462 0.15665-0.21158 0.30879-0.32056 0.45651-0.78585 1.0651-1.7548 2.0046-2.8919 2.7654-1.2066 0.80727-2.5809 1.3976-4.0579 1.7117-1.4294 0.30396-2.9322 0.3437-4.4237 0.083794-1.4918-0.25995-2.95-0.81584-4.2931-1.6793-1.3855-0.8907-2.4942-2.0059-3.3346-3.2292-0.90426-1.3162-1.4864-2.7388-1.7971-4.1422-0.35779-1.616-0.34961-3.1676-0.1154-4.5492 0.32083-1.8926 1.0456-3.379 1.7222-4.4255 0.16398-0.2536 0 0 0 0z" fill="#fff"/>
 </g>
</svg>
