<svg version="1.1" viewBox="0 0 601 601" xmlns="http://www.w3.org/2000/svg">
 <g transform="translate(0 -521.52)">
  <circle cx="300.5" cy="822.02" r="300" fill="#3296ff" style="paint-order:normal"/>
  <circle cx="300.5" cy="822.02" r="210" fill="#001432" style="paint-order:normal"/>
  <path transform="scale(1,-1)" d="m300.5-642.02-18.425-99.276-59.674 81.45 26.474-97.439-89.105 47.493 66.129-76.303-100.89 4.1282 92.687-40.054-92.687-40.054 100.89 4.1282-66.129-76.303 89.105 47.493-26.474-97.439 59.674 81.45 18.425-99.276 18.425 99.276 59.674-81.45-26.474 97.439 89.105-47.493-66.129 76.303 100.89-4.1282-92.687 40.054 92.687 40.054-100.89-4.1282 66.129 76.303-89.105-47.493 26.474 97.439-59.674-81.45z" fill="#fad214"/>
 </g>
</svg>
