<svg width="210mm" height="297mm" version="1.1" viewBox="0 0 210 297"
  xmlns="http://www.w3.org/2000/svg"
  xmlns:xlink="http://www.w3.org/1999/xlink">
  <defs>
    <filter id="filter25" x="-.0056536" y="-.0051699" width="1.0113" height="1.0103" color-interpolation-filters="sRGB">
      <feGaussianBlur result="blur" stdDeviation="0.5"/>
      <feComposite in="SourceGraphic" in2="blur" operator="atop" result="composite1"/>
      <feComposite in2="composite1" operator="in" result="composite2"/>
      <feComposite in2="composite2" operator="in" result="composite3"/>
    </filter>
  </defs>
  <rect id="base" width="210" height="297" fill="#b7bdb3" stop-color="#000000" stroke-dasharray="1, 0.25" stroke-width=".25" style="-inkscape-stroke:none"/>
  <path id="camo" d="m191.6 16.747-17.669 16.961c1.2453 0.58936 4.5143 1.6898 6.4877 2.2122 5.5514 1.4695 6.3228-0.01987 9.3069 1.3064 2.939 1.3062 7.6736 0.97955 9.1431-0.81649 0.9595-1.1727 5.579-0.46302 8.3177 0.54353l2.3663-14.029c-2.2872-0.27136-5.7888-0.61909-6.7648 0.09668-2.4492 1.796-5.062 2.2858-7.3479-0.81649-1.4576-1.9782-2.7115-4.5304-3.84-5.4579zm-173.11-0.23506c-1.3065 2.572-3.5679 7.1666-5.7551 9.4488-2.0968 2.188-7.3119 4.1303-10.742 4.6022l1.8335 10.529c1.5736-0.1439 4.291-0.60258 5.1535-0.92603 2.6124-0.97966 3.3115-4.6266 7.674-3.592 2.4632 0.58419 5.2247-2.1225 7.0208-3.592 1.0128-0.82864 3.4156-4.3782 4.2874-7.0264zm13.634 13.589c-0.1525 2.2844-1.4022 6.3629-3.2245 8.2681-3.5921 3.7554-7.6739 8.9803-3.592 12.409 4.0819 3.4288 11.756-1.6324 13.388-5.0612 0.66116-1.3884 1.9441-4.356 2.4013-6.3452zm160.03 14.807c-2.5656-0.12278-4.8362 0.91037-7.4895 1.6247-4.2452 1.1429-3.2655 0.81672-7.674 2.6128s-8.3272 6.0411-8.4904 10.776c-0.088 2.5525-2.6 7.4849-4.6307 10.214l38.834-7.9711 2.0866-10.398c-1.6079-1.1148-4.6498-3.1971-7.5534-5.0704-1.8981-1.2246-3.5436-1.7143-5.0829-1.788zm-141.11 4.6261c-1.5321 0.2007-4.3326 1.1392-5.6558 3.2034-4.0819 6.3678 2.1224 8.9803 2.1224 8.9803s4.0451 2.2934 4.9465 9.3016l25.529 5.537zm53.613 55.942-7.7582 6.5267-11.585 28.077c2.5268 1.7992 6.289 3.5697 8.894 0.66404 4.2452-4.735-1.1429-6.0415 7.8372-9.7968 1.2883-0.53876 2.2311-1.4761 2.9518-2.637v-21.463c-0.10432-0.38943-0.33951-1.371-0.33951-1.371zm0.34003 1.373v21.46c3.8022-6.1268 0.79626-18.487 0-21.46zm12.781 37.265c-1.6608-0.0536-2.8753 0.75218-3.161 2.9972-1.1416 8.9694-6.0287 15.167-9.6196 15.67v15.874c6.6369 0.81765 13.785 1.5841 15.824-2.1544 3.9186-7.1842 2.9388-9.6335 2.9388-9.6335s1.5626-10.155 8.2166-9.1038l-3.3373-8.0884c-3.074-2.3316-7.7326-5.4605-10.862-5.5614zm-27.842 7.9608c-0.61564 0.0544-1.2183 0.37384-1.7694 1.078-2.6712 3.4132-8.7228 3.8352-9.8511 3.8881l-4.9103 11.901c1.8691-0.0216 6.369 0.89432 6.1076 10.825-0.32655 12.409-12.572 19.267-16.981 18.287-0.38445-0.0854-0.75302-0.0901-1.1141-0.0615l-1.8309 4.4375c2.6365-0.58944 5.5355-0.11685 5.8844 4.7672 0.65311 9.1435 2.437 15.529 5.7144 10.777 3.2655-4.735 3.4546-8.3097 5.3883-13.389 2.2424-5.8902 5.5968-11.408 9.1436-16.654 1.9709-2.9155 5.0614-2.6124 6.6942-8.1638 0.78308-2.6625 6.4685-1.8646 12.585-1.111v-15.874c-4e-3 5.8e-4 -9e-3 4e-3 -0.0129 4e-3 -3.5921 0.48983-9.4702-6.2043-9.4702-6.2043s-2.9102-4.7425-5.578-4.5067zm-47.184 15.165-9.7412 1.0648c-2.4128 0.26376-3.6958 5.1337-4.2763 7.8703-1.1429 5.3881-3.2657 5.8778-1.4697 11.103 1.796 5.2248 0.6534 9.3068 2.2862 12.246 0.86308 1.5536 4.9743 4.6674 7.8642 6.2528zm124.54 0.20869 1.3507 1.9403c1.6426 2.3597 3.374 4.9318 3.2882 6.133-0.16327 2.2859-0.16314 3.7554 0.97979 4.5718 1.1429 0.81638 1.6328 1.143 4.2452 4.8984 2.6124 3.7554 5.0613 2.1225 6.2043-0.97979 1.1429-3.1023 7.3474-2.939 11.593-4.5718 2.5961-0.99851 3.6854-5.203 4.2669-7.5834zm-151.58 3.6964-8.4861 1.0011c-2.2827 0.26927 2.4081 6.5023 2.4081 9.254 0 3.9186-1.6328 8.0003-4.0819 10.286-0.97568 0.91064-4.2753 1.9474-6.5928 2.9006l-0.23091 16.563 25.666-0.23091c2.0181-0.0181-3.4617-4.34-4.3114-7.1506-1.853-6.1293-2.7381-5.8908-3.4287-7.8372-1.796-5.0616 1.9594-6.5309 0.3266-10.939-1.1185-3.0198 1.3204-5.5884 0.48989-9.1436-0.26127-1.1185-0.32322-4.8729-1.7593-4.7035zm119.98 2.8917c-2.2339-0.12437-4.1551 1.077-4.5837 5.2405-1.1429 11.103 3.1026 16.328 3.1026 16.328s3.2655 6.3682 0 10.94c-3.2655 4.5717-3.7556-0.32683-2.1229 9.7963 0.27176 1.6849 0.0229 5.5206-0.16531 6.9176l26.819-0.69272-19.629-47.508c-1.1278-0.52217-2.3024-0.95934-3.4215-1.0216zm75.124 13.784c-0.0176-2.529-7.3889 3.1025-8.1922 6.3154-0.81638 3.2655-5.7151 4.898-7.1846 5.3878-1.4695 0.48983-5.7144 5.5514-5.7144 8.3271 0 0.6955-1.0544 2.4931-1.7766 3.2064l23.031 0.16327zm-208.15 38.219c-1.7463-0.0956 1.9007 4.6703 1.9007 4.6703s4.5715 3.4288 1.7958 7.5106c-0.76256 1.1214-2.0249 3.1878-2.0685 4.1888l16.116 6.2161c-1.1077-2.5076-3.0347-6.92-4.9036-11.385-1.7323-4.1382-0.59166-8.584 0.09448-10.493zm195.84 0.44646-12.821 0.0662c-0.15685 1.3638-0.35625 4.9016 1.4289 6.4433 3.5921 3.1022 2.9389 4.4084 3.7553 7.184 0.40943 1.392 1.3529 4.8708 2.4603 6.9162l11.091-4.0153c0.19113-1.3734-1.258-3.8422-3.1011-4.5334-3.7901-1.4213 0.72112-12.079-2.8133-12.061z" fill="#6e9170" filter="url(#filter25)"/>
  <path id="guide" d="m153.08 221.08 12.827-0.125 9.5827-6.4366-1.0328-4.5174h35.545l-2e-3 10.954-44.208 0.125m-165.79-115.96 27.907-0.0322m182.09 0.0322-27.907-0.0322m-182.09-105.09h210v297h-210zm210 12.572-8.438 48.287-66.53 13.902 62.791-62.584zm-70.072 254.22 70.072-27.43v-11.756l-71.052 2.1226zm28.588-98.284 41.486 5.9412v35.545zm1e-5 -1e-5 5.9412 41.486h35.545zm41.484-168.51-105 105 105 105m-105-105 105 0.12122m-74.968-30.36 74.964-15.664m-105 161.85m105 0h-105m-105-208.38 8.438 48.287 66.53 13.902-62.791-62.584zm70.072 254.22-70.072-27.43v-11.756l71.052 2.1226zm-28.588-98.284-41.486 5.9412v35.545zm-1e-5 -1e-5 -5.9412 41.486h-35.545zm-41.484-168.51 105 105-105 105m105-105-105 0.12122m74.968-30.36-74.964-15.664m105 161.85m-105 0h105m-48.08 0.125-12.827-0.125-9.5827-6.4366 1.0328-4.5174h-35.545l2e-3 10.954 44.208 0.125m165.79-115.96-27.907-0.0322m-182.09 0.0322 27.907-0.0322m182.09-105.09h-210v297h210zm-210 12.572 8.438 48.287 66.53 13.902-62.791-62.584zm70.072 254.22-70.072-27.43v-11.756l71.052 2.1226zm-28.588-98.284-41.486 5.9412v35.545zm-1e-5 -1e-5 -5.9412 41.486h-35.545zm-41.484-168.51 105 105-105 105m105-105-105 0.12122m74.968-30.36-74.964-15.664m105 161.85m-105 0h105m105-208.38-8.438 48.287-66.53 13.902 62.791-62.584zm-70.072 254.22 70.072-27.43v-11.756l-71.052 2.1226zm28.588-98.284 41.486 5.9412v35.545zm1e-5 -1e-5 5.9412 41.486h35.545zm41.484-168.51-105 105 105 105m-105-105 105 0.12122m-74.968-30.36 74.964-15.664m-105 161.85m105 0h-105" fill="none" opacity=".5" stroke="#000" stroke-width=".25"/>
  <image id="roundel_RB" transform="rotate(173.78)" x="-182.49" y="-218.15" width="8.7745" height="8.3448" preserveAspectRatio="xMidYMid" xlink:href="../fe/src/assets/roundels/soviet.svg"/>
  <image id="roundel_LB" transform="matrix(.99411 .10834 .10834 -.99411 0 0)" x="26.283" y="-195.4" width="8.7745" height="8.3448" preserveAspectRatio="xMidYMid" xlink:href="../fe/src/assets/roundels/soviet.svg"/>
  <image id="roundel_LF" transform="rotate(84.614)" x="22.657" y="-16.712" width="8.7745" height="8.3448" preserveAspectRatio="xMidYMid" xlink:href="../fe/src/assets/roundels/soviet.svg"/>
  <image id="roundel_RF" transform="matrix(-.093873 .99558 .99558 .093873 0 0)" x="2.9438" y="192.36" width="8.7745" height="8.3448" preserveAspectRatio="xMidYMid" xlink:href="../fe/src/assets/roundels/soviet.svg"/>
  <path id="ridge" d="m105 91.121 7.5002 60.587-7.5004-5.5281zm0 0-7.5002 60.587 7.5004-5.5281z"/>
  <circle id="radar" cx="105" cy="105" r="17.784" fill="#7a7e89"/>
  <path id="wedge" d="m87.243 147.71c0.30659 0.11159 0.13665 4.3733-0.06869 4.8158-0.21419 0.46161-2.2434 1.6151-2.5189 1.4734-0.30532-0.15698-0.68614-2.2122-0.59317-2.5706 0.13533-0.52187 2.8249-3.848 3.1808-3.7185zm3.3472-7.7964c0.30659 0.11159 0.13665 4.3733-0.06869 4.8158-0.21419 0.46161-2.2434 1.6151-2.5189 1.4734-0.30532-0.15698-0.68614-2.2122-0.59317-2.5706 0.13533-0.52187 2.8249-3.848 3.1808-3.7185zm32.167 7.7964c-0.30659 0.11159-0.13665 4.3733 0.0687 4.8158 0.21419 0.46161 2.2434 1.6151 2.5189 1.4734 0.30532-0.15698 0.68614-2.2122 0.59317-2.5706-0.13533-0.52187-2.8249-3.848-3.1808-3.7185zm-3.3472-7.7964c-0.30659 0.11159-0.13665 4.3733 0.0687 4.8158 0.21419 0.46161 2.2434 1.6151 2.5189 1.4734 0.30532-0.15698 0.68614-2.2122 0.59318-2.5706-0.13534-0.52187-2.8249-3.848-3.1808-3.7185z" fill="#4d4d4d"/>
  <path id="intake" transform="rotate(-8.2932 86.504 160.36)" d="m83.921 157.81 6.2071 2.414-0.41984 1.0795-6.2071-2.414zm-0.62101 1.5968 6.2071 2.414-0.41983 1.0795-6.2071-2.414zm-0.62101 1.5968 6.2071 2.414-0.41983 1.0795-6.2071-2.414zm1.863-4.7903 6.2071 2.414-0.41983 1.0795-6.2071-2.414zm41.769 7.7756-6.638 0.54171 0.0942 1.1544 6.638-0.54171zm0.13935 1.7076-6.638 0.54172 0.0942 1.1544 6.638-0.54171zm0.13935 1.7076-6.638 0.54171 0.0942 1.1544 6.638-0.54172zm-0.41806-5.1228-6.638 0.54171 0.0942 1.1544 6.638-0.54171z" fill="#333" stroke-width=".23646"/>
  <g class="UnoptimicedTransforms" stroke-dasharray="1, 0.25" stroke-width=".25">
    <path id="cockpit" d="m105 137.51s-3.566-0.0723-6.0964 8.0251-1.5906 13.927-1.5906 13.927 2.3603 4.7587 7.687 4.7587zm0 0s3.566-0.0723 6.0964 8.0251 1.5906 13.927 1.5906 13.927-2.3603 4.7587-7.687 4.7587z" fill="#808080" stop-color="#000000" style="-inkscape-stroke:none"/>
    <path id="cockpit_border" d="m105 137.01c-8e-3 3e-5 -0.3231-2.8e-4 -0.74982 0.13643-0.43229 0.13849-1.0165 0.41497-1.6681 0.95136-1.3033 1.0728-2.8706 3.174-4.1558 7.2869-2.5613 8.1962-1.6077 14.156-1.6077 14.156l0.01344 0.0744 0.03359 0.0682s2.5099 5.0354 8.1344 5.0354c5.6245 0 8.1349-5.0354 8.1349-5.0354l0.0331-0.0682 0.0139-0.0744s0.95364-5.96-1.6076-14.156c-1.2853-4.1129-2.8524-6.2141-4.1558-7.2869-0.6517-0.53638-1.2358-0.81287-1.6681-0.95136-0.42676-0.13671-0.74205-0.1364-0.75034-0.13643zm-0.01 0.99787h0.01982s0.11812-9e-3 0.43356 0.092c0.31544 0.10105 0.78171 0.31375 1.3379 0.77153 0.92202 0.75889 2.0965 2.2054 3.1807 4.946-1.0428 0.45478-3.1755 1.28-4.9625 1.28-1.7865 0-3.9183-0.82465-4.9614-1.2795 1.0842-2.7408 2.2587-4.1876 3.1807-4.9465 0.55613-0.45778 1.0204-0.67049 1.3358-0.77153 0.31457-0.10078 0.4345-0.092 0.43511-0.092zm5.4834 7.2264c0.0488 0.14801 0.0981 0.29336 0.14624 0.44751 2.4716 7.9092 1.5976 13.488 1.5777 13.613-0.0549 0.10963-2.2312 4.424-7.197 4.424-4.9696 0-7.1459-4.3244-7.1975-4.4276-0.02076-0.13104-0.89213-5.7043 1.5782-13.61 0.04812-0.15399 0.09745-0.29913 0.14624-0.447 2.7088 1.2114 5.4725 1.2702 5.4725 1.2702s2.7645-0.0591 5.4736-1.2707z" fill="#333" style="-inkscape-stroke:none"/>
  </g>
  <image id="qr" transform="rotate(-46.35)" x="79.444" y="124.1" width="24.78" height="24.78" preserveAspectRatio="xMidYMid" xlink:href="../fe/src/assets/qrCodes/mig-29_01.svg"/>
</svg>
