<svg id="svg5" width="150mm" height="150mm" version="1.1" viewBox="0 0 150 150" xmlns="http://www.w3.org/2000/svg" xmlns:xlink="http://www.w3.org/1999/xlink">
 <rect id="bounds" transform="rotate(90)" x="-.0016042" y="-150" width="150" height="150" fill="#e3e3e3" stop-color="#000000" stroke="#1a1a1a" stroke-opacity=".18517" stroke-width=".5"/>
 <g id="body">
  <path id="base" d="m150 0h-80.787l-14.557 18.626 15.198 49.424 12.095 12.095 49.424 15.198 18.628-14.559zm-150 66.777 1e-6 83.224h83.224l-41.612-41.612z" fill="#34ad00" stop-color="#000000"/>
  <path id="sideLine" d="m74.998 75.001s30.065-7.4775 52.534-17.222c22.468-9.7442 22.482-14.414 22.482-14.414l-0.0132-43.366s7e-3 43.37-17.07 51.817c-18.267 9.0359-57.932 23.185-57.932 23.185zm0.21805 0.21742s7.3902-30.087 17.069-52.583c9.6789-22.497 14.349-22.524 14.349-22.524l43.366-0.1127s-43.369 0.11891-51.767 17.221c-8.9829 18.293-23.017 57.999-23.017 57.999z" fill="#ffffff"/>
 </g>
 <g id="parts">
  <circle id="radar" transform="rotate(45)" cx="106.06" cy=".0019161" r="8.4092" fill="#ffffff" stop-color="#000000"/>
  <path id="cockpit" d="m99.75 50.249c-0.57427-0.57427-4.9778-4.0732-8.3726 0.70341-3.3948 4.7766-4.6326 8.6186-5.0013 9.8028-0.3687 1.1842 0.22582 1.5172 0.22582 1.5172l1.1247 1.1247s0.33301 0.59452 1.5172 0.22582c1.1842-0.3687 5.0262-1.6066 9.8028-5.0013 4.7766-3.3948 1.2777-7.7983 0.70341-8.3726z" fill="#1a1a1a"/>
  <path id="cockpitBorder" d="m90.646 52.135 7.217 7.217m1.8864-9.1034c-0.57427-0.57427-4.9778-4.0732-8.3726 0.70341-3.3948 4.7766-4.6326 8.6186-5.0013 9.8028-0.36869 1.1842 0.22583 1.5172 0.22583 1.5172l1.1247 1.1247s0.33301 0.59452 1.5172 0.22582c1.1842-0.3687 5.0262-1.6066 9.8028-5.0013 4.7766-3.3948 1.2777-7.7983 0.70341-8.3726z" fill="none" stroke="#ffffff"/>
 </g>
 <g id="decal">
  <path id="dash" d="m97.529 5.4902-0.31055 0.00586 0.0039 0.26562 0.0957-0.00195-2e-3 0.00391 0.23828 0.11523 0.0957-0.19727a0.1323 0.1323 0 0 0-0.12103-0.19141zm-0.83984 0.015625-0.5293 0.00781 0.0059 0.26562 0.52734-0.00977zm-1.0586 0.017578-0.52734 0.00781 0.0039 0.26562 0.5293-0.00977zm-1.0566 0.017578-0.5293 0.00781 0.0039 0.26562 0.5293-0.00977zm-1.0586 0.017578-0.5293 0.00781 0.0039 0.26562 0.5293-0.00977zm-1.0586 0.017578-0.5293 0.00781 0.0039 0.26562 0.5293-0.00977zm-1.0586 0.017578-0.5293 0.00781 0.0059 0.26562 0.5293-0.00977zm-1.0586 0.017578-0.52734 0.00781 0.0039 0.26562 0.5293-0.00977zm-1.0566 0.017578-0.5293 0.00977 0.0039 0.26367 0.5293-0.00977zm-1.0586 0.017578-0.5293 0.00977 0.0039 0.26367 0.5293-0.00977zm-1.0586 0.017578-0.5293 0.00977 0.0039 0.26367 0.5293-0.00781zm-1.0586 0.017578-0.5293 0.00977 0.0059 0.26367 0.5293-0.00781zm-1.0566 0.017578-0.5293 0.00977 0.0039 0.26367 0.5293-0.00781zm-1.0586 0.017578-0.5293 0.00977 0.0039 0.26367 0.5293-0.00781zm-1.0586 0.017578-0.5293 0.00977 0.0039 0.26367 0.5293-0.0078153zm-1.0586 0.017578-0.5293 0.00977 0.0039 0.26367 0.5293-0.00781zm-1.0586 0.017578-0.5293 0.00977 0.0059 0.26367 0.5293-0.00781zm-1.0566 0.017578-0.5293 0.00977 0.0039 0.26367 0.5293-0.00781zm-1.0586 0.017578-0.5293 0.00977 0.0039 0.26367 0.5293-0.00781zm-1.0586 0.019531-0.5293 0.00781 0.0039 0.26367 0.5293-0.00781zm-1.0586 0.017578-0.5293 0.00781 0.0059 0.26562 0.52734-0.00977zm-1.0586 0.017578-0.5293 0.00781 0.0059 0.26562 0.5293-0.00977zm21.561 0.38086-0.23047 0.47656 0.23828 0.11523 0.23047-0.47656zm-0.46094 0.95312-0.22852 0.47656 0.23633 0.11523 0.23047-0.47656zm-0.45898 0.95312-0.23047 0.47656 0.23828 0.11523 0.23047-0.47656zm-0.46094 0.95312-0.23047 0.47656 0.23828 0.11523 0.23047-0.47656zm-0.46094 0.95312-0.22852 0.47656 0.23828 0.11523 0.22852-0.47656zm-0.45898 0.95312-0.23047 0.47656 0.23828 0.11523 0.23047-0.47656zm-0.46094 0.95312-0.23047 0.47656 0.23828 0.11523 0.23047-0.47656zm-0.45898 0.95312-0.23047 0.47656 0.23828 0.11523 0.23047-0.47656zm-0.46094 0.95312-0.23047 0.47656 0.23828 0.11328 0.23047-0.47461zm-0.46094 0.95312-0.23047 0.47656 0.23828 0.11328 0.23047-0.47656zm-0.45898 0.95117-0.23047 0.47656 0.23828 0.11523 0.23047-0.47656zm-0.46094 0.95312-0.23047 0.47656 0.23828 0.11523 0.23047-0.47656zm-0.46094 0.95312-0.22852 0.47656 0.23828 0.11523 0.22852-0.47656zm-0.45898 0.95312-0.23047 0.47656 0.23828 0.11523 0.23047-0.47656zm-0.46094 0.95312-0.23047 0.47656 0.23828 0.11523 0.23047-0.47656zm-0.46094 0.95312-0.22852 0.47656 0.23828 0.11523 0.22852-0.47656zm-0.45898 0.95312-0.23047 0.47656 0.23828 0.11523 0.23047-0.47656zm-0.46094 0.95312-0.23047 0.47656 0.23828 0.11523 0.23047-0.47656zm-0.45898 0.95312-0.23047 0.47656 0.23828 0.11523 0.23047-0.47656zm-0.46094 0.95312-0.23047 0.47656 0.23828 0.11523 0.23047-0.47656zm-0.46094 0.95312-0.23047 0.47656 0.23828 0.11523 0.23047-0.47656zm-0.45898 0.95312-0.23047 0.47656 0.23828 0.11523 0.23047-0.47656zm-4.6367 0.87891-0.11719 0.23828 0.47656 0.23047 0.11524-0.23828zm4.1758 0.07422-0.23047 0.47656 0.23828 0.11523 0.23047-0.47656zm-4.7031 0.12695-0.23828 0.47266 0.23633 0.11914 0.23828-0.47266zm1.4785 0.26172-0.11523 0.23828 0.47461 0.23047 0.11523-0.23633zm0.95117 0.46289-0.11523 0.23828 0.47461 0.23242 0.11719-0.23828zm1.8125 0.10156-0.22852 0.47656 0.23828 0.11523 0.22852-0.47656zm-4.7188 0.11719-0.23828 0.47266 0.23633 0.11914 0.23828-0.47266zm3.8574 0.24609-0.11524 0.23633 0.47461 0.23242 0.11719-0.23828zm-4.334 0.69922-0.24023 0.47266 0.23633 0.11914 0.24024-0.47266zm-0.47852 0.94531-0.23828 0.4707 0.23633 0.12109 0.23828-0.47266zm-0.47656 0.94336-0.1582 0.31445a0.1323 0.1323 0 0 0 0.06055 0.17774l0.1582 0.07813 0.11719-0.23828-0.03906-0.01953 0.09766-0.19336zm0.65234 0.56445-0.11523 0.23828 0.47656 0.23047 0.11524-0.23828zm0.95312 0.46289-0.11719 0.23828 0.47656 0.23047 0.11523-0.23633zm0.95117 0.46289-0.11719 0.23828 0.47656 0.23047 0.11523-0.23633zm0.95117 0.46289-0.11524 0.23828 0.39844 0.19336 0.11523-0.23633zm3.043 16.537a0.1323 0.1323 0 0 0-0.17774 0.0625l-0.0039 0.0078 0.23047 0.11133-0.16602 0.05664 0.46875 0.22852 0.11523-0.23828zm0.94336 0.45898-0.11523 0.23828 0.47461 0.23242 0.11719-0.23828zm-1.3555 0.08594-0.23242 0.47656 0.23828 0.11523 0.23242-0.47461zm2.3066 0.37695-0.11524 0.23828 0.47656 0.23047 0.11523-0.23633zm-2.7695 0.57617-0.09375 0.19141a0.1323 0.1323 0 0 0 0.06055 0.17773l0.28516 0.13672 0.11523-0.23828-0.16602-0.07813 0.03711-0.07422zm3.248 0.05078-0.23047 0.47656 0.23633 0.11523 0.23242-0.47656zm-2.4062 0.44922-0.11523 0.23828 0.47656 0.23047 0.11523-0.23828zm0.95312 0.46289-0.11523 0.23828 0.47461 0.23047 0.11524-0.23828zm0.99024 0.03906-0.23047 0.47656 0.23828 0.11523 0.23047-0.47461zm55.596 0.23828a0.1323 0.1323 0 0 0-0.0879 0.0098l-0.19727 0.0957 0.11328 0.23828 6e-3 -2e-3 -2e-3 0.0957 0.26367 0.0039 6e-3 -0.31055a0.1323 0.1323 0 0 0-0.10156-0.13086zm-0.76172 0.33594-0.47656 0.23047 0.11328 0.23828 0.47656-0.23047zm-0.95312 0.46094-0.47657 0.22852 0.11524 0.23828 0.47656-0.22852zm1.5371 0.16797-8e-3 0.5293 0.26367 0.0059 0.01-0.5293zm-2.4902 0.29102-0.47656 0.23047 0.11523 0.23828 0.47657-0.23047zm-0.95312 0.46094-0.47657 0.23047 0.11524 0.23828 0.47656-0.23047zm3.4258 0.30664-8e-3 0.5293 0.26368 0.0039 0.01-0.52734zm-4.3789 0.15234-0.47656 0.23047 0.11523 0.23828 0.47657-0.23047zm-0.95312 0.46094-0.47657 0.23047 0.11524 0.23828 0.47656-0.23047zm5.3144 0.44531-8e-3 0.5293 0.26367 0.0039 0.01-0.5293zm-6.2676 0.01563-0.47656 0.23047 0.11523 0.23828 0.47657-0.23047zm-0.95312 0.45898-0.47657 0.23047 0.11524 0.23828 0.47656-0.23047zm-0.95313 0.46094-0.47656 0.23047 0.11523 0.23828 0.47657-0.23047zm8.1562 0.12305-8e-3 0.5293 0.26367 0.0039 0.01-0.5293zm-9.1094 0.33789-0.47657 0.22852 0.11524 0.23828 0.47656-0.22852zm-0.95313 0.45898-0.47656 0.23047 0.11523 0.23828 0.47657-0.23047zm10.045 0.26172-8e-3 0.5293 0.26367 0.0039 0.01-0.5293zm-10.998 0.19922-0.47657 0.23047 0.11524 0.23828 0.47656-0.23047zm-0.95313 0.45898-0.47656 0.23047 0.11523 0.23828 0.47657-0.23047zm11.934 0.39844-8e-3 0.5293 0.26367 0.0059 0.01-0.5293zm-12.887 0.0625-0.47657 0.23047 0.11524 0.23828 0.47656-0.23047zm-0.95313 0.46094-0.47656 0.23047 0.11523 0.23828 0.47657-0.23047zm-0.95312 0.45898-0.47657 0.23047 0.11524 0.23828 0.47656-0.23047zm14.775 0.07617-0.01 0.5293 0.26563 0.0039 8e-3 -0.5293zm-15.729 0.38476-0.47656 0.23047 0.11523 0.23828 0.47657-0.23047zm-29.662 0.44922-0.47656 0.23047 0.11719 0.23828 0.47461-0.23242zm28.709 0.011716-0.47657 0.22852 0.11524 0.23828 0.47656-0.22852zm16.664 0.21289-0.01 0.5293 0.26563 0.0039 8e-3 -0.5293zm-44.861 0.01367-0.23828 0.11719 0.23047 0.47461 0.23828-0.11523zm-1.4629 0.22461-0.47656 0.23047 0.11524 0.23828 0.47656-0.23242zm28.707 0.0078-0.47656 0.23047 0.11523 0.23828 0.47657-0.23047zm-0.95312 0.46094-0.47657 0.23047 0.11524 0.23828 0.47656-0.23047zm-25.828 0.25976-0.23828 0.11524 0.23047 0.47656 0.23828-0.11719zm-2.002 0.02344-0.23828 0.11523 0.23242 0.47656 0.23828-0.11524zm46.383 0.06836-0.01 0.5293 0.26563 0.0039 8e-3 -0.5293zm-19.506 0.10742-0.47656 0.23047 0.11523 0.23828 0.47657-0.23047zm-0.95312 0.46094-0.47657 0.23047 0.11524 0.23828 0.47656-0.23047zm-23.461 0.29102-0.23633 0.11524 0.16797 0.34961 0.11133-0.05469 0.11719 0.23828 8e-3 -0.0039a0.1323 0.1323 0 0 0 0.0605-0.17578zm-2 0.02344-0.23828 0.11719 0.23242 0.47461 0.23633-0.11524zm24.51 0.14648-0.47656 0.23047 0.11328 0.23828 0.47657-0.23047zm21.393 0.0293-0.01 0.52734 0.26562 0.0059 8e-3 -0.5293zm-22.346 0.42969-0.47656 0.23047 0.11328 0.23828 0.47656-0.23047zm-21.988 0.01367-0.47656 0.23047 0.11523 0.23828 0.47656-0.23047zm-1.1055 0.33398-0.23828 0.11523 0.13867 0.2832a0.1323 0.1323 0 0 0 0.17578 0.06055l0.19336-0.0918-0.11719-0.23828-0.07227 0.03516zm22.613 0.27735-0.23828 0.11523 0.23242 0.47656 0.23828-0.11523zm22.809 2e-3 -0.01 0.5293 0.26562 0.0059 8e-3 -0.5293zm-22.346 0.94922-0.23633 0.11524 0.23047 0.47656 0.23828-0.11523zm22.328 0.10938-0.01 0.5293 0.26563 0.0039 8e-3 -0.5293zm-27.295 0.79883-0.23828 0.11523 0.19336 0.39844 0.23828-0.11523zm5.4316 0.04297-0.23829 0.11719 0.23047 0.47461 0.23828-0.11523zm21.846 0.2168-0.01 0.5293 0.26563 0.0039 8e-3 -0.5293zm-26.852 0.61328-0.23829 0.11719 0.23047 0.47461 0.23828-0.11523zm5.4688 0.12109-0.23829 0.11719 0.23243 0.47461 0.23828-0.11523zm21.365 0.32417-0.01 0.5293 0.26368 0.0039 0.01-0.5293zm-21.455 0.44141-0.4707 0.24024 0.11914 0.23438 0.47266-0.23828zm-4.916 0.06641-0.23828 0.11524 0.23046 0.47461 0.23829-0.11523zm3.9726 0.41211-0.47265 0.23828 0.11914 0.23633 0.47265-0.23828zm22.381 0.13867-0.01 0.52734 0.26367 0.0059 0.01-0.5293zm-23.326 0.33789-0.47266 0.23828 0.11914 0.23633 0.47266-0.23828zm-2.5644 0.0625-0.23828 0.11524 0.23242 0.47656 0.23633-0.11719zm1.6211 0.41602-0.47266 0.23828 0.11915 0.23633 0.47265-0.24023zm24.25 0.24023-8e-3 0.5293 0.26367 0.0039 0.01-0.52734zm-25.195 0.23633-0.19336 0.09766-0.0195-0.03906-0.23828 0.11524 0.0781 0.16016a0.1323 0.1323 0 0 0 0.17774 0.06055l0.31445-0.1582zm25.178 0.82227-8e-3 0.5293 0.26367 0.0039 0.01-0.5293zm-0.0176 1.0586-8e-3 0.5293 0.26367 0.0039 0.01-0.5293zm-0.0176 1.0586-8e-3 0.5293 0.26368 0.0039 0.01-0.5293zm-0.0176 1.0586-8e-3 0.52734 0.26367 0.0059 0.01-0.5293zm-0.0176 1.0566-8e-3 0.5293 0.26367 0.0039 0.01-0.52734z" color="#000000" fill="#ff5555" stroke-dasharray="0.529167, 0.529167" stroke-linejoin="round" style="-inkscape-stroke:none"/>
  <image id="roundel_wingL" transform="rotate(45)" x="144.55" y="-51.957" width="5.6398" height="5.6398" preserveAspectRatio="xMidYMid" xlink:href="../fe/src/assets/roundels/france.svg"/>
  <image id="roundel_tailL" transform="rotate(15)" x="137.84" y="-27.317" width="5.6398" height="5.6398" preserveAspectRatio="xMidYMid" xlink:href="../fe/src/assets/roundels/france.svg"/>
  <image id="roundel_tailR" transform="matrix(-.25882 -.96593 -.96593 .25882 0 0)" x="-45.871" y="-133.38" width="5.6398" height="5.6398" preserveAspectRatio="xMidYMid" xlink:href="../fe/src/assets/roundels/france.svg"/>
  <image id="roundel_wingR" transform="rotate(45)" x="61.945" y="-51.957" width="5.6398" height="5.6398" preserveAspectRatio="xMidYMid" xlink:href="../fe/src/assets/roundels/france.svg"/>
 </g>
 <image id="qr" transform="rotate(-70.311)" x="-42.484" y="140.53" width="10.061" height="10.061" preserveAspectRatio="xMidYMid" xlink:href="../fe/src/assets/qrCodes/origami-skin.svg"/>
</svg>
