<svg id="svg5" width="150mm" height="150mm" version="1.1" viewBox="0 0 150 150" xmlns="http://www.w3.org/2000/svg" xmlns:xlink="http://www.w3.org/1999/xlink">
 <rect id="bounds" transform="rotate(90)" x="-.0016042" y="-150" width="150" height="150" fill="#ffffff" stop-color="#000000" stroke="#1a1a1a" stroke-opacity=".18517" stroke-width=".5"/>
 <g id="body">
  <path id="base" d="m150 0h-80.787l-14.557 18.626 15.198 49.424 12.095 12.095 49.424 15.198 18.628-14.559zm-150 66.777 1e-6 83.224h83.224l-41.612-41.612z" fill="#787d8c" stop-color="#000000"/>
  <path id="camo" transform="scale(.26458)" d="m261.59 0-55.02 70.398 11.129 36.193c0.2521-0.73989 0.50675-1.4804 0.85156-2.2148 3.8211-8.1434 12.859-11.169 21.66-11.961 14.075-1.2668 32.197-0.05137 42.109 10.719 6.5661 7.1358 7.8544 18.074 10.607 26.82 2.6782 8.5054 7.338 16.215 11.57 24.09 2.2884 4.2565 3.8955 9.0033 6.8594 12.912 5.4154 7.1371 21.285 7.2709 17.998 18.873-1.6609 5.8656-6.4567 10.811-10.182 15.646-6.7744 8.796-13.86 18.459-24.49 23.527-10.029 4.7829-21.54 3.8293-32.309 5.7266-2.038 0.35959-4.0683 0.82556-6.0918 1.3379l7.7266 25.129 22.857 22.857 22.857 22.855 15.969 4.9102c2.5154-2.8736 5.1012-5.6856 7.9766-8.2422 7.4046-6.5859 16.539-11.173 24.031-17.664 7.5142-6.5089 12.7-14.742 18.791-22.328 3.2818-4.0851 7.3622-8.9622 12.719-10.713 5.3005-1.7284 10.819 0.4395 15.754 2.2695 8.0613 2.99 15.888 6.2831 24.566 7.418 16.796 2.1953 36.247-5.0717 51.268 4.4394 13.826 8.7538 3.8542 23.601-0.34961 34.582-0.98789 2.5827-1.8356 5.2708-2.4766 7.9453-2.9425 12.322-5.9669 25.154-14.65 35.264-2.2405 2.6077-4.8542 4.8567-7.543 7.0312l40.744 12.529 70.404-55.025v-222.75c-3.6383 1.2735-7.139 3.0187-10.561 4.6094-19.242 8.9472-33.219 25.708-55.008 29.762-7.2683 1.3534-14.748 1.8547-21.896 3.752-4.5075 1.197-8.6347 3.2204-10.395 7.5215-2.2376 5.4584-0.57683 11.798 1.3164 17.135 4.251 11.98 13.765 26.827 5.6582 38.988-1.7116 2.5653-3.965 4.7734-6.459 6.6856-3.2442 2.4858-7.0132 4.4923-10.949 5.873-9.1776 3.2234-19.116 4.0801-28.838 4.0801-6.3844 0-12.592-0.7545-17.041-5.4629-3.4473-3.6505-4.5744-9.0069-5.4102-13.658-1.4766-8.2348-2.213-16.574-3.5215-24.834-2.2616-14.274-8.4395-27.575-14.541-40.727-3.3726-7.268-6.6293-15.4-12.402-21.355-9.1856-9.4759-23.088-2.0081-34.135-0.35742-11.252 1.6812-20.407-2.4809-28.012-10.074-9.5729-9.5589-16.802-22.106-17.939-35.264-0.46195-5.3434-0.22946-11.141 2.8144-15.893 4.3151-6.7358 12.659-9.1491 19.906-12.244 3.8879-1.6604 7.5203-3.6267 11.75-4.4785 11.565-2.3289 22.915 7.9031 34.178 2.666 7.91-3.6783 13.055-12.031 17.572-19.297zm162.5 0c7.5758 10.146 15.199 22.868 27.865 27.377 21.095 7.5096 30.53-18.785 48.6-22.221 10.401-1.9777 20.044 4.9429 27.77 10.479 4.3498 3.1176 9.1292 6.9152 14.953 6.7891 6.793-0.14699 7.6006-7.1398 8.8477-11.916 0.93202-3.5685 2.0939-7.0734 3.4473-10.508zm-424.11 252.38v71.654c0.16871 3.2681 0.80141 6.5712 3.4023 8.6895 2.7493 2.24 6.8833 3.0744 10.391 3.6133 7.4737 1.1498 15.644 0.32536 21.896-3.9336 7.9172-5.3913 12.902-14.054 20.293-20.104 0.71229-0.58335 1.4975-1.1302 2.2402-1.6973zm149.83 149.83c1.0526 5.7062 1.0376 11.619 2.1816 17.303 2.3151 11.483 6.4004 22.633 9.2148 34.021 2.2403 9.0717 3.9879 18.5 0.76758 27.564-1.4099 3.9685-3.8148 8.2317-8.0098 10.184-6.8598 3.1887-15.165-2.3257-20.027-6.4805-6.1175-5.2225-11.257-11.225-15.93-17.609-4.9357-6.7473-9.4601-14.061-17.982-17.271-12.643-4.763-27.231-2.7208-36.559 6.5918-5.4812 5.4733-10.643 11.281-17.113 15.801-3.1773 2.22-6.8087 4.3552-10.947 4.0449-4.2144-0.31749-7.553-4.0504-9.1133-7.4277-3.3287-7.2066-1.6842-15.311-4.4688-22.6-0.56368-1.4752-1.3247-2.9219-2.2676-4.2207-4.6362-6.3846-12.536-4.8605-19.572-6.0039v130.83h125.67c-0.25775-0.29843-0.54081-0.60783-0.79687-0.90429-2.8919-3.3475-5.9206-6.5886-8.8125-9.9336-1.0636-1.2292-2.7589-2.7478-2.623-4.4688 0.11161-1.4155 1.4834-2.3033 2.623-3.0508 2.6142-1.7134 5.3789-3.2156 8.0117-4.9043 10.401-6.6653 21.099-16.844 34.178-18.297 3.9573-0.44205 8.6816-0.23144 12.551 0.64844 6.4914 1.4726 10.898 6.0189 14.15 11.199 5.4153 8.6281 6.7695 19.55 6.0156 29.711h119.78c0.44677-0.79074 0.95625-1.548 1.5234-2.2754l-155-155z" fill="#54524b" stop-color="#000000"/>
 </g>
 <g id="parts">
  <circle id="radar" transform="rotate(45)" cx="106.06" cy=".0019161" r="8.4092" fill="#000000" stop-color="#000000"/>
  <path id="cockpit" d="m99.75 50.249c-0.57427-0.57427-4.9778-4.0732-8.3726 0.70341-3.3948 4.7766-4.6326 8.6186-5.0013 9.8028-0.3687 1.1842 0.22582 1.5172 0.22582 1.5172l1.1247 1.1247s0.33301 0.59452 1.5172 0.22582c1.1842-0.3687 5.0262-1.6066 9.8028-5.0013 4.7766-3.3948 1.2777-7.7983 0.70341-8.3726z" fill="#1a1a1a"/>
  <path id="cockpitBorder" d="m90.646 52.135 7.217 7.217m1.8864-9.1034c-0.57427-0.57427-4.9778-4.0732-8.3726 0.70341-3.3948 4.7766-4.6326 8.6186-5.0013 9.8028-0.36869 1.1842 0.22583 1.5172 0.22583 1.5172l1.1247 1.1247s0.33301 0.59452 1.5172 0.22582c1.1842-0.3687 5.0262-1.6066 9.8028-5.0013 4.7766-3.3948 1.2777-7.7983 0.70341-8.3726z" fill="none" stroke="#787d8c"/>
 </g>
 <g id="decal">
  <path id="dash" d="m97.529 5.4902-0.31055 0.00586 0.0039 0.26562 0.0957-0.00195-2e-3 0.00391 0.23828 0.11523 0.0957-0.19727a0.1323 0.1323 0 0 0-0.12103-0.19141zm-0.83984 0.015625-0.5293 0.00781 0.0059 0.26562 0.52734-0.00977zm-1.0586 0.017578-0.52734 0.00781 0.0039 0.26562 0.5293-0.00977zm-1.0566 0.017578-0.5293 0.00781 0.0039 0.26562 0.5293-0.00977zm-1.0586 0.017578-0.5293 0.00781 0.0039 0.26562 0.5293-0.00977zm-1.0586 0.017578-0.5293 0.00781 0.0039 0.26562 0.5293-0.00977zm-1.0586 0.017578-0.5293 0.00781 0.0059 0.26562 0.5293-0.00977zm-1.0586 0.017578-0.52734 0.00781 0.0039 0.26562 0.5293-0.00977zm-1.0566 0.017578-0.5293 0.00977 0.0039 0.26367 0.5293-0.00977zm-1.0586 0.017578-0.5293 0.00977 0.0039 0.26367 0.5293-0.00977zm-1.0586 0.017578-0.5293 0.00977 0.0039 0.26367 0.5293-0.00781zm-1.0586 0.017578-0.5293 0.00977 0.0059 0.26367 0.5293-0.00781zm-1.0566 0.017578-0.5293 0.00977 0.0039 0.26367 0.5293-0.00781zm-1.0586 0.017578-0.5293 0.00977 0.0039 0.26367 0.5293-0.00781zm-1.0586 0.017578-0.5293 0.00977 0.0039 0.26367 0.5293-0.0078153zm-1.0586 0.017578-0.5293 0.00977 0.0039 0.26367 0.5293-0.00781zm-1.0586 0.017578-0.5293 0.00977 0.0059 0.26367 0.5293-0.00781zm-1.0566 0.017578-0.5293 0.00977 0.0039 0.26367 0.5293-0.00781zm-1.0586 0.017578-0.5293 0.00977 0.0039 0.26367 0.5293-0.00781zm-1.0586 0.019531-0.5293 0.00781 0.0039 0.26367 0.5293-0.00781zm-1.0586 0.017578-0.5293 0.00781 0.0059 0.26562 0.52734-0.00977zm-1.0586 0.017578-0.5293 0.00781 0.0059 0.26562 0.5293-0.00977zm21.561 0.38086-0.23047 0.47656 0.23828 0.11523 0.23047-0.47656zm-0.46094 0.95312-0.22852 0.47656 0.23633 0.11523 0.23047-0.47656zm-0.45898 0.95312-0.23047 0.47656 0.23828 0.11523 0.23047-0.47656zm-0.46094 0.95312-0.23047 0.47656 0.23828 0.11523 0.23047-0.47656zm-0.46094 0.95312-0.22852 0.47656 0.23828 0.11523 0.22852-0.47656zm-0.45898 0.95312-0.23047 0.47656 0.23828 0.11523 0.23047-0.47656zm-0.46094 0.95312-0.23047 0.47656 0.23828 0.11523 0.23047-0.47656zm-0.45898 0.95312-0.23047 0.47656 0.23828 0.11523 0.23047-0.47656zm-0.46094 0.95312-0.23047 0.47656 0.23828 0.11328 0.23047-0.47461zm-0.46094 0.95312-0.23047 0.47656 0.23828 0.11328 0.23047-0.47656zm-0.45898 0.95117-0.23047 0.47656 0.23828 0.11523 0.23047-0.47656zm-0.46094 0.95312-0.23047 0.47656 0.23828 0.11523 0.23047-0.47656zm-0.46094 0.95312-0.22852 0.47656 0.23828 0.11523 0.22852-0.47656zm-0.45898 0.95312-0.23047 0.47656 0.23828 0.11523 0.23047-0.47656zm-0.46094 0.95312-0.23047 0.47656 0.23828 0.11523 0.23047-0.47656zm-0.46094 0.95312-0.22852 0.47656 0.23828 0.11523 0.22852-0.47656zm-0.45898 0.95312-0.23047 0.47656 0.23828 0.11523 0.23047-0.47656zm-0.46094 0.95312-0.23047 0.47656 0.23828 0.11523 0.23047-0.47656zm-0.45898 0.95312-0.23047 0.47656 0.23828 0.11523 0.23047-0.47656zm-0.46094 0.95312-0.23047 0.47656 0.23828 0.11523 0.23047-0.47656zm-0.46094 0.95312-0.23047 0.47656 0.23828 0.11523 0.23047-0.47656zm-0.45898 0.95312-0.23047 0.47656 0.23828 0.11523 0.23047-0.47656zm-4.6367 0.87891-0.11719 0.23828 0.47656 0.23047 0.11524-0.23828zm4.1758 0.07422-0.23047 0.47656 0.23828 0.11523 0.23047-0.47656zm-4.7031 0.12695-0.23828 0.47266 0.23633 0.11914 0.23828-0.47266zm1.4785 0.26172-0.11523 0.23828 0.47461 0.23047 0.11523-0.23633zm0.95117 0.46289-0.11523 0.23828 0.47461 0.23242 0.11719-0.23828zm1.8125 0.10156-0.22852 0.47656 0.23828 0.11523 0.22852-0.47656zm-4.7188 0.11719-0.23828 0.47266 0.23633 0.11914 0.23828-0.47266zm3.8574 0.24609-0.11524 0.23633 0.47461 0.23242 0.11719-0.23828zm-4.334 0.69922-0.24023 0.47266 0.23633 0.11914 0.24024-0.47266zm-0.47852 0.94531-0.23828 0.4707 0.23633 0.12109 0.23828-0.47266zm-0.47656 0.94336-0.1582 0.31445a0.1323 0.1323 0 0 0 0.06055 0.17774l0.1582 0.07813 0.11719-0.23828-0.03906-0.01953 0.09766-0.19336zm0.65234 0.56445-0.11523 0.23828 0.47656 0.23047 0.11524-0.23828zm0.95312 0.46289-0.11719 0.23828 0.47656 0.23047 0.11523-0.23633zm0.95117 0.46289-0.11719 0.23828 0.47656 0.23047 0.11523-0.23633zm0.95117 0.46289-0.11524 0.23828 0.39844 0.19336 0.11523-0.23633zm3.043 16.537a0.1323 0.1323 0 0 0-0.17774 0.0625l-0.0039 0.0078 0.23047 0.11133-0.16602 0.05664 0.46875 0.22852 0.11523-0.23828zm0.94336 0.45898-0.11523 0.23828 0.47461 0.23242 0.11719-0.23828zm-1.3555 0.08594-0.23242 0.47656 0.23828 0.11523 0.23242-0.47461zm2.3066 0.37695-0.11524 0.23828 0.47656 0.23047 0.11523-0.23633zm-2.7695 0.57617-0.09375 0.19141a0.1323 0.1323 0 0 0 0.06055 0.17773l0.28516 0.13672 0.11523-0.23828-0.16602-0.07813 0.03711-0.07422zm3.248 0.05078-0.23047 0.47656 0.23633 0.11523 0.23242-0.47656zm-2.4062 0.44922-0.11523 0.23828 0.47656 0.23047 0.11523-0.23828zm0.95312 0.46289-0.11523 0.23828 0.47461 0.23047 0.11524-0.23828zm0.99024 0.03906-0.23047 0.47656 0.23828 0.11523 0.23047-0.47461zm55.596 0.23828a0.1323 0.1323 0 0 0-0.0879 0.0098l-0.19727 0.0957 0.11328 0.23828 6e-3 -2e-3 -2e-3 0.0957 0.26367 0.0039 6e-3 -0.31055a0.1323 0.1323 0 0 0-0.10156-0.13086zm-0.76172 0.33594-0.47656 0.23047 0.11328 0.23828 0.47656-0.23047zm-0.95312 0.46094-0.47657 0.22852 0.11524 0.23828 0.47656-0.22852zm1.5371 0.16797-8e-3 0.5293 0.26367 0.0059 0.01-0.5293zm-2.4902 0.29102-0.47656 0.23047 0.11523 0.23828 0.47657-0.23047zm-0.95312 0.46094-0.47657 0.23047 0.11524 0.23828 0.47656-0.23047zm3.4258 0.30664-8e-3 0.5293 0.26368 0.0039 0.01-0.52734zm-4.3789 0.15234-0.47656 0.23047 0.11523 0.23828 0.47657-0.23047zm-0.95312 0.46094-0.47657 0.23047 0.11524 0.23828 0.47656-0.23047zm5.3144 0.44531-8e-3 0.5293 0.26367 0.0039 0.01-0.5293zm-6.2676 0.01563-0.47656 0.23047 0.11523 0.23828 0.47657-0.23047zm-0.95312 0.45898-0.47657 0.23047 0.11524 0.23828 0.47656-0.23047zm-0.95313 0.46094-0.47656 0.23047 0.11523 0.23828 0.47657-0.23047zm8.1562 0.12305-8e-3 0.5293 0.26367 0.0039 0.01-0.5293zm-9.1094 0.33789-0.47657 0.22852 0.11524 0.23828 0.47656-0.22852zm-0.95313 0.45898-0.47656 0.23047 0.11523 0.23828 0.47657-0.23047zm10.045 0.26172-8e-3 0.5293 0.26367 0.0039 0.01-0.5293zm-10.998 0.19922-0.47657 0.23047 0.11524 0.23828 0.47656-0.23047zm-0.95313 0.45898-0.47656 0.23047 0.11523 0.23828 0.47657-0.23047zm11.934 0.39844-8e-3 0.5293 0.26367 0.0059 0.01-0.5293zm-12.887 0.0625-0.47657 0.23047 0.11524 0.23828 0.47656-0.23047zm-0.95313 0.46094-0.47656 0.23047 0.11523 0.23828 0.47657-0.23047zm-0.95312 0.45898-0.47657 0.23047 0.11524 0.23828 0.47656-0.23047zm14.775 0.07617-0.01 0.5293 0.26563 0.0039 8e-3 -0.5293zm-15.729 0.38476-0.47656 0.23047 0.11523 0.23828 0.47657-0.23047zm-29.662 0.44922-0.47656 0.23047 0.11719 0.23828 0.47461-0.23242zm28.709 0.011716-0.47657 0.22852 0.11524 0.23828 0.47656-0.22852zm16.664 0.21289-0.01 0.5293 0.26563 0.0039 8e-3 -0.5293zm-44.861 0.01367-0.23828 0.11719 0.23047 0.47461 0.23828-0.11523zm-1.4629 0.22461-0.47656 0.23047 0.11524 0.23828 0.47656-0.23242zm28.707 0.0078-0.47656 0.23047 0.11523 0.23828 0.47657-0.23047zm-0.95312 0.46094-0.47657 0.23047 0.11524 0.23828 0.47656-0.23047zm-25.828 0.25976-0.23828 0.11524 0.23047 0.47656 0.23828-0.11719zm-2.002 0.02344-0.23828 0.11523 0.23242 0.47656 0.23828-0.11524zm46.383 0.06836-0.01 0.5293 0.26563 0.0039 8e-3 -0.5293zm-19.506 0.10742-0.47656 0.23047 0.11523 0.23828 0.47657-0.23047zm-0.95312 0.46094-0.47657 0.23047 0.11524 0.23828 0.47656-0.23047zm-23.461 0.29102-0.23633 0.11524 0.16797 0.34961 0.11133-0.05469 0.11719 0.23828 8e-3 -0.0039a0.1323 0.1323 0 0 0 0.0605-0.17578zm-2 0.02344-0.23828 0.11719 0.23242 0.47461 0.23633-0.11524zm24.51 0.14648-0.47656 0.23047 0.11328 0.23828 0.47657-0.23047zm21.393 0.0293-0.01 0.52734 0.26562 0.0059 8e-3 -0.5293zm-22.346 0.42969-0.47656 0.23047 0.11328 0.23828 0.47656-0.23047zm-21.988 0.01367-0.47656 0.23047 0.11523 0.23828 0.47656-0.23047zm-1.1055 0.33398-0.23828 0.11523 0.13867 0.2832a0.1323 0.1323 0 0 0 0.17578 0.06055l0.19336-0.0918-0.11719-0.23828-0.07227 0.03516zm22.613 0.27735-0.23828 0.11523 0.23242 0.47656 0.23828-0.11523zm22.809 2e-3 -0.01 0.5293 0.26562 0.0059 8e-3 -0.5293zm-22.346 0.94922-0.23633 0.11524 0.23047 0.47656 0.23828-0.11523zm22.328 0.10938-0.01 0.5293 0.26563 0.0039 8e-3 -0.5293zm-27.295 0.79883-0.23828 0.11523 0.19336 0.39844 0.23828-0.11523zm5.4316 0.04297-0.23829 0.11719 0.23047 0.47461 0.23828-0.11523zm21.846 0.2168-0.01 0.5293 0.26563 0.0039 8e-3 -0.5293zm-26.852 0.61328-0.23829 0.11719 0.23047 0.47461 0.23828-0.11523zm5.4688 0.12109-0.23829 0.11719 0.23243 0.47461 0.23828-0.11523zm21.365 0.32417-0.01 0.5293 0.26368 0.0039 0.01-0.5293zm-21.455 0.44141-0.4707 0.24024 0.11914 0.23438 0.47266-0.23828zm-4.916 0.06641-0.23828 0.11524 0.23046 0.47461 0.23829-0.11523zm3.9726 0.41211-0.47265 0.23828 0.11914 0.23633 0.47265-0.23828zm22.381 0.13867-0.01 0.52734 0.26367 0.0059 0.01-0.5293zm-23.326 0.33789-0.47266 0.23828 0.11914 0.23633 0.47266-0.23828zm-2.5644 0.0625-0.23828 0.11524 0.23242 0.47656 0.23633-0.11719zm1.6211 0.41602-0.47266 0.23828 0.11915 0.23633 0.47265-0.24023zm24.25 0.24023-8e-3 0.5293 0.26367 0.0039 0.01-0.52734zm-25.195 0.23633-0.19336 0.09766-0.0195-0.03906-0.23828 0.11524 0.0781 0.16016a0.1323 0.1323 0 0 0 0.17774 0.06055l0.31445-0.1582zm25.178 0.82227-8e-3 0.5293 0.26367 0.0039 0.01-0.5293zm-0.0176 1.0586-8e-3 0.5293 0.26367 0.0039 0.01-0.5293zm-0.0176 1.0586-8e-3 0.5293 0.26368 0.0039 0.01-0.5293zm-0.0176 1.0586-8e-3 0.52734 0.26367 0.0059 0.01-0.5293zm-0.0176 1.0566-8e-3 0.5293 0.26367 0.0039 0.01-0.52734z" color="#000000" fill="#ff5555" stroke-dasharray="0.529167, 0.529167" stroke-linejoin="round" style="-inkscape-stroke:none"/>
  <image id="roundel_wingL" transform="rotate(45)" x="144.55" y="-51.957" width="5.6398" height="5.6398" preserveAspectRatio="xMidYMid" xlink:href="../fe/src/assets/roundels/france.svg"/>
  <image id="roundel_tailL" transform="rotate(15)" x="137.84" y="-27.317" width="5.6398" height="5.6398" preserveAspectRatio="xMidYMid" xlink:href="../fe/src/assets/roundels/france.svg"/>
  <image id="roundel_tailR" transform="matrix(-.25882 -.96593 -.96593 .25882 0 0)" x="-45.871" y="-133.38" width="5.6398" height="5.6398" preserveAspectRatio="xMidYMid" xlink:href="../fe/src/assets/roundels/france.svg"/>
  <image id="roundel_wingR" transform="rotate(45)" x="61.945" y="-51.957" width="5.6398" height="5.6398" preserveAspectRatio="xMidYMid" xlink:href="../fe/src/assets/roundels/france.svg"/>
 </g>
 <image id="qr" transform="rotate(-70.311)" x="-42.484" y="140.53" width="10.061" height="10.061" preserveAspectRatio="xMidYMid" xlink:href="../fe/src/assets/qrCodes/origami-skin.svg"/>
</svg>
