<svg version="1.0" viewBox="0 0 600 600" xmlns="http://www.w3.org/2000/svg">
 <path d="m299.94 5v233.44c34.268 1.1738 61.688 29.289 61.688 63.844 0 11.505-3.056 22.296-8.375 31.625l200.94 115.88c25.924-43.902 40.812-95.105 40.812-149.78 0-162.92-132.08-295-295-295h-0.0625zm-3.4062 0.03125c-161.33 1.8591-291.53 133.2-291.53 294.97 0 54.071 14.575 104.74 39.969 148.31l197.5-113.88c-5.5138-9.4497-8.6875-20.431-8.6875-32.156 0-34.901 28.001-63.238 62.75-63.875v-233.38zm54.938 331.81c-11.371 17.665-31.184 29.375-53.75 29.375-22.353 0-42.007-11.489-53.438-28.875l-197.56 113.91c51.521 86.095 145.65 143.75 253.28 143.75 107.02 0 200.73-56.99 252.44-142.28l-200.97-115.88z" fill="#cccccc" fill-rule="evenodd"/>
 <path d="m299.94 5v233.44c34.27 1.1717 61.688 29.288 61.688 63.844 0 11.415-2.9757 22.161-8.2188 31.438l200.91 115.81c25.856-43.855 40.688-94.97 40.688-149.53 0-162.84-132.16-295-295-295-0.02083 0-0.04167-4.74e-5 -0.0625 0z" fill="#b4b4b4" fill-rule="evenodd"/>
 <path d="m298.44 5.0312c-162.12 0.84562-293.44 132.65-293.44 294.97 0 54.01 14.562 104.63 39.938 148.19l197.28-113.75c-5.4557-9.4101-8.5938-20.307-8.5938-31.969 0-34.964 28.071-63.368 62.906-63.906v-233.34h1.9062v-0.1875z" fill="#999999" fill-rule="evenodd"/>
</svg>
