<svg version="1.1" viewBox="0 0 650 650" xmlns="http://www.w3.org/2000/svg">
 <g transform="translate(17.29 23.335) scale(.40625)" stroke-width="50">
  <circle cx="757.44" cy="742.56" r="800" fill="#fff"/>
  <path d="m1195 1326 40.49 57.994c30.817-22.968 60.147-48.208 87.646-75.707 150.02-150.02 234.32-353.53 234.32-565.69 0-76.654-11.16-152.13-32.291-224.41l-68.084 18.793c19.458 66.202 29.719 135.36 29.719 205.62a729.3 729.3 0 0 1-213.62 515.72c-24.55 24.55-50.722 47.086-78.173 67.676zm-854.09 15.041-40.434 57.916c133.22 92.743 292.43 143.64 456.98 143.64 164 0 322.7-50.557 455.65-142.71l-40.433-57.914c-121.16 83.937-265.76 129.97-415.22 129.97-150 0-295.11-46.377-416.54-130.9zm430.27-1327.4c188.47 3.55 368.45 79.739 501.99 213.28 80.514 80.513 140.06 177.97 175.59 283.92l68.168-18.817c-38.82-117.63-104.57-225.84-193.79-315.06-146.78-146.78-344.78-230.42-551.96-233.98zm-713.49 523.89-68.086-18.792c-21.035 72.127-32.15 147.43-32.15 223.9 0 212.16 84.295 415.67 234.31 565.69 27.112 27.112 56.024 52 86.365 74.709l40.49-57.996c-26.976-20.328-52.73-42.513-76.892-66.676a729.29 729.29 0 0 1-213.62-515.72c0-70.074 10.217-139.06 29.578-205.11zm686.04-594.55c-207.18 3.56-405.18 87.2-551.96 233.98-89.347 89.347-155.16 197.74-193.95 315.56l68.17 18.817c35.508-106.14 95.108-203.78 175.75-284.42 133.54-133.54 313.53-209.73 501.99-213.28z" fill="#024fa2" font-family="sans-serif" font-weight="400" overflow="visible" style="isolation:auto;mix-blend-mode:normal;text-decoration-color:#000;text-decoration-line:none;text-decoration-style:solid;text-indent:0;text-transform:none" white-space="normal"/>
 </g>
 <path d="m594.73 245.47-28.045 7.74c6.862 23.1 10.47 47.255 10.47 71.791a252.14 252.14 0 0 1-73.855 178.3c-8.13 8.13-16.788 15.6-25.841 22.474l16.678 23.89c10.438-7.858 20.4-16.439 29.744-25.783a281.28 281.28 0 0 0 82.379-198.88c0-27.173-3.98-53.928-11.53-79.531zm-413.69 286.46-16.655 23.857c46.827 32.585 102.79 50.469 160.62 50.469 57.607 0 113.36-17.743 160.08-50.09l-16.656-23.857c-41.863 28.961-91.803 44.841-143.42 44.841-51.84 0-101.99-16.02-143.96-45.22zm149.54-458.95c64.857 1.435 126.75 27.742 172.72 73.716 27.261 27.26 47.585 60.133 59.953 95.885l28.08-7.75c-13.733-40.56-36.604-77.868-67.452-108.72-51.424-51.424-120.74-80.8-193.3-82.24zm-247.32 180.43-28.044-7.742c-7.513 25.542-11.473 52.226-11.473 79.326a281.28 281.28 0 0 0 82.38 198.88c9.187 9.188 18.977 17.627 29.222 25.378l16.679-23.89c-8.862-6.766-17.349-14.096-25.321-22.068a252.14 252.14 0 0 1-73.854-178.3c0-24.463 3.59-48.547 10.411-71.584zm236.17-209.54c-72.567 1.44-141.88 30.817-193.3 82.241-30.9 30.9-53.794 68.28-67.519 108.92l28.08 7.75c12.361-35.83 32.708-68.776 60.02-96.088 45.974-45.974 107.87-72.281 172.72-73.716z" fill="#ed1c27" font-family="sans-serif" font-weight="400" overflow="visible" style="isolation:auto;mix-blend-mode:normal;text-decoration-color:#000;text-decoration-line:none;text-decoration-style:solid;text-indent:0;text-transform:none" white-space="normal"/>
 <path d="m95.755 249.91h458.49l-370.87 269.65 141.63-436.08 141.63 436.08z" fill="#ed1c27"/>
</svg>
