<svg xmlns="http://www.w3.org/2000/svg" width="256" height="256" viewBox="0 0 256 256"><path fill="#000" d="M205.119 92.403c0 1.29.087 2.593-.017 3.875a44 44 0 0 1-.616 4.465 93 93 0 0 1-1.368 6.252 35.5 35.5 0 0 1-1.485 4.482c-1.294 3.171-2.729 6.276-4.618 9.138a208 208 0 0 1-3.573 5.234 17 17 0 0 1-1.53 1.782c-.93.984-1.827 1.997-2.836 2.874a56 56 0 0 1-4.643 3.742c-1.472 1.034-3.126 1.782-4.631 2.787-1.67 1.108-3.58 1.588-5.359 2.427-1.588.744-3.287.992-4.904 1.571-2.059.744-4.221.918-6.33 1.369-2.25.483-4.536.84-6.793 1.302-1.857.372-3.697.819-5.54 1.232-1.051.232-2.11.406-3.127.716-1.257.384-2.48.884-3.705 1.34-.83.297-1.703.52-2.497.905-1.158.579-2.25 1.302-3.403 1.918-1.89 1-3.465 2.42-4.895 3.97-1.208 1.323-2.258 2.815-3.308 4.283-1.728 2.427-2.92 5.144-3.986 7.922-1.05 2.717-2.014 5.467-2.998 8.212-.914 2.584-1.778 5.177-2.708 7.753a265 265 0 0 1-2.555 6.677 55.6 55.6 0 0 1-4.631 9.159c-1.369 2.195-2.833 4.337-4.722 6.111-1.513 1.418-2.977 2.91-4.838 3.903-1.844.993-3.746 1.853-5.788 2.303a27.4 27.4 0 0 1-7.472.534c-.947-.05-1.881-.31-2.828-.484-.567-.108-1.141-.194-1.691-.368-.463-.145-.89-.401-1.332-.624-1.248-.608-2.58-1.092-3.72-1.853a36 36 0 0 1-3.97-3.208c-2.29-2.035-4.01-4.561-5.549-7.195a54 54 0 0 1-2.816-5.454c-.794-1.802-1.39-3.692-2.034-5.56a103 103 0 0 1-1.406-4.396c-.38-1.31-.682-2.65-1.005-3.982-.302-1.232-.62-2.456-.876-3.7-.463-2.217-.89-4.437-1.323-6.653a148 148 0 0 1-.55-2.812c-.248-1.406-.472-2.816-.707-4.226-.182-1.05-.38-2.092-.538-3.142-.182-1.158-.33-2.315-.513-3.47-.148-1-.322-1.996-.463-2.997-.132-.934-.248-1.869-.368-2.803a290 290 0 0 1-.388-3.019c-.124-.975-.228-1.947-.34-2.923l-.396-3.382c-.046-.405-.095-.798-.124-1.203-.14-1.658-.281-3.325-.414-4.995a86 86 0 0 1-.207-3.101c-.086-1.613-.173-3.213-.206-4.821a391 391 0 0 1-.108-7.935c0-1.563.009-3.121.112-4.672.107-1.62.33-3.242.504-4.862.14-1.29.265-2.572.434-3.862.096-.724.265-1.44.414-2.15.38-1.787.728-3.569 1.162-5.343.314-1.281.748-2.522 1.1-3.787.649-2.36 1.625-4.59 2.58-6.835.434-1.033.971-2.026 1.517-2.997.77-1.36 1.513-2.73 2.382-4.011a66 66 0 0 1 3.403-4.54 53 53 0 0 1 3.61-3.99c.992-.992 2.116-1.852 3.183-2.75 1.05-.876 2.072-1.79 3.184-2.58a114 114 0 0 1 5.222-3.51c1.03-.653 2.125-1.216 3.2-1.795 1.675-.905 3.35-1.819 5.045-2.679 1.075-.537 2.179-1.009 3.283-1.464 2.824-1.145 5.64-2.303 8.497-3.374 1.902-.703 3.853-1.252 5.784-1.869.992-.318 1.964-.665 2.965-.946.827-.232 1.662-.356 2.497-.55.91-.207 1.795-.492 2.713-.662 1.236-.244 2.493-.413 3.75-.608 1.406-.215 2.807-.434 4.217-.628.575-.079 1.17-.083 1.757-.124 1.944-.108 3.904-.223 5.847-.319.777-.04 1.58-.21 2.336-.078 1.832.33 3.676.07 5.508.207 1.77.124 3.527.314 5.284.525 1.265.157 2.514.426 3.779.62 1.108.165 2.212.269 3.316.442.889.145 1.778.335 2.667.53 1.902.425 3.8.81 5.681 1.31 1.67.455 3.296 1.137 4.978 1.53 1.94.467 3.717 1.373 5.586 1.98 1.91.617 3.556 1.754 5.376 2.515 2.129.897 3.969 2.257 5.863 3.547 1.434.984 2.832 2.035 4.134 3.184a104 104 0 0 1 5.607 5.292c1.067 1.076 1.977 2.332 2.948 3.515 1.571 1.919 2.72 4.106 3.837 6.297a36.6 36.6 0 0 1 2.22 5.495c.497 1.543.646 3.2 1.014 4.78.405 1.737.397 3.49.301 5.251z"/></svg>
