<svg id="svg3863" version="1.1" viewBox="0 0 600 900" xmlns="http://www.w3.org/2000/svg">
 <g id="layer1" transform="translate(-54.286 -219.51)">
  <path id="circle3" d="m354.29 429.51c-165.69 0-300 134.31-300 300s134.31 300 300 300 300-134.31 300-300-134.31-300-300-300z" fill="#cc0000"/>
  <path id="path3867" d="m354.29 289.51c-18.75 0-37.5 10-40 30v30h-220v70l220 20-5 570c0 30-110 25-130 0 14.992-4.9974 34.979-5 54.969-5-81.744-35.732-144.48-106.84-168.87-193.97-0.0099-0.0132-0.02138-0.018-0.03125-0.0312 0 160 8.9375 239 138.94 309-15-25-25-40-30-70 0 0 45 65 180 65s180-65 180-65c-5 30-15 45-30 70 130-70 138.94-149 138.94-309-3e-3 0.0124-0.0278 0.0188-0.0312 0.0312-24.385 87.125-87.112 158.23-168.84 193.97 19.979 0 39.953 0 54.938 5-20 25-130 30-130 0l-5-570 220-20v-70h-220v-30c-2.5-20-21.25-30-40-30z" fill="#000000"/>
  <path id="path3871" d="m354.29 219.51c-34.103 0-60 25.897-60 60s25.897 60 60 60c34.103 0 60-25.897 60-60s-25.897-60-60-60zm0 20c22.662 0 40 16.841 40 40s-17.338 40-40 40c-22.662 0-40-16.841-40-40s17.338-40 40-40z" fill="#000000"/>
  <path id="path3033" d="m554.29 729.51c0 109.86-89.661 200-200 200s-200-90.144-200-200c0-109.86 89.661-200 200-200s200 90.144 200 200z" fill="#ffffff"/>
  <path id="circle7" d="m454.29 729.51c0 55.228-44.772 100-100 100s-100-44.772-100-100 44.772-100 100-100 100 44.772 100 100z" fill="#cc0000"/>
 </g>
</svg>
