<svg width="210mm" height="297mm" version="1.1" viewBox="0 0 793.7 1122.5" xmlns="http://www.w3.org/2000/svg" xmlns:xlink="http://www.w3.org/1999/xlink">
 <rect id="bounds" width="793.87" height="1122.5" fill="#ffffff" stop-color="#000000"/>
 <g id="body">>
  <path id="base" d="m396.85-0.13867-48.473 0.13867-126.61 105.9 175.08 127.27 175.08-127.27-126.61-105.9zm175.08 106.04-175.08 349.19-175.08-349.19c-24.573 20.031-49.551 39.618-73.219 60.717l-80.824 37.223 83.271-69.611-151-134.23v235.03l-0.16602 93.791 0.16602 207.07 222.09 14.102-25.217-240.39 164.15 379.96 35.832 36.432 35.834-36.432 164.15-379.96-25.217 240.39 222.09-14.102 0.16602-207.07-0.16602-93.791v-235.03l-151 134.23 83.271 69.609-80.824-37.221c-23.668-21.099-48.644-40.687-73.217-60.717zm-401.85 845.42-170.25 171.2h242.9l-63.93-70.568zm453.54 0-8.7266 100.63-63.93 70.568h242.9z" fill="#ffffff"/>
  <g id="tiger">
   <path id="tiger_eye" d="m98.879 367.08 43.475-3.4157 30.259-31.67-27.219-12.504-6.5607 0.0823-16.046 6.119-13.667 14.874-11.356 16.352zm536.36-38.667-3.8663 6.6878 32.555 31.738 32.092 1.8835 5.883-9.0155-24.946-28.452-13.378-8.4626-17.519-3.7612z" fill="#ff0000"/>
   <path id="tiger_pattern" d="m71.584 1085c-0.50324-0.7467-1.209-2.537-1.5683-3.9784l-0.65329-2.6207 2.4533-2.5385c3.2476-3.3604 5.6918-6.8617 6.1059-8.7469 0.18477-0.8412 0.87312-2.001 1.5297-2.5771 1.2937-1.1352 6.3995-4.258 9.8828-6.0444 1.1947-0.6127 3.6746-2.5572 5.5107-4.3212 6.6621-6.3999 10.907-12.642 12.345-18.153 0.98994-3.7932 2.8832-6.9866 3.909-6.593 0.43229 0.1659 1.1602-0.01 1.6176-0.3886 0.738-0.6124 0.79422-0.2676 0.49919 3.0619-0.5578 6.2949-1.8547 9.0891-8.1692 17.6-3.393 4.5734-8.3381 9.3343-11.248 10.83-2.6646 1.369-8.4292 6.4507-10.657 9.3942-1.189 1.5712-3.8945 4.6895-6.0123 6.9297-3.8101 4.0302-4.1915 4.7003-4.4816 7.8744l-0.14892 1.6292zm609.91-9.8478c-1.0752-0.6236-2.3704-1.8372-2.8782-2.6968-0.50782-0.8597-1.7872-2.6949-2.8432-4.0782-1.1892-1.5579-1.8183-2.9038-1.6529-3.536 0.1999-0.7644-0.0272-1.0231-0.9041-1.0299-0.70066-0.01-2.0437-0.9981-3.3433-2.4714-1.1947-1.3543-3.3012-3.6283-4.681-5.0534-2.9447-3.0413-3.9831-4.7402-3.195-5.2273 0.29951-0.1851 0.55393-0.872 0.56539-1.5264 0.0179-1.0118 0.3631-0.8032 2.308 1.3941 1.258 1.4212 2.4757 2.582 2.7061 2.5796 0.99952-0.01 4.7941 2.9765 5.7624 4.5361 0.58216 0.9376 2.4397 3.6598 4.1278 6.0493 7.1612 10.136 8.3076 12.237 6.6617 12.206-0.37336-0.01-1.5586-0.5226-2.6338-1.1462zm-557.9-7.3254c-0.17609-0.4589-0.17051-1.4306 0.0124-2.1594s0.0256-2.0661-0.34955-2.9718c-0.88596-2.1389-0.0963-4.8996 2.3345-8.1616 2.0186-2.7089 5.0586-7.7294 6.8727-11.35 2.4237-4.8374 6.481-7.468 9.2407-5.9911 1.4475 0.7747 1.2838 1.8745-1.0126 6.8057-0.83461 1.7921-1.8042 4.1137-2.1546 5.1591s-1.3578 2.8783-2.2386 4.073c-1.8593 2.522-2.6668 4.1407-4.4203 8.8613-1.3857 3.7303-3.3212 5.6612-6.2486 6.2338-1.2647 0.2473-1.8 0.1161-2.036-0.4988zm603.5-5.453c-0.6758-0.8193-0.63137-0.8429 0.47659-0.2524 1.2637 0.6733 1.5748 1.1559 0.74531 1.1559-0.26209 0-0.81194-0.4066-1.2219-0.9035zm-2.7059-2.4907c-0.63778-1.2153-0.63496-1.2163 0.52395-0.1873 1.2944 1.1493 1.4127 1.4092 0.6412 1.4092-0.28821 0-0.81249-0.5498-1.1652-1.2219zm-8.9943-6.3191c-1.5449-0.7808-3.2556-1.8248-3.8015-2.32-0.5459-0.4952-2.9432-1.9241-5.3274-3.1755-2.3842-1.2513-4.9654-2.724-5.7359-3.2726-0.77051-0.5487-3.5767-1.7514-6.236-2.6729-2.6593-0.9214-5.4545-2.2557-6.2116-2.965-1.8607-1.7433-6.4698-4.497-8.2812-4.9476-2.7916-0.6945-2.3859-4.0602 0.48947-4.0602 0.72944 0 2.4713 0.4757 3.8707 1.0571 1.3995 0.5814 4.3773 1.5859 6.6175 2.2323 5.5134 1.5906 10.562 3.9378 13.064 6.0738 1.1402 0.9733 2.9023 2.4467 3.9157 3.2742 1.0135 0.8275 4.0838 3.7054 6.8229 6.3954 6.3691 6.255 6.5605 7.2853 0.81352 4.381zm-558.68-0.7408c1.2562-3.9737 5.2577-6.2747 5.9709-3.4333 0.73031 2.9097-1.042 4.6552-4.7267 4.6552-1.4432 0-1.5861-0.1402-1.2442-1.2219zm501.41-7.6857c-0.76285-1.6742-0.42506-2.1855 1.1199-1.6951 1.318 0.4183 1.4625 1.5023 0.326 2.4455-0.66037 0.5481-0.91431 0.4163-1.4459-0.7504zm-309.4-431.99c-1.4813-1.4813-2.925-4.3566-2.6055-5.1892 0.30005-0.78197 13.268-3.3377 19.37-3.8175 2.2534-0.1772 6.2325-1.0421 8.9069-1.9359 3.7788-1.263 5.0014-1.4766 5.6013-0.97866 1.7466 1.4496-1.388 6.5016-4.9864 8.0367-2.254 0.96155-4.1866 1.3414-16.321 3.2077-3.889 0.59813-7.4747 1.2425-7.9682 1.4318-0.54152 0.20777-1.3332-0.0916-1.9966-0.75492zm60.776-4.0081c0.0126-0.67204 0.33404-2.5546 0.71418-4.1834 0.63259-2.7106 0.84923-3.0021 2.5566-3.4404 1.026-0.26338 2.2512-0.8247 2.7228-1.2473s1.247-0.76833 1.7233-0.76833 1.5567-0.57462 2.401-1.277c0.84431-0.70235 2.0239-1.5298 2.6212-1.8387 2.295-1.1867 10.476-2.8272 13.848-2.7769 2.9688 0.0445 4.0047 0.33643 6.5168 1.8378 1.9996 1.1951 4.019 1.9039 6.1095 2.1444 2.9543 0.3399 3.1226 0.43945 3.1226 1.8472 0 1.0256-0.50935 1.8646-1.6393 2.7-1.5114 1.1174-1.7327 1.1466-2.8362 0.37368-0.88756-0.6217-2.6042-0.83665-6.6425-0.83192-6.9024 8e-3 -14.402 1.78-19.03 4.4959-3.4079 1.9999-9.2097 4.1867-11.108 4.1867-0.7889 0-1.0967-0.34816-1.0803-1.2219zm-53.281-29.829c-0.72596-0.20218-3.1528-0.62186-5.3929-0.93271-5.4297-0.7534-9.8036-1.6178-11.133-2.2-0.59737-0.26171-2.2806-0.92528-3.7404-1.4746-1.7622-0.66314-3.1506-1.6746-4.1309-3.0093-1.4783-2.0129-3.1348-6.7148-2.566-7.2836 0.16631-0.16634 1.1164 0.0634 2.1114 0.51048 0.99499 0.44711 3.5197 1.357 5.6105 2.022 2.0908 0.66499 4.678 1.6488 5.7493 2.1862 2.9581 1.4839 11.224 3.5065 19.037 4.6583 1.3719 0.20223 2.7859-0.0727 4.6161-0.89748 6.9007-3.1097 7.5289-3.0669 7.8829 0.53775 0.18195 1.8527 0.0983 1.9411-3.7089 3.9188-3.4553 1.795-4.4099 2.0408-8.4553 2.1776-2.5082 0.0848-5.1542-0.0114-5.8802-0.21337zm61.708-7.4554c-0.29246-0.47323 1.2942-7.2746 1.8233-7.8162 0.46818-0.47909 3.304 0.63349 3.304 1.2963 0 0.66569 1.6416 2.1239 2.3911 2.1239 0.37639 0 1.4556-1.1902 2.3981-2.6448 1.4791-2.2826 2.0248-2.6945 3.9842-3.0079 1.2487-0.19963 2.5455-0.73922 2.8817-1.1991 0.38301-0.52379 2.3652-1.095 5.3076-1.5297l4.6963-0.6936 2.8056-3.0698c3.4314-3.7544 4.7372-4.1788 7.4551-2.4227 1.1121 0.71854 3.5128 1.6041 5.335 1.9678 2.7823 0.55539 3.685 0.53014 5.6347-0.15782 3.0612-1.08 3.2712-1.0481 3.2712 0.4968 0 1.6553-2.4701 4.161-5.991 6.0773-1.4839 0.8077-2.698 1.6839-2.698 1.9472 0 0.26334-0.97234 0.42142-2.1607 0.35131-1.5831-0.0935-2.4922 0.18389-3.4007 1.0374-1.3122 1.2328-6.5993 2.8476-9.3232 2.8476-1.442 0-4.8248 0.88357-13.547 3.5384-1.6929 0.51526-3.6359 0.68649-5.4307 0.4786-1.537-0.17801-4.0832-0.0873-5.6581 0.20154-1.5749 0.28891-2.9602 0.36879-3.0784 0.17747zm-97.136-24.917c-1.1266-1.2449-2.5487-4.6425-2.5487-6.0892 0-1.641 1.3856-1.9001 3.071-0.57428 1.6447 1.2938 3.2157 1.1796 6.9757-0.50694 6.4695-2.9019 9.9458-4.3237 11.404-4.6646 2.6014-0.60793 4.7285-1.8246 7.0599-4.038 1.7998-1.7088 2.8706-2.2072 6.2453-2.9073 2.2402-0.46472 5.9059-0.91526 8.146-1.0012l4.073-0.15628 0.369 4.073c0.21101 2.3292 0.15287 4.2939-0.1358 4.589-0.31857 0.3256-1.6688 0.27552-3.6601-0.13577-1.7354-0.35844-4.3857-0.65171-5.8895-0.65171-3.4218 0-4.567 1.0728-4.4459 4.1646 0.047 1.1984-0.0898 2.4622-0.30384 2.8086-0.47609 0.77033-2.4974 0.8405-2.4974 0.0867 0-0.84773-3.1526-0.6374-4.5931 0.30643-0.71307 0.46722-2.7206 0.97738-4.4612 1.1337-1.7406 0.1563-4.7134 0.77854-6.6062 1.3828-3.3306 1.0632-3.4996 1.0674-5.2438 0.12801-1.728-0.93055-1.863-0.93077-3.2764-5e-3 -0.81076 0.53122-1.5954 1.4298-1.7437 1.9967-0.33623 1.2858-0.81643 1.3008-1.9388 0.0606zm263.46-7.04c3.5474-4.0634 8.0924-8.3777 10.143-9.6286l1.6292-0.9936-1.0861 1.2857c-2.0523 2.4295-12.47 12.459-12.941 12.459-0.25931 0 0.7553-1.4052 2.2547-3.1226zm-150.11-13.127c-0.92213-0.22687-1.9806-0.60035-2.352-0.82994-1.3865-0.85692 0.92237-5.5748 3.3876-6.922 1.8769-1.0257 7.5988-1.7447 18.562-2.3325 3.2856-0.17616 7.0734-0.41458 8.4175-0.52982 1.3441-0.11525 5.6207-0.36479 9.5037-0.55454 13.333-0.65159 13.785-0.51485 12.702 3.8437-0.61201 2.4618-2.8322 6.7393-3.4979 6.7393-0.1575 0-1.2444-0.48876-2.4154-1.0861-2.8842-1.4714-5.6498-1.3792-8.4861 0.28298-2.1438 1.2564-2.6397 1.3334-6.0214 0.93529-3.5668-0.41989-21.639-0.0209-25.985 0.57362-1.1761 0.1609-2.8928 0.10693-3.8149-0.11994zm-125.25-9.1391c-0.6326-1.7556-0.73894-2.6449-0.33293-2.784 0.3281-0.11241 1.5565-1.136 2.7298-2.2746 3.6834-3.5746 6.6825-4.9978 11.134-5.2835 3.3144-0.2127 4.0056-0.10985 4.2929 0.63876 0.51464 1.3411-0.65154 2.3836-4.8953 4.3759-2.1144 0.99269-4.7571 2.628-5.8726 3.634-2.8044 2.5291-5.1163 4.2729-5.6649 4.2729-0.25381 0-0.87973-1.1608-1.391-2.5796zm286.46-1.6052c-0.67205-0.12945-1.2219-0.58493-1.2219-1.0122 0-0.42726-0.24438-0.77683-0.54306-0.77683-0.96894 0-0.57441-1.0311 0.64397-1.6832 1.028-0.55014 1.3555-0.43945 2.4438 0.82577 0.69121 0.80359 1.2568 1.814 1.2568 2.2454 0 0.78725-0.31791 0.83668-2.5796 0.40107zm-402.28-0.67525c-0.59737-0.26107-2.8192-0.34149-4.9375-0.17872-3.285 0.25243-3.9031 0.1611-4.2032-0.6211-0.71-1.8502 2.6669-2.5238 12.166-2.4265 8.0432 0.0824 8.7349 0.16893 9.2648 1.1591 0.31497 0.58852 0.36674 1.2603 0.11506 1.4928-0.68777 0.63532-11.157 1.1201-12.405 0.57444zm279.14-19.521c-5.5884-2.5875-10.648-3.5204-16.288-3.0031-2.6903 0.24672-5.9912 0.44417-7.3353 0.43877-4.4145-0.0178-12.365-1.2019-14.103-2.1003-1.2094-0.62539-2.3815-0.77969-4.037-0.53143-4.0557 0.60819-10.704-2.3554-16.034-7.1478-2.9719-2.672-3.3467-3.8447-1.7038-5.3314 0.84948-0.76877 2.1686-0.96722 6.8771-1.0345l5.826-0.0833 0.42294 1.5518c1.0235 3.7554 3.9053 4.9068 7.0585 2.8201 2.505-1.6578 3.2189-1.6989 6.1297-0.35343 4.1142 1.9017 8.7356 2.9604 9.9907 2.2886 1.3049-0.69836 11.616-0.8235 13.021-0.15802 0.51865 0.24578 2.5236 1.2624 4.4554 2.2591 3.2131 1.6578 4.0925 1.848 10.318 2.2328 3.7705 0.23302 7.6535 0.20609 8.7066-0.0604 9.0373-2.2868 9.0643-2.2911 10.306-1.6264 1.0393 0.55622 1.1839 0.97645 0.946 2.7499-0.15442 1.1513-0.77843 2.7922-1.3867 3.6464-1.0098 1.4182-1.5691 1.6147-6.4361 2.2624-2.9316 0.39007-6.7277 1.1689-8.4357 1.7307-3.9467 1.2982-4.3667 1.2703-8.2989-0.55035zm118.33-2.5409c-0.45781-1.824 0.0375-2.2458 3.7798-3.2206 3.6635-0.95422 5.3536-1.0242 6.1242-0.25371 0.38325 0.38324 1.0576 0.29893 2.1451-0.26819 2.2682-1.1828 4.4122-1.063 5.1346 0.28701 0.86826 1.6223-0.1457 2.5624-3.1856 2.9536-1.3943 0.17943-4.2007 0.58277-6.2365 0.8963-3.3022 0.50858-3.7764 0.46733-4.3979-0.38259-0.75443-1.0318-1.9475-0.66235-1.9475 0.60301 0 1.3206-1.0442 0.86723-1.4162-0.61488zm-292.88-1.1823c-0.75934-0.62093-1.3154-1.9307-1.6046-3.7794l-0.44258-2.8291 2.2234 0.30348c3.3956 0.46346 8.4405-0.66027 10.099-2.2496 0.77858-0.74592 1.7724-1.3562 2.2085-1.3562s1.7048-0.48876 2.8194-1.0861c1.1146-0.59737 2.4618-1.0861 2.9938-1.0861 0.53199 0 1.4493-0.33535 2.0385-0.74521 2.1066-1.4655 4.2304-1.5327 7.0694-0.22386 1.48 0.68233 3.5462 1.2736 4.5916 1.3138 1.0454 0.0403 5.6886 0.24111 10.318 0.44633 12.059 0.5345 22.787 0.64441 23.441 0.24015 0.30949-0.19127 0.72971-1.1643 0.93383-2.1624 0.32017-1.5655 0.65669-1.8739 2.4512-2.2468 2.779-0.57738 6.3013 0.36478 6.3013 1.6855 0 1.0386-1.5988 2.7786-2.5532 2.7786-0.3118 0-1.6349 1.1608-2.9402 2.5796-3.5831 3.8945-7.2072 5.908-14.057 7.81-2.911 0.80832-16.236 0.74525-22.266-0.10539-2.2402-0.31602-6.7612-0.77994-10.047-1.0309-3.2856-0.25099-6.9022-0.73982-8.0371-1.0863-2.7113-0.82775-7.1869 0.0369-11.318 2.1864-2.95 1.5352-3.1054 1.5588-4.2247 0.64352zm-144.44-6.9743c-2.9853-2.684-3.3783-3.4796-1.7187-3.4796 0.58043 0 1.4045-0.49849 1.8312-1.1078s3.2348-3.6409 6.2402-6.737c4.9736-5.1237 7.7384-8.5735 13.903-17.349 2.7005-3.8438 12.825-11.735 15.056-11.735 0.42533 0 1.2855-0.35873 1.9114-0.79718 0.62597-0.43844 2.1259-0.95513 3.3332-1.1482 2.0636-0.32998 2.2488-0.24719 3.0911 1.3816 0.81882 1.5834 0.82213 1.8453 0.0384 3.0414-0.47163 0.71979-1.5262 1.7303-2.3434 2.2455-0.81723 0.51524-3.5881 2.5966-6.1576 4.6252-5.0579 3.9932-8.8142 8.0664-12.163 13.189-2.0092 3.0735-18.815 20.365-19.793 20.365-0.25043 0-1.7037-1.1224-3.2294-2.4941zm30.634-7.2651c-0.97167-1.5722 4.7178-7.9829 8.6146-9.7066 3.909-1.7291 5.5235-1.542 6.7458 0.78187 0.93702 1.7815-0.36739 3.073-6.5001 6.4358-5.2034 2.8532-8.1275 3.6746-8.8603 2.489zm407.02-2.8672c0-1.8371 1.4124-8.2195 2.1056-9.5147 0.95237-1.7795 5.0789-4.9114 7.7168-5.8566 1.8753-0.67199 3.523-0.78074 7.5751-0.49997 5.4637 0.37858 8.0919-0.14254 21.975-4.3572 2.3895-0.72541 5.4442-1.4835 6.7883-1.6846 1.3441-0.2011 2.8769-0.58804 3.4063-0.85985 0.52939-0.27181 4.6838-0.71274 9.2322-0.97983 4.5483-0.2671 9.0239-0.6447 9.9457-0.83912 1.089-0.22967 1.945-0.0982 2.4438 0.37546 0.45601 0.43296 2.3 0.78386 4.5416 0.86421 2.0756 0.0744 3.974 0.33542 4.2186 0.58005 0.2446 0.24462-0.48415 1.1913-1.6195 2.1036-1.9774 1.5891-5.2887 2.7053-9.3598 3.1552-5.7641 0.63695-12.069 1.8051-22.086 4.0923-1.2455 0.28435-4.5268 1.6181-7.292 2.964-2.7652 1.3458-5.4527 2.447-5.9723 2.447-0.5196 0-2.1258 0.51054-3.5694 1.1345-1.4435 0.624-4.0909 1.4546-5.883 1.8457-3.7846 0.82601-11.624 2.9416-18.119 4.8896-5.5678 1.67-6.048 1.6812-6.048 0.1402zm-102.46-2.6121c-0.65038-0.66804-2.2366-1.3924-3.5299-1.612-1.2918-0.21935-4.1817-0.80669-6.4218-1.3052-5.7645-1.2828-9.4065-1.2607-14.211 0.0863-3.9564 1.1091-4.4179 1.1293-9.2321 0.40293-2.7872-0.4205-6.5815-1.3595-8.4319-2.0867-2.7428-1.0779-4.2987-1.3166-8.4208-1.292-4.8782 0.0292-5.147-0.0337-7.6283-1.7827-1.4146-0.99708-2.6955-2.1949-2.8465-2.6618-0.151-0.46691-1.0063-1.2641-1.9006-1.7715-2.0709-1.1749-3.7328-4.4546-2.9183-5.7593 0.31627-0.50661 1.4671-1.1474 2.5574-1.424 1.6977-0.43065 2.163-0.33317 3.2402 0.67883 0.69181 0.64993 1.5528 1.1817 1.9133 1.1817 0.3605 0 0.92378 0.58889 1.2517 1.3086 0.35912 0.78819 1.5424 1.67 2.9752 2.2172 2.2496 0.85915 2.5192 0.85443 4.9585-0.0867 2.1863-0.84355 4.1527-0.99141 12.898-0.96987 5.675 0.014 12.762 0.32441 15.749 0.68982 11.649 1.4251 14.702 1.9362 15.734 2.6337 0.58916 0.39821 1.609 0.72403 2.2664 0.72403s1.886 0.56731 2.7303 1.2607c2.3443 1.9252 9.8787 5.7992 11.279 5.7992 0.6835 0 1.8938-0.51215 2.6896-1.1381 2.0808-1.6367 3.1823-1.0625 2.3965 1.2493-1.177 3.4626-1.8142 3.9559-5.2023 4.0279-1.7108 0.0363-4.8213 0.24084-6.9121 0.45445-3.4923 0.35679-3.8975 0.28972-4.9826-0.82481zm-165.78-1.9565c-1.2065-0.52566-2.9398-0.73419-4.8876-0.58804-3.6716 0.2755-11.794-0.54305-13.472-1.3578-0.67204-0.32617-1.2219-0.91268-1.2219-1.3034 0-1.1538 2.6757-2.5683 5.6484-2.9859 4.6204-0.64906 7.0555-1.3099 8.6309-2.3421 1.175-0.76988 2.118-0.91249 4.3366-0.65583 3.3087 0.38276 9.9124-0.44755 11.506-1.4467 1.6303-1.0222 4.8743-1.8251 10.042-2.4852 3.7772-0.48253 4.7894-0.82013 5.7022-1.902 1.8474-2.1894 4.2293-3.0374 8.5318-3.0374 4.5786 0 8.5984 1.269 8.5984 2.7144 0 1.0764-2.542 4.4402-4.5478 6.018-0.74896 0.58913-1.4966 1.4962-1.6615 2.0156-0.16487 0.51947-1.723 1.7269-3.4624 2.6832-2.4904 1.3691-3.57 1.6726-5.0789 1.4277-1.2834-0.20826-2.5262 4e-3 -3.7633 0.64419-1.3701 0.70851-3.881 1.0589-9.7235 1.3568-5.2493 0.26769-8.5499 0.6928-9.8955 1.2745-2.3974 1.0364-2.8386 1.0339-5.2811-0.0302zm176.47-13.819c-1.0454-0.62762-2.4245-1.6223-3.0646-2.2104s-1.8983-1.4788-2.796-1.9795c-3.2026-1.786-6.1438-3.9565-6.4528-4.7618-0.17272-0.45008-1.1691-1.3994-2.2143-2.1096s-3.1527-2.4825-4.6834-3.9385-3.5699-3.1957-4.5315-3.8661c-0.96157-0.67038-2.4408-1.8796-3.2872-2.6872-0.84637-0.80757-2.2549-1.9571-3.13-2.5544-3.0186-2.0605-4.0534-3.4098-4.0534-5.2852 0-2.2174-1.3196-4.2185-2.7818-4.2185-0.60007 0-1.5794-0.26134-2.1762-0.58075-0.80176-0.42909-1.3038-0.3993-1.9223 0.11405-0.73688 0.61156-0.65227 0.84224 0.70625 1.9255l1.5434 1.2307-3.7942 3.6065c-2.0868 1.9836-5.3844 5.1663-7.328 7.0728-3.7007 3.63-5.0154 4.1637-5.9508 2.4159-1.0683-1.9961-0.67075-8.7112 0.78977-13.341 0.75382-2.3895 1.6186-5.3675 1.9216-6.6179 0.51459-2.1229 0.75696-2.3503 3.6621-3.4356 5.2396-1.9575 6.2601-3.857 3.7041-6.8947l-1.3077-1.5541 0.7984-6.4978c0.72903-5.9332 0.72123-6.6289-0.0897-8.0066-1.0567-1.7951-0.74522-3.7906 1.1914-7.6333 1.0138-2.0117 1.5376-2.5422 2.2411-2.27 2.0962 0.81118 3.9476 0.91983 4.7221 0.27711 0.76763-0.63708 3.0931-0.79659 6.2427-0.42822 1.1239 0.13145 1.3872-0.0973 1.5289-1.3287 0.19595-1.702 1.9231-3.1286 3.7877-3.1286 0.70041 0 2.5928-1.0748 4.2054-2.3884 2.5099-2.0446 3.4155-2.4445 6.291-2.7782 5.5832-0.648 11.365-0.23454 12.791 0.91462 0.40783 0.32871 1.0178 0.27456 1.699-0.15082 1.496-0.93425 4.9124 0.83443 7.4281 3.8455 1.5194 1.8186 1.8027 2.4792 1.315 3.0668-0.80242 0.96686-2.3238 0.95108-4.2481-0.044-0.84336-0.43612-1.6255-0.70403-1.738-0.59537s-2.0375 0.32225-4.2776 0.47464c-2.779 0.18904-5.0412 0.72496-7.1203 1.6868-2.17 1.0039-4.0462 1.4313-6.5168 1.4846-4.3408 0.0937-5.3702 0.59216-5.3702 2.6005 0 0.85894-0.4856 3.1108-1.0791 5.0043-0.59352 1.8934-1.0823 4.4354-1.0861 5.649-6e-3 1.7518-0.35159 2.5351-1.6795 3.8015-2.2267 2.1236-6.1725 8.1561-6.9836 10.677-0.60709 1.8867-0.51971 2.271 1.3067 5.7466 1.4756 2.808 2.4249 3.9477 3.8572 4.6307 1.045 0.4983 2.2244 0.90601 2.621 0.90601 1.5472 0 8.1018 3.3993 11.27 5.8446 8.203 6.3322 9.3944 7.111 11.781 7.7016 1.3918 0.3444 3.3488 0.88327 4.349 1.1975 1.8571 0.58343 6.3131 3.3618 6.8908 4.2965 0.66051 1.0687 3.7728 2.2639 5.8216 2.2356 1.7937-0.0248 2.0612 0.11301 1.7237 0.88765-0.21976 0.50432-0.51701 1.7723-0.66057 2.8177-0.14355 1.0454-0.71727 2.4836-1.2749 3.1959-0.55765 0.71233-1.016 1.6898-1.0186 2.1723-3e-3 0.48242-0.87331 1.7936-1.9349 2.9136-1.8822 1.9859-2.0272 2.0364-5.8333 2.0345-2.9981-2e-3 -4.3437-0.26661-5.8038-1.1432zm-217.62-5.3667c-1.1342-1.3246-2.7934-5.3101-2.8347-6.809-0.0181-0.65918 1.3332-2.4406 3.3638-4.4344 3.9136-3.8425 5.6654-4.503 11.956-4.5075 3.6826-3e-3 4.5843-0.21032 7.1154-1.6388 1.6128-0.91022 5.0508-2.1055 7.7509-2.6948 2.6688-0.58248 5.8004-1.4552 6.9591-1.9393 2.9434-1.2298 10.072-8.5106 10.072-10.287 0-1.3768-0.73826-1.8233-1.3577-0.82108-0.50726 0.82077-1.3577 0.65069-1.3577-0.27153 0-0.44804 0.24746-0.81461 0.54992-0.81461 0.30245 0 1.1748-1.4052 1.9384-3.1226 2.0295-4.564 1.524-6.8782-4.1221-18.872-0.56245-1.1948-1.1496-3.4811-1.3049-5.0809s-0.53457-3.2127-0.843-3.5843c-0.62025-0.74735-8.887-1.6319-13.597-1.4548-3.3896 0.12743-7.6029-0.92638-7.6029-1.9016 0-3.2968 6.3081-5.6567 14.99-5.6078 1.3504 8e-3 2.4996-0.31477 2.9176-0.81845 0.92404-1.1134 1.1854-1.0702 4.0117 0.66246 1.9711 1.2084 2.5482 1.9306 3.0239 3.7842 0.88263 3.4392 4.3824 4.716 4.3824 1.5988 0-1.0846 0.34226-1.3602 2.0365-1.6403 3.0116-0.49778 5.0234-0.41989 5.0234 0.1945 0 0.29868 0.58103 0.54306 1.2912 0.54306 1.6398 0 2.2027 0.73914 2.975 3.9062 0.78272 3.2099 0.79718 7.3751 0.0332 9.5666-0.45614 1.3085-0.39516 2.3516 0.27153 4.6449 1.5759 5.4208 1.0194 7.0789-3.349 9.9786-1.4076 0.93433-1.6279 3.1295-0.36289 3.615 0.47246 0.1813 1.6909 0.32963 2.7076 0.32963 1.5352 0 2.0766 0.34532 3.1929 2.0365 0.73933 1.1201 1.7268 3.1241 2.1943 4.4533 0.46751 1.3293 1.1807 2.7956 1.5848 3.2584 1.7614 2.0173 2.6782 4.8959 3.1188 9.7929 0.25579 2.8426 0.61231 6.207 0.79226 7.4764 0.28734 2.0268 0.2003 2.308-0.71436 2.308-1.4792 0-3.5935-2.4586-5.3503-6.2218-0.83062-1.7792-2.0795-4.0738-2.7753-5.0992s-1.2651-2.3015-1.2651-2.8358c0-1.1683-1.5192-2.8105-2.2068-2.3855-0.26949 0.16656-1.5994 2.0179-2.9554 4.114-2.0458 3.1624-2.9024 3.9943-5.0327 4.8869-3.4647 1.4518-5.3905 2.4068-8.1476 4.0404-1.9272 1.1419-3.2659 1.4309-7.8745 1.6998-3.7923 0.22132-6.1913 0.64425-7.5674 1.3341-1.1082 0.55553-2.5302 1.01-3.1599 1.01-0.62979 0-3.7537 0.86373-6.942 1.9194-4.2411 1.4042-6.308 2.4073-7.7014 3.7372-1.7445 1.6651-3.8139 3.0324-4.5895 3.0324-0.1719 0-0.72914-0.48655-1.2383-1.0812zm344.46-10.283c-1.3942-1.5405-1.9223-4.6659-1.366-8.0838 0.65385-4.0175 0.203-4.5095-3.747-4.0889-1.6879 0.17972-3.6188 0.29499-4.2908 0.25616-0.67204-0.0388-2.2696-0.13171-3.5501-0.20639-1.8063-0.10532-3.3587 0.36958-6.9241 2.1182-7.6051 3.7297-9.7999 3.3245-8.9559-1.6534 0.57657-3.4007 0.85381-6.2026 1.0267-10.376 0.25579-6.1746 1.1936-7.491 5.8449-8.2042 1.3068-0.2004 3.036-0.69694 3.8425-1.1034 1.9197-0.96749 4.4773-0.9421 5.3029 0.0527 0.36141 0.43544 0.6968 2.4516 0.74535 4.4803l0.0883 3.6886 2.4438 0.0336c1.3441 0.0185 2.9776 0.32394 3.63 0.67883 1.7617 0.9583 3.5636 0.79538 7.8792-0.71242 5.0185-1.7534 6.3993-1.7255 8.2111 0.16548 2.4537 2.5612 2.0489 4.5422-2.0707 10.132-2.6726 3.6264-3.5505 5.2659-3.6148 6.7498-0.0467 1.078-0.11621 2.6157-0.15455 3.4171-0.0741 1.5498-1.6715 3.702-2.7475 3.702-0.35544 0-1.0724-0.47089-1.5932-1.0464zm-462.46-0.82225c0-0.4304 0.24787-0.93575 0.55082-1.123 0.30296-0.18724 1.0713-1.3625 1.7074-2.6116 0.6361-1.2492 1.62-2.5974 2.1865-2.9962 0.67165-0.4728 0.91514-1.0866 0.69998-1.7646-0.24889-0.78416 0.0311-1.1768 1.1395-1.5982 0.8082-0.30727 1.6016-0.42659 1.763-0.26513 0.46746 0.46746-1.2532 3.688-4.0408 7.5629-2.4533 3.4103-4.0064 4.4941-4.0064 2.7958zm5.7884-14.269c-0.16821-1.0365-0.94527-2.723-1.7268-3.7476-2.7359-3.587-2.6165-3.6234 11.731-3.5728 8.4222 0.0297 13.276 0.25957 14.18 0.67151 0.75606 0.34449 1.7791 1.4745 2.2735 2.5112 0.84106 1.7637 0.83838 1.9873-0.0417 3.4771-1.073 1.8164-1.5831 1.8911-5.273 0.77174-1.7862-0.54189-5.0462-0.80873-9.8802-0.80873-6.3709 0-7.2973 0.1162-7.9239 0.99401-0.39029 0.54672-1.2324 1.1277-1.8713 1.2911-0.98536 0.25197-1.2081 0.0111-1.4675-1.5876zm101.58-0.0187c-1.4889-3.503-1.6072-4.4641-0.71629-5.8237 0.91885-1.4023 9.03-5.7165 10.748-5.7165 1.6368 0 3.1598 1.0194 3.1598 2.115 0 1.6188-3.2896 5.2518-6.9702 7.6977-1.8922 1.2574-3.5679 2.6187-3.7238 3.0251-0.51525 1.3427-1.6186 0.76938-2.4972-1.2976zm251.87-8.2878c-11.785-2.0051-12.89-2.9767-9.2092-8.0997 1.6264-2.2639 2.4865-2.8883 5.5664-4.0415 2.0035-0.75013 4.3148-1.5055 5.1362-1.6786 2.6314-0.55442 1.9337-2.2662-1.6161-3.965-3.5315-1.6901-5.1321-3.8483-4.6542-6.2757l0.30106-1.5292 3.444 0.36882c3.6494 0.39081 3.3393 0.51342 7.6764-3.0349 0.5188-0.42445 0.33971-1.142-0.79013-3.1656-1.3341-2.3895-1.4053-2.8027-0.81977-4.757 0.48494-1.6186 1.2395-2.5184 3.0958-3.6917 3.3397-2.111 3.5638-2.4602 4.4018-6.8582 0.717-3.763 0.8216-3.9311 5.0474-8.1117 2.3734-2.348 5.055-4.6516 5.9593-5.1193 1.499-0.77518 1.7216-0.77275 2.5219 0.0275 1.0052 1.0052 0.76176 2.8214-0.85544 6.3826-0.55833 1.2294-1.0258 2.9684-1.0389 3.8645-0.0261 1.7901-1.7102 5.8956-2.6588 6.4818-0.32975 0.20382-0.5996 0.91824-0.5996 1.5876s-0.22705 1.4492-0.50456 1.7329c-0.87283 0.89252-6.5934 13.942-7.606 17.351-0.53239 1.7921-1.7082 4.7247-2.6129 6.5168-0.90471 1.7921-2.0162 4.4803-2.4701 5.9737-1.1621 3.8242-2.8534 7.3638-4.3033 9.0066-1.0833 1.2274-1.5117 1.3573-3.4112 1.0341zm-440.2-3.1742c-1.0237-0.89971-2.8998-2.5357-4.1692-3.6355-1.2694-1.0998-2.308-2.162-2.308-2.3605 0-0.53778 2.7188-1.527 10.861-3.9517 11.774-3.5062 15.892-4.6546 18.002-5.021 1.09-0.18923 2.8509-0.93378 3.913-1.6546 1.0621-0.72077 4.6913-2.8407 8.0649-4.711 3.3736-1.8703 6.9556-4.1013 7.9601-4.9578 1.5413-1.3142 2.1387-1.5045 3.827-1.2193 1.5096 0.25505 2.3275 0.084 3.3327-0.69705 0.99274-0.77134 2.6466-1.1275 6.4913-1.3979 5.7697-0.40575 4.985 0.10084 10.203-6.5866 2.9345-3.7611 6.2557-6.7877 7.4485-6.7877 0.36668 0 1.288-0.48876 2.0475-1.0861 1.4736-1.1592 2.8515-1.401 3.3536-0.58864 0.56947 0.92143-0.67429 3.1064-3.7624 6.6094-1.6887 1.9156-3.6398 4.5859-4.3358 5.934-1.4541 2.8164-6.7416 9.6765-9.4937 12.317-1.1977 1.1492-2.4124 1.7953-3.3753 1.7953-0.8753 0-2.25 0.64786-3.288 1.5496-2.4234 2.1051-3.8508 2.795-6.8434 3.3073-2.865 0.49053-7.0718 1.4812-9.8022 2.3082-2.1907 0.66361-4.4172-0.26773-4.4172-1.8477 0-0.55873 0.9953-1.9915 2.2118-3.1839 2.2624-2.2176 2.4485-3.0024 0.93767-3.9554-0.65013-0.41009-1.6937-0.0198-4.2931 1.6056-2.8443 1.7786-3.5001 2.4698-3.818 4.0243-0.51693 2.5275-1.6651 3.4085-11.681 8.9635-11.047 6.127-10.976 6.0918-13.266 6.5096-1.6554 0.30199-2.2136 0.11376-3.8015-1.2819zm105.39-0.12391c-10.116-4.085-12.157-5.5729-13.045-9.5064-0.33985-1.5068-0.21584-1.822 0.92079-2.3398 2.0009-0.91169 2.8365-0.74709 5.7729 1.1372 2.0051 1.2867 3.3521 1.7433 5.2067 1.765 2.102 0.0246 2.5018-0.13486 2.5018-0.99769 0-0.56483-0.36657-1.204-0.8146-1.4205-0.44803-0.21644-2.225-1.0372-3.9488-1.8239-1.9304-0.88097-3.3648-1.9366-3.7346-2.7482-0.76005-1.6681-0.17846-4.1133 0.97833-4.1133 0.48246 0 3.166 1.0842 5.9634 2.4094 4.9675 2.3532 5.0862 2.453 5.0862 4.2783 0 1.3155-0.34908 2.1007-1.1788 2.6517-1.9252 1.2783-0.75896 2.2329 2.3615 1.9331 2.4918-0.23943 2.7236-0.15441 3.4594 1.2684 1.3464 2.6036 1.1277 3.1532-3.2751 8.2315-1.0852 1.2518-1.4712 1.207-6.2546-0.72462zm519.42 0.0962c-0.28375-0.27099-2.1044-1.1419-4.0458-1.9354-1.9415-0.79349-5.6072-2.3751-8.146-3.5146-2.5388-1.1395-5.9304-2.6467-7.5368-3.3492-1.6064-0.7025-3.2923-1.8443-3.7464-2.5372-0.45406-0.69297-1.5224-1.6203-2.3741-2.0607-1.7788-0.91987-1.9509-1.7054-0.59819-2.7322 1.4839-1.1264 3.4933-0.90499 10.901 1.2012 5.1809 1.473 8.5635 2.0739 13.672 2.429 5.9413 0.41297 14.014 1.4751 14.588 1.9193 0.42251 0.32709-6.3084 7.4721-8.6872 9.2217-2.6697 1.9635-3.2046 2.1439-4.0274 1.3582zm-444.57-6.1626c-1.7365-1.4575-3.6306-5.7561-4.1528-9.4248-0.31424-2.2076-0.58564-2.6853-1.6084-2.831-1.9411-0.27654-3.0776-2.5377-2.9391-5.8476 0.0663-1.5843-0.2457-3.9321-0.69332-5.2172-0.44763-1.2851-0.81743-3.0564-0.82178-3.9361-4e-3 -0.90817-0.55548-2.1991-1.2748-2.9869-1.2658-1.3862-3.6207-6.5741-3.6207-7.9766 0-0.41942 0.5615-0.74218 1.2912-0.74218 2.4815 0 2.7517-1.162 1.4535-6.2516-1.3092-5.1327-1.1349-6.5951 0.87724-7.3601 1.6892-0.64223 4.6109 0.61543 5.8606 2.5227 0.47139 0.71942 1.6465 1.64 2.6114 2.0457s2.7802 1.7671 4.0341 3.0254l2.2798 2.2877 7.6122-0.75009 0.96478 2.0232 0.96478 2.0232-2.3845 4.4899c-2.5388 4.7805-2.6 5.9357-0.3595 6.7875 1.5561 0.59161 2.4907 2.0974 2.4907 4.0126 0 1.0156-0.61252 1.732-2.4681 2.8868-4.1374 2.5749-4.7996 3.1981-4.4279 4.1667 0.29834 0.77746 1.3715 0.89919 7.928 0.89919h7.583l1.1787 1.6553c0.91989 1.2919 1.0988 2.0809 0.81496 3.594-0.64105 3.4171-2.1791 4.3553-18.637 11.369-2.3788 1.0137-2.8531 0.96535-4.5568-0.46462zm337.04-0.8119c-0.17829-0.82139-0.59129-2.0442-0.91778-2.7173-0.49436-1.0192-0.38341-1.4476 0.6633-2.5618 1.4149-1.5061 2.1353-6.0227 1.2211-7.6562-0.66173-1.1825 0.49881-4.0843 2.5372-6.3436 2.7469-3.0448 7.1179-1.1786 7.1179 3.0389 0 2.2795 0.91278 2.9492 2.7093 1.9877 1.7824-0.95386 3.8075 0.57474 3.8075 2.8739 0 1.3879-0.5031 2.2281-2.35 3.9247-4.4578 4.0951-12.045 8.9471-13.991 8.9471-0.26034 0-0.61925-0.67205-0.79749-1.4934zm71.491-2.0946c-0.9785-0.41144-2.7238-1.4963-3.8784-2.4107-1.8533-1.4678-2.4676-1.6496-5.2426-1.5514-3.5545 0.12583-5.5734-0.36949-6.4627-1.5856-0.5145-0.70363-0.86206-0.72642-2.2583-0.14806-2.2203 0.91969-3.5054 0.19344-7.5964-4.2929-4.089-4.4842-4.428-5.1588-5.2842-10.513-1.0671-6.6729 0.0632-11.784 2.5926-11.724 0.91767 0.0218 1.6067 0.82645 2.9065 3.3942 1.9646 3.8809 3.2147 4.435 5.1929 2.3016 1.061-1.1443 1.61-1.3349 3.0281-1.0513 1.4514 0.29027 1.9539 0.83093 3.1007 3.3359 0.89291 1.9504 2.7366 4.3349 5.3045 6.8604 2.1647 2.129 4.4159 4.8122 5.0026 5.9625 1.0889 2.135 4.4959 5.4436 6.6449 6.453 1.1824 0.5554 2.5677 3.3972 2.0581 4.2219-0.67324 1.0893-3.3603 1.4826-5.1082 0.74764zm-482.44-14.949c-0.51499-0.2882-0.93634-1.1228-0.93634-1.8547 0-1.1788-0.23563-1.3307-2.0637-1.3307-1.135 0-2.3171 0.25346-2.6269 0.56325-0.78332 0.78332-3.2301-0.21353-3.9846-1.6234-0.4249-0.79393-0.42888-1.4229-0.0139-2.1983 0.68408-1.2782 2.0356-1.3816 4.1648-0.31852 0.8456 0.42219 3.0037 1.2179 4.7958 1.7683 3.0141 0.92563 3.271 1.13 3.4259 2.7262 0.1951 2.01-1.1896 3.1472-2.7611 2.2678zm-110.56-9.0258c-0.33793-0.63143-0.61442-2.0355-0.61442-3.1202s-0.28026-2.4958-0.6228-3.1359c-0.74676-1.3953-2.6606-3.0662-3.5407-3.0914-0.34845-0.01-1.0832-0.63532-1.6327-1.3897-0.7459-1.024-2.375-1.7847-6.4263-3.001-2.9849-0.89615-6.5834-2.2339-7.9967-2.9729-1.4133-0.73894-3.1621-1.3435-3.8864-1.3435-1.0421 0-1.2585-0.22285-1.0374-1.0683 0.52903-2.023 1.4934-2.3206 4.5648-1.4085 6.5844 1.9554 20.578-0.20701 20.578-3.1798 0-0.83666 1.155-1.4032 2.8605-1.4032 0.62836 0 1.6613-0.4874 2.2954-1.0831 0.63411-0.59571 2.2903-1.2956 3.6805-1.5553 1.3902-0.25971 4.2775-1.5118 6.4163-2.7824 2.1388-1.2706 5.1415-2.7508 6.6728-3.2892 2.0406-0.71751 3.0741-1.4671 3.8702-2.8072 2.4166-4.0677 4.9476-7.4721 5.9737-8.035 0.59737-0.32771 2.0637-1.9635 3.2584-3.635 1.1948-1.6716 3.6386-4.2612 5.4307-5.7548 1.7921-1.4936 3.4144-3.1158 3.605-3.605 0.6997-1.7957 2.2346-2.5249 10.941-5.1977 2.7661-0.84922 5.3172-1.3273 6.0718-1.1379 0.71579 0.17965 1.956 0.0777 2.7562-0.22645 0.95355-0.36254 2.105-0.37352 3.3423-0.0319 2.0839 0.5754 3.3789 0.19718 5.6971-1.664 1.1966-0.96068 2.0936-1.1532 5.0002-1.0732 3.0698 0.0845 3.9614-0.1342 6.6878-1.6402 4.5209-2.4972 5.0465-3.0581 5.0465-5.3846 0-1.117 0.46448-3.584 1.0322-5.4823 1.4962-5.003 1.8096-7.3594 1.1442-8.6029-0.87753-1.6397-1.799-1.3608-5.3967 1.6332-1.8944 1.5766-4.0255 2.8517-5.0516 3.0226-0.97614 0.16264-2.2946 0.39889-2.9298 0.52502-0.63526 0.12612-2.5357 1.9169-4.2232 3.9795-3.4443 4.21-2.1908 3.7471-14.715 5.4333-4.1816 0.56298-9.002 1.5403-10.712 2.1718-1.71 0.63149-3.6424 1.1482-4.2944 1.1482s-2.4298 0.9472-3.9508 2.1049c-1.521 1.1577-3.743 2.7157-4.9378 3.4623-4.6436 2.9018-8.7544 6.5618-11.563 10.295-4.9498 6.5797-9.2804 11.152-10.867 11.472-0.80603 0.1629-2.1376 0.46165-2.9589 0.66392-1.2388 0.30505-1.4934 0.18976-1.4934-0.67619 0-0.57416 0.61095-1.872 1.3577-2.8842s1.3577-2.3878 1.3577-3.057c0-1.9049-0.9766-3.9996-2.0284-4.3506-0.52719-0.17595-2.8602-1.1894-5.1845-2.2521l-4.226-1.9322-7.1784 0.92313c-3.9481 0.50771-8.8407 1.3192-10.872 1.8032-2.8302 0.67428-3.8433 0.73082-4.3323 0.24178-1.1096-1.1096 0.27986-2.3601 4.0268-3.624 6.8747-2.319 10.939-5.9893 9.2318-8.3371-0.34643-0.47647-1.1312-1.966-1.7439-3.3101s-1.7075-2.9326-2.433-3.5299c-1.644-1.3538-2.0083-3.6718-0.62234-3.9598 0.53688-0.11155 1.8036 0.42829 2.8149 1.1996 1.0113 0.77135 2.0704 1.4024 2.3536 1.4024s1.1894 0.88438 2.0138 1.9653c1.843 2.4163 5.3784 4.0465 10.034 4.6269 12.977 1.6177 13.536 1.6418 17.771 0.76585 3.6805-0.76113 4.222-0.76463 5.031-0.0325 0.49864 0.45126 1.1722 0.82047 1.4967 0.82047 0.32454 0 2.0869-1.3929 3.9163-3.0954 2.7668-2.5748 3.9167-3.249 6.8372-4.0089 1.931-0.50241 3.8152-1.165 4.187-1.4725s2.2644-0.84252 4.2059-1.189c4.3382-0.77415 15.403-3.5355 19.862-4.9566 2.7718-0.88349 3.5738-1.442 5.0234-3.4986 0.94875-1.346 1.725-2.8845 1.725-3.419 0-1.5343 1.6552-6.8011 2.3722-7.548 1.0351-1.0784 3.0974 0.64434 2.9652 2.4769-0.0579 0.80216 0.19241 2.0083 0.55621 2.6804 1.3862 2.5607 3.2108 1.0427 4.9391-4.1091 0.63289-1.8866 1.4381-3.8905 1.7894-4.453 0.51133-0.81876 0.43822-1.4345-0.36646-3.0866-0.55286-1.1351-1.4463-3.2466-1.9854-4.6924-1.022-2.7406-2.0253-3.9725-8.4342-10.356-2.1264-2.1179-4.8742-5.5731-6.1062-7.6783-1.232-2.1051-3.0873-4.6488-4.1229-5.6525s-1.7558-2.0306-1.6004-2.282c0.53716-0.86915 2.3137-0.4516 3.9552 0.92957 1.3365 1.1246 1.9988 1.3208 3.5051 1.0382 1.8014-0.33794 1.8796-0.27907 2.6026 1.9586 0.46159 1.4287 1.488 2.904 2.696 3.8749 2.2501 1.8085 12.089 5.3184 14.909 5.3184 3.7316 0 3.1832-3.0054-1.1891-6.5168-2.3802-1.9115-3.4472-3.2982-4.8992-6.3666-1.4657-3.0974-2.68-4.6655-5.7709-7.4525-2.1531-1.9413-5.5031-4.3305-7.4446-5.3093-2.5637-1.2925-3.5299-2.0751-3.5299-2.8591 0-0.8789 0.50445-1.1552 2.7153-1.4872 2.1594-0.3243 3.3825-0.16558 5.9737 0.77516 6.5709 2.3856 10.643 6.2118 16.21 15.232 0.68255 1.1059 1.3553 1.4934 2.5927 1.4934 1.1627 0 2.2103 0.53933 3.444 1.773 1.7472 1.7472 1.7741 1.8505 1.847 7.0966 0.0407 2.928 0.33559 5.8124 0.65533 6.4098 0.31973 0.59744 0.82738 3.9412 1.1281 7.4305 1.1697 13.573 1.4697 16.256 2.2578 20.192 0.44847 2.2402 1.1023 6.7612 1.4529 10.047 0.35061 3.2856 0.84958 7.8066 1.1088 10.047 1.1577 10.004 0.38193 15.443-2.3822 16.702-1.4409 0.65651-5.2313 5.3123-7.29 8.9545-0.68282 1.208-2.9777 4.1635-5.0998 6.5677-2.122 2.4042-4.4395 5.607-5.15 7.1173-2.3038 4.8974-4.7073 8.2823-9.7353 13.711-2.714 2.9301-5.2275 5.8772-5.5855 6.5493-0.77763 1.4596-2.8529 1.6195-4.1525 0.31995-0.69398-0.69397-0.82048-1.4453-0.54859-3.2584 0.33781-2.2526 0.29278-2.3564-1.0221-2.3564-1.7468 0-6.8124 2.227-9.1894 4.04-1.0028 0.76485-2.179 1.3906-2.6137 1.3906-0.43478 0-1.0227 0.23178-1.3064 0.51507-0.60946 0.60845-6.5032 2.2039-8.0972 2.192-0.60929-4e-3 -1.4744-0.25473-1.9224-0.55591-0.68665-0.46158-0.57251-0.74669 0.72672-1.8152 1.0753-0.88439 1.4858-1.6604 1.3577-2.5667-0.15312-1.0831-0.54072-1.3282-2.3312-1.4743-1.1812-0.0964-3.3806 0.18944-4.8876 0.63507s-4.9442 0.94546-7.6382 1.1107-6.8485 0.67369-9.2321 1.1298c-2.3837 0.45612-6.9311 0.82935-10.105 0.8294-3.9679 7e-5 -5.9397 0.21223-6.3099 0.67893-0.29614 0.37336-0.83069 1.9007-1.1879 3.3942-0.35719 1.4934-1.0902 3.5535-1.629 4.5779-0.94524 1.7974-1.0011 1.8224-1.594 0.71454zm36.314-18.595c3.4349-0.59172 9.8915-1.205 14.348-1.3628 7.8944-0.2796 8.2223-0.33946 12.757-2.3294 3.1023-1.3612 4.7194-2.378 4.8486-3.0486 0.16886-0.87682-0.0521-0.95997-1.7195-0.64715-2.0543 0.38539-8.4029-0.41804-10.773-1.3634-0.79577-0.31738-1.746-1.2992-2.1116-2.1818-0.61434-1.4832-0.50708-1.8336 1.4159-4.6256 1.1443-1.6615 2.5833-3.3385 3.1977-3.7266 0.61441-0.38812 3.0864-0.96227 5.4933-1.2759 2.4069-0.31362 6.6375-1.3032 9.4012-2.199 3.8661-1.2531 5.3386-1.5095 6.3847-1.1118 2.1749 0.8269 3.8968 0.62548 4.2532-0.49754 0.1771-0.55798 0.80451-1.4512 1.3943-1.9849 1.2904-1.1678 1.3952-2.7342 0.21325-3.1878-0.47246-0.1813-2.1364-0.32964-3.6977-0.32964-3.5412 0-4.5751-0.76212-4.7835-3.5261-0.16087-2.1338-0.20358-2.1741-2.677-2.5251-2.7432-0.38927-4.8179-1.2956-4.8179-2.1048 0-0.28315-1.2046-1.1252-2.6769-1.8713s-2.8308-1.6055-3.0189-1.9099c-0.59884-0.96895-3.1932-0.59195-5.4371 0.7901-1.1947 0.73587-2.4978 1.3456-2.8956 1.3549-0.39781 9e-3 -3.2082 1.4221-6.2453 3.1396-5.6272 3.1821-10.755 7.6757-12.283 10.764-1.6979 3.4317-3.6208 6.0972-4.9542 6.8676-0.76819 0.44379-1.8837 1.7596-2.479 2.9242s-1.878 3.3693-2.8505 4.8996l-1.7683 2.7824 0.58378 4.1972c0.32108 2.3085 0.71938 4.4166 0.88511 4.6848 0.46047 0.74505 3.1641 0.58425 10.012-0.59551zm623.64 14.994c-1.16-0.64471-1.1587-0.65153 0.72364-3.8486 1.0691-1.8157 2.0936-4.4797 2.3656-6.1514 0.26394-1.6218 1.0078-4.0392 1.653-5.372 1.051-2.1712 1.3214-2.3867 2.5979-2.0717 2.1534 0.5314 2.4162 1.073 1.4385 2.9638-0.49136 0.95021-0.81764 2.3835-0.72505 3.185 0.14348 1.242 0.42485 1.4574 1.9042 1.4574 2.3492 0 3.0671 0.79543 2.3708 2.6269-0.30238 0.79536-0.9224 1.4461-1.3778 1.4461-0.45547 0-0.85403 0.30548-0.8858 0.67884-0.032 0.37336-0.0929 1.1245-0.13577 1.6692-0.0532 0.67817-1.2506 1.4914-3.7975 2.5796-4.069 1.7385-4.4225 1.7868-6.1317 0.83683zm-564.95-0.19739c-4.6231-0.0988-8.1311-0.41107-8.5533-0.76148-0.39368-0.32673-0.71579-1.4314-0.71579-2.4548 0-1.6628 0.24561-1.9723 2.308-2.9084 1.2694-0.57621 3.4077-1.0544 4.7518-1.0626 1.3441-8e-3 3.2991-0.25039 4.3445-0.53814 1.0454-0.28776 3.597-0.65048 5.6702-0.80605 4.5405-0.34071 6.4641 0.52623 6.0119 2.7095-0.15274 0.73759-0.40382 1.9491-0.55794 2.6922-0.26157 1.2611-3.8696 3.7302-4.993 3.4169-0.23591-0.0658-3.9558-0.19496-8.2665-0.28705zm498.88-1.5112c-0.9608-0.84529-2.1842-1.3405-3.3116-1.3405-1.4844 0-2.3779-0.60202-5.2646-3.5472-3.8007-3.8778-5.5146-4.4044-5.8171-1.7874-0.0924 0.79954-0.48039 1.713-0.86228 2.0299-0.79907 0.66319-1.4972 0.0518-4.2878-3.7551-0.98528-1.3441-2.4462-2.7597-3.2464-3.1458-0.80026-0.38607-2.6219-2.061-4.0482-3.7221-1.4262-1.6611-3.5828-4.1697-4.7924-5.5747-1.2096-1.405-2.7858-3.5179-3.5027-4.6954-0.7169-1.1775-2.7439-3.6072-4.5044-5.3993s-3.4833-3.5512-3.8287-3.9091c-0.34528-0.35791-2.1633-1.7686-4.04-3.1348-3.6819-2.6804-4.462-3.9948-4.4625-7.5184-3.8e-4 -2.9224-1.8222-7.7046-3.7882-9.9438-0.84599-0.96353-1.697-2.475-1.8911-3.3587-0.6998-3.186-1.1452-11.688-0.76953-14.688 0.70322-5.6168 0.59944-6.5743-0.76887-7.0945-2.2922-0.87147-2.6598-1.8555-2.3891-6.395 0.37961-6.3649 1.4629-13.808 2.2768-15.642 0.39752-0.89606 0.86842-2.2949 1.0464-3.1086 0.34837-1.5919 2.3553-4.9064 4.0367-6.6666 0.57065-0.59738 1.1698-1.8193 1.3316-2.7153 0.55604-3.0804 1.561-6.52 2.4594-8.4175 0.74107-1.5652 1.2354-1.9308 2.8006-2.0711 1.3936-0.12494 2.4286-0.74209 3.8792-2.3132 2.168-2.3481 3.4443-2.3949 4.295-0.15763 0.6336 1.6666 2.9997 1.7794 3.5113 0.16747 0.19485-0.61388 1.3503-1.8377 2.5677-2.7195 1.2173-0.88185 3.0485-2.579 4.0692-3.7715 1.0207-1.1924 2.1559-2.1681 2.5225-2.1681 0.36673 0 1.4949-0.61095 2.507-1.3577 1.8412-1.3584 3.8015-1.7999 3.8015-0.85627 0 0.27578-0.56034 1.1922-1.2452 2.0365-0.68481 0.8443-1.6544 2.146-2.1545 2.8928-0.50011 0.74671-1.5992 2.3352-2.4423 3.5299-0.84311 1.1948-2.4821 3.7607-3.6421 5.7022-1.16 1.9415-2.7998 4.4204-3.644 5.5088-0.84409 1.0884-1.5348 2.6072-1.5348 3.3751 0 1.747 1.7064 2.808 3.2164 1.9999 1.3933-0.74567 9.2742-0.0902 9.2742 0.77138 0 0.82409-6.7941 3.2258-7.912 2.7968-1.1792-0.45249-5.9268 1.1723-7.0491 2.4125-1.2754 1.4094-0.8051 2.2084 2.6503 4.502 3.2859 2.181 4.2595 4.0217 4.0279 7.6148-0.10851 1.6838 0.12898 2.2881 1.223 3.1115 1.8422 1.3865 4.8034 1.9488 5.0812 0.96481 1.5372-5.4449 2.1825-7.1026 2.8674-7.3655 1.64-0.62931 2.0977 0.85073 2.0979 6.7832 1.7e-4 5.6437 0.05 5.8824 1.7234 8.292 0.94776 1.3645 1.8031 3.2873 1.9007 4.2728 0.16449 1.6604 0.42669 1.8818 3.5747 3.0182 1.8684 0.67452 4.1312 1.3732 5.0283 1.5526 0.8972 0.17943 2.3149 0.83173 3.1506 1.4496 1.7804 1.3163 6.9398 2.6514 10.418 2.6959 2.8991 0.0371 6.2774 1.4817 8.1049 3.4657 0.86798 0.9423 1.8857 1.4321 2.9869 1.4376 2.1738 0.0108 2.5817 0.33022 4.1505 3.2501 0.72217 1.3441 2.0682 3.4213 2.9912 4.6161 0.923 1.1948 2.2278 3.0887 2.8995 4.2088 1.3426 2.2387 1.5454 2.3201 3.5288 1.4164 1.122-0.51122 1.6271-0.44023 2.8766 0.40435 2.3204 1.5684 10.832 1.4125 12.928-0.23678 0.82274-0.64717 1.7684-1.1777 2.1015-1.179 0.69155-3e-3 4.7037-2.5861 7.1224-4.5861 0.89606-0.74096 2.8511-2.3498 4.3445-3.5752 5.1208-4.2017 8.3742-7.7623 9.7528-10.674 0.75905-1.6031 1.38-3.1854 1.38-3.5164 0-0.97821 2.7572-3.2415 3.7245-3.0573 1.5663 0.29832 1.2801 2.3707-0.89476 6.4782-6.753 12.754-10.159 18.496-12.948 21.826-0.70718 0.8443-1.2858 1.9534-1.2858 2.4646 0 0.51121-1.0826 1.8344-2.4057 2.9404s-2.5575 2.4893-2.7431 3.0741c-0.18562 0.58476-0.8203 1.2164-1.4104 1.4038-0.5901 0.1873-2.1547 1.2768-3.4769 2.4212-1.3222 1.1443-3.383 2.5126-4.5798 3.0406-2.5156 1.1099-3.0566 2.0273-1.8857 3.1982 1.162 1.162 4.5577 1.0369 8.2335-0.3033 4.7192-1.7207 4.7845-1.7295 5.7434-0.77049 1.6344 1.6344 1.0357 2.636-2.7785 4.648-2.7006 1.4246-3.7053 2.261-3.8406 3.197-0.3903 2.6995 3.0817 2.6968 7.9138-6e-3 4.1802-2.3383 6.1177-1.9554 6.1177 1.2091 0 1.3088 0.25481 1.5367 2.0365 1.8213 2.5155 0.40187 3.6205 0.9693 3.8161 1.9596 0.10661 0.53949-1.1378 1.0686-4.267 1.8141-4.4849 1.0685-5.4969 1.8407-4.301 3.2816 1.016 1.2242 0.24003 2.4438-1.555 2.4438-1.8238 0-8.6975 2.0113-9.7204 2.8442-0.96085 0.7825 0.16477 2.0434 1.8242 2.0434 0.8726 0 1.5467 0.52115 2.128 1.6452 1.076 2.0808 0.81336 2.4726-1.954 2.9151-3.1363 0.50151-5.3857 1.7738-5.3857 3.0463 0 1.6841-2.0215 1.806-9.2534 0.55775-3.6702-0.63345-7.3051-1.0208-8.0777-0.86087-2.5091 0.51954-9.6271-1.069-11.373-2.5381-1.6307-1.3721-2.1865-1.448-12.569-1.7155l-2.4438-0.063 0.14821 1.8413c0.13886 1.7255-1.0462 4.425-1.9257 4.3868-0.21712-9e-3 -1.0804-0.62039-1.9185-1.3577zm14.524-10.6c4.6676 0.068 9.2682-1.1713 10.097-2.7198 0.62344-1.1649-0.23498-2.709-4.28-7.6982-1.8371-2.2659-3.3401-4.3811-3.3401-4.7005 0-1.7156-1.9285-5.01-3.5876-6.1284-1.0301-0.69447-2.4632-2.2402-3.1844-3.4349-0.72124-1.1948-2.5671-3.0276-4.102-4.073-1.5348-1.0454-4.1989-3.1226-5.9202-4.6161-5.5197-4.789-8.3857-6.5935-11.052-6.959-1.3745-0.18839-4.1185-1.1077-6.0979-2.0429-2.9898-1.4126-3.9958-1.6409-5.9442-1.3487-1.2899 0.19344-2.7776 0.8294-3.306 1.4133-0.52835 0.58385-2.4281 2.1005-4.2215 3.3703-7.2082 5.1035-8.887 7.4679-5.3023 7.4679 2.4964 0 4.2333 1.8093 4.9221 5.127 0.7805 3.7596 2.5562 5.1859 5.1332 4.1232 3.3686-1.3891 4.2456-1.286 6.9388 0.8157 2.3152 1.8067 2.7856 1.9665 4.8876 1.66 6.1703-0.89952 7.713-0.83951 8.9785 0.34925 1.5175 1.4255 1.5147 1.5805-0.10226 5.5745-1.1825 2.9208-1.562 3.3502-3.6632 4.1443-1.2892 0.48727-2.4231 1.2815-2.5196 1.765-0.0966 0.48346 0.0532 0.87903 0.33263 0.87903 0.27951 0 1.4307 0.73314 2.5583 1.6292s2.5975 1.6292 3.2666 1.6292c0.66906 0 1.5207 0.36657 1.8925 0.8146 0.37184 0.44803 0.98844 0.8146 1.3702 0.8146 0.38183 0 2.0015 0.61921 3.5992 1.376 2.3858 1.1301 3.3903 1.3161 5.6204 1.0409 1.4934-0.18431 4.6556-0.30686 7.027-0.27233zm25.185-12.052c0.0987-0.52098-0.27479-1.6207-0.82991-2.4438-0.55518-0.82311-1.3371-2.4741-1.7376-3.6688-1.2903-3.8491-3.8875-9.0931-7.4167-14.975-1.8952-3.1584-3.7174-6.4571-4.0494-7.3304-0.33209-0.87333-0.92441-1.9549-1.3163-2.4035-0.39193-0.44858-0.89883-1.4265-1.1265-2.1733-0.60601-1.9878-2.9656-4.8876-3.9771-4.8876-0.48132 0-2.2633-0.85679-3.9599-1.904-2.3174-1.4304-3.941-1.9919-6.5275-2.2576-1.8936-0.19447-3.9316-0.65967-4.529-1.0338s-4.0408-1.4105-7.6519-2.3032c-3.6112-0.89265-7.5726-2.1367-8.8032-2.7645s-2.6281-1.1415-3.1055-1.1415c-0.47746 0-1.7702-0.70837-2.8727-1.5742-1.1026-0.86579-2.554-1.7374-3.2253-1.9369-1.5654-0.46525-2.1154-2.6436-1.2627-5.0016 0.55518-1.5353 0.51211-2.2254-0.26588-4.2626-0.89004-2.3305-1.0203-2.4312-3.1626-2.4434-4.4849-0.0255-10.109-4.5278-10.109-8.0928 0-3.1042-3.0906-5.0988-4.3254-2.7916-0.86581 1.6177-0.67911 3.2104 0.7301 6.2286 0.71077 1.5222 1.4598 4.1593 1.6645 5.8601 0.26952 2.2393 0.81531 3.6499 1.9784 5.1135 0.88341 1.1116 1.7442 2.6526 1.913 3.4244 0.89763 4.1064 0.92164 4.1306 3.9353 3.9666 2.7292-0.14855 2.7932-0.11746 2.7912 1.3577 0 0.83032-0.49951 2.3256-1.1075 3.3228-1.1581 1.8995-1.0287 3.5775 0.31557 4.0934 0.43663 0.16756 0.79391 0.78363 0.79391 1.369 0 1.5051 1.4514 2.7712 3.1767 2.7712 0.80852 0 3.2557 0.85577 5.4382 1.9017s4.986 2.0459 6.23 2.2221c4.0199 0.56942 8.711 2.4271 11.574 4.5835 1.5376 1.158 3.4927 2.268 4.3445 2.4665 0.85191 0.19856 3.1125 1.1162 5.0236 2.0392 2.6955 1.3018 4.0666 2.4313 6.1136 5.0361 1.4514 1.8468 3.217 3.503 3.9237 3.6803 0.73966 0.18564 1.5194 0.95906 1.8378 1.8228 0.30422 0.82519 0.95541 2.6326 1.4471 4.0165 0.64522 1.8158 1.7833 3.2895 4.0889 5.2949 3.4275 2.9811 4.1197 3.2194 5.7564 1.9814 1.7701-1.3389 2.6303-0.95679 3.6997 1.6435 0.93131 2.2644 1.1581 2.4574 2.7109 2.306 1.0964-0.10693 1.7579-0.49959 1.874-1.1125zm-73.892-39.647c-0.34218-1.0276-2.0368-1.1737-2.0368-0.17559 0 0.50377 0.46432 0.85442 1.1314 0.85442 0.66363 0 1.038-0.28067 0.9054-0.67883zm-9.9412 62.017c-1.5099-0.20353-3.8753-0.86989-5.2564-1.4808-1.3811-0.61093-3.9336-1.3933-5.6722-1.7387-1.7386-0.34534-4.0448-0.8555-5.1249-1.1337-1.08-0.2782-2.9479-0.50581-4.1507-0.50581-3.2347 0-3.8187-2.2169-1.4886-5.6505 0.74672-1.1004 1.3577-2.2795 1.3577-2.6204 0-0.34084 0.52156-1.1749 1.159-1.8534 1.1055-1.1768 1.2498-1.1958 3.1226-0.4135 1.08 0.45113 2.5746 1.3994 3.3213 2.1073 1.6168 1.5327 4.5424 2.7056 8.8788 3.5598 2.765 0.54462 3.5919 1.0308 6.381 3.7515 1.7624 1.7192 3.2044 3.5234 3.2044 4.0094 0 1.4739-2.6505 2.3843-5.7322 1.9689zm-581.01-13.858c-1.2682-1.2682-1.041-1.8619 0.71247-1.8619 1.0936 0 1.649 0.31811 1.8417 1.0547 0.47597 1.8201-1.0568 2.3046-2.5541 0.80725zm257.92-1.9505c-1.7921-0.24546-3.9669-0.69251-4.8329-0.99345-0.86596-0.30095-2.1611-0.54717-2.8781-0.54717-1.7594 0-4.5081-1.4765-4.5081-2.4217 0-0.43039-0.65278-0.83969-1.4934-0.93642-1.1581-0.13326-1.5309-0.49561-1.6603-1.6139-0.16627-1.4368-0.14981-1.4435 4.5238-1.8328 2.5799-0.21489 5.8287-0.23474 7.2196-0.0441 2.0273 0.27787 2.995 0.1028 4.8786-0.88251l2.3497-1.2291 1.3827 1.5929c1.1849 1.365 1.3461 1.9741 1.1267 4.2571-0.18114 1.8852-0.63524 3.0199-1.553 3.8808-1.1788 1.1058-1.5938 1.176-4.5554 0.77035zm-63.925-4.256c-1.178-1.794-1.7902-5.1964-1.0206-5.6721 0.99697-0.61616 0.72246-4.5374-0.35852-5.1215-1.4461-0.78128-4.3914-6.0127-5.0926-9.0452-0.34318-1.4842-0.56155-3.7983-0.48526-5.1424 0.0763-1.3441 0.11587-3.6657 0.088-5.1591-0.13193-7.0657-0.0671-7.5523 1.1926-8.9454 0.68272-0.75508 1.5235-2.0382 1.8684-2.8513 0.72246-1.7034 2.9842-2.5124 4.201-1.5026 0.5337 0.44293 0.80755 1.6726 0.80755 3.6263 0 5.1991 1.2248 6.0308 5.6879 3.8625 3.0484-1.481 4.0912-0.89407 3.0174 1.6983-0.39622 0.95658-0.53697 2.432-0.3348 3.5096 0.30621 1.6322 0.0817 2.1679-1.8386 4.3866-1.809 2.0902-2.1874 2.9234-2.1874 4.8172 0 1.7963 0.32192 2.5919 1.4934 3.6911 0.82139 0.7707 1.9105 2.0178 2.4202 2.7714 0.55432 0.81949 1.6702 1.5096 2.7765 1.7172 2.8002 0.52532 3.6896 1.7835 2.9443 4.1649-0.60532 1.934-0.61663 1.9398-5.2563 2.6783-2.5573 0.40709-5.9327 0.68164-7.5008 0.61012-2.4865-0.11341-2.8511 2e-3 -2.8511 0.90381 0 0.56861 0.38449 1.8046 0.85441 2.7465 0.46993 0.94199 0.76698 2.1403 0.66011 2.663-0.16453 0.80466-0.33093 0.74223-1.0858-0.40737zm241.37-1.9025c-0.77173-0.55225-1.2219-1.4388-1.2219-2.4063 0-1.7355 0.68526-2.4405 2.8832-2.9661 0.83904-0.20064 2.5497-1.2898 3.8015-2.4204 4.2136-3.8057 7.6645-5.3114 13.146-5.736 6.415-0.49691 11.399 0.33554 16.531 2.7614 2.2534 1.065 4.1771 2.1477 4.2749 2.4059 0.0978 0.25825 1.1953 0.74351 2.4388 1.0784 1.2436 0.33486 2.9482 1.0981 3.788 1.6962 1.2244 0.87186 2.0057 1.0156 3.9422 0.72517 1.5685-0.23521 2.4152-0.16014 2.4152 0.21417 0 0.31699-0.70329 0.57634-1.5629 0.57634-0.85958 0-2.387 0.32628-3.3942 0.72505-1.4495 0.57391-3.0705 0.61076-7.776 0.17675-5.0676-0.4674-6.6542-0.40488-10.754 0.42375-2.6449 0.53462-6.0793 0.96183-7.632 0.94935-1.5527-0.0125-3.7715 0.22173-4.9307 0.52047-1.1592 0.29874-4.2139 0.75682-6.7883 1.018-2.5744 0.26115-5.4139 0.62274-6.31 0.80354-1.0752 0.21695-2.0447 0.0314-2.8511-0.54566zm68.834-0.18144c0-0.54882 0.99718-2.9837 2.2159-5.4109 3.0222-6.0189 2.8955-6.3533-2.4079-6.3533-3.973 0-4.3242-0.0963-5.5545-1.5237-0.72233-0.83804-1.3134-1.8821-1.3134-2.3202s0.99533-1.8762 2.2119-3.196c1.2165-1.3198 2.1489-2.8417 2.0721-3.382-0.28799-2.0245 0.71587-4.4119 2.5308-6.0186 1.0309-0.91272 1.8744-2.1576 1.8744-2.7664 0-1.8143 1.191-3.8734 2.2405-3.8734 1.4603 0 6.0525 1.6323 7.0344 2.5004 0.47155 0.41689 1.2658 0.75797 1.765 0.75797 1.5166 0 1.0981 3.4639-0.9931 8.2201-1.0454 2.3777-1.9007 4.9047-1.9007 5.6156 0 1.3378-0.89682 2.4944-3.0051 3.8758-0.86429 0.5663-1.3259 1.5518-1.5722 3.3568-0.34534 2.5301-1.0821 4.7394-3.0706 9.2077-1.0646 2.3924-2.1274 3.0469-2.1274 1.3102zm60.145-0.67486c-0.5227-0.30445-0.95036-0.79874-0.95036-1.0984s-0.61095-1.444-1.3577-2.5429c-1.659-2.4414-1.7491-5.093-0.27153-7.9911 0.59737-1.1717 1.0861-2.4154 1.0861-2.7637 0-0.34831 0.36369-0.93511 0.80819-1.304 0.6469-0.53688 0.85175-0.52306 1.0266 0.0693 0.12012 0.40699 0.56245 1.9067 0.98295 3.3326 0.63495 2.1532 1.2191 2.8901 3.4469 4.3478 4.1516 2.7166 4.0754 5.359-0.21104 7.3151-3.0158 1.3762-3.2356 1.4068-4.5602 0.63534zm-538.49-7.3049c-1.5886-0.72167-4.6732-1.6808-6.8546-2.1314s-4.3029-0.9393-4.7145-1.0861c-0.41159-0.14675-12.166-0.35836-26.121-0.47024l-25.373-0.20342-2.1878-1.4478c-2.3276-1.5404-2.4618-1.7874-1.6595-3.0564 0.34782-0.55015 0.23519-1.2314-0.35168-2.127-0.79215-1.209-0.7895-1.3717 0.032112-1.9725 0.49252-0.36014 2.6632-0.83791 4.8237-1.0617 2.1605-0.2238 4.9057-0.52923 6.1005-0.67872s8.0374-0.31168 15.206-0.36042c7.1685-0.0488 13.308-0.25874 13.644-0.46665s3.3566-0.12165 6.7126 0.1917c4.8552 0.45333 7.7169 1.1086 14.007 3.2075 8.5615 2.8569 11.624 4.6242 14.217 8.2038 2.0449 2.8229 2.0556 3.2047 0.09002 3.2047-0.85948 0-1.8669 0.36657-2.2388 0.8146-0.90993 1.0964-1.9191 0.9904-5.3322-0.56009zm687.06-2.8064c-0.6494-0.12553-1.548-0.78888-1.997-1.4741-0.62415-0.95258-1.521-1.3287-3.8096-1.5977-4.6682-0.54865-5.8784-1.1678-5.6751-2.9033l0.17182-1.4666 5.4307 0.12881c4.2734 0.10136 6.588-0.15773 10.861-1.2158 5.0596-1.2528 17.498-5.3122 21.854-7.1319l1.9094-0.79779-0.25324 4.3742c-0.17247 2.9791-0.5253 4.6463-1.1063 5.2273-0.93559 0.93562-2.7207 1.4859-14.738 4.5435-9.0198 2.2949-10.933 2.6448-12.647 2.3135zm-484.37-12.93c-1.2-1.8314-0.49058-4.5562 2.4557-9.4324 2.7338-4.5245 2.5708-5.498-0.92008-5.498-1.3606 0-3.7782-0.4112-5.3726-0.91378-2.4582-0.77487-2.8988-1.1146-2.8988-2.2348 0-1.4377 3.1593-4.7407 5.3576-5.6014 0.70652-0.27662 2.4459-0.34889 3.8653-0.1606 1.4194 0.1883 3.8661 0.0667 5.4372-0.27024 3.4352-0.7367 3.6565-0.5981 6.3298 3.9632 1.6802 2.8668 1.8894 3.6078 1.6049 5.6837-0.22906 1.6711-0.89452 3.015-2.2188 4.4809-1.0404 1.1516-2.6225 3.3888-3.5158 4.9716-1.9721 3.4944-3.4948 5.188-5.2718 5.8636-2.3092 0.87797-3.9025 0.59829-4.8526-0.85182zm466.28-9.6595c0-0.38657 0.84849-2.0361 1.8856-3.6657 1.037-1.6296 2.2511-3.7304 2.6978-4.6686 0.50961-1.0701 1.4706-1.9352 2.5788-2.3216 1.5191-0.52954 1.9749-0.46177 3.2539 0.48386 1.3308 0.9839 2.3072 1.0997 9.2752 1.0997 7.7149 0 9.0912 0.2946 9.0912 1.946 0 0.81311-1.5787 1.3259-5.7022 1.8522-4.3199 0.55136-10.909 2.283-16.443 4.3212-4.8749 1.7954-6.6369 2.0484-6.6369 0.95298zm-187.9-6.3177c-3.2057-1.049-7.6822-3.3272-9.0745-4.6183-0.82731-0.76712-1.6952-1.3948-1.9287-1.3948s-0.69883-0.60211-1.0341-1.338c-0.33531-0.7359-1.552-1.991-2.7037-2.7892s-2.094-1.771-2.094-2.1618c0-0.88732-5.2181-6.0778-6.3389-6.3054-0.98249-0.19949-2.5112-4.2968-1.8499-4.9581 0.91767-0.91767 2.9768-0.13246 3.3057 1.2606 0.23123 0.9793 0.68538 1.3608 1.6296 1.3687 0.83786 7e-3 1.4146 0.39802 1.6024 1.0861 0.42097 1.5425 6.1713 6.7773 7.4448 6.7773 1.4855 0 6.2515 1.6305 7.2399 2.4768 1.1012 0.94292 5.3784 2.3932 7.087 2.4029 1.627 9e-3 2.6882 0.91574 2.6882 2.2962 0 0.54169 0.28728 1.4449 0.63837 2.0071 0.51081 0.81794 0.46628 1.1944-0.22304 1.8837-0.47377 0.47379-0.94433 1.0898-1.0457 1.3688-0.26822 0.73852-3.7612 1.1552-5.3434 0.63747zm-333.17-6.875c-1.1202-2.3635-2.6165-4.988-3.3251-5.8323-0.78548-0.93594-1.2883-2.2348-1.2883-3.3277 0-0.98591-0.36657-2.0968-0.8146-2.4686-0.44803-0.37183-0.8146-1.0915-0.8146-1.5992 0-0.50777-0.78918-2.3718-1.7537-4.1423s-2.1612-4.6854-2.6593-6.4775c-1.4088-5.0694-4.4829-13.22-6.4522-17.107-0.98364-1.9415-2.5841-5.8516-3.5565-8.6891-0.97245-2.8375-2.524-6.7476-3.448-8.6891-2.6912-5.655-2.0436-7.7619 0.74658-2.4288 1.9394 3.7069 2.716 4.4295 3.7969 3.5324 0.43646-0.36223 0.94169-1.1253 1.1227-1.6957 0.44762-1.4103 1.4465-1.3026 2.9713 0.32058 0.70151 0.74672 1.5226 1.3577 1.8246 1.3577 0.30205 0 1.0899 0.50799 1.7508 1.1289 0.92712 0.87098 2.4239 1.2638 6.5518 1.7193 4.8053 0.53026 6.0692 0.46269 12.41-0.66345 3.8829-0.68962 8.2494-1.2321 9.7033-1.2055 1.4736 0.0269 3.1751-0.30006 3.8448-0.73888 1.3063-0.85594 2.0232-0.57386 1.5664 0.61641-0.40734 1.0615-3.6141 2.9448-5.0142 2.9448-1.3602 0-6.0975 2.2891-6.9365 3.3518-0.31316 0.39666-0.71916 1.6934-0.90223 2.8817-0.26112 1.6948-0.91907 2.6898-3.0524 4.6161-3.1655 2.8583-5.3049 6.8718-6.0129 11.28-0.35955 2.2389-0.87122 3.4304-1.8075 4.2091-1.713 1.4246-3.0648 4.1565-3.0648 6.1936 0 0.89731 0.63808 3.2922 1.4179 5.3219 0.77986 2.0297 1.6964 5.1567 2.0368 6.9488 0.75149 3.9568 1.0125 4.3928 2.9157 4.8705 0.82122 0.20612 1.6751 0.66085 1.8976 1.0105 0.74956 1.1784 0.40449 4.4274-0.61044 5.7476l-1.0073 1.3104zm353.81-9.8149c0-0.94391 0.73021-3.2655 1.6261-5.1591 1.9906-4.2078 2.0462-5.5887 0.27196-6.7513-1.8904-1.2386-1.7057-2.2697 0.87798-4.9022 2.9483-3.0041 1.9169-4.6338-1.7288-2.7313-1.7343 0.90505-3.9346 1.4718-6.7521 1.7391-1.1947 0.11334-3.9717 0.62378-6.1709 1.1343-3.5022 0.813-4.5135 0.84189-8.146 0.23272-4.5583-0.76443-11.487-3.4614-18.791-7.3139-4.3644-2.3022-4.9546-2.4722-7.5363-2.172-2.666 0.30999-2.8608 0.24444-4.0393-1.3588-0.68099-0.92648-1.6115-1.6845-2.0677-1.6845-0.63933 0-0.79127-0.52533-0.66258-2.2907 0.13215-1.8127 0.4633-2.4563 1.5869-3.0842 1.2974-0.72498 1.5463-0.69395 2.8858 0.35966 0.80625 0.6342 1.7948 1.0269 2.1968 0.8726 0.91336-0.35049 4.1348 1.2717 5.0231 2.5295 1.0266 1.4535 4.2789 2.5138 9.9256 3.2359 2.8375 0.36287 5.7701 0.90722 6.5168 1.2097 2.5487 1.0323 12.7 1.2029 16.14 0.27122 1.7264-0.46753 4.4219-1.0135 5.99-1.2132 2.3692-0.30178 2.8511-0.54695 2.8511-1.4505 0-1.9737-1.6643-6.8569-3.0158-8.8483-2.7514-4.0545-0.96856-6.2125 4.4602-5.3984 1.8002 0.26995 3.0412 0.87587 4.2415 2.0708 0.93326 0.92908 2.6054 2.1744 3.7158 2.7675 2.5983 1.3876 3.4012 0.91215 5.5532-3.2886 0.90735-1.7712 2.3339-4.378 3.1702-5.793 0.83627-1.415 1.4191-2.8767 1.2952-3.2483-0.14609-0.43835-2.5944-0.91466-6.9716-1.3563-6.4519-0.65096-6.8107-0.63362-8.2179 0.39719-0.80928 0.59283-1.7868 1.0738-2.1723 1.0688-0.38546-5e-3 -2.6559-1.0698-5.0454-2.3662-4.6405-2.5177-7.6118-4.0767-9.0118-4.7283-0.47621-0.22164-3.6532-1.1888-7.0599-2.1493-3.4067-0.96046-6.5606-2.0534-7.0087-2.4287-0.44803-0.37533-1.7921-1.1736-2.9869-1.774-1.1948-0.60038-2.661-1.6381-3.2584-2.306-0.59738-0.66789-2.0026-1.7967-3.1226-2.5084-2.5257-1.6049-2.743-3.7816-0.6512-6.5241 1.6116-2.1129 2.9592-2.3751 2.9592-0.57577 0 1.3649 5.2081 6.9056 6.4911 6.9056 0.41512 0 1.1869-0.39111 1.7151-0.86912 0.87613-0.79288 1.1896-0.79448 3.5727-0.0183 3.1361 1.0215 9.3772 2.052 10.02 1.6546 0.25302-0.15636 1.2568 0.32342 2.2305 1.0662 2.3735 1.8103 4.3886 2.5478 8.2826 3.0314 2.4517 0.30442 3.5522 0.2131 4.4452-0.36881 0.65271-0.42536 1.8746-0.69454 2.7153-0.59816 1.3696 0.157 1.5108 0.35908 1.3576 1.9437-0.11257 1.1639 0.0972 1.8714 0.61334 2.0695 0.81699 0.3135 11.813-1.5684 14.913-2.5523 0.97855-0.31056 2.4448-1.3989 3.2584-2.4186 1.7809-2.2319 2.6092-2.4225 1.5668-0.36051-0.41529 0.82139-1.1922 2.8375-1.7265 4.4803-0.53438 1.6428-1.2838 3.4756-1.6654 4.073-0.38161 0.59738-1.2067 3.0412-1.8336 5.4307-2.2389 8.5349-3.7422 12.769-6.7487 19.007-2.6889 5.5794-3.1005 6.6444-4.6768 12.101-0.62838 2.175-1.7408 4.8362-2.472 5.9138s-1.3339 2.2305-1.3394 2.5622c-5e-3 0.33168-0.73688 1.6759-1.6254 2.9872s-2.0106 3.6375-2.4935 5.1693c-0.4829 1.5318-1.4608 3.5137-2.1734 4.4042l-1.2954 1.619v-1.7162zm207.95-3.1248c-4.5593-1.5674-19.486-10.04-22.226-12.616-0.74672-0.70188-2.1232-2.0051-3.0589-2.896-2.1302-2.0284-3.1811-2.4238-10.394-3.9109-5.0875-1.049-7.4101-1.1945-18.317-1.148-7.3543 0.0314-15.778 0.41001-20.485 0.92076-10.144 1.1007-10.198 1.0999-10.198-0.15621 0-1.1131 2.1383-2.7778 3.5681-2.7778 0.49001 0 2.8813-0.58789 5.314-1.3064 2.4327-0.71853 6.6088-1.4568 9.2804-1.6405 3.1195-0.21455 5.1749-0.62146 5.745-1.1374 0.63533-0.57493 2.188-0.8037 5.461-0.80464 2.5153-5.5e-4 7.8364-0.25024 11.825-0.55447 7.6109-0.5806 11.114-0.15186 16.644 2.0372 1.1947 0.47294 3.272 1.0484 4.6161 1.2787 5.6006 0.95986 8.9513 2.3796 12.39 5.2502 3.0801 2.5712 3.672 2.8511 6.0284 2.8511 3.9058 0 8.3755 0.9797 9.1366 2.0026 0.46965 0.63113 0.63382 2.9689 0.54307 7.7328-0.11698 6.1443-0.22456 6.8123-1.0742 6.67-0.51933-0.087-1.3762 0.073-1.9042 0.35561-0.63142 0.33793-1.6216 0.2863-2.8932-0.15083zm-768.39-9.7854c-0.49299-1.2967-0.7734-1.3941-4.011-1.3941-4.7554 0-5.3612-0.9022-5.1653-7.6922 0.13369-4.6345 0.21437-4.9332 1.4603-5.4069 1.1381-0.43269 1.6703-0.17254 3.8846 1.8986 2.7786 2.5991 4.6739 3.1981 12.299 3.8871 3.3485 0.30257 4.1832 0.18748 6.2453-0.86113 1.3091-0.66571 2.9912-1.6778 3.7379-2.2491 2.7232-2.0835 5.4929-3.6904 6.9382-4.0255 0.81365-0.18862 2.0288-0.68585 2.7004-1.1049 1.9894-1.2414 9.8395-2.5746 14.799-2.5133 12.008 0.14835 23.07 1.1642 27.968 2.5683 2.6882 0.77066 7.2092 1.8888 10.047 2.4848 7.7992 1.6382 12.803 3.4143 18.47 6.5562 2.3447 1.2999 6.5113 4.4488 6.5113 4.9208 0 1.1001-6.9792 0.11952-11.404-1.6022-0.74672-0.29055-3.416-0.70973-5.9318-0.93153-2.5158-0.22181-5.3262-0.62374-6.2453-0.8932-0.9191-0.26946-5.2113-0.86625-9.5382-1.3262-6.1875-0.65775-8.6084-0.70721-11.339-0.23163-3.2481 0.56563-3.5524 0.52938-4.7136-0.56148-1.0407-0.97772-1.7971-1.1444-4.6811-1.0312-1.8919 0.0742-3.8452-0.0423-4.3408-0.25889-0.49555-0.21659-1.8396-0.12293-2.9869 0.20814-1.1472 0.33107-4.8962 1.0827-8.3311 1.6704-5.6311 0.96335-15.011 3.2776-19.279 4.7568-0.89606 0.31053-2.7289 0.83273-4.073 1.1604-2.9269 0.71364-10.207 2.6489-11.54 3.0677-0.66908 0.2102-1.1067-0.11375-1.48-1.0957zm650.89-6.5533c-1.0454-1.0454-2.3365-1.9022-2.8692-1.9041-0.53264-2e-3 -1.6684-0.36841-2.524-0.8146-0.85554-0.44619-2.395-0.81125-3.4212-0.81125-2.9409 0-5.0701-1.358-5.0701-3.2336 0-2.2437 1.2866-3.2832 4.0635-3.2832 1.951 0 2.5924-0.28 3.7252-1.6263 0.75263-0.89445 1.524-2.1164 1.7141-2.7153 0.24471-0.77104 0.82112-1.0891 1.9739-1.0891 0.89557 0 2.0572-0.22953 2.5814-0.51007 1.2215-0.65376 3.0152-4.6026 2.5918-5.706-0.40779-1.0627-1.4944-1.0214-5.2318 0.19862-3.5376 1.1548-5.5197 0.7944-6.1961-1.1266-0.70681-2.0073 0.59373-4.1283 3.4672-5.6544 3.2306-1.7159 11.304-5.4277 14.832-6.8197 3.1608-1.2468 12.559-2.8175 14.043-2.3467 1.1227 0.35634 3.1659 2.7948 3.1659 3.7785 0 0.72345-4.3804 2.7976-7.0255 3.3266-1.915 0.38298-3.0109 1.5268-3.5234 3.6775-0.20708 0.86889-1.7062 3.4992-3.3313 5.8452-3.232 4.6655-3.7091 6.4306-1.7329 6.4111 0.67205-7e-3 1.8328-0.48997 2.5796-1.0741s1.6404-1.0674 1.9859-1.0741c0.3455-7e-3 2.2496-0.73952 4.2312-1.6286 3.0505-1.3687 3.7313-1.9308 4.44-3.6657 0.46036-1.127 1.4492-3.3624 2.1976-4.9675l1.3606-2.9184 2.5318 0.34193c1.3925 0.18806 3.1428 0.79271 3.8895 1.3437 2.1182 1.5629 1.9871 2.9616-0.49278 5.2561-1.2013 1.1115-2.4668 2.8774-2.8123 3.9242-0.75334 2.2826-4.1285 8.7134-5.2635 10.029-0.76681 0.88859-0.894 0.88859-2.4158 0-0.88357-0.51589-1.9567-1.61-2.3848-2.4314-0.44548-0.85473-1.2325-1.4934-1.8403-1.4934-0.58413 0-2.7162 1.5534-4.7379 3.4519l-3.6759 3.4519-1.9007-0.69524c-2.6949-0.98575-2.9738-0.94721-4.905 0.67776-1.6802 1.4138-1.7197 1.5465-1.3724 4.6161 0.4218 3.7281 0.0147 3.9217-2.647 1.2597zm-416.54-6.9092c-0.46496-0.66383-0.84539-1.4766-0.84539-1.8061 0-0.68989 2.2849-2.9607 2.9791-2.9607 0.25593 0 0.85112-0.32235 1.3227-0.71635 1.2905-1.0782 10.893-5.1162 13.166-5.5361 1.71-0.31601 2.105-0.18851 2.8062 0.90585 0.44886 0.7005 0.89741 2.205 0.99679 3.3433 0.18049 2.0675 0.17755 2.0707-2.8238 3.0893-1.6525 0.5608-4.803 1.4287-7.0012 1.9287s-5.0006 1.3649-6.2276 1.9222c-2.8754 1.3058-3.3517 1.2873-4.3724-0.16997zm-123.32-5.1741c-0.50565-1.4188-1.0199-2.9187-1.1427-3.3332-0.31267-1.0551-5.329-0.48552-8.6458 0.9817-3.0107 1.3318-7.188 1.5185-7.6396 0.34155-0.16632-0.43342 0.30608-1.5942 1.0498-2.5796 1.8679-2.4748 3.0886-5.6262 3.0861-7.9674-2e-3 -1.7412-0.38954-2.608-2.7032-6.0432-2.6536-3.9398-4.8262-11.947-3.2415-11.947 1.3109 0 3.8122 1.756 4.5593 3.2008 0.72711 1.4061 1.1242 1.5765 4.1911 1.7983 2.9894 0.21624 3.5188 0.43085 4.5009 1.8245 2.0021 2.8411 4.7473 5.0523 7.5025 6.0431 1.4884 0.53522 2.8068 1.3416 2.9298 1.7919 0.12302 0.45035 1.0596 2.5295 2.0812 4.6203 2.3927 4.8966 3.671 8.8829 3.3099 10.322-0.23316 0.929-0.6173 1.1013-2.076 0.93097-1.3555-0.15825-2.1571 0.13133-3.3029 1.1932-2.296 2.1278-3.3832 1.8408-4.4589-1.1774zm530.13-21.222c-1.2907-1.4262-1.1148-2.4444 0.64717-3.747 1.0077-0.74501 1.801-2.0539 2.2785-3.7595 0.41018-1.465 1.5901-3.5762 2.681-4.7971 1.0716-1.1994 3.0281-3.6111 4.3477-5.3595 3.1705-4.2006 11.647-12.106 15.438-14.398l3.024-1.8281 4.3871 1.7684c2.4684 0.99503 4.7252 2.2845 5.1602 2.9484 0.42522 0.64896 2.1191 1.7378 3.7642 2.4196 2.7818 1.153 3.8936 2.222 2.3109 2.222-0.37407 0-2.6842 1.1608-5.1338 2.5796-2.4495 1.4188-7.581 4.2455-11.403 6.2816-10.577 5.6347-11.912 6.4378-14.712 8.8534-1.4262 1.2305-3.6165 2.7593-4.8674 3.3975-1.2509 0.63816-3.1076 1.8919-4.1261 2.7862-2.1613 1.8976-2.5875 1.9687-3.7965 0.63274zm-525.77-3.9256c-1.1947-0.25038-3.4355-0.92845-4.9794-1.5068-3.1654-1.1858-10.79-6.2576-11.264-7.4925-0.2947-0.76799-2.6068-1.9279-16.204-8.1291-3.2108-1.4643-5.8378-2.8011-5.838-2.9707-1.2e-4 -0.16959 1.96-1.1176 4.3557-2.1068 2.3958-0.98913 4.4775-1.9951 4.626-2.2354s1.1212-0.29891 2.1614-0.13011c1.8488 0.30002 1.9174 0.24425 3.0493-2.4796 1.0413-2.5057 1.3285-2.7872 2.8506-2.7939 0.93091-4e-3 2.2394-0.15399 2.9079-0.33315 0.78356-0.21001 1.2914-0.0627 1.4294 0.41472 0.21849 0.75565 1.1393 4.1411 1.7035 6.2631 0.17227 0.64795 1.2194 2.1586 2.327 3.3571 2.0696 2.2394 8.1397 7.1408 8.8434 7.1408 0.96874 0 5.3894 5.1643 5.3894 6.296 0 1.4405 1.0646 2.6236 3.4456 3.8289 2.012 1.0185 3.6142 2.3453 3.6142 2.9929 0 0.57161-5.4991 0.49626-8.4175-0.11535zm82.388-3.2325c-4.2059-1.2412-12.076-1.5348-15.002-0.55975-1.9282 0.64266-2.1968 0.61337-2.8747-0.31342-2.0575-2.8131-0.97423-5.7652 2.5878-7.0522 2.2775-0.82283 9.1236-0.91189 12.461-0.1621 10.35 2.3256 11.717 2.4166 15.477 1.03 7.9804-2.9422 14.028-4.8848 15.207-4.8848 0.70294 0 2.919-0.85533 4.9247-1.9007 2.0056-1.0454 3.9358-1.9007 4.2893-1.9007 1.0655 0 3.1162 2.5478 2.9113 3.6172-0.20617 1.0763-1.1014 1.5866-9.4106 5.365-2.9869 1.3582-6.286 3.0419-7.3314 3.7416-1.0454 0.69968-3.6747 1.6934-5.8428 2.2084-2.1681 0.51491-4.0765 1.1537-4.2408 1.4196-0.53901 0.87214-9.551 0.45564-13.155-0.60798zm412.89 0.141c0.21185-0.5227 0.61671-1.5887 0.89976-2.369 0.50646-1.3964 2.7567-2.8925 3.3931-2.256 0.68345 0.68343 0.26703 1.803-1.3597 3.6557-1.7978 2.0475-3.6134 2.6475-2.9332 0.96927zm-267.5-26.529c-0.39652-0.47778-0.66824-1.6386-0.60381-2.5796 0.29869-4.3623 2.5383-6.3203 7.2493-6.3376 4.727-0.0174 12.74-1.6552 20.322-4.1538 2.1133-0.6964 4.7105-1.2662 5.7716-1.2662 1.0611 0 2.8422-0.38142 3.9579-0.8476 1.933-0.80764 2.0655-0.79484 2.8125 0.27154 0.68385 0.97633 1.3555 1.1191 5.2637 1.1191 5.4924 0 9.919 1.3738 14.653 4.5476 2.6057 1.7468 3.3424 2.54 3.3424 3.5984 0 1.2119-0.20412 1.3451-1.9007 1.2406-3.4462-0.21218-4.5765-0.19717-8.4175 0.11177-5.3634 0.43137-9.5394 0.29586-10.744-0.34864-0.71669-0.38356-1.501-0.35688-2.574 0.0875-0.84873 0.35156-3.4536 0.83857-5.7887 1.0822-5.5544 0.57962-11.784 1.528-14.835 2.2585-8.5714 2.052-17.337 2.628-18.509 1.216zm228.13-10.946c-2.7188-0.94084-8.8103-1.5482-19.007-1.8951-7.7978-0.2653-9.4094-0.75189-10.223-3.0867-0.68149-1.955-1.8176-2.1454-2.9174-0.48915-1.0245 1.5429-1.8977 0.9668-3.2837-2.1663l-1.0955-2.4766 1.4613-1.257c1.5976-1.3742 3.8537-1.246 4.983 0.28314 0.38851 0.52611 0.96329 0.67144 1.6292 0.41195 1.7252-0.67228 14.21-0.95821 14.596-0.33428 0.18991 0.30731 1.1974 0.55874 2.2388 0.55874 1.9753 0 8.884 2.097 12.162 3.6915 2.5109 1.2213 4.9345 5.5331 3.8468 6.8437-0.85424 1.0293-1.1918 1.0228-4.3899-0.0839zm-353.47-3.0249c-1.9481-0.73147-3.81-3.4824-3.8502-5.6884-0.029-1.5896 1.1485-3.8757 2.7139-5.2692 0.67029-0.59667 1.7786-2.2828 2.463-3.747 1.2004-2.5683 1.3843-2.707 5.2179-3.9366 2.844-0.91216 4.6684-1.1875 6.4174-0.96865 4.2128 0.52718 5.4307 0.84736 5.4307 1.4277 0 0.90261-3.828 4.1548-6.2976 5.3503-3.1486 1.5242-4.9534 4.3482-5.4076 8.4615-0.20213 1.8302-0.54239 3.6106-0.75613 3.9565-0.59069 0.95576-3.8774 1.1851-5.9314 0.41382zm366.63-10.65c-1.2102-0.87663-3.263-1.8724-4.5618-2.2128-1.2988-0.34039-3.2169-1.1609-4.2623-1.8233-1.0454-0.66241-3.6114-2.0236-5.7022-3.0248-7.471-3.5776-7.516-3.6116-9.4531-7.1273-1.6917-3.0705-1.7946-3.5112-1.2024-5.1492 0.41501-1.1476 0.51814-3.0563 0.28712-5.3113-0.33583-3.2781-0.24101-3.7383 1.3799-6.6957 0.95727-1.7467 2.4336-4.8864 3.2807-6.9772l1.5402-3.8015 2.2834 0.10916c2.38 0.11378 2.4838 0.18485 8.1403 5.5781 2.6425 2.5195 4.5754 3.9274 11.393 8.2991 1.6428 1.0533 3.4524 2.4307 4.0214 3.0608 0.56897 0.6301 1.2725 1.1456 1.5634 1.1456 0.29086 0 1.4492 0.79424 2.5742 1.765s2.9102 2.3759 3.9674 3.1226c1.0571 0.74671 2.0357 1.7791 2.1748 2.2942 0.13903 0.5151 1.1326 1.4557 2.208 2.0901 2.355 1.3895 2.4534 2.2468 0.4237 3.6921-0.86489 0.61583-1.857 2.0768-2.2792 3.3561-0.86728 2.6278-3.1234 4.2833-7.3221 5.3726-1.4934 0.38744-3.7328 1.408-4.9764 2.2679s-2.4899 1.5635-2.7696 1.5635c-0.27974 0-1.4987-0.71724-2.7089-1.5939zm-412.32-5.0409c-3.3484-1.5244-6.2317-3.8881-8.1577-6.6873-1.782-2.59-2.0332-3.9306-0.82361-4.3948 0.43667-0.16756 0.931-0.73652 1.0985-1.2644 0.35342-1.1135 7.6838-7.344 10.87-9.2387 1.1948-0.71054 3.6386-2.6622 5.4307-4.3369 2.2662-2.1178 4.6684-3.6733 7.8887-5.1081 3.3075-1.4737 4.8844-2.5059 5.5199-3.613 1.0312-1.7967 5.0719-4.8827 6.3933-4.8827 1.4385 0 3.5836 2.6798 5.434 6.7883 0.94166 2.0908 1.9121 4.168 2.1565 4.6161 0.68349 1.253 13.338 0.86873 15.238-0.46268 3.0431-2.132 5.3864-2.8497 8.7692-2.6858 4.0207 0.1948 4.8332 1.0071 3.7129 3.7118-1.0003 2.4149-3.4786 4.8477-5.5841 5.4816-0.9564 0.28794-4.3779 0.72918-7.6034 0.98054-4.0532 0.31587-6.1559 0.72082-6.8082 1.3111-0.51906 0.46974-2.4774 1.2118-4.3519 1.6492-3.972 0.92661-6.0558 2.1328-6.0558 3.5055 0 0.53662-0.61095 1.5069-1.3577 2.1562-0.74672 0.64927-1.3577 1.7594-1.3577 2.4671 0 1.2752-1.44 3.3335-4.7037 6.7236-1.7438 1.8113-2.2654 1.7183-3.0741-0.5481-0.61269-1.717-1.915-1.6842-3.5724 0.0902-0.8668 0.92792-1.9946 1.6871-2.5061 1.6871-0.51153 0-1.8187 0.46927-2.9048 1.0428-4.7583 2.5128-9.5698 2.8694-13.651 1.0115zm181.66 0.13014c-1.7921-0.54503-4.9691-1.8236-7.0599-2.8414-2.0908-1.0177-4.9012-2.1566-6.2453-2.5309-1.3441-0.37428-3.1769-0.94009-4.073-1.2574-1.8404-0.65164-8.9725-1.629-11.329-1.5525-1.9832 0.0644-5.117-1.0592-5.462-1.9584-0.14599-0.38044 0.83312-2.1531 2.1758-3.9393 2.8221-3.7543 3.1427-3.8419 11.629-3.179 5.9139 0.46202 7.9194 1.1156 8.3384 2.7176 0.24593 0.94046 0.43406 1.0162 1.1168 0.44956 0.81501-0.6764 2.8628-0.31969 6.0222 1.049 2.5373 1.0992 11.015 3.2555 12.799 3.2554 1.0656-7e-5 3.7538-0.49699 5.9737-1.1043 2.22-0.60729 5.4088-1.3172 7.0862-1.5777 3.2808-0.50936 6.221-1.7792 6.5744-2.8395 0.15816-0.47447 0.5818-0.40234 1.5276 0.26011 1.5007 1.0511 7.4948 1.2698 10.082 0.36784 1.1386-0.39687 3.1532-0.30548 7.2767 0.33013 3.1362 0.48342 6.3132 0.87287 7.0599 0.86544 16.984-0.16904 20.598-0.0617 23.352 0.69344 1.6428 0.45055 3.5282 0.82208 4.1899 0.82563 1.5106 8e-3 5.0423 3.0513 5.0423 4.3448 0 2.5827-5.8015 3.4783-12.799 1.9758-2.212-0.47496-4.4434-0.56827-6.7883-0.28389-4.2478 0.51516-13.456 0.22236-16.801-0.53422-1.3906-0.31457-6.2962-0.44913-11.367-0.3118-7.8433 0.21244-9.0561 0.36756-10.044 1.2846-0.61802 0.57365-3.2009 1.5372-5.7398 2.1412s-5.7158 1.4963-7.0599 1.9828c-1.994 0.72173-10.932 2.5095-11.947 2.3897-0.14934-0.0176-1.7378-0.47796-3.5299-1.023zm105.63-28.791c-0.44803-0.28766-1.9484-0.47633-3.3341-0.41926-1.9311 0.0795-3.0091-0.22705-4.6161-1.3129-2.0414-1.3794-3.6018-1.9747-8.0703-3.0791-1.1948-0.29527-3.1781-0.80059-4.4075-1.1229-1.2294-0.32233-4.0398-0.58768-6.2453-0.58966-2.2055-2e-3 -6.8204-0.48912-10.255-1.0825-3.4349-0.59342-8.1801-1.0806-10.545-1.0825-5.8607-5e-3 -15.493-2.5904-20.938-5.6201-2.232-1.2419-5.024-2.7467-6.2044-3.3441-1.8437-0.93303-2.2388-1.4615-2.8031-3.7489-0.65469-2.6538-0.46388-6.8409 0.31174-6.8409 0.22452 0 0.52195 0.43488 0.66094 0.96641 0.24473 0.93581 5.2737 3.9212 6.6054 3.9212 0.36162 0 1.6221 0.6864 2.801 1.5253 4.1287 2.938 13.316 5.8113 17.027 5.3252 1.372-0.17968 4.8162 0.0349 7.6537 0.47685 2.8375 0.44195 8.3706 1.1724 12.296 1.6231 3.9252 0.45077 9.7272 1.4317 12.893 2.1798 3.1662 0.74812 6.213 1.3602 6.7708 1.3602 0.55779 0 2.0872 0.85296 3.3986 1.8955 1.7282 1.3738 2.9266 1.8969 4.3545 1.9007 1.1199 3e-3 2.2746 0.37226 2.6758 0.85568 0.38817 0.46773 1.3956 1.2071 2.2388 1.6432 1.7456 0.90266 2.0605 2.8751 0.6796 4.256-0.97569 0.97569-1.7833 1.0616-2.9481 0.31373zm-169.08-2.2986c-0.38621-1.4769 1.7514-6.1982 3.537-7.812 1.1821-1.0684 3.7136-1.8219 9.6861-2.8828 1.3441-0.23877 4.2955-0.96044 6.5586-1.6037s5.9289-1.2697 8.146-1.392c2.2171-0.12233 5.1309-0.45163 6.475-0.73178 1.3441-0.28016 4.521-0.93193 7.0599-1.4484 2.5388-0.51645 6.4489-1.5033 8.6891-2.193 5.0299-1.5487 11.309-2.5263 15.844-2.4668 3.4717 0.0455 10.706-0.32304 17.407-0.88685 2.0098-0.16909 4.087-0.13965 4.6161 0.0654 0.90323 0.35011 0.89761 0.42018-0.0923 1.1487-0.57979 0.4267-1.6602 0.77581-2.4009 0.77581s-2.8323 0.7227-4.648 1.606c-1.8157 0.8833-5.3786 1.9914-7.9174 2.4625s-5.838 1.0942-7.3314 1.3848c-1.4934 0.29056-4.7601 0.78647-7.2592 1.102-2.4991 0.31555-6.1944 1.1691-8.2117 1.8968-2.0173 0.72769-4.3714 1.325-5.2314 1.3272-0.85992 2e-3 -3.152 0.50897-5.0934 1.126-3.1653 1.0059-6.4488 1.7558-14.12 3.2248-1.3441 0.25738-4.1894 0.48253-6.3229 0.50034-2.7761 0.0232-3.961 0.24572-4.1671 0.78269-0.15836 0.41267-1.1009 0.88877-2.0946 1.058-4.6664 0.79469-7.9472 1.826-9.3643 2.9435-1.9694 1.5531-3.3607 1.5578-3.7647 0.0129zm264.07-2.4567c-0.74981-1.9652 0.30531-5.2506 2.0543-6.3966 1.6585-1.0867 2.3439-0.62761 2.3439 1.5698 0 1.5081-2.7336 6.3202-3.5904 6.3202-0.13088 0-0.49441-0.67204-0.80776-1.4934zm-291.03-7.1292c0-0.26211 0.33611-0.75551 0.74691-1.0964 0.4108-0.34093 1.0563-1.7248 1.4344-3.0753 0.79629-2.8441 1.4529-3.3014 5.4635-3.8055 1.6198-0.2036 3.707-0.82857 4.6383-1.3888 0.93132-0.56026 2.0795-1.0187 2.5516-1.0187 0.47207 0 1.5011-0.59577 2.2868-1.3239 0.78571-0.72816 2.1424-1.4807 3.0148-1.6724s1.5863-0.55462 1.5863-0.80666c0-1.283 2.8476-3.6831 4.7401-3.9952 1.1265-0.18577 2.6592-0.67033 3.4059-1.0768 7.9447-4.3248 12.521-6.434 16.602-7.6516 2.6671-0.79577 6.5599-2.1943 8.6507-3.1079s4.5346-1.9229 5.4307-2.243c0.89606-0.32002 2.6228-1.0271 3.8372-1.5712s2.6229-0.98939 3.13-0.98939c0.50713 0 1.3464-0.21454 1.865-0.47676 2.6566-1.3431 5.1869-2.2386 6.3258-2.2386 0.7001 0 2.1502-0.36657 3.2225-0.8146 1.0723-0.44803 2.7517-0.81816 3.732-0.8225 0.98033-4e-3 2.8081-0.36528 4.0618-0.80207 1.2537-0.43678 3.9418-1.0239 5.9737-1.3046 2.0319-0.28075 4.5986-0.74666 5.7037-1.0354 1.8011-0.47051 7.342-4.1053 11.473-7.5263 1.942-1.6081 2.5379-1.6034 2.5379 0.02015 0 0.90745-1.0338 2.199-3.4776 4.3445-1.9127 1.6793-3.7174 3.0532-4.0106 3.0532-0.2931 0-0.92989 0.60587-1.4151 1.3464-1.0728 1.6373-3.7585 3.1068-4.8868 2.6738-0.45392-0.17419-2.5522 0.56336-4.6628 1.639-2.1106 1.0756-5.9703 2.5672-8.577 3.3147-2.6067 0.74746-5.9132 1.8568-7.3478 2.4653-1.5011 0.63667-3.0768 0.95761-3.7119 0.75603-0.71742-0.22769-1.515 0.022-2.2793 0.71365-1.6612 1.5032-5.7214 3.7336-7.964 4.3748-3.2908 0.94089-13.777 4.7532-15.477 5.627-0.89606 0.46041-2.9155 1.2575-4.4876 1.7713-1.5721 0.51383-3.1606 1.227-3.5299 1.5849-1.4198 1.3756-4.2282 3.1236-5.9425 3.6986-0.98394 0.33005-2.1556 0.89736-2.6036 1.2607-0.44804 0.36334-2.4031 1.4805-4.3445 2.4826-1.9415 1.0021-4.3084 2.3979-5.26 3.1018-1.3715 1.0145-1.9506 1.1617-2.7941 0.71029-1.126-0.6026-1.768-0.1559-2.4229 1.6858-0.19547 0.54972-1.159 1.0538-2.3923 1.2516-1.1358 0.18214-2.4414 0.5322-2.9013 0.77791s-2.0868 0.61874-3.6151 0.82894c-2.5125 0.34555-2.8132 0.27385-3.1376-0.74795-0.37993-1.197-1.614-1.5129-2.2009-0.56328-0.19268 0.31177-0.055 0.92272 0.30598 1.3577 0.55407 0.66762 0.34986 0.79082-1.3109 0.79082-1.082-1e-5 -1.9672-0.21447-1.9672-0.47659zm199.58-23.687c-1.4934-0.41232-4.426-0.91647-6.5168-1.1203-3.6417-0.35509-8.3223-1.8676-10.047-3.2465-0.44803-0.35826-2.1587-0.80462-3.8015-0.99192s-7.2479-1.5638-12.456-3.059c-5.2079-1.4951-10.026-2.7184-10.707-2.7184-1.1329 0-2.2676-0.40055-6.9773-2.4629-0.89606-0.39239-2.6004-1.0133-3.7875-1.3798-1.187-0.3665-5.8303-2.4605-10.318-4.6532-7.9627-3.8904-13.365-5.9495-14.891-5.676-1.2122 0.21727-1.6698-1.0684-1.6787-4.7166-6e-3 -2.2855 0.22217-3.4997 0.69013-3.6792 0.95861-0.36786 11.745 2.8498 13.421 4.0038 0.74672 0.51396 3.3127 1.7533 5.7022 2.754 2.3895 1.0007 5.5664 2.4016 7.0599 3.113 2.4966 1.1893 5.1618 2.1806 11.676 4.343 1.3441 0.44617 3.4213 0.7242 4.6161 0.61783 1.5826-0.14089 2.3934 0.0679 2.9869 0.76912 0.45172 0.53375 3.1128 1.5688 5.9737 2.3235 7.2213 1.9049 12.059 3.2885 17.107 4.8927 7.1806 2.2821 22.702 4.5674 30.16 4.4409 4.2802-0.0726 4.3844-0.10744 6.2526-2.0882 1.1539-1.2234 2.2145-1.8936 2.7011-1.7069 0.44071 0.16913 0.8013 0.48724 0.8013 0.70694s0.86593 0.8656 1.9243 1.4353c2.7758 1.4943 3.0113 3.166 0.72393 5.1395-1.0085 0.87007-2.4446 1.7299-3.1913 1.9107-6.2359 1.51-7.0288 1.6236-8.2176 1.1778-1.1388-0.4271-11.535-0.1447-15.134 0.41112-0.74672 0.1153-2.5796-0.12772-4.073-0.54004zm-206.93-13.555c-0.73314-0.73315-1.333-1.6878-1.333-2.1216 0-1.2819 8.1353-5.8729 9.9606-5.621 1.0955 0.15117 1.7255-0.08969 2.1723-0.83047 0.618-1.0248 4.4476-2.9771 11-5.6076 2.0356-0.81723 5.2774-1.5185 8.4175-1.821 2.8089-0.27054 7.4286-0.98384 10.266-1.5851 2.8375-0.60128 7.4108-1.3424 10.163-1.647 2.752-0.30455 5.4402-0.7833 5.9737-1.0639s2.3141-0.67445 3.9569-0.87524c4.0362-0.49332 10.318-2.0736 10.318-2.5956 0-0.23253 0.70321-0.42278 1.5627-0.42278 0.85948 0 1.8669-0.36657 2.2388-0.8146 0.37183-0.44803 0.92312-0.8146 1.2251-0.8146 0.30197 0 2.2274-0.85533 4.2787-1.9007 3.7975-1.9353 5.3576-2.3306 5.3576-1.3577 0 0.94229 2.1101 0.58785 2.6642-0.44751 0.70927-1.3253 4.6011-2.4867 5.937-1.7718 0.74379 0.39806 1.6108 0.23777 3.3391-0.61732 1.6782-0.83029 3.2287-1.1303 5.5154-1.0673 2.4918 0.06868 3.1809-0.08721 3.1809-0.71952 0-0.94955 1.1536-1.0655 2.0165-0.20271 0.44393 0.44394 1.4278 0.22758 3.7042-0.8146 1.7918-0.82029 4.0723-1.4191 5.4046-1.4191 1.4698 0 2.797-0.38707 3.6631-1.0683 0.747-0.58759 1.4947-0.93184 1.6615-0.76501 0.66784 0.66785 2.514-0.47548 2.9988-1.8572l0.51531-1.4686 0.54328 1.3591c0.51018 1.2763 1.0352 1.4346 8.618 2.5991 8.7485 1.3435 12.803 2.1381 14.753 2.8913 0.6861 0.26506 2.2856 0.48191 3.5545 0.48191 2.5077 0 11.375 2.1539 15.459 3.755 2.9323 1.1496 10.163 2.2188 15.007 2.2188 1.8289 0 4.5393 0.30771 6.0232 0.6838 1.6908 0.42854 3.7115 0.53645 5.4133 0.28906 1.4934-0.2171 5.1059-0.6374 8.0277-0.934 2.9218-0.2966 6.1608-0.69844 7.1978-0.89298 1.2766-0.23949 2.5128-0.05596 3.8286 0.5684 1.0688 0.50716 2.9998 0.99335 4.2913 1.0804 1.2914 0.08707 2.9142 0.55483 3.6061 1.0395 0.69193 0.48465 1.7087 0.88118 2.2596 0.88118 1.014 0 4.7305 2.529 4.7305 3.2191 0 0.20615-1.7718 0.15497-3.9372-0.11373-2.1655-0.2687-4.426-0.49132-5.0234-0.4947-0.59737-0.0033-2.3373-0.25735-3.8665-0.56438-2.5227-0.5065-3.2449-0.39741-7.7925 1.1771-5.6423 1.9535-10.131 2.2616-17.667 1.2128-2.3895-0.33255-6.5804-0.83833-9.313-1.124-2.7327-0.28562-6.6074-1.0255-8.6105-1.6442-2.0031-0.6187-4.5135-1.1249-5.5787-1.1249s-3.5162-0.63192-5.4468-1.4043c-1.9306-0.77234-5.0045-1.64-6.831-1.928-1.8265-0.28808-5.0168-0.92011-7.0897-1.4045-2.0729-0.48441-4.3945-0.95286-5.1591-1.041-0.76466-0.08814-4.2007-0.52654-7.6356-0.97422-7.8108-1.018-10.025-1.0436-10.788-0.12468-0.99206 1.1954-12.657 3.3891-13.922 2.6182-0.75458-0.45982-7.9867-1.095-8.8212-0.77476-0.37534 0.14403-0.68244 0.59288-0.68244 0.99744 0 0.75849-3.3261 1.8954-6.3099 2.1568-0.93161 0.08162-2.4063 0.51684-3.2772 0.96716-0.87083 0.45032-2.5504 1.0002-3.7325 1.2219-1.182 0.22176-4.1952 1.4646-6.6958 2.7619-2.5007 1.2973-5.0753 2.3587-5.7215 2.3587-0.64614 0-1.7236 0.38438-2.3943 0.85418-1.2338 0.86417-3.2645 1.4271-12.599 3.4926-2.8375 0.62788-6.0145 1.3808-7.0599 1.6732-4.4751 1.2516-11.497 2.5433-12.458 2.2918-0.573-0.14984-1.7311 0.10474-2.5735 0.56573-0.84245 0.46099-4.2199 1.3599-7.5055 1.9977-3.2856 0.63772-6.4625 1.4699-7.0599 1.8494-0.59737 0.37945-3.6775 1.8165-6.8448 3.1935-4.5947 1.9976-6.1518 2.4398-7.704 2.1879-1.627-0.26402-2.1612-0.0828-3.2642 1.1074-1.7349 1.872-4.2871 1.9096-6.1066 0.0901zm120.7-15.511c0.35215-1.3466 1.0468-1.8317 1.522-1.0627 0.36829 0.59589-0.63238 2.1573-1.3826 2.1573-0.23415 0-0.29691-0.49257-0.13948-1.0946zm5.1514-53.864c-0.35843-0.35842-0.65168-1.9383-0.65168-3.5108 0-2.4123-0.19096-2.9597-1.2219-3.5026-1.5947-0.8398-2.0181-1.5258-2.0282-3.2863-0.0105-1.8247-2.8787-4.1892-7.5272-6.2052-1.8383-0.79726-3.3424-1.6486-3.3424-1.8918s1.4052-1.548 3.1226-2.8996c1.7174-1.3515 4.0655-3.1978 5.2179-4.1028 1.1524-0.90503 2.2967-1.6455 2.543-1.6455s0.60242-0.48731 0.79145-1.0829c0.18904-0.59561 0.71173-1.4509 1.1615-1.9007 1.1066-1.1066 4.3194-1.0507 5.1991 0.090447 0.38514 0.49954 1.784 1.9047 3.1085 3.1226 5.6015 5.1506 8.1816 7.9546 8.1816 8.8917 0 1.2218-6.9139 11.813-8.9293 13.678-0.8012 0.74162-1.9502 2.1468-2.5533 3.1226-1.1612 1.8789-2.0064 2.1878-3.0716 1.1226z" fill="#03030b"/>
  </g>
 </g>
 <g id="guide" fill="none" stroke="#808080">
  <path d="m793.87 1122.5-793.87-793.7m0 793.7 793.87-793.7m-793.87-328.82h793.7v1122.5h-793.7z" stop-color="#000000" stroke-dasharray="4, 1" style="font-variation-settings:normal"/>
  <path d="m718.33 1122.5 1.175-29.807 21.524-22.924m-114.78-13.548 8.7071-92.661m158.75 158.94-167.46-66.279-61.238 66.279m130.32-227.51 98.378-1.2436m-332.22 1.2436-64.63 63.406m89.516-445.48 27.3 95.847m-116.82 117.21 230.3-549.92 166.55 84.384m-396.85-260.59 230.3 176.21m-551.78 946.45-1.175-29.807-21.524-22.924m114.78-13.548-8.7071-92.661m-158.75 158.94 167.46-66.279 61.238 66.279m-130.32-227.51-98.378-1.2436m332.22 1.2436 64.63 63.406m-89.516-445.48-27.3 95.847m116.82 117.21-230.3-549.92-166.55 84.384m396.85-260.59-230.3 176.21" stroke-dasharray="3, 1"/>
 </g>
 <g id="parts">
  <path id="cockpit" d="m396.85 624.13h11.123s24.754-86.942 22.686-126.28c0 0-4.6009-4.5484-14.78-7.6321l-19.028 0.0652m0 133.85h-11.123s-24.754-86.942-22.686-126.28c0 0 4.6009-4.5484 14.78-7.6321l19.028 0.0652" fill="#493b00"/>
  <path id="cockpitBorder" d="m396.85 518.6h33.612m-33.612 63.326h22.48m-22.48 42.212h11.123s24.754-86.942 22.686-126.28c0 0-4.6009-4.5484-14.78-7.6321l-19.028 0.0652m0 28.313h-33.612m33.612 63.326h-22.48m22.48 42.212h-11.123s-24.754-86.942-22.686-126.28c0 0 4.6009-4.5484 14.78-7.6321l19.028 0.0652" fill="none" stroke="#ececec" stroke-width="4.5354"/>
  <ellipse id="hud" cx="396.85" cy="592.47" rx="9.4453" ry="4.7621" fill="#00c600" stop-color="#000000"/>
  <circle id="radar" cx="396.85" cy="725.99" r="77.631" fill="#b3b3b3" stop-color="#000000"/>
 </g>
 <g id="decal">
  <image id="roundel_wingR" transform="scale(-1,1)" x="-65.408" y="288.98" width="50.29" height="26.624" preserveAspectRatio="xMidYMid" xlink:href="../fe/src/assets/roundels/india.svg"/>
  <image id="roundel_wingL" x="728.29" y="288.98" width="50.29" height="26.624" preserveAspectRatio="xMidYMid" xlink:href="../fe/src/assets/roundels/india.svg"/>
  <image id="roundel_tailL" transform="rotate(-61.85)" x="116.36" y="409.26" width="50.29" height="26.624" preserveAspectRatio="xMidYMid" xlink:href="../fe/src/assets/roundels/india.svg"/>
  <image id="roundel_tailR" transform="matrix(-.47178 -.88171 -.88171 .47178 0 0)" x="-258.1" y="-290.56" width="50.29" height="26.624" preserveAspectRatio="xMidYMid" xlink:href="../fe/src/assets/roundels/india.svg"/>
 </g>
 <image id="qr" transform="rotate(-38.545)" x="-75.267" y="102.25" width="85.703" height="85.703" preserveAspectRatio="xMidYMid" xlink:href="../fe/src/assets/qrCodes/origami-skin.svg"/>
</svg>
