<svg width="210mm" height="297mm" version="1.1" viewBox="0 0 793.7 1122.5" xmlns="http://www.w3.org/2000/svg" xmlns:xlink="http://www.w3.org/1999/xlink">
 <rect id="bounds" width="793.87" height="1122.5" fill="#ffffff" stop-color="#000000"/>
 <g id="body">
  <path id="base" d="m396.86 958.4 118.9-115.25-118.91-117.15-116.99 117.18zm-0.0061-958.53-48.473 0.13867-126.61 105.9 175.08 127.27 175.08-127.27-126.61-105.9zm175.08 106.04-175.08 349.19-175.08-349.19c-24.573 20.031-49.551 39.618-73.219 60.717l-80.824 37.223 83.271-69.611-151-134.23v235.03l-0.16602 93.791 0.16602 207.07 222.09 14.102-25.217-240.39 164.15 379.96 35.832 36.432 35.834-36.432 164.15-379.96-25.217 240.39 222.09-14.102 0.16602-207.07-0.16602-93.791v-235.03l-151 134.23 83.271 69.609-80.824-37.221c-23.668-21.099-48.644-40.687-73.217-60.717zm-401.85 845.42-170.25 171.2h242.9l-63.93-70.568zm453.54 0-8.7266 100.63-63.93 70.568h242.9z" fill="#8b8d9c"/>
  <path id="camo" transform="translate(0 -.0092569)" d="m396.85-0.12891v38.938s22.132 14.96 37.783 41.52 33.362 47.967 76.207 68.873l0.77149 0.55469 60.329-43.845-126.62-105.9-48.458-0.13816zm-71.984 19.805-103.1 86.234c-20.584 16.78-41.299 33.426-61.443 50.732 1.8431 9.8566 5.8444 21.47 14.752 24.961 15.387 6.0309 18.212-7.9142 38.021 10.697 14.367 13.498 38.876 4.6304 51.348-1.2773l-42.674-85.111 87.053 63.281c25.5-20.284 49.149-62.881 16.041-149.52zm287.11 191.31s43.902 55.945 22.1 87.45c-12.611 18.223-6.2358 45.822 29.393 61.133 37.439 16.089 22.905 58.02-11.369 53.611s-30.08 41.525-30.08 41.525-1.5412 14.282-23.668 19.057c-22.418 4.8375-26.728 76.249-26.728 76.249l222.25-221.18-0.16211-91.58c-23.591-28.515-36.464-53.76-67.733-33.401-7.6268 18.769 5.171 59.259 31.531 72.417 38.548 19.241 23.58 63.287-18.123 72.268-20.671 4.4513-61.323-18.69-48.363-40.02 13.208-21.738-0.87349-39.069-20.113-45.318-24.955-8.1054-1.5271-86.276-1.5271-86.276l-24.229-10.291-33.178 44.36-10.31 27.653c1.3829-23.245-25.354-49.103-37.615-54.391-11.795-5.087-23.356-13.58-24.26-14.246l32.146-64.093 73.217 60.717zm-509.11-20.743c-2.2591 0.0349-4.6404 0.35071-7.0137 0.65039l-22.93 10.561c-11.738 10.591-28.88 31.967-22.311 63.871 9.6616 46.92 33.422 46.306 39.805 43.875s14.491-2.4504 19.051-17.201c4.5599-14.751 5.6007-29.791 18.713-30.176 13.112-0.38492 21.297 6.705 16.92 28.117-4.3773 21.412-8.7736 28.888 11.352 33.938 18.878 4.7368 39.187-0.19263 41.818-0.85157l-1.4062-13.414 5.6328 13.041c6.7312-0.47654 57.819-2.9821 78.205 33.596 15.062 27.024 55.328 29.761 81.164 29.092l-37.283-74.359c-13.081 4.0387-32.925 4.912-41.793-22.24-13.768-42.154-83.957-30.123-83.957-30.123s-1.3574 6.5152-13.824 10.684c-12.467 4.1683-18.905-7.4514-17.498-21.203 1.2313-12.033-21.056-58.529-64.645-57.855zm412.58 28.301-79.115 157.79c12.531 13.799 30.482 26.726 50.201 16.363 31.828-16.726 33.862-51.452 31.131-60.406-2.7315-8.9542-6.5949-19.842-2.6758-34.969 3.5206-13.588 13.801-49.603 0.45898-78.779zm-509.24 38.762-6.2185 3.1471-0.16797 68.377 198.25 197.74c48.069-61.071-29.33-66.027-14.882-90.056-2.8953-46.225-21.675-28.347-30.178-13.844-8.5023 14.503-42.061 12.771-35.406-21.676 6.6551-34.447-16.164-26.738-16.164-26.738s-16.962 11.219-26.92-15.59c-9.9581-26.809-25.447-18.185-33.006-14.291-7.5584 3.8941-26.412-5.0912-31.463-22.188-5.0513-17.096-3.8479-64.877-3.8479-64.877zm408.13 162.9-17.498 34.898-13.803-27.529c-1.8032 3.0316-3.175 6.3398-3.875 9.6738-3.1839 15.163-20.698 22.615-37.902 43.936-17.204 21.32 0.20751 31.542-19.328 50.107-9.6868 9.2059-18.054 11.839-24.043 12.172l10.182 23.57c37.278-4.5983 66.598-10.902 55.629 21.002-5.8336 16.968-16.188 32.435-26.156 47.217l23.469 54.324 35.832 36.432 35.834-36.432 52.881-122.41c-1.8498-1.3657-4.1511-1.723-7.1094-0.36133-26.777 12.325-39.286 9.8518-33.854-18.371 5.4324-28.223 31.542-15.204 49.207-10.84 1.4052 0.34713 3.0144 0.10271 4.7012-0.39062l32.377-74.943c-13.57-3.1487-30.492 2.3698-58.488 7.791-34.198 6.6221-30.248-29.235-52.594-46.461-1.8994-1.4642-3.669-2.3799-5.4609-3.3887zm-151.39 20.072c-3.1746 0.18921-4.5465 0.37714-9.1816 1.0606 8.8862 21.218 23.284 55.025 35.926 83.084 0 0 32.665-19.84 20.98-60.895-5.8422-20.527-27.514-24.455-47.725-23.25zm-90.705 536.14c-10.531 21.35-46.483 89.395-78.707 86.578-10.83-0.9466-21.083-2.3594-30.385-4.1465l-63.332 63.686h242.9l-63.93-70.568zm524.74 48.701c-34.251 2.6056-70.07 10.99-80.957 13.666l-1.1426 13.18-1.8281 2.0176c0.12939 13.636-10.786 31.199-8.5059 49.205 1.3232 10.447 6.6027 16.118 12.527 19.346h176.78z" fill="#585a69"/>
 </g>
 <g id="guide" fill="none" stroke="#808080">
  <path d="M 793.87,1122.5 0,328.8 M 0,1122.5 793.87,328.8 M 0,-0.02 h 793.7 v 1122.5 H 0 Z" stop-color="#000000" stroke-dasharray="4, 1" style="font-variation-settings:normal"/>
  <path d="m718.33 1122.5 1.175-29.807 21.524-22.924m-114.78-13.548 8.7071-92.661m158.75 158.94-167.46-66.279-61.238 66.279m130.32-227.51 98.378-1.2436m-332.22 1.2436-64.63 63.406m89.516-445.48 27.3 95.847m-116.82 117.21 230.3-549.92 166.55 84.384m-396.85-260.59 230.3 176.21m-551.78 946.45-1.175-29.807-21.524-22.924m114.78-13.548-8.7071-92.661m-158.75 158.94 167.46-66.279 61.238 66.279m-130.32-227.51-98.378-1.2436m332.22 1.2436 64.63 63.406m-89.516-445.48-27.3 95.847m116.82 117.21-230.3-549.92-166.55 84.384m396.85-260.59-230.3 176.21" stroke-dasharray="3, 1"/>
 </g>
 <g id="parts">
  <path id="cockpit" d="m396.85 628.33h11.425s25.427-88.998 23.303-130.98c0 0-4.726-12.413-15.182-15.703l-19.545 0.0696m0 146.62h-11.425s-25.427-88.998-23.303-130.98c0 0 4.726-12.413 15.182-15.703l19.545 0.0696" fill="#302d38"/>
  <path id="cockpitBorder" d="m396.85 515.71h34.526m-34.526 67.577h23.091m-23.091 45.045h11.425s25.427-88.998 23.303-130.98c0 0-4.726-12.413-15.182-15.703l-19.545 0.0696m0 33.993h-34.526m34.526 67.577h-23.091m23.091 45.045h-11.425s-25.427-88.998-23.303-130.98c0 0 4.726-12.413 15.182-15.703l19.545 0.0696" fill="none" stroke="#585a69" stroke-width="4.7484"/>
  <ellipse id="hud" cx="396.85" cy="592.47" rx="9.4453" ry="4.7621" fill="#00c600" stop-color="#000000"/>
 </g>
 <g id="decal">
  <image id="roundel_wingR" transform="scale(-1,1)" x="-65.408" y="288.98" width="50.29" height="26.624" preserveAspectRatio="xMidYMid" xlink:href="../fe/src/assets/roundels/india.svg"/>
  <image id="roundel_wingL" x="728.29" y="288.98" width="50.29" height="26.624" preserveAspectRatio="xMidYMid" xlink:href="../fe/src/assets/roundels/india.svg"/>
  <image id="roundel_tailL" transform="rotate(-61.85)" x="116.36" y="409.26" width="50.29" height="26.624" preserveAspectRatio="xMidYMid" xlink:href="../fe/src/assets/roundels/india.svg"/>
  <image id="roundel_tailR" transform="matrix(-.47178 -.88171 -.88171 .47178 0 0)" x="-258.1" y="-290.56" width="50.29" height="26.624" preserveAspectRatio="xMidYMid" xlink:href="../fe/src/assets/roundels/india.svg"/>
 </g>
 <image id="qr" transform="rotate(-38.545)" x="-75.267" y="102.25" width="85.703" height="85.703" preserveAspectRatio="xMidYMid" xlink:href="../fe/src/assets/qrCodes/origami-skin.svg"/>
</svg>
