<svg version="1.1" viewBox="0 0 601 601" xmlns="http://www.w3.org/2000/svg">
 <g transform="translate(.5 .5)">
  <circle cx="300" cy="300" r="300" fill="#00562a"/>
  <circle cx="300" cy="300" r="245" fill="#fff"/>
  <circle cx="300" cy="300" r="150" fill="#00562a"/>
  <path d="M279.75 170.219c6.493 4.384 12 4.046 13 12.031-5.729-12.138-44.219-7.79-47.031 6.156 6.497-6.311 22.432-7.152 25.437.281-15.748-1.409-34.567 2.002-38 21.657 1.997-11.235 16.616-13.141 26.188-13.594-16.119 10.235-27.891 20.199-26.875 41.375 4.167-15.566 7.84-15.549 25.968-27.469-11.407 13.946-18.828 22.741-10.625 41.469-4.51-15.314 16.49-27.727 19.375-30.688-7.247 15.405-15.264 18.189-7.843 36.907-.071-5.658 16.016-29.237 19.5-31.625-.881 5.945-3.868 8.91-3.282 20.219 2.571-12.502 13.49-19.84 15.47-20.657.347 21.728.578 56.366.874 78.531-28.951-17.299-59.782-25.344-92.812-25.25-13.05.038-26.243 1.494-39.438 4.438 47.193 1.385 87.476 4.465 125.125 33.688-11.375 7.237-36.783 29.667-47.375 38.625-2.16-3.914-2.364-8.8-5.375-12.563-17.923-33.914-41.982 21.743-4.062 12 10.136 4.723-6.267 13.513-10.594 15.25-31.281-22.989-43.964 12.836-10.625 15.344 12.379 1.249 22.855-5.785 32.094-12.938 30.62 47.304 53.261-13.25 12.437.25-15.507-6.808 31.73-37.212 40.844-42.437-1.021 31.315-4.191 66.127-15.688 95.406h47.125c-11.496-29.28-14.666-64.091-15.687-95.406 9.113 5.225 56.351 35.63 40.844 42.437-40.824-13.5-18.183 47.054 12.437-.25 9.239 7.153 19.715 14.187 32.094 12.938 33.34-2.508 20.656-38.333-10.625-15.344-4.327-1.737-20.761-10.527-10.625-15.25 37.92 9.743 13.892-45.914-4.031-12-3.01 3.763-3.214 8.65-5.375 12.563-10.592-8.958-36-31.388-47.375-38.625 37.649-29.223 77.932-32.303 125.125-33.688-13.195-2.944-26.389-4.4-39.438-4.438-33.03-.094-63.861 7.951-92.812 25.25.295-22.165.527-56.803.875-78.53 1.98.816 12.898 8.154 15.468 20.655.587-11.308-2.4-14.273-3.28-20.218 3.483 2.388 19.57 25.967 19.5 31.625 7.42-18.718-.597-21.502-7.845-36.906 2.886 2.96 23.886 15.373 19.375 30.687 8.204-18.728.783-27.523-10.625-41.469 18.129 11.92 21.802 11.903 25.97 27.469 1.015-21.176-10.757-31.14-26.876-41.375 9.273.439 23.287 2.238 25.969 12.563-3.905-18.74-22.314-22.01-37.781-20.625 3.005-7.434 18.94-6.593 25.437-.282-2.812-13.946-41.302-18.294-47.031-6.156 1-7.985 6.507-7.647 13-12.031-11.973 3.775-19.886 4.109-20.25 8.469-.364-4.36-8.277-4.694-20.25-8.47z" fill="#fff"/>
 </g>
</svg>
