<svg version="1.0" viewBox="0 0 200 200" xmlns="http://www.w3.org/2000/svg">
 <g transform="matrix(.42011 0 0 .42011 77.467 68.924)">
  <circle cx="53.636" cy="73.97" r="223.03" fill="#fff" stroke="#ce1126" stroke-dashoffset="1.7149" stroke-width="30" style="paint-order:fill markers stroke"/>
  <path d="m48.102-92.294c-11.257 0.0463-23.757 1.6986-33.812 9.5157-4.8717 4.1812-10.611 10.793-15.571 11.752-10.322 1.9971-18.5 0.851-25.399 4.7553-6.1604 3.4865-10.477 7.9882-13.891 13.123l0.0744 0.34985h71.312c12.262-13.817 34.296-23.629 56.566-23.629 15.456 0 24.577 2.2467 40.856 9.9499-13.641-14.012-38.288-25.635-80.136-25.817zm39.28 21.466c-18.454 0-37.146 7.6199-48.671 18.029h21.557c21.311-1e-6 39.052 5.4324 53.25 14.572 36.585 23.552 50.867 57.408 50.362 89.84-0.35804 22.989-7.9931 45.282-20.131 63.057 0.64984-0.44036 1.2977-0.88361 1.9425-1.3322 28.351-19.725 49.813-49.196 45.786-83.628-2.2139-18.933-9.5919-40.643-28.247-62.022-21.965-25.172-51.082-38.118-75.849-38.517zm-149.01 23.629c-1.0065 0-3.4683 0.49387-4.3718 0.76584-8.4462 2.5425-15.042 6.7127-14.579 17.091 4.2439-2.7762 8.1567-3.0515 9.6382-3.0515v4.4509c-8.6896 0-16.175 6.5376-13.018 14.792l6.5872 17.224c6.2321-6.2321 20.093-5.9132 23.254-5.9132 3.4665 0 6.4844 0.33414 9.0028 0.93567 8.4948 2.029 12.093 8.897 3.381 15.49-2.7282 2.0645-7.3595 3.296-13.833 3.3824-6.2901 0.08391-13.936-2.8511-21.319-11.172-9.6811 16.486-2.3852 33.582 3.6174 40.257 7.7896-12.669 25.023-11.587 39.293-11.587h15.974c9.8443-0.0353 19.17-2.3311 26.547-7.1603 7.3704-4.825 12.891-12.116 15.326-22.742 1.2959-6.2748 0.57971-14.634-2.0174-21.357l-1.4707-3.8086 4.0819 0.30402c5.9415 0.44252 8.7653-0.3895 13.701-2.4739 7.076-2.988 12.13-10.509 12.192-15.465 0.0347-2.8105-0.87294-5.2909-2.4846-7.0507-1.6116-1.7599-3.9234-2.9104-7.2853-2.9104h-55.266s-0.74628 6.7352-7.7174 6.7352c-6.9945 0-8.1851-6.7352-8.1851-6.7352h-23.2zm114.36 0c2.1816 2.8039 3.27 6.3543 3.2246 10.031-8e-3 0.6712-0.0634 1.3449-0.15503 2.0185 36.219 10.208 58.74 39.959 58.162 72.22-0.20171 11.271-4.0622 21.81-9.8025 32.547-9.6026 17.961-24.361 28.506-34.473 43.711-11.791 17.73-13.084 32.986-10.488 45.183 22.462-12.027 47.333-21.795 70.297-34.982 16.87-18.04 28.351-44.632 28.777-72.004 0.47893-30.751-12.69-62.445-47.793-85.043-13.266-8.5402-29.856-13.682-50.219-13.682zm1.4893 17.421c-1.609 3.5484-4.2588 6.8657-7.6316 9.494 14.072 14.1 17.48 32.044 14.593 49.19-3.0364 18.038-12.767 35.393-24.112 48.063-21.221 23.7-46.719 52.862-47.16 80.654-0.22877 14.409 4.5298 28.631 17.674 42.933 1.0519-1.4636 2.1702-2.9422 3.3533-4.438 11.638-14.714 26.636-25.521 43.172-34.816-3.2808-13.784-2.1214-31.473 10.915-51.075 10.811-16.257 25.312-26.627 34.199-43.25 5.5141-10.314 8.9611-19.951 9.141-30.006 0.53017-29.621-20.024-57.165-54.143-66.749zm-12.521 12.543c-0.44595 0.21772-0.89735 0.42734-1.3575 0.62167-4.3613 1.8417-7.8826 2.406-12.013 2.5632l0.12609 0.1633c0.93538 3.3288 1.478 6.7657 1.6263 10.196 0.19147 3.5938-0.0497 7.1295-0.73329 10.421l-6e-3 0.02687-6e-3 0.02739c-0.29637 1.2966-0.63976 2.5531-1.0232 3.7739-0.0327 0.10627-0.0646 0.21295-0.0982 0.31884-0.0169 0.05336-0.0351 0.10544-0.0522 0.15865-0.0198 0.06071-0.0405 0.12086-0.0605 0.18138-7.0655 21.658-27.683 29.758-44.734 41.594-24.08 16.038-39.966 29.601-47.514 42.199-9.6616 16.124-12.353 31.635-10.292 49.869 3.6701 32.476 28.735 67.105 73.603 95.353-4.8396-11.697-2.3423-22.869 5.2105-34.912-14.607-15.532-20.32-31.713-20.064-47.788 0.49302-31.054 27.361-60.593 48.588-84.299 10.702-11.952 19.956-28.588 22.762-45.258 2.731-16.224-0.39058-32.29-13.961-45.211z" fill="#ce1126" style="paint-order:fill markers stroke"/>
 </g>
</svg>
