<svg version="1.0" viewBox="0 0 1235.5 1175" xmlns="http://www.w3.org/2000/svg">
 <g transform="translate(312.94 -1556.3)">
  <g transform="matrix(.38178 -1.175 1.175 .38178 -3375.7 1097.2)" fill="#de0000">
   <path d="m376.15 3535.9-809.02-587.79 492.68 172.54 316.34 415.25z"/>
   <path d="m567.13 2948.1h-1e3l492.62 185.66 507.38-185.66z"/>
   <path d="m-241.88 3535.9 809.02-587.79-508.66 141.8-300.35 445.99z"/>
   <path d="m376.15 3535.9-309.02-951.06-52.097 544.02 361.11 407.04z"/>
   <path d="m-241.88 3535.9 309.02-951.06 32.421 539.1-341.44 411.96z"/>
  </g>
  <g transform="matrix(.35254 -1.085 1.085 .35254 -3093.8 1182.1)" fill="#fff">
   <path d="m376.15 3535.9-809.02-587.79 492.68 172.54 316.34 415.25z"/>
   <path d="m567.13 2948.1h-1e3l492.62 185.66 507.38-185.66z"/>
   <path d="m-241.88 3535.9 809.02-587.79-508.66 141.8-300.35 445.99z"/>
   <path d="m376.15 3535.9-309.02-951.06-52.097 544.02 361.11 407.04z"/>
   <path d="m-241.88 3535.9 309.02-951.06 32.421 539.1-341.44 411.96z"/>
  </g>
  <g transform="matrix(.27618 -.85 .85 .27618 -2357.7 1403.8)" fill="#de0000">
   <path d="m376.15 3535.9-809.02-587.79 492.68 172.54 316.34 415.25z"/>
   <path d="m567.13 2948.1h-1e3l492.62 185.66 507.38-185.66z"/>
   <path d="m-241.88 3535.9 809.02-587.79-508.66 141.8-300.35 445.99z"/>
   <path d="m376.15 3535.9-309.02-951.06-52.097 544.02 361.11 407.04z"/>
   <path d="m-241.88 3535.9 309.02-951.06 32.421 539.1-341.44 411.96z"/>
  </g>
 </g>
</svg>
