<svg id="svg5" width="210mm" height="297mm" version="1.1" viewBox="0 0 210 297" xmlns="http://www.w3.org/2000/svg" xmlns:xlink="http://www.w3.org/1999/xlink">
 <g id="layer9">
  <rect id="bounds" width="210" height="297" fill="#e3e3e3" stop-color="#000000"/>
  <g id="body">
   <path id="base" d="m0 67.4 35.104-33.7h49.235l-11.365-33.7h-72.973zm105 129.6-62.56-62.876-42.44-66.728 35.509 33.7h69.491zm-105 99.996h5l69.041-69.058-74.041 13.17zm210-229.6-35.104-33.7h-49.235l11.365-33.7h72.973zm-105 129.6 62.56-62.876 42.44-66.728-35.509 33.7h-69.491zm105 99.996h-5l-69.041-69.058 74.041 13.17z" fill="#989da1"/>
   <path id="camo1" d="m125.66 33.7h18.683l-6.6529-8.4579zm-100.1 74.187 10.201-6.7873 14.042-0.22413 6.7279 3.3885 8.938-3.1644 14.451 5.4042 4.8929-5.4042h58.024l1.221 1.1423 7.4363 2.5105 6.359-3.6438 15.21-0.28013 5.2944-4.3067 10.694 4.2522-16.738 25.889-17.241 0.15331-11.731 7.3117-10.634-4.346-1.583-12.354-15.063 8.8151-22.191-0.18879-5.552 8.0735-12.792-8.6313-12.139 3.5658-8.8167-4.0526-20.335-3.532zm-10.263 150.38 10.421 11.333 2.5988-21.265-2.7905-1.8765zm159.64-9.4854 21.256 25.084 7.7968-16.262-12.239-10.034-11.81-3.4494z" fill="#e9ebea"/>
   <path id="camo2" d="m89.206 158.69 5.3702 13.029 24.588-9.0747 17.773 2.2561 13.326-13.729 0.73856-3.7398-9.9931-0.88104-13.637-3.8198-10.212-2.0739-5.3069 4.8538-2.8181 0.11561-8.1038-0.0948zm-35.837-39.758 4.0899 20.71 5.8933-9.5409 12.173-4.6005 2.1035-5.6998-4.9085-1.1055-11.455 3.5846zm-48.481-64.672 7.3421-27.188-12.442-3.6745 0.002301 28.802zm126.3-34.517 20.505-5.1001 5.2227 1.1096 4.724-0.7493 3.6507-14.458-4.8508 3.4957-3.7282-2.1356-20.021 8.8465zm-107 258.07 13.147-13.146-2.7644-13.499-10.635-1.3199zm155.25-6.3709 5.1771 5.1769 11.869-18.013-10.145-9.153z" fill="#6c6f74"/>
   <circle id="radar" cx="104.92" cy="197.04" r="16.931" fill="#e9ebea" stop-color="#000000"/>
  </g>
  <g id="guideline" fill="none" stroke-dasharray="0.6, 0.6" stroke-width=".15">
   <path id="guide" d="m210.42 67.4-35.519-33.7 22.861-33.7m-30.194 134.28 42.852-66.876m-105.42 129.6 53.421-129.6m9.1432 66.876-1.4967-66.876m-42.528 111.37 36.932-111.37m-10.207 83.768 9.932-50.292m-23.169-100.88-11.365 33.7 11.801 33.7-32.462 89.325 20.186-55.625m85.191 140.08-74.418-13.237m69.041 69.058-100-99.996 104.91-105m-104.91-58.3h105.26m-105.26 33.7h105.19m-210.6-1e-6 35.519-33.7-22.861-33.7m30.194 134.28-42.852-66.876m105.42 129.6-53.421-129.6m-9.1432 66.876 1.4967-66.876m42.528 111.37-36.932-111.37m10.207 83.768-9.932-50.292m23.169-100.88 11.365 33.7-11.801 33.7 32.462 89.325-20.186-55.625m-85.191 140.08 74.418-13.237m-69.041 69.058 100-99.996-104.91-105m104.91-58.3h-105.26m105.26 33.7h-105.19" stroke="#999999"/>
   <path id="centerLine" d="m105 0v297" stroke="#999999"/>
   <rect id="border" width="210" height="297" stop-color="#000000" stroke="#4d4d4d"/>
  </g>
  <g id="parts">
   <path id="cockpit" transform="matrix(.85225 0 0 .85225 15.514 25.148)" d="m112.72 153.83s-5.4825-0.6141-7.7242-0.61452m0 16.417s0.44925-0.0126 1.0706-0.12997c1.724-0.32576 5.1236-2.532 6.6194-15.756 1.2213-10.797-7.69-10.033-7.69-10.033m-7.7242 10.116s5.4825-0.6141 7.7242-0.61452m0 16.417s-0.44925-0.0126-1.0706-0.12997c-1.724-0.32576-5.1236-2.532-6.6194-15.756-1.2213-10.797 7.69-10.033 7.69-10.033" fill="#4d4d4d"/>
   <path id="cockpitBorder" transform="matrix(.85225 0 0 .85225 15.514 25.148)" d="m112.72 153.83s-5.4825-0.6141-7.7242-0.61452m0 16.417s0.44925-0.0126 1.0706-0.12997c1.724-0.32576 5.1236-2.532 6.6194-15.756 1.2213-10.797-7.69-10.033-7.69-10.033m-7.7242 10.116s5.4825-0.6141 7.7242-0.61452m0 16.417s-0.44925-0.0126-1.0706-0.12997c-1.724-0.32576-5.1236-2.532-6.6194-15.756-1.2213-10.797 7.69-10.033 7.69-10.033" fill="none" stroke="#989da1" stroke-width=".80024"/>
  </g>
  <g id="decal">
   <image id="roundel_wingR" transform="matrix(-.97029 -.24194 -.26208 .96505 0 0)" x="-22.597" y="5.2414" width="12.644" height="11.585" preserveAspectRatio="xMidYMid" xlink:href="../fe/src/assets/roundels/soviet.svg"/>
   <image id="roundel_wingL" transform="matrix(.97029 -.24194 .26208 .96505 0 0)" x="180.58" y="56.114" width="12.644" height="11.585" preserveAspectRatio="xMidYMid" xlink:href="../fe/src/assets/roundels/soviet.svg"/>
   <image id="roundel_tailR" transform="matrix(-.16547 -.98621 -.98944 .14491 0 0)" x="-278.65" y="23.168" width="12.644" height="11.585" preserveAspectRatio="xMidYMid" xlink:href="../fe/src/assets/roundels/soviet.svg"/>
   <image id="roundel_tailL" transform="matrix(.16547 -.98621 .98944 .14491 0 0)" x="-248.13" y="230.86" width="12.644" height="11.585" preserveAspectRatio="xMidYMid" xlink:href="../fe/src/assets/roundels/soviet.svg"/>
  </g>
  <image id="qr" x="147.07" y="267.9" width="26.044" height="26.044" preserveAspectRatio="xMidYMid" xlink:href="../fe/src/assets/qrCodes/origami-skin.svg"/>
 </g>
</svg>
