<svg id="svg5" width="210mm" height="297mm" version="1.1" viewBox="0 0 210 297" xmlns="http://www.w3.org/2000/svg" xmlns:xlink="http://www.w3.org/1999/xlink">
 <g id="layer9">
  <rect id="bounds" width="210" height="297" fill="#e3e3e3" stop-color="#000000"/>
  <g id="body">
   <path id="base" d="m0 67.4 35.104-33.7h49.235l-11.365-33.7h-72.973zm105 129.6-62.56-62.876-42.44-66.728 35.509 33.7h69.491zm-105 99.996h5l69.041-69.058-74.041 13.17zm210-229.6-35.104-33.7h-49.235l11.365-33.7h72.973zm-105 129.6 62.56-62.876 42.44-66.728-35.509 33.7h-69.491zm105 99.996h-5l-69.041-69.058 74.041 13.17z" fill="#cccccc"/>
   <path id="camo" d="m125.23 33.7h35.777l5.1514-30.294-9.3615 0.83704s-3.6914-0.22502-8.0544 1.4043c-4.3629 1.6293-11.148-0.66941-11.878-1.8554-0.73045-1.186-2.8159-1.3586-3.8029-0.65555-0.98706 0.70306 4.0528 1.8289 1.9766 7.5257-2.0762 5.6968-9.8078 23.038-9.8078 23.038zm43.144-31.921 5.2312 26.739s3.1074-5.4649 6.2866-9.0641 5.9888-6.3831 5.7141-11.989c-0.19189-3.9163-6.2259-3.141-6.2259-3.141s-6.6542 0.61295-11.006-2.5449zm27.974 10.695c-3.874 0.05455-7.5981 7.3395-10.29 12.007-4.1694 7.2283-9.8036 9.1293-9.9546 9.2193-0.15105 0.09002 0.8375 1.0616 3.2858 2.3501 4.2538 2.2387 5.7223 3.4178 6.5406 4.29 0.73561 0.78407 10.582 11.025 15.414 2.127 1.5674-2.8867 2.6159-8.4867 2.6336-8.7672 0.0409-0.14769 1.0194-6.418 1.0194-6.418s-1.4842-6.4624-4.1476-11.034c-1.5089-2.783-2.9851-3.7953-4.501-3.7739zm-71.165 88.626-20.186 55.625v19.262s6.5762-0.40597 10.415-16.574c3.8386-16.168 15.502-25.285 15.502-25.285l5.5935 6.0332s5.0508 0.97614 9.8185-3.4411c4.7677-4.4173 8.1142-5.9071 8.1142-5.9071l13.189 3.3507-0.13849-0.0357 21.328-33.028zm27.169 129.68s14.505 12.614 23.14 23.989c7.7657 10.231 14.18 16.905 20.656 13.758 6.4754-3.1474 8.8498-28.304 8.8498-28.304zm-67.588-197.08h-35.777l-5.1514-30.294 9.3615 0.83704s3.6914-0.22502 8.0544 1.4043c4.3629 1.6293 11.148-0.66941 11.878-1.8554 0.73045-1.186 2.8159-1.3586 3.8029-0.65555 0.98706 0.70306-4.0528 1.8289-1.9766 7.5257 2.0762 5.6968 9.8078 23.038 9.8078 23.038zm-43.144-31.921-5.2312 26.739s-3.1074-5.4649-6.2866-9.0641-5.9888-6.3831-5.7141-11.989c0.19189-3.9163 6.2259-3.141 6.2259-3.141s6.6542 0.61295 11.006-2.5449zm-27.974 10.695c3.874 0.05455 7.5981 7.3395 10.29 12.007 4.1694 7.2283 9.8036 9.1293 9.9546 9.2193 0.15105 0.09002-0.8375 1.0616-3.2858 2.3501-4.2538 2.2387-5.7223 3.4178-6.5406 4.29-0.73561 0.78407-10.582 11.025-15.414 2.127-1.5674-2.8867-2.6159-8.4867-2.6336-8.7672-0.0409-0.14769-1.0194-6.418-1.0194-6.418s1.4842-6.4624 4.1476-11.034c1.5089-2.783 2.9851-3.7953 4.501-3.7739zm71.165 88.626 20.186 55.625v19.262s-6.5762-0.40597-10.415-16.574c-3.8386-16.168-15.502-25.285-15.502-25.285l-5.5935 6.0332s-5.0508 0.97614-9.8185-3.4411c-4.7677-4.4173-8.1142-5.9071-8.1142-5.9071l-13.189 3.3507 0.13849-0.0357-21.328-33.028zm-27.169 129.68s-14.505 12.614-23.14 23.989c-7.7657 10.231-14.18 16.905-20.656 13.758-6.4754-3.1474-8.8498-28.304-8.8498-28.304z" fill="#63707a"/>
  </g>
  <g id="guideline" fill="none" stroke-dasharray="0.6, 0.6" stroke-width=".15">
   <path id="guide" d="m210.42 67.4-35.519-33.7 22.861-33.7m-30.194 134.28 42.852-66.876m-105.42 129.6 53.421-129.6m9.1432 66.876-1.4967-66.876m-42.528 111.37 36.932-111.37m-10.207 83.768 9.932-50.292m-23.169-100.88-11.365 33.7 11.801 33.7-32.462 89.325 20.186-55.625m85.191 140.08-74.418-13.237m69.041 69.058-100-99.996 104.91-105m-104.91-58.3h105.26m-105.26 33.7h105.19m-210.6-1e-6 35.519-33.7-22.861-33.7m30.194 134.28-42.852-66.876m105.42 129.6-53.421-129.6m-9.1432 66.876 1.4967-66.876m42.528 111.37-36.932-111.37m10.207 83.768-9.932-50.292m23.169-100.88 11.365 33.7-11.801 33.7 32.462 89.325-20.186-55.625m-85.191 140.08 74.418-13.237m-69.041 69.058 100-99.996-104.91-105m104.91-58.3h-105.26m105.26 33.7h-105.19" stroke="#999999"/>
   <path id="centerLine" d="m105 0v297" stroke="#999999"/>
   <rect id="border" width="210" height="297" stop-color="#000000" stroke="#4d4d4d"/>
  </g>
  <g id="parts">
   <path id="cockpit" transform="matrix(.85225 0 0 .85225 15.514 25.148)" d="m112.72 153.83s-5.4825-0.6141-7.7242-0.61452m0 16.417s0.44925-0.0126 1.0706-0.12997c1.724-0.32576 5.1236-2.532 6.6194-15.756 1.2213-10.797-7.69-10.033-7.69-10.033m-7.7242 10.116s5.4825-0.6141 7.7242-0.61452m0 16.417s-0.44925-0.0126-1.0706-0.12997c-1.724-0.32576-5.1236-2.532-6.6194-15.756-1.2213-10.797 7.69-10.033 7.69-10.033" fill="#4d4d4d"/>
   <path id="cockpitBorder" transform="matrix(.85225 0 0 .85225 15.514 25.148)" d="m112.72 153.83s-5.4825-0.6141-7.7242-0.61452m0 16.417s0.44925-0.0126 1.0706-0.12997c1.724-0.32576 5.1236-2.532 6.6194-15.756 1.2213-10.797-7.69-10.033-7.69-10.033m-7.7242 10.116s5.4825-0.6141 7.7242-0.61452m0 16.417s-0.44925-0.0126-1.0706-0.12997c-1.724-0.32576-5.1236-2.532-6.6194-15.756-1.2213-10.797 7.69-10.033 7.69-10.033" fill="none" stroke="#63707a" stroke-width=".80024"/>
  </g>
  <g id="decal">
   <image id="roundel_wingR" transform="matrix(-.97029 -.24194 -.26208 .96505 0 0)" x="-22.597" y="5.2414" width="12.644" height="11.585" preserveAspectRatio="xMidYMid" xlink:href="../fe/src/assets/roundels/soviet.svg"/>
   <image id="roundel_wingL" transform="matrix(.97029 -.24194 .26208 .96505 0 0)" x="180.58" y="56.114" width="12.644" height="11.585" preserveAspectRatio="xMidYMid" xlink:href="../fe/src/assets/roundels/soviet.svg"/>
   <image id="roundel_tailR" transform="matrix(-.16547 -.98621 -.98944 .14491 0 0)" x="-278.65" y="23.168" width="12.644" height="11.585" preserveAspectRatio="xMidYMid" xlink:href="../fe/src/assets/roundels/soviet.svg"/>
   <image id="roundel_tailL" transform="matrix(.16547 -.98621 .98944 .14491 0 0)" x="-248.13" y="230.86" width="12.644" height="11.585" preserveAspectRatio="xMidYMid" xlink:href="../fe/src/assets/roundels/soviet.svg"/>
  </g>
  <image id="qr" x="147.07" y="267.9" width="26.044" height="26.044" preserveAspectRatio="xMidYMid" xlink:href="../fe/src/assets/qrCodes/origami-skin.svg"/>
 </g>
</svg>
