<svg id="svg2" version="1.0" viewBox="0 0 1114 1114" xmlns="http://www.w3.org/2000/svg">
 <path id="path2191" d="m557 0c-307.62 1.1339e-13 -557 249.38-557 557 0 307.62 249.38 557 557 557s557-249.38 557-557-249.38-557-557-557zm0 81c262.89 0 476 213.11 476 476s-213.11 476-476 476-476-213.11-476-476 213.11-476 476-476z" color="black" fill="#4d4d4d" fill-rule="evenodd"/>
 <g id="g3089" transform="translate(557 -557)" fill="#4d4d4d" fill-rule="evenodd">
  <g id="g3077">
   <path id="path2193" d="m-366.69 896.85 73.924 218.11 187.6 0.0977 73.631-218.15-114.63 70.892-52.707-62.633-53.226 62.728-114.59-71.043z"/>
   <path id="path1307" d="m-350.33 917.15 64.082 188.95 174.44-0.078 64.419-189.25-100.37 61.767-51.292-60.211-51.147 60.009-100.13-61.184z"/>
  </g>
  <g id="g3081">
   <path id="path2188" d="m31.443 896.85 73.924 218.11 187.6 0.0977 73.631-218.15-114.63 70.892-52.707-62.633-53.226 62.728-114.59-71.043z"/>
   <path id="path2190" d="m47.801 917.15 64.082 188.95 174.44-0.078 64.419-189.25-100.37 61.767-51.292-60.211-51.147 60.009-100.13-61.184z"/>
  </g>
  <g id="g3085">
   <path id="path2194" d="m-167.71 1207.8 73.924 218.11 187.6 0.0977 73.631-218.15-114.63 70.892-52.707-62.633-53.226 62.728-114.59-71.043z"/>
   <path id="path2196" d="m-151.36 1228.1 64.082 188.95 174.44-0.078 64.419-189.25-100.37 61.767-51.292-60.211-51.147 60.008-100.13-61.184z"/>
  </g>
 </g>
</svg>
