<svg id="svg60" width="210mm" height="297mm" version="1.1" viewBox="0 0 210 297" xmlns="http://www.w3.org/2000/svg" xmlns:xlink="http://www.w3.org/1999/xlink">
 <defs id="defs11">
  <symbol id="devil">
   <circle cx="77.134" cy="89.57" r="2.2076" fill="#ffffff" stop-color="#000000"/>
   <circle cx="77.134" cy="89.57" r="2.0588" fill="#f8c820" stop-color="#000000"/>
   <circle cx="77.134" cy="89.57" r="1.9017" fill="#c30d1e" stop-color="#000000"/>
   <circle cx="77.134" cy="89.57" r="1.6785" fill="#ffffff" stop-color="#000000"/>
   <path transform="translate(-4.8948 .11576)" d="m81.904 88.13c-0.04116 0.02955-0.05694 0.08967-0.05846 0.14032-0.0028 0.09487 0.10076 0.1743 0.09354 0.26894-0.0028 0.03738-0.02516 0.07387-0.05262 0.09939-0.1029 0.09566-0.25498 0.11851-0.38587 0.16955-0.07292 0.02844-0.14826 0.05025-0.22217 0.07601-0.06054 0.02109-0.13764 0.01732-0.18124 0.06431-0.03023 0.03258-0.05221 0.08762-0.03508 0.12862 0.04742 0.11354 0.19885 0.17226 0.32156 0.18124 0.05414 4e-3 0.12962-9e-3 0.15201-0.05847 0.02158-0.04767-0.01209-0.11639-0.05433-0.14728-0.05626-0.04115-0.19225 0.05812-0.20888-0.0096-0.01658-0.06746 0.11825-0.07325 0.18006-0.10494 0.12007-0.06156 0.24956-0.13718 0.36963-0.165 0.15199-0.03521 0.0243 0.31742-0.01754 0.46772-0.03346 0.12017-0.1016 0.2314-0.18124 0.32741-0.04684 0.05646-0.09874 0.12114-0.16955 0.14032-0.11628 0.03148-0.25138 1.16e-4 -0.35664-0.05847-0.12431-0.06919-0.15313-0.38467-0.28063-0.32156-0.07844 0.03883 0.01343 0.17898 0.05262 0.25725 0.05253 0.10492 0.12797 0.21255 0.23386 0.26309 0.07571 0.03614 0.16868 0.02564 0.2514 0.01169 0.10349-0.01745 0.18806-0.105 0.29233-0.11693 0.05093-0.0058 0.11708-0.01414 0.15201 0.02339 0.04929 0.05296 0.03243 0.14553 0.01754 0.21632-0.01687 0.08021-0.05129 0.16723-0.11693 0.21632-0.05265 0.03937-0.1326 0.01482-0.19293 0.04093-0.05011 0.02168-0.12351 0.04005-0.13447 0.09354-0.02215 0.10806 0.06605 0.26605 0.1754 0.28063 0.07108 0.0095 0.11588-0.08802 0.15786-0.14616 0.05513-0.07637 0.06007-0.18215 0.11693-0.25725 0.06929-0.09151 0.18784-0.13549 0.26309-0.22217 0.07692-0.0886 0.06992-0.29194 0.18709-0.29817 0.15106-8e-3 0.25394 0.20774 0.28063 0.35664 0.01358 0.07576-0.03726 0.15051-0.07087 0.21975-0.03114 0.06415-0.12997 0.10701-0.11935 0.17752 0.01849 0.12276 0.11157 0.1652 0.28961 0.23415 0.03821 0.0148 0.10114 0.04059 0.12278 0.0058 0.05528-0.08889-0.13332-0.17179-0.15201-0.27479-0.03341-0.18413 0.09648-0.36885 0.08185-0.55542-0.0051-0.06514-0.0167-0.13684-0.05846-0.18709-0.09584-0.11532-0.31257-0.08694-0.39756-0.21047-0.04562-0.06632-0.03499-0.15942-0.02923-0.23971 0.0069-0.09667 0.0061-0.2135 0.076-0.28063 0.08217-0.07893 0.2323-0.02318 0.33325-0.07601 0.05378-0.02814 0.11791-0.06438 0.13447-0.12278 0.01548-0.0546-0.01297-0.11811-0.04677-0.1637-0.04245-0.05725-0.11184-0.13786-0.17965-0.11593-0.03782 0.01223-0.05027 0.07194-0.04335 0.11108 0.01201 0.06787 0.15385 0.11258 0.13672 0.15514-0.03549 0.08814-0.23946 0.11034-0.34908 0.06561-0.03947-0.01611-0.05544-0.0661-0.07329-0.10482-0.02276-0.04937-0.05174-0.10458-0.04093-0.15786 0.0097-0.04777 0.08-0.06814 0.08899-0.11605 0.01317-0.07012-0.0185-0.14731-0.05976-0.20551-0.02909-0.04103-0.07438-0.07402-0.12278-0.0877-0.05451-0.01542-0.12352-0.0213-0.16954 0.01173z" fill="#c30d1e" stop-color="#000000"/>
  </symbol>
  <symbol id="g2841">
   <g id="g2841_transform" transform="matrix(.91433 0 0 .91433 -50.161 -41.981)">
    <rect x="63.68" y="46.718" width="2.5399" height="10.236" fill="#102542" stop-color="#000000"/>
    <rect x="66.22" y="46.718" width="2.5399" height="10.236" fill="#ffffff" stop-color="#000000"/>
    <rect x="68.76" y="46.718" width="2.5399" height="10.236" fill="#c30d1e" stop-color="#000000"/>
   </g>
  </symbol>
  <symbol id="gna">
   <g id="gna_transform" transform="matrix(.80848 0 0 .80848 -17.426 -50.806)">
    <g id="layer3">
     <path d="m30.963 84.354v-1.6838h-4.5369v7.2263h4.5369v-1.7306h-2.2451v-1.8943h4.2095v3.7606a1.8521 1.8521 135 0 1-1.8521 1.8521h-4.6213a1.8521 1.8521 45 0 1-1.8521-1.8521v-7.5445a1.8521 1.8521 135 0 1 1.8521-1.8521h4.6213a1.8521 1.8521 45 0 1 1.8521 1.8521v1.8663z" fill="#cccccc" stop-color="#000000"/>
     <path d="m40.06 80.635h1.7773" fill="#cccccc" stop-color="#000000"/>
     <path d="m41.838 91.884h-2.6894" fill="#cccccc" stop-color="#000000"/>
     <path d="m35.5 83.722v8.1617" fill="#cccccc" stop-color="#000000"/>
     <path d="m33.559 91.884v-11.249" fill="#cccccc" stop-color="#000000"/>
     <path d="m36.307 80.635 3.7535 8.3371" fill="#cccccc" stop-color="#000000"/>
     <path d="m40.06 80.635h1.7773" fill="#cccccc" stop-color="#000000"/>
     <path d="m41.838 91.884-2.6894-2e-6" fill="#cccccc" stop-color="#000000"/>
     <path d="m33.559 80.635v11.249h1.941v-8.1617l3.6482 8.1617 2.6894 2e-6v-11.249h-1.7773v8.3371l-3.7535-8.3371z" fill="#cccccc" stop-color="#000000"/>
     <path d="m61.979 80.635-3.4199 11.248h2.097l0.54622-1.9875h3.9951l0.54622 1.9875h2.097l-3.4199-11.248h-1.7694zm1.2206 1.9952 1.5219 5.5351h-3.0432z" fill="#cccccc" stop-color="#000000"/>
    </g>
    <g id="g2898" transform="translate(.072011 -.035952)">
     <circle cx="50.75" cy="86.287" r="7.7721" fill="#f8c820" stop-color="#000000"/>
     <circle cx="50.75" cy="86.287" r="5.7382" fill="#102542" stop-color="#000000"/>
     <circle cx="50.75" cy="86.287" r="4.0349" fill="#ffffff" stop-color="#000000"/>
     <circle cx="50.75" cy="86.287" r="1.9678" fill="#c30d1e" stop-color="#000000"/>
    </g>
   </g>
  </symbol>
  <symbol id="circleRb">
   <g transform="matrix(.80848 0 0 .80848 .96401 -19.646)">
    <circle cx="34.252" cy="66.844" r="9.6242" fill="#102542" stop-color="#000000"/>
    <circle cx="34.252" cy="66.844" r="4.8948" fill="#c30d1e" stop-color="#000000"/>
   </g>
  </symbol>
 </defs>
 <rect id="base" x=".10163" y=".10163" width="209.8" height="296.8" fill="#c4c4c4" stop-color="#000000" stroke="#000000" stroke-width=".20326"/>
 <g id="body" class="UnoptimicedTransforms" transform="matrix(.37803 0 0 .37803 -.060993 -.31099)" fill="#896833">
  <path id="main" class="UnoptimicedTransforms" d="m277.92 278.58-3e-3 477.16 151.16-111.91 126.27-44.185 0.0345-43.831zm3e-5 0 3e-3 477.16-151.16-111.91-126.27-44.185-0.0345-43.831z" stop-color="#000000" style="-inkscape-stroke:none"/>
  <path id="canad" transform="matrix(2.6453 0 0 2.6453 .16135 .82266)" d="m187.39 22.608-10.448-6.8473 16.955-15.659 16.101-1.4e-7zm-164.78 0 10.448-6.8473-16.955-15.659-16.101-1.4e-7z" stop-color="#000000"/>
 </g>
 <path id="camo" d="m0 0.1018 8.3075 8.3085c0.79622-0.93672 2.2748-2.0863 4.6018-1.7219 3.8821 0.60804 5.951-0.38454 5.4255-4.0225-0.037292-0.25818-0.13258-0.5065-0.27544-0.74621l-1.511-1.4025c-0.22864-0.14403-0.48616-0.28035-0.74724-0.41548zm193.9 0-16.955 15.659 10.448 6.8473 16.755-16.652c-0.66558-0.18659-1.3698-0.33973-2.0914-0.43667-3.0027-0.40343-1.9644 0.1873-4.6772-1.9642-1.168-0.92635-1.5705-2.2442-1.6728-3.453zm-80.659 130.57c-1.2497 0.0307-2.5998 0.5506-3.9796 1.8836-2.3546 2.2748-3.5838 3.1844-4.2602 3.5223v5.2e-4c-0.90889 0.45381-0.79116-0.15503-0.79116-0.15503s-2.9938-2.2448-6.5484-1.9642c-3.5547 0.28063-4.9578 3.2737-4.9578 3.2737s-0.28074 1.5904-3.8354 3.6484c-3.5547 2.058-5.9867 13.47-5.9867 13.47s4.3968-4.8641 7.2967-6.3608c2.4799-1.2799 5.2382-0.37439 7.2027-2.8066 1.9644-2.4322 7.2032-5.6126 7.2032-5.6126l0.41703 0.0165 4.3537 0.17053s2.8062 2.7125 5.7061 2.806c2.8999 0.0935 6.6417 0.0939 8.9803 2.1518 2.3386 2.058 2.8996-0.18707 2.8996-0.18707l-7.1091-9.6351s-2.8417-4.3146-6.5908-4.2225zm-15.359 20.022c-0.2955 0.0192-0.57723 0.18464-0.8754 0.57051-1.5903 2.058-2.0277 3.7354-2.9936 7.2967-1.1957 4.4087-6.4448 5.0786-8.2315 4.4902-2.1063-0.6937-3.5549-0.46783-7.9515 1.0289-4.3966 1.4967-3.5548 2.3384-3.5548 2.3384l0.56121 5.7066s3.4616-3.8e-4 5.426-1.2165c1.9644-1.2161 7.1094-1.8705 9.6351 1.2165 2.5257 3.087 4.7705 5.9866 7.5768 6.6415 1.3771 0.32131 4.5993 0.46101 7.5262 0.52141v-26.624c-0.0139 2e-3 -0.0286 2e-3 -0.0424 4e-3 -4.2563 0.60804-5.7956-2.0572-7.0761-1.974zm8.0801 1.8893c-0.32691 0.01-0.64678 0.038-0.96066 0.0811v26.624c3.0373 0.0627 5.7562 0.0398 5.7562 0.0398s6.3607-0.18704 7.3897-5.2384c1.029-5.0514 5.2388-5.0514 6.3614-4.5837 1.1225 0.46771 4.3028 0.37426 7.3897-0.84181 3.087-1.2161 8.6062-2.6195 8.6062-2.6195l-6.9221-9.2609s-6.4549 2.6197-11.413 0.93586c-4.4718-1.5187-11.083-5.2876-16.208-5.1361zm48.698 2.0397-0.87229 5.0607s6.6417 5.4255 9.448 10.009c2.8063 4.5837 5.4209 7.9433 10.29 7.7644 1.252-0.046 2.2181-0.45861 2.974-1.0129zm-101.05 1.7281-30.138 30.114 1.927 1.2599s4.7625 1.1906 6.6146-3.3073 5.5563-8.3344 9.525-9.7896 11.509-6.8792 11.112-11.642c-0.18326-2.1991 0.34368-4.6323 0.9586-6.6358zm31.856 21.752c-1.3576-0.044-2.6156 1.0088-2.6799 1.9735-0.09354 1.4032-3.2742 2.8066-3.929 2.8066s-3.9667 0.48842-2.9884 4.5997c0.9061 3.8079 5.1677 5.7721 4.579 7.4672-0.53592 1.5433-5.5194 3.3679-6.7355 2.3389-1.2161-1.029-5.893-2.339-7.2962-1.6841-1.4032 0.65481-6.0808-0.56121-6.0808-0.56121l-1.1224 10.383s4.2099-0.74816 6.3614 3.0872c2.1515 3.8353 4.3028 5.4256 7.1091 4.0225 2.8063-1.4032 6.8289-6.7355 8.4191-7.1096 1.5903-0.37418 4.5835-1.5899 6.3609 1.2165 0.67613 0.43318 6.8399-13.194 7.7644-16.371 0 0-5.1453 0.5616-6.0808-3.1802-0.93544-3.7418-0.09334-6.2676-1.8707-8.1385-0.55542-0.58466-1.1931-0.83113-1.8102-0.85111zm96.72 4.0251c-2.3939 0.36515-5.46 1.4795-8.1003 4.4969-5.2385 5.9868-4.3032 11.038-3.3678 13.002 0.93545 1.9644 3.0175 3.8478 6.0808 0.46768 2.7128-2.9934 6.0802-4.303 11.319-5.4255 1.3945-0.29884 4.1247-0.26163 6.4626-0.15762zm-23.788 1.8402c-1.6854-0.0137-2.928 0.97255-2.928 0.97255s-12.535 2.9-13.283 2.8066c-0.74835-0.0935-5.519 0.74825-6.1738 1.0289-0.65481 0.28059-4.7705 0.84187-7.0156 0.18707-2.2451-0.65481-5.3323 0.18699-7.1096 0.93534-1.7773 0.74836-6.1739 0.37416-6.1739 0.37416l5.332 13.283s5.6129 1.4968 7.9515 4.3967 7.4832 1.4029 8.3251 2.1513c0.8419 0.74835 5.5194-1.2161 7.0161-4.5837s3.0871-3.7413 3.3678-4.209 6.3605-1.4035 9.354-1.7777c2.9934-0.37418 6.5484-3.6482 7.0161-5.1449 0.46772-1.4967 0.74808-5.7998-2.3389-8.8868-1.1576-1.1576-2.3281-1.5255-3.3393-1.5338zm-113.72 6.8797c-1.4637-3e-3 -3.0091 0.12712-4.5966 0.44958-4.2229 0.85777-7.0115 3.175-11.377 3.0427-4.3656-0.13229-7.276 0.79374-9.1281 1.9844-1.0375 0.66699-3.7159 0.33401-5.8885-0.0848l-4.6395 4.6359c0.54126 1.3562 1.1738 3.6422 0.54002 5.966-0.8935 3.2762-4.6508 3.8284-9.4764 3.2515l0.009302 11.394c1.9376 0.25413 3.6727 0.55098 4.6385 0.89865 3.005 1.0818 9.9399 2.9291 10.29 9.2113l15.13 5.2942c-3.4882-3.8574-7.4713-9.0577-7.6931-13.05-0.39687-7.1437 4.6964-10.12 7.1438-11.112 1.3707-0.5557 9.525-1.7859 10.583-6.6146 0.8421-3.8421 7.0115-5.5562 10.451-1.0583 3.4396 4.4979 5.5562-1.8521 5.5562-1.8521l-0.39688-9.8557s-4.8035-2.4892-11.146-2.5001zm158.47 12.228c0.19772 1.7511 0.57972 4.6048 1.1503 5.9996 0.8419 2.058 2.9934 5.0516 0.37414 7.4838s-5.9865 6.8288-3.2737 9.1674c1.4611 1.2595 3.127 1.7928 4.6101 1.9994l3.8613-1.3513 0.0129-16.57zm-41.509 9.4816c-2.2394 0.0524-4.7564 1.546-5.9841 2.0371-1.4032 0.56126-5.1446 1.3097-7.4833 3.8354-2.3386 2.5257-9.0953 4.8567-15.061 1.0289-2.5993-1.6679-7.2032-2.3384-7.2032-2.3384s5.6129 15.154 7.7644 14.499c2.1515-0.65481 5.3317 1.684 7.9509 3.2742 2.6192 1.5902 8.6282 2.1665 11.6 1.0289 1.7548-0.67177 2.1514-1.9646 1.403-3.1807-0.74834-1.2161-9e-5 -1.9646 0.93535-3.4613 0.93545-1.4967 3.0872-0.5612 3.0872-0.5612s1.4896 0.88914 4.116-1.3095c1.6864-1.4118 5.6709-1.337 9.4816 0.0434 3.4341 1.244 8.8696 5.172 12.282 7.7887l14.602-5.1098c-6.447-6.7466-13.792-7.9808-17.283-8.4284-3.6482-0.46772-6.6416-1.3097-9.8221-4.2096-3.5206-3.21-7.0159-4.3966-9.448-4.8643-0.30402-0.0585-0.61853-0.0804-0.93845-0.0729zm-57.064 5.6544c-1.4016-0.0286-2.9069 0.60425-4.7661 2.1828-4.9578 4.2095-5.7999 5.5191-8.3256 4.8643-1.5179-0.39353-5.7996-1.2163-6.1738-2.9001-0.37418-1.6838-8.6062 14.593-8.6062 14.593s11.884 2.333 15.996-0.0935c4.3395-2.561 7.3862-5.7604 12.297-5.2586v-13.346c-0.14011-0.0162-0.2792-0.0385-0.42117-0.0413zm0.4222 0.0413v13.346c1.5463 0.15816 3.2726 0.6734 5.2886 1.7038 8.419 4.303 15.528 5.5191 16.744 5.4255 1.2161-0.0935-6.4544-15.341-6.4544-15.341s-3.929 3.087-8.6997-0.84181c-2.7394-2.256-4.7139-4.0425-6.8786-4.2928zm-41.885 0.37207c-1.0464 0.0167-2.2159 0.43721-3.4344 1.5823-4.1352 3.8862-5.7081 7.2925-4.3966 10.009 1.3096 2.7128 3.2742 2.8064 3.6484 4.6772 0.37418 1.8709 5.7997 5.0512 9.8221 2.2448 4.0224-2.8063 8.2321-7.0156 8.2321-7.0156l4.3031-10.758s-5.987 5.0514-8.6062 4.3966c-2.6192-0.65481-4.7707-2.1512-5.2384-2.806-0.32156-0.45018-2.0279-2.3673-4.33-2.3306zm75.446 19.378c-0.83459-4e-3 -1.7058 0.16481-2.5476 0.53898-3.3676 1.4967 2.713 7.6708 2.713 7.6708s4.6772-1.2161 4.5837-4.3031c-0.0701-2.3152-2.2453-3.8936-4.7491-3.9067zm-15.074 5.9159c-2.3902 0.073-5.1329 1.2068-8.0538 4.4452-4.303 4.7708-4.0223 6.5484-5.7061 7.2967-1.0132 0.45029-2.6379 2.158-4.7268-0.0419v9.8966c0.85904 0.0818 1.5995 6e-3 2.0138-0.31316 1.2161-0.93544 2.9936-2.5259 2.9936-2.5259s3.3675-1.3096 5.8932-0.0935c2.5257 1.2161 7.2966-0.56115 7.8579-1.0289 0.56126-0.46772 2.3611-1.8485 3.0866-4.9578 0.65482-2.8063 2.3388-4.3966 2.9001-5.1449 0.56126-0.74835 1.6839-4.5835-1.403-6.2673-1.3505-0.73667-2.9965-1.3218-4.8555-1.265zm-29.187 1.5648c-0.46571-0.0453-0.90849 4e-3 -1.3177 0.16795-3.274 1.3096-7.1084 0.47551-5.0514 7.2962 1.7773 5.8933 3.5546 4.7712 5.4255 5.7066 1.8709 0.93544 4.584 3.2741 6.5484 4.8643 1.2946 1.0481 3.431 1.838 5.0932 1.9968v-9.8981c-0.40303-0.4248-0.82164-0.97947-1.2583-1.7338-1.8007-3.1104-6.1798-8.0828-9.4397-8.4zm26.133 23.029c-3.1361 0.13597-4.6087 3.2904-8.1809 5.9505-3.2433 2.4152-4.9718 2.8453-7.2523 1.8862v9.033l20.317-15.042c-0.64125-0.5575-1.4245-1.0529-2.4004-1.3963-0.94714-0.33325-1.7594-0.46287-2.4831-0.43149zm-15.433 16.87-1e-3 1e-3 1e-3 5.2e-4zm-1e-3 1e-3 -1e-3 -1e-3v2e-3zm-1e-3 -1e-3v-9.0336c-1.8284-0.76958-4.0112-2.4303-7.6192-4.6922-0.881-0.55231-4.0824-0.56219-5.519 0-1.0542 0.4125-1.7903 1.4086-2.2707 2.3177z" fill="#515846" stop-color="#000000"/>
 <path id="cockpit" class="UnoptimicedTransforms" transform="matrix(.37803 0 0 .37803 -.060993 -.31099)" d="m277.99 350.27c-0.51745 0-3.4542 0.87892-7.5322 6.7175-3.2692 4.6805-7.4526 13.794-11.95 26.442h38.816c-4.4727-12.576-8.6383-21.672-11.893-26.371-4.0637-5.8672-7.0352-6.7886-7.4406-6.7886zm-20.449 35.805c-0.79563 2.3324-1.5008 3.6776-2.3198 6.3238-5.9152 19.111-6.405 31.823-5.0743 39.918 1.3307 8.0953 4.6098 11.631 5.7455 12.354 0.34443 0.21919 2.173 0.72949 4.3867 1.002 2.2137 0.2725 4.9105 0.4473 7.5117 0.55364 5.2023 0.21269 10.061 0.16052 10.112 0.15994h0.01503 0.01641c0.05835 5.3e-4 4.9036 0.05275 10.105-0.15994 2.6006-0.10629 5.2998-0.28114 7.5131-0.55364 2.2133-0.27249 4.0422-0.78271 4.3867-1.002 1.1357-0.72278 4.4149-4.2583 5.7455-12.354 1.3307-8.0953 0.84086-20.807-5.0743-39.918-0.81754-2.6413-1.5198-3.9947-2.3144-6.3238h-40.755z" fill="#000000" style="-inkscape-stroke:none"/>
 <circle id="raidar" cx="105" cy="105" r="21.291" fill="#9ea3a7" stop-color="#000000" stroke-width=".41976" style="-inkscape-stroke:none"/>
 <g id="guide" transform="translate(.10164 1.0558e-5)" fill="none" opacity=".5" stroke="#000000" stroke-dasharray="1.5, 0.25" stroke-width=".25">
  <path class="UnoptimicedTransforms" d="m182.5 10.59 12.501 4.4135 14.899-14.902-16.101 1.4e-7zm-155.2 0-12.501 4.4135-14.899-14.902 16.101 1.4e-7z" opacity="1" stop-color="#000000"/>
  <path class="UnoptimicedTransforms" d="m162.14 243.07-6.1153-87.089m-108.37 87.089 6.1153-87.089" opacity="1" stop-color="#000000"/>
  <rect x=".10163" y=".10163" width="209.8" height="296.8" d="M 0.10162964,0.10162964 H 209.89837 V 296.89838 H 0.10162964 Z m 209.79674036,0 H 0.10162969 V 296.89838 H 209.89837 Z" opacity="1" stop-color="#000000"/>
  <path class="UnoptimicedTransforms" d="m209.9 0.10163-104.9 104.9 104.89 104.8-0.013 16.569-47.731 16.703-57.14 42.307m-104.9-285.28 104.9 104.9-104.89 104.8 0.013 16.569 47.731 16.703 57.14 42.307" opacity="1" stop-color="#000000"/>
  <path class="UnoptimicedTransforms" d="m144.81 255.9-39.813-96.479m-39.812 96.479 39.813-96.479" opacity="1" stop-color="#000000"/>
  <path class="UnoptimicedTransforms" d="m142.93 257.48-37.931-69.904m-37.939 69.904 37.931-69.904" opacity="1" stop-color="#000000"/>
 </g>
 <g id="decals">
  <use id="useRoundelL" transform="translate(-.75427 174.16)" xlink:href="#circleRb"/>
  <use id="useGnaL" transform="rotate(112.85 -12.75 130.33)" xlink:href="#gna"/>
  <use id="useGnaR" transform="rotate(246.82 136.75 72.865)" xlink:href="#gna"/>
  <use id="useSquadronMark" transform="rotate(117.25 71.707 119.98)" xlink:href="#devil"/>
  <use id="useFlagL" transform="rotate(120.23 -20.215 150.5)" xlink:href="#g2841"/>
  <use id="useFlagR" transform="rotate(239.89 136.92 96.686)" xlink:href="#g2841"/>
  <use id="useRoundelR" transform="matrix(-1 0 0 1 210.81 174.16)" xlink:href="#circleRb"/>
 </g>
</svg>
