<svg version="1.1" viewBox="0 0 2040 1080" xmlns="http://www.w3.org/2000/svg">
 <path d="m521.8 331.9a540 540 0 0 1 996.8 0h521.4v359.7h-501.4a540 540 0 0 1-1036.8 0h-501.8v-359.7zm1460 299.8v-240h-505.1c25.5 75.5 31.2 166.5 14.7 240.1h490.4zm-1131.7-37.754-111 333.5 283.5-206.5 282 208-110-335.25 282.75-203.75h-347l-110.25-334.75-107 334.75h-346.5l283.5 204zm-301.22 37.754c-16.5-73.5-10.8-164.5 14.7-240.1h-503.2v240.1h488.5zm47.1-80h-576v-80h576v80zm850-80h574.2v80h-574.2v-80z" fill="#757575"/>
</svg>
